<svg id="Appstore" xmlns="http://www.w3.org/2000/svg" xmlns:xlink="http://www.w3.org/1999/xlink" width="85.26" height="29.188" viewBox="0 0 85.26 29.188">
  <defs>
    <clipPath id="clip-path">
      <rect id="_Background" data-name="◼️ Background" width="85.26" height="29.188" rx="6" fill="#1c1c1c"/>
    </clipPath>
  </defs>
  <g id="Group">
    <rect id="_Background-2" data-name="◼️ Background" width="85.26" height="29.188" rx="6" fill="#1c1c1c"/>
    <g id="Group-2" data-name="Group" clip-path="url(#clip-path)">
      <path id="Logo" d="M32.975,17.614V9.529h1.2v1.045H34.2a2.084,2.084,0,0,1,1.928-1.143c1.549,0,2.549,1.231,2.549,3.136s-.992,3.141-2.526,3.141a2.076,2.076,0,0,1-1.9-1.1h-.029v3.008H32.975ZM35.8,10.481c-.95,0-1.588.838-1.588,2.085,0,1.266.623,2.085,1.588,2.085.987,0,1.6-.8,1.6-2.085S36.788,10.481,35.8,10.481Zm-9.765,7.132V9.529h1.2v1.045h.023a2.084,2.084,0,0,1,1.928-1.143c1.549,0,2.55,1.231,2.55,3.136s-.992,3.141-2.527,3.141a2.076,2.076,0,0,1-1.9-1.1H27.28v3.008H26.036Zm2.826-7.132c-.95,0-1.588.838-1.588,2.085,0,1.266.623,2.085,1.588,2.085.987,0,1.6-.8,1.6-2.085S29.848,10.481,28.861,10.481ZM4.126,15.944H4.111c-1.043,0-1.854-1.165-2.446-2.015A10.177,10.177,0,0,1,.13,10.085a6.323,6.323,0,0,1,.54-4.2,3.875,3.875,0,0,1,3.263-2h.045a4.355,4.355,0,0,1,1.6.414h0a2.959,2.959,0,0,0,.983.285,2.966,2.966,0,0,0,.95-.282h.007a5.072,5.072,0,0,1,1.826-.465A1.819,1.819,0,0,1,9.6,3.85a3.692,3.692,0,0,1,2.912,1.58h0A3.645,3.645,0,0,0,10.8,8.479a3.5,3.5,0,0,0,2.129,3.22h0a8.139,8.139,0,0,1-1.108,2.261c-.706,1.06-1.376,1.939-2.423,1.954H9.337a2.746,2.746,0,0,1-1.168-.292A3.214,3.214,0,0,0,6.776,15.3a3.348,3.348,0,0,0-1.464.342h0a3.045,3.045,0,0,1-1.145.3H4.126Zm41.4-.2a3.626,3.626,0,0,1-2.243-.665,2.361,2.361,0,0,1-.923-1.8h1.272c.091.819.889,1.369,1.986,1.369,1.044,0,1.8-.542,1.8-1.288,0-.646-.458-1.035-1.531-1.3l-1.076-.26c-1.523-.369-2.233-1.083-2.233-2.246,0-1.428,1.242-2.425,3.022-2.425,1.753,0,2.958.975,3,2.425H47.349c-.074-.823-.749-1.334-1.761-1.334-.993,0-1.686.513-1.686,1.247,0,.587.437.935,1.508,1.2l.915.225a3.944,3.944,0,0,1,1.844.85,1.914,1.914,0,0,1,.567,1.46c0,1.569-1.228,2.541-3.206,2.541Zm21.859-.023c-1.761,0-2.855-1.2-2.855-3.124a3.429,3.429,0,0,1,.76-2.3,2.624,2.624,0,0,1,2.042-.873,2.585,2.585,0,0,1,1.994.825,3.245,3.245,0,0,1,.734,2.207v.428H65.789v.075a1.589,1.589,0,0,0,1.629,1.756,1.371,1.371,0,0,0,1.4-.889H70a2.1,2.1,0,0,1-.848,1.366,2.936,2.936,0,0,1-1.763.527Zm-.052-5.3A1.571,1.571,0,0,0,65.791,12h3.027a1.486,1.486,0,0,0-1.481-1.579Zm-10.794,5.3a2.746,2.746,0,0,1-2.085-.842,3.334,3.334,0,0,1-.786-2.311,3.32,3.32,0,0,1,.789-2.306,3,3,0,0,1,4.167,0,3.32,3.32,0,0,1,.789,2.306,3.334,3.334,0,0,1-.786,2.311,2.748,2.748,0,0,1-2.084.84Zm0-5.272c-.99,0-1.606.812-1.606,2.119s.615,2.125,1.606,2.125c1.006,0,1.606-.794,1.606-2.125,0-1.309-.611-2.121-1.6-2.121Zm-4.453,5.2c-1.226,0-1.7-.46-1.7-1.64V10.516h-.88V9.529h.88V8.09h1.249V9.529h1.151v.988H51.635v3.349c0,.527.227.762.737.762a2.709,2.709,0,0,0,.409-.029v.988a3.452,3.452,0,0,1-.691.057ZM18.941,15.6H17.6l3-8.333h1.392l3,8.333H23.626l-.76-2.252H19.7L18.94,15.6Zm2.325-6.948-1.237,3.655h2.509L21.3,8.657ZM61.9,15.6H60.657V9.529h1.185v1.034h.029a1.463,1.463,0,0,1,1.456-1.132,2.243,2.243,0,0,1,.425.046v1.16a1.79,1.79,0,0,0-.558-.069,1.252,1.252,0,0,0-1.3,1.4V15.6ZM63.074,4.958A1.425,1.425,0,0,1,61.63,3.343a1.789,1.789,0,0,1,.385-1.186A1.318,1.318,0,0,1,63.05,1.7c.844,0,1.369.6,1.369,1.57v.2H62.17V3.5a.9.9,0,0,0,.917,1,.754.754,0,0,0,.778-.5h.515a1.239,1.239,0,0,1-1.306.958Zm-.033-2.8a.887.887,0,0,0-.868.9h1.7a.838.838,0,0,0-.832-.9ZM49.07,4.958A1.45,1.45,0,0,1,47.617,3.33a1.461,1.461,0,1,1,2.9,0A1.448,1.448,0,0,1,49.07,4.958Zm0-2.792c-.567,0-.919.446-.919,1.164s.352,1.164.919,1.164.916-.446.916-1.164-.35-1.164-.916-1.164ZM43.862,4.958c-.8,0-1.341-.654-1.341-1.627S43.055,1.7,43.85,1.7a1.107,1.107,0,0,1,1,.566h.012V.538h.524V4.9h-.5V4.371h-.009a1.126,1.126,0,0,1-1.015.587Zm.1-2.792c-.549,0-.9.457-.9,1.164s.346,1.164.9,1.164.9-.468.9-1.164-.362-1.164-.9-1.164ZM40.286,4.958a.944.944,0,0,1-1.043-.944c0-.542.414-.877,1.137-.919l.9-.052V2.78c0-.384-.257-.614-.687-.614a.66.66,0,0,0-.724.5h-.506A1.11,1.11,0,0,1,40.6,1.7a1.327,1.327,0,0,1,.876.278.95.95,0,0,1,.324.748V4.9h-.5V4.362h-.012a1.138,1.138,0,0,1-1,.6Zm.992-1.506h0L40.44,3.5c-.422.027-.664.213-.664.511s.252.5.627.5a.822.822,0,0,0,.874-.8v-.26ZM37.187,4.958A1.45,1.45,0,0,1,35.733,3.33a1.461,1.461,0,1,1,2.9,0,1.448,1.448,0,0,1-1.446,1.628Zm0-2.792c-.567,0-.919.446-.919,1.164s.352,1.164.919,1.164.916-.446.916-1.164-.351-1.164-.916-1.164ZM24.157,4.958A1.45,1.45,0,0,1,22.7,3.33a1.461,1.461,0,1,1,2.9,0,1.448,1.448,0,0,1-1.443,1.628Zm0-2.792c-.567,0-.92.446-.92,1.164s.352,1.164.92,1.164.916-.446.916-1.164-.351-1.164-.916-1.164Zm33,2.761c-.575,0-.8-.236-.8-.841V2.19H55.89V1.757h.467V1h.525v.759h.609V2.19h-.609V4.06c0,.288.12.417.389.417.054,0,.175-.009.217-.015V4.9a1.928,1.928,0,0,1-.331.027ZM58.8,4.9h-.525V.538H58.8V2.26h.012a1.042,1.042,0,0,1,.995-.557,1.055,1.055,0,0,1,1.1,1.168V4.9h-.524V2.967c0-.515-.263-.8-.742-.8a.819.819,0,0,0-.844.9V4.9Zm-7.023,0h-.525V1.757h.494v.5h.012a1.054,1.054,0,0,1,.995-.557A1.032,1.032,0,0,1,53.84,2.862V4.9h-.525V2.955c0-.515-.249-.787-.72-.787a.8.8,0,0,0-.817.883V4.9Zm-20.291,0h-.525V1.757h.494v.5h.012a1.054,1.054,0,0,1,.995-.557,1.032,1.032,0,0,1,1.085,1.159V4.9h-.525V2.955c0-.515-.249-.787-.72-.787a.8.8,0,0,0-.817.883V4.9Zm-3.992,0H26.96l-.877-3.146H26.6l.627,2.559h.012l.709-2.559h.506l.711,2.559h.012L29.8,1.754h.519L29.454,4.9H28.92l-.709-2.435H28.2L27.5,4.9Zm7.478,0h-.524V.538h.524Zm-14.965,0H18.546V.538h1.462a2.008,2.008,0,0,1,1.51.576,2.29,2.29,0,0,1,.543,1.606,2.3,2.3,0,0,1-.542,1.608,2.008,2.008,0,0,1-1.511.572Zm-.919-3.875V4.413h.883c.989,0,1.534-.6,1.534-1.688s-.545-1.7-1.534-1.7ZM6.6,3.682a1.534,1.534,0,0,1-.156-.006,3.411,3.411,0,0,1,.835-2.461A3.615,3.615,0,0,1,9.618,0,3.556,3.556,0,0,1,8.8,2.555,3.032,3.032,0,0,1,6.6,3.682Z" transform="translate(7.523 6.039)" fill="#fff"/>
    </g>
  </g>
</svg>
