<svg id="Google_Play" data-name="Google Play" xmlns="http://www.w3.org/2000/svg" xmlns:xlink="http://www.w3.org/1999/xlink" width="86" height="29" viewBox="0 0 86 29">
  <defs>
    <clipPath id="clip-path">
      <rect id="_Background" data-name="◼️ Background" width="86" height="29" rx="6" transform="translate(0 0.382)" fill="#1c1c1c"/>
    </clipPath>
  </defs>
  <g id="Group" transform="translate(0 -0.382)">
    <rect id="_Background-2" data-name="◼️ Background" width="86" height="29" rx="6" transform="translate(0 0.382)" fill="#1c1c1c"/>
    <g id="Group-2" data-name="Group" clip-path="url(#clip-path)">
      <path id="Logo" d="M67.589,17.224h-1.3L67.526,14.4,65.314,9.346h1.3l1.561,3.565,1.561-3.565h1.3l-3.451,7.878h0Zm-31.857-1.6,1.04-.436a1.5,1.5,0,0,0,1.385.967,1.356,1.356,0,0,0,1.422-1.5V14.12a1.794,1.794,0,0,1-1.484.66,2.551,2.551,0,0,1-1.754-.746,2.728,2.728,0,0,1-.818-1.971,2.8,2.8,0,0,1,.753-1.894,2.513,2.513,0,0,1,1.844-.818,1.91,1.91,0,0,1,1.459.623v-.46h1.134v4.878a2.984,2.984,0,0,1-.732,2.134,2.462,2.462,0,0,1-1.816.7,2.619,2.619,0,0,1-2.433-1.6Zm.981-3.545a1.487,1.487,0,1,0,2.958-.01,1.54,1.54,0,0,0-1.445-1.654,1.556,1.556,0,0,0-1.512,1.666ZM6.683,10.936l1.767,1.77L1,16.8a1.252,1.252,0,0,1-.163.076ZM.055,16.2C.052,15.588,0,5.931,0,5.206a.71.71,0,0,1,.3-.664l6.127,6.139L.33,16.874A.774.774,0,0,1,.055,16.2Zm16-2.726a4.144,4.144,0,0,1,.034-5.847,4.193,4.193,0,0,1,3.018-1.286,4.107,4.107,0,0,1,2.908,1.15l-.8.833a2.956,2.956,0,0,0-2.064-.831,3.021,3.021,0,0,0-3.027,3.08,3.01,3.01,0,0,0,3.023,3.061,2.53,2.53,0,0,0,2.734-2.3h-2.74V10.182H23a3.608,3.608,0,0,1,.069.76,3.765,3.765,0,0,1-1.106,2.778,3.967,3.967,0,0,1-2.8,1.061,4.258,4.258,0,0,1-3.106-1.31Zm28.228.59a2.683,2.683,0,0,1-.813-2A2.565,2.565,0,0,1,46,9.346a2.305,2.305,0,0,1,1.4.471,2.637,2.637,0,0,1,.851,1.12l.188.443-3.633,1.51a1.4,1.4,0,0,0,1.327.823,1.5,1.5,0,0,0,1.325-.747l.935.625a2.725,2.725,0,0,1-2.266,1.191,2.656,2.656,0,0,1-1.841-.721Zm.7-3.149a1.382,1.382,0,0,0-.361,1.074l2.422-1.016a1.075,1.075,0,0,0-1-.58,1.452,1.452,0,0,0-1.061.519ZM30.3,13.962a2.752,2.752,0,0,1-.755-1.92,2.677,2.677,0,0,1,2.72-2.692,2.819,2.819,0,0,1,1.846.688,2.617,2.617,0,0,1,.869,2.036,2.731,2.731,0,0,1-4.68,1.888Zm.432-1.9a1.537,1.537,0,1,0,3.066.008,1.537,1.537,0,1,0-3.066-.008Zm-6.412,1.9a2.752,2.752,0,0,1-.755-1.92,2.677,2.677,0,0,1,2.72-2.692,2.819,2.819,0,0,1,1.846.688A2.616,2.616,0,0,1,29,12.074a2.731,2.731,0,0,1-4.68,1.888Zm.432-1.9a1.537,1.537,0,1,0,3.066.008,1.537,1.537,0,1,0-3.066-.008ZM60.4,14.192a2,2,0,0,1-.408-1.543,1.923,1.923,0,0,1,1.827-1.634c.105-.01.216-.016.329-.016a5.887,5.887,0,0,1,1.5.229,1.337,1.337,0,0,0-1.42-1.145,1.563,1.563,0,0,0-1.383.777l-.959-.646a2.822,2.822,0,0,1,2.369-1.242,2.693,2.693,0,0,1,1.972.811,2.549,2.549,0,0,1,.642,1.958V14.62h-1.2v-.646a2.038,2.038,0,0,1-1.036.7,2.84,2.84,0,0,1-.752.1,1.984,1.984,0,0,1-1.481-.582Zm.832-1.337a.8.8,0,0,0,.819.817,1.169,1.169,0,0,0,.3-.043,1.8,1.8,0,0,0,1.319-1.322,5.06,5.06,0,0,0-.992-.238,2.484,2.484,0,0,0-.368-.029c-.786,0-1.074.439-1.081.815ZM58.791,14.62H57.6v-8h1.192v8h0Zm-6.319,0H51.281v-8h2.883a2.55,2.55,0,0,1,0,5.1H52.473v2.9h0Zm0-4.1h1.691a1.353,1.353,0,1,0,0-2.707h-1.69Zm-9.658,4.1H41.623v-8h1.192v8h0ZM6.937,10.679,8.778,8.81l2.535,1.39c.625.341.305.769,0,.937L8.78,12.526Zm-6.2-6.21A.753.753,0,0,1,1,4.55L8.45,8.629l-1.769,1.8Zm14.37-2.551A1.95,1.95,0,0,1,17.038,0a1.872,1.872,0,0,1,1.324.523L18,.9a1.372,1.372,0,0,0-2.317,1.024,1.37,1.37,0,0,0,1.372,1.4A1.151,1.151,0,0,0,18.3,2.273H17.053V1.75H18.81a1.629,1.629,0,0,1,.032.347,1.686,1.686,0,0,1-1.777,1.747,1.946,1.946,0,0,1-1.957-1.927Zm16.12,1.32a1.925,1.925,0,1,1,2.112.47,1.927,1.927,0,0,1-2.112-.47Zm.038-1.311a1.359,1.359,0,1,0,2.717,0,1.359,1.359,0,1,0-2.717,0ZM37.38,3.769,35.638,1.117V3.769H35.1V.128h.543l1.741,2.651V.128h.542V3.769Zm-8.972,0h-.542V.672h-.89V.128H29.3V.672h-.89v3.1h0Zm-1.874,0h-.542V.128h.542Zm-3.037,0h-.542V.672h-.89V.128h2.323V.672H23.5v3.1h0Zm-2,0H19.414V.128h2.08V.672H19.956v1h1.352V2.22H19.956v1h1.538v.543h0Z" transform="translate(7.573 6.079)" fill="#fff"/>
    </g>
  </g>
</svg>
