<svg xmlns="http://www.w3.org/2000/svg" width="125.164" height="40.363" viewBox="0 0 125.164 40.363">
  <g id="Group_16207" data-name="Group 16207" transform="translate(-108.58 -293.683)">
    <path id="Path_44729" data-name="Path 44729" d="M302.575,427.45a2.049,2.049,0,0,0-2.557,2.052v11.691c0,3.807-6.113,4.007-6.113-.068V429.366a2.1,2.1,0,0,0-4.208,0v11.821c0,3.763-6.111,4.1-6.111-.12V429.58a2.1,2.1,0,1,0-4.208,0v12.186a5.846,5.846,0,0,0,5.834,5.86H298.4a5.85,5.85,0,0,0,5.84-5.86V429.344a1.918,1.918,0,0,0-1.665-1.894Z" transform="translate(-136.579 -123.733)" fill="#04043f" fill-rule="evenodd"/>
    <path id="Path_44730" data-name="Path 44730" d="M426.064,427.64a9.249,9.249,0,0,0-9.235,9.263v8.726a2.092,2.092,0,0,0,2.09,2.1h.09a2.088,2.088,0,0,0,2.084-2.09v-8.575a5.059,5.059,0,0,1,3.857-5.009,4.983,4.983,0,0,1,6.085,4.865v8.73a2.086,2.086,0,0,0,2.084,2.092,2.184,2.184,0,0,0,2.178-2.192V436.9a9.249,9.249,0,0,0-9.233-9.26Z" transform="translate(-246.489 -124.015)" fill="#04043f" fill-rule="evenodd"/>
    <path id="Path_44731" data-name="Path 44731" d="M652.9,435.716a10.072,10.072,0,1,1-2.94-7.146,10.072,10.072,0,0,1,2.94,7.146Zm-10.078-6.257a6.257,6.257,0,1,0,6.237,6.257,6.257,6.257,0,0,0-6.237-6.257Z" transform="translate(-419.156 -122.392)" fill="#04043f" fill-rule="evenodd"/>
    <path id="Path_44732" data-name="Path 44732" d="M281.674,549.088a.357.357,0,0,1-.106-.275v-4.3a.361.361,0,0,1,.106-.275.466.466,0,0,1,.577,0,.355.355,0,0,1,.108.271v1.775h2.7V544.51a.355.355,0,0,1,.108-.271.4.4,0,0,1,.291-.1.425.425,0,0,1,.29.1.355.355,0,0,1,.112.275v4.31a.353.353,0,0,1-.108.275.425.425,0,0,1-.29.1.4.4,0,0,1-.291-.1.355.355,0,0,1-.108-.271v-1.905h-2.7v1.909a.355.355,0,0,1-.108.27.448.448,0,0,1-.577-.006Z" transform="translate(-138.328 -217.171)" fill="#04043f"/>
    <path id="Path_44733" data-name="Path 44733" d="M306.929,554.721a1.018,1.018,0,0,1-.4-.841.976.976,0,0,1,.423-.829,1.913,1.913,0,0,1,1.144-.309,1.677,1.677,0,0,1,1.092.323V552.8a.665.665,0,0,0-.22-.537.978.978,0,0,0-.647-.186,1.954,1.954,0,0,0-1.036.267.53.53,0,0,1-.266.086.313.313,0,0,1-.23-.112.27.27,0,0,1-.07-.184.307.307,0,0,1,.148-.266,1.931,1.931,0,0,1,.635-.3,2.968,2.968,0,0,1,.8-.108,1.934,1.934,0,0,1,1.238.359,1.2,1.2,0,0,1,.447.99v1.881a.331.331,0,0,1-.1.256.419.419,0,0,1-.287.094.4.4,0,0,1-.284-.092.325.325,0,0,1-.1-.252v-.124a1.536,1.536,0,0,1-1.224.477,1.669,1.669,0,0,1-1.063-.328Zm1.988-.417a.483.483,0,0,0,.279-.433.467.467,0,0,0-.273-.421,1.535,1.535,0,0,0-.749-.154,1.138,1.138,0,0,0-.639.154.523.523,0,0,0,0,.859,1.1,1.1,0,0,0,.633.152,1.551,1.551,0,0,0,.748-.161Z" transform="translate(-158.287 -223.022)" fill="#04043f"/>
    <path id="Path_44734" data-name="Path 44734" d="M327.52,556.977a.358.358,0,0,1-.1-.272v-4.871a.363.363,0,0,1,.1-.275.385.385,0,0,1,.283-.1.4.4,0,0,1,.286.1.361.361,0,0,1,.106.271v.244a2.01,2.01,0,0,1,2.749-.14,1.739,1.739,0,0,1,.489,1.306,1.955,1.955,0,0,1-.222.954,1.521,1.521,0,0,1-.637.625,2.049,2.049,0,0,1-.974.218,1.951,1.951,0,0,1-.775-.144,1.8,1.8,0,0,1-.623-.459v2.26a.354.354,0,0,1-.108.27.412.412,0,0,1-.291.1A.384.384,0,0,1,327.52,556.977Zm2.8-2.871a1.156,1.156,0,0,0,.313-.864,1.13,1.13,0,0,0-.309-.845,1.2,1.2,0,0,0-.874-.3,1.332,1.332,0,0,0-.932.307,1.08,1.08,0,0,0-.335.846,1.1,1.1,0,0,0,.343.849,1.309,1.309,0,0,0,.924.317,1.179,1.179,0,0,0,.884-.317Z" transform="translate(-174.991 -223.026)" fill="#04043f"/>
    <path id="Path_44735" data-name="Path 44735" d="M350.777,556.984a.356.356,0,0,1-.1-.272V551.84a.363.363,0,0,1,.1-.274.441.441,0,0,1,.565.008.358.358,0,0,1,.1.27v.244a2.01,2.01,0,0,1,2.749-.14,1.741,1.741,0,0,1,.491,1.306,1.935,1.935,0,0,1-.224.954,1.5,1.5,0,0,1-.637.625,2.039,2.039,0,0,1-.972.218,1.957,1.957,0,0,1-.777-.144,1.8,1.8,0,0,1-.621-.459v2.26a.354.354,0,0,1-.108.27.418.418,0,0,1-.291.1A.4.4,0,0,1,350.777,556.984Zm2.8-2.871a1.162,1.162,0,0,0,.31-.864,1.128,1.128,0,0,0-.306-.846,1.2,1.2,0,0,0-.876-.3,1.326,1.326,0,0,0-.93.307,1.082,1.082,0,0,0-.337.846,1.1,1.1,0,0,0,.343.849,1.312,1.312,0,0,0,.924.317,1.185,1.185,0,0,0,.88-.317Z" transform="translate(-193.59 -223.033)" fill="#04043f"/>
    <path id="Path_44736" data-name="Path 44736" d="M374.229,556.655a1.4,1.4,0,0,1-.625-.433.367.367,0,0,1-.076-.2.343.343,0,0,1,.146-.273.338.338,0,0,1,.2-.064.411.411,0,0,1,.315.162.984.984,0,0,0,.4.258,1.546,1.546,0,0,0,.549.092,1.1,1.1,0,0,0,.832-.3,1.174,1.174,0,0,0,.294-.856v-.359a1.262,1.262,0,0,1-.469.323,1.507,1.507,0,0,1-.587.12,1.857,1.857,0,0,1-1.354-.475,1.755,1.755,0,0,1-.487-1.322v-1.419a.325.325,0,0,1,.112-.248.4.4,0,0,1,.287-.1.386.386,0,0,1,.272.1.319.319,0,0,1,.112.248v1.419a1.264,1.264,0,0,0,.28.873.987.987,0,0,0,.777.313.955.955,0,0,0,.751-.3,1.258,1.258,0,0,0,.268-.862v-1.368a.4.4,0,1,1,.8,0v2.969a1.735,1.735,0,0,1-1.869,1.875,2.628,2.628,0,0,1-.928-.173Z" transform="translate(-211.732 -223.105)" fill="#04043f"/>
    <path id="Path_44737" data-name="Path 44737" d="M405.624,548.947a2.748,2.748,0,0,1-.984-.637.268.268,0,0,1-.09-.2.337.337,0,0,1,.126-.258.277.277,0,0,1,.2-.092.445.445,0,0,1,.3.148,2.15,2.15,0,0,0,.759.473,2.721,2.721,0,0,0,.956.164,1.478,1.478,0,0,0,.8-.182.575.575,0,0,0,.283-.511.6.6,0,0,0-.3-.523,2.99,2.99,0,0,0-1-.355,3.691,3.691,0,0,1-1.511-.6,1.158,1.158,0,0,1-.469-.952,1.036,1.036,0,0,1,.24-.673,1.554,1.554,0,0,1,.679-.457,2.9,2.9,0,0,1,1.012-.162,2.951,2.951,0,0,1,1.156.218,1.591,1.591,0,0,1,.759.6.4.4,0,0,1,.07.218.311.311,0,0,1-.154.26.329.329,0,0,1-.349.012.4.4,0,0,1-.14-.112,1.289,1.289,0,0,0-.557-.4,2.051,2.051,0,0,0-.785-.144,1.721,1.721,0,0,0-.837.164.527.527,0,0,0-.29.481.559.559,0,0,0,.281.481,3.173,3.173,0,0,0,.986.347,4.017,4.017,0,0,1,1.541.625,1.18,1.18,0,0,1,.469.97,1.128,1.128,0,0,1-.234.705,1.493,1.493,0,0,1-.661.471,2.792,2.792,0,0,1-1,.164,3.439,3.439,0,0,1-1.261-.243Z" transform="translate(-236.67 -217.164)" fill="#04043f"/>
    <path id="Path_44738" data-name="Path 44738" d="M429.344,547.7a.356.356,0,0,1-.106-.274v-4.654a.357.357,0,0,1,.106-.273.468.468,0,0,1,.573,0,.355.355,0,0,1,.1.273v2.092a1.655,1.655,0,0,1,1.364-.645,1.367,1.367,0,0,1,1.046.4,1.581,1.581,0,0,1,.381,1.124v1.677a.352.352,0,0,1-.108.274.419.419,0,0,1-.289.1.4.4,0,0,1-.285-.1.363.363,0,0,1-.1-.274v-1.677a.968.968,0,0,0-.2-.667.763.763,0,0,0-.6-.232,1.168,1.168,0,0,0-.882.335,1.244,1.244,0,0,0-.323.9v1.34a.354.354,0,0,1-.108.27.468.468,0,0,1-.571.01Z" transform="translate(-256.411 -215.78)" fill="#04043f"/>
    <path id="Path_44739" data-name="Path 44739" d="M450.6,554.822a1.692,1.692,0,0,1-.711-.635,1.865,1.865,0,0,1,0-1.853,1.691,1.691,0,0,1,.711-.635,2.621,2.621,0,0,1,2.14,0,1.692,1.692,0,0,1,.711.635,1.853,1.853,0,0,1,0,1.853,1.692,1.692,0,0,1-.711.635A2.621,2.621,0,0,1,450.6,554.822Zm1.974-.713a1.242,1.242,0,0,0,0-1.7,1.473,1.473,0,0,0-1.8,0,1.248,1.248,0,0,0,0,1.7,1.473,1.473,0,0,0,1.8,0Z" transform="translate(-272.726 -223.035)" fill="#04043f"/>
    <path id="Path_44740" data-name="Path 44740" d="M473.23,556.977a.359.359,0,0,1-.1-.273v-4.871a.363.363,0,0,1,.1-.274.389.389,0,0,1,.283-.1.4.4,0,0,1,.289.1.359.359,0,0,1,.1.271v.245a1.976,1.976,0,0,1,.637-.467,1.949,1.949,0,0,1,.789-.15,1.819,1.819,0,0,1,1.322.477,1.741,1.741,0,0,1,.491,1.306,1.934,1.934,0,0,1-.224.954,1.508,1.508,0,0,1-.637.625,2.041,2.041,0,0,1-.972.218,1.958,1.958,0,0,1-.777-.144,1.8,1.8,0,0,1-.621-.459v2.26a.357.357,0,0,1-.11.271.413.413,0,0,1-.29.1.388.388,0,0,1-.28-.089Zm2.8-2.871a1.162,1.162,0,0,0,.311-.864,1.122,1.122,0,0,0-.309-.846,1.2,1.2,0,0,0-.874-.3,1.324,1.324,0,0,0-.93.306,1.082,1.082,0,0,0-.337.846,1.1,1.1,0,0,0,.343.85,1.313,1.313,0,0,0,.924.317,1.186,1.186,0,0,0,.88-.317Z" transform="translate(-291.507 -223.026)" fill="#04043f"/>
    <path id="Path_44741" data-name="Path 44741" d="M496.49,556.977a.359.359,0,0,1-.1-.272v-4.871a.363.363,0,0,1,.1-.275.385.385,0,0,1,.283-.1.4.4,0,0,1,.286.1.361.361,0,0,1,.106.271v.244a2.01,2.01,0,0,1,2.749-.14,1.739,1.739,0,0,1,.489,1.306,1.956,1.956,0,0,1-.222.954,1.522,1.522,0,0,1-.637.625,2.049,2.049,0,0,1-.974.218,1.95,1.95,0,0,1-.775-.144,1.816,1.816,0,0,1-.623-.459v2.26a.354.354,0,0,1-.108.27.412.412,0,0,1-.291.1.384.384,0,0,1-.283-.087Zm2.8-2.871a1.156,1.156,0,0,0,.313-.864,1.122,1.122,0,0,0-.309-.845,1.2,1.2,0,0,0-.874-.3,1.332,1.332,0,0,0-.932.307,1.086,1.086,0,0,0-.335.846,1.1,1.1,0,0,0,.343.849,1.308,1.308,0,0,0,.924.317,1.178,1.178,0,0,0,.876-.317Z" transform="translate(-310.106 -223.026)" fill="#04043f"/>
    <path id="Path_44742" data-name="Path 44742" d="M519.794,544.944a.461.461,0,0,1,0-.665.529.529,0,0,1,.367-.13.537.537,0,0,1,.371.13.447.447,0,0,1,0,.665.527.527,0,0,1-.371.13.52.52,0,0,1-.367-.13Zm.084,4.153a.362.362,0,0,1-.1-.274v-2.835a.362.362,0,0,1,.1-.274.389.389,0,0,1,.283-.1.411.411,0,0,1,.291.1.353.353,0,0,1,.11.274v2.835a.353.353,0,0,1-.11.274.42.42,0,0,1-.291.1.4.4,0,0,1-.282-.1Z" transform="translate(-328.71 -217.18)" fill="#04043f"/>
    <path id="Path_44743" data-name="Path 44743" d="M528.652,554.944a.357.357,0,0,1-.1-.274v-2.835a.363.363,0,0,1,.1-.275.372.372,0,0,1,.276-.1.388.388,0,0,1,.282.1.363.363,0,0,1,.1.275v.272a1.685,1.685,0,0,1,1.384-.645,1.366,1.366,0,0,1,1.046.4,1.581,1.581,0,0,1,.381,1.124v1.677a.353.353,0,0,1-.108.274.42.42,0,0,1-.291.1.4.4,0,0,1-.282-.1.362.362,0,0,1-.1-.274v-1.677a.958.958,0,0,0-.21-.667.758.758,0,0,0-.6-.232,1.166,1.166,0,0,0-.882.335,1.244,1.244,0,0,0-.323.9v1.34a.355.355,0,0,1-.108.27.4.4,0,0,1-.282.1.412.412,0,0,1-.283-.088Z" transform="translate(-335.823 -223.026)" fill="#04043f"/>
    <path id="Path_44744" data-name="Path 44744" d="M550.519,556.642a1.629,1.629,0,0,1-.691-.437.3.3,0,0,1-.084-.2.363.363,0,0,1,.343-.337.5.5,0,0,1,.335.168,1.157,1.157,0,0,0,.435.265,1.758,1.758,0,0,0,.587.094,1.222,1.222,0,0,0,.918-.331,1.252,1.252,0,0,0,.315-.926v-.4a1.713,1.713,0,0,1-1.4.6,1.845,1.845,0,0,1-1.35-.477,1.752,1.752,0,0,1-.483-1.306,1.776,1.776,0,0,1,.493-1.322,1.883,1.883,0,0,1,1.388-.489,1.749,1.749,0,0,1,.743.162,1.881,1.881,0,0,1,.615.455v-.245a.356.356,0,0,1,.108-.271.4.4,0,0,1,.283-.1.388.388,0,0,1,.28.1.356.356,0,0,1,.1.274v3.025a1.954,1.954,0,0,1-.236.972,1.642,1.642,0,0,1-.683.659,2.19,2.19,0,0,1-1.038.236A2.955,2.955,0,0,1,550.519,556.642Zm1.8-2.458a1.07,1.07,0,0,0,.349-.856,1.12,1.12,0,0,0-.329-.849,1.268,1.268,0,0,0-.916-.317,1.2,1.2,0,0,0-.882.31,1.158,1.158,0,0,0-.315.869,1.124,1.124,0,0,0,.307.842,1.2,1.2,0,0,0,.875.3,1.34,1.34,0,0,0,.906-.306Z" transform="translate(-352.527 -223.092)" fill="#04043f"/>
    <path id="Path_44745" data-name="Path 44745" d="M655.9,532.753a2.188,2.188,0,0,1,2.26,2.106v.1a1.912,1.912,0,0,0-1.02-2.547,2.186,2.186,0,0,0-2.819.92h.02a2.338,2.338,0,0,1,1.559-.579Z" transform="translate(-436.396 -207.638)" fill="#ff002a" fill-rule="evenodd"/>
    <path id="Path_44746" data-name="Path 44746" d="M601.643,538.366a.385.385,0,0,1,.4.4,7.1,7.1,0,0,1-.705,2.7,6.742,6.742,0,0,1-.353.639,6.154,6.154,0,0,1-.375.557c-.054.07-.108.142-.166.212l-.116.142a7.65,7.65,0,0,1-.647.677,8.363,8.363,0,0,1-5.714,2.2,8.613,8.613,0,0,1-2.591-.4l-.369-.128a8.132,8.132,0,0,1-2.757-1.673,8.219,8.219,0,0,1-.645-.677c-.118-.142-.234-.289-.345-.439-.036-.05-.074-.1-.108-.15a7.524,7.524,0,0,1-.713-1.3,7.1,7.1,0,0,1-.551-2.364.389.389,0,0,1,.4-.4h0a.4.4,0,0,1,.4.329c.309,2.4,3.959,4.336,6.718,4.578.2.014.385.024.565.024a6.876,6.876,0,0,0,.848-.056c2.711-.345,6.127-2.226,6.429-4.552a.389.389,0,0,1,.4-.329Z" transform="translate(-381.676 -212.55)" fill="#ff002a" fill-rule="evenodd"/>
    <path id="Path_44747" data-name="Path 44747" d="M580.51,532.753a2.188,2.188,0,0,0-2.26,2.106v.1a1.912,1.912,0,0,1,1.022-2.547,2.184,2.184,0,0,1,2.817.92h-.02a2.338,2.338,0,0,0-1.559-.579Z" transform="translate(-375.435 -207.638)" fill="#ff002a" fill-rule="evenodd"/>
    <path id="Path_44748" data-name="Path 44748" d="M539.1,379.687v26.141a1.916,1.916,0,0,1-.633,1.421c-.034.03-.07.058-.106.086a1.713,1.713,0,0,1-.154.114,2.1,2.1,0,0,1-3.3-1.6,9.964,9.964,0,0,1-5.874,1.917,10.106,10.106,0,1,1,0-20.212,9.97,9.97,0,0,1,5.857,1.9v-9.765a2.107,2.107,0,0,1,4.21,0ZM529.026,391.4a6.257,6.257,0,1,0,6.237,6.257,6.257,6.257,0,0,0-6.237-6.257Z" transform="translate(-328.125 -83.99)" fill="#04043f" fill-rule="evenodd"/>
    <rect id="Rectangle_5055" data-name="Rectangle 5055" width="29.351" height="33.141" transform="translate(108.58 300.902)" fill="#ff002a"/>
    <path id="Path_44749" data-name="Path 44749" d="M130.134,516.378a2.146,2.146,0,0,1-.617-1.633V508.2a2.124,2.124,0,0,1,.6-1.6,2.29,2.29,0,0,1,1.655-.577h2.186a6.458,6.458,0,0,1,3.023.663,4.673,4.673,0,0,1,1.96,1.9,6.57,6.57,0,0,1,0,5.834,4.574,4.574,0,0,1-1.96,1.883,6.585,6.585,0,0,1-3.031.655h-2.09A2.37,2.37,0,0,1,130.134,516.378Zm3.663-.8a4.033,4.033,0,0,0,3.005-1.022,4.175,4.175,0,0,0,1-3.039,4.22,4.22,0,0,0-1.016-3.053,3.961,3.961,0,0,0-3.005-1.038h-1.767a.657.657,0,0,0-.531.218.874.874,0,0,0-.188.6v6.53a.873.873,0,0,0,.188.6.657.657,0,0,0,.531.2Z" transform="translate(-16.739 -186.69)" fill="#fff"/>
    <path id="Path_44750" data-name="Path 44750" d="M138.406,444.11a.569.569,0,0,0-.569.567V451.1a3.21,3.21,0,0,1-.3,1.6.943.943,0,0,1-.922.445,1,1,0,0,1-.749-.3,2.561,2.561,0,0,1-.487-1.747v-6.423a.569.569,0,0,0-.569-.567h-.537a.567.567,0,0,0-.567.567V451.1a2.838,2.838,0,0,1-.353,1.541,1.111,1.111,0,0,1-1.819.056,3.291,3.291,0,0,1-.3-1.6V444.68a.567.567,0,0,0-.567-.567H130.1a.567.567,0,0,0-.567.567v6.42a4.7,4.7,0,0,0,.759,2.823,2.514,2.514,0,0,0,2.14,1.06,2.113,2.113,0,0,0,1.322-.487,3.2,3.2,0,0,0,.783-.918,3.145,3.145,0,0,0,.781.928,2.15,2.15,0,0,0,1.348.477,2.5,2.5,0,0,0,2.132-1.062,4.748,4.748,0,0,0,.745-2.821v-6.423a.567.567,0,0,0-.567-.567Z" transform="translate(-16.752 -137.186)" fill="#fff"/>
    <path id="Path_44751" data-name="Path 44751" d="M132.13,418.173a2.525,2.525,0,0,1-2.456-2.589v-.124a2.474,2.474,0,0,0,1.116,3.13,2.25,2.25,0,0,0,3.064-1.13l-.022-.012a2.376,2.376,0,0,1-1.7.725Z" transform="translate(-16.716 -114.276)" fill="#04043f" fill-rule="evenodd"/>
    <path id="Path_44752" data-name="Path 44752" d="M138.446,387.741a.451.451,0,0,1-.433-.489,9.63,9.63,0,0,1,.767-3.318,8.16,8.16,0,0,1,.383-.785c.134-.246.279-.489.433-.721.05-.076.1-.15.154-.224l.128-.174a8.865,8.865,0,0,1,.7-.834,8.553,8.553,0,0,1,6.211-2.715,8.327,8.327,0,0,1,2.8.487l.4.157A8.8,8.8,0,0,1,153,381.189a9.353,9.353,0,0,1,.7.833c.128.174.254.355.375.537l.116.186a9.541,9.541,0,0,1,1.374,4.5.451.451,0,0,1-.433.489h0a.439.439,0,0,1-.425-.4c-.339-2.947-4.306-5.326-7.305-5.626-.21-.018-.417-.03-.613-.03a6.417,6.417,0,0,0-.922.07c-2.955.419-6.672,2.737-7,5.584a.443.443,0,0,1-.427.4Z" transform="translate(-23.535 -84.705)" fill="#04043f" fill-rule="evenodd"/>
    <path id="Path_44753" data-name="Path 44753" d="M214.147,418.173a2.525,2.525,0,0,0,2.456-2.589v-.124a2.474,2.474,0,0,1-1.11,3.13,2.25,2.25,0,0,1-3.063-1.13l.022-.012a2.376,2.376,0,0,0,1.7.725Z" transform="translate(-83.043 -114.276)" fill="#04043f" fill-rule="evenodd"/>
    <path id="Path_44754" data-name="Path 44754" d="M197.5,506.665a2.408,2.408,0,0,0-1.725-.585h-4.422a2.269,2.269,0,0,0-1.655.577,2.124,2.124,0,0,0-.6,1.6V514.8a2.146,2.146,0,0,0,.617,1.633,2.4,2.4,0,0,0,1.727.585h4.426a2.306,2.306,0,0,0,1.657-.579,2.122,2.122,0,0,0,.6-1.6V508.3a2.164,2.164,0,0,0-.625-1.635Zm-1.655,8.571h-4.384a.583.583,0,0,1-.585-.583v-6.211a.583.583,0,0,1,.585-.583h4.384a.583.583,0,0,1,.583.583v6.211a.583.583,0,0,1-.583.581Z" transform="translate(-64.382 -186.739)" fill="#fff"/>
    <path id="Path_44755" data-name="Path 44755" d="M190.878,446.47a.583.583,0,0,1,.585-.583h4.384a.583.583,0,0,1,.583.583v7.76a.617.617,0,0,0,.615.615h.459a.615.615,0,0,0,.615-.615v-7.9a2.146,2.146,0,0,0-.617-1.633,2.4,2.4,0,0,0-1.725-.585h-4.424a2.269,2.269,0,0,0-1.655.577,2.124,2.124,0,0,0-.6,1.6v7.948a.617.617,0,0,0,.615.615h.545a.615.615,0,0,0,.613-.615Z" transform="translate(-64.382 -137.185)" fill="#fff"/>
  </g>
</svg>
