
<svg xmlns="http://www.w3.org/2000/svg" width="30.563" height="10.626" viewBox="0 0 30.563 10.626">
  <g id="svgexport-6_15_" data-name="svgexport-6 (15)" transform="translate(0 -164.399)">
    <path id="Path_46148" data-name="Path 46148" d="M43.2,186.558h1.067l-.533-1.358Z" transform="translate(-40.581 -19.539)" fill="#2fabf7"/>
    <path id="Path_46149" data-name="Path 46149" d="M240.558,187.648a.945.945,0,0,0-.388-.048h-.97v.776h.97a.945.945,0,0,0,.388-.049.378.378,0,0,0,.145-.339.27.27,0,0,0-.145-.34Z" transform="translate(-224.7 -21.794)" fill="#228fe0"/>
    <path id="Path_46150" data-name="Path 46150" d="M26.235,164.4v.582l-.291-.582H23.665v.582l-.291-.582h-3.1a2.953,2.953,0,0,0-1.358.291V164.4H16.73v.291a1.4,1.4,0,0,0-.921-.291H8l-.533,1.212L6.935,164.4H4.461v.582L4.17,164.4H2.085l-.97,2.279L0,169.2H2.473l.291-.776h.679l.291.776H6.547v-.582l.242.582H8.2l.242-.582v.582h6.741v-1.26h.1c.1,0,.1,0,.1.145v1.067h3.492v-.291a2.905,2.905,0,0,0,1.309.291h1.455l.291-.776h.67l.291.776H25.7v-.727l.436.727h2.279V164.4ZM9.844,168.473H9.02v-2.667l-1.164,2.667H7.129l-1.164-2.667v2.667H4.316l-.339-.727H2.328l-.291.776H1.115l1.455-3.443H3.783l1.358,3.249v-3.249H6.45l1.067,2.328.97-2.328H9.844Zm3.3-2.667H11.251v.63h1.843v.679H11.251v.679h1.891v.727H10.426v-3.443h2.716Zm3.637,1.406a1.213,1.213,0,0,1,.145.63v.679H16.1v-.436a1.155,1.155,0,0,0-.145-.679c-.145-.145-.291-.145-.582-.145H14.5v1.261h-.824v-3.443h1.843a1.859,1.859,0,0,1,.97.145.826.826,0,0,1,.388.776.965.965,0,0,1-.582.921.922.922,0,0,1,.484.292Zm1.455,1.261h-.824V165.03h.824Zm9.553,0H26.623l-1.552-2.57v2.57H23.422l-.291-.727h-1.7l-.291.776h-.921a1.458,1.458,0,0,1-1.6-1.7,1.988,1.988,0,0,1,.436-1.358,1.529,1.529,0,0,1,1.212-.388h.776v.727H20.27a.894.894,0,0,0-.63.194,1.139,1.139,0,0,0-.242.776,1.055,1.055,0,0,0,.242.824.773.773,0,0,0,.582.194h.339l1.115-2.667h1.212l1.358,3.249v-3.249h1.212l1.406,2.376v-2.376h.824v3.346Z" fill="#0571c1"/>
    <g id="Group_15738" data-name="Group 15738" transform="translate(12.22 165.661)">
      <path id="Path_46151" data-name="Path 46151" d="M358.4,186.558h1.115l-.533-1.358Z" transform="translate(-348.895 -185.2)" fill="#228fe0"/>
      <path id="Path_46152" data-name="Path 46152" d="M202.861,279.964V277.2l-1.261,1.358Z" transform="translate(-201.6 -271.623)" fill="#228fe0"/>
    </g>
    <path id="Path_46153" data-name="Path 46153" d="M136.8,282.8v.63h1.794v.679H136.8v.727h1.988l.921-1.018-.873-1.018Z" transform="translate(-128.508 -111.223)" fill="#2fabf7"/>
    <path id="SVGCleanerId_0" d="M237.018,282.8H236v.873h1.067c.291,0,.485-.145.485-.436A.489.489,0,0,0,237.018,282.8Z" transform="translate(-221.694 -111.223)" fill="#228fe0"/>
    <path id="Path_46154" data-name="Path 46154" d="M134.768,262.582V260.4h-2.037a1.591,1.591,0,0,0-1.018.291V260.4h-2.231a1.539,1.539,0,0,0-.97.291V260.4h-3.928v.291a1.876,1.876,0,0,0-1.067-.291H120.9v.291a1.84,1.84,0,0,0-1.115-.291h-2.91l-.679.727-.63-.727H111.2v4.752h4.267l.679-.727.63.727H119.4v-1.115h.339a2.949,2.949,0,0,0,1.115-.145V265.2h2.182v-1.26h.1c.145,0,.145,0,.145.145V265.2h6.6a1.9,1.9,0,0,0,1.115-.291v.291h2.085a2.178,2.178,0,0,0,1.164-.242h0a1.651,1.651,0,0,0,.776-1.455,1.857,1.857,0,0,0-.253-.921Zm-15.033.776h-.97v1.164h-1.552l-.97-1.115-1.018,1.115h-3.2v-3.443h3.249l.97,1.115,1.018-1.115h2.57c.63,0,1.358.194,1.358,1.115-.049.97-.728,1.164-1.455,1.164Zm4.849-.194a1.1,1.1,0,0,1,.145.63v.679h-.824v-.436a1.083,1.083,0,0,0-.145-.679c-.1-.145-.291-.145-.582-.145h-.873v1.261h-.824V261.03h1.843a1.952,1.952,0,0,1,.97.145.858.858,0,0,1,.436.776.965.965,0,0,1-.582.921.829.829,0,0,1,.436.292Zm3.346-1.406h-1.891v.63h1.843v.679h-1.843v.679h1.891v.727h-2.716V261.03h2.716Zm2.037,2.716h-1.552v-.727h1.552a.409.409,0,0,0,.339-.1.352.352,0,0,0,0-.485.41.41,0,0,0-.291-.1c-.776-.049-1.7,0-1.7-1.067,0-.485.291-1.018,1.164-1.018h1.6v.824h-1.5a.719.719,0,0,0-.339.048c-.1.048-.1.145-.1.242,0,.145.1.194.194.242a.615.615,0,0,0,.291.048h.436a1.235,1.235,0,0,1,.921.291,1,1,0,0,1,.242.727c0,.735-.433,1.074-1.257,1.074Zm4.17-.339a1.414,1.414,0,0,1-1.018.339h-1.552v-.727h1.552a.409.409,0,0,0,.339-.1.352.352,0,0,0,0-.485.41.41,0,0,0-.291-.1c-.776-.049-1.7,0-1.7-1.067,0-.485.291-1.018,1.164-1.018h1.6v.824H132.78a.719.719,0,0,0-.339.048c-.1.048-.1.145-.1.242,0,.145.048.194.194.242a.615.615,0,0,0,.291.048h.436a1.235,1.235,0,0,1,.921.291.047.047,0,0,1,.048.048,1.113,1.113,0,0,1,.194.679.987.987,0,0,1-.287.735Z" transform="translate(-104.459 -90.181)" fill="#0571c1"/>
    <path id="SVGCleanerId_1" d="M296.558,283.648a.946.946,0,0,0-.388-.048h-.97v.776h.97a.945.945,0,0,0,.388-.048.378.378,0,0,0,.145-.339.27.27,0,0,0-.145-.341Z" transform="translate(-277.306 -111.974)" fill="#228fe0"/>
    <g id="Group_15739" data-name="Group 15739" transform="translate(12.22 165.661)">
      <path id="Path_46155" data-name="Path 46155" d="M240.558,187.648a.945.945,0,0,0-.388-.048h-.97v.776h.97a.945.945,0,0,0,.388-.049.378.378,0,0,0,.145-.339.27.27,0,0,0-.145-.34Z" transform="translate(-236.921 -187.454)" fill="#228fe0"/>
      <path id="Path_46156" data-name="Path 46156" d="M358.4,186.558h1.115l-.533-1.358Z" transform="translate(-348.895 -185.2)" fill="#228fe0"/>
      <path id="Path_46157" data-name="Path 46157" d="M202.861,279.964V277.2l-1.261,1.358Z" transform="translate(-201.6 -271.623)" fill="#228fe0"/>
    </g>
    <g id="Group_15740" data-name="Group 15740" transform="translate(14.306 171.577)">
      <path id="SVGCleanerId_0_1_" d="M237.018,282.8H236v.873h1.067c.291,0,.485-.145.485-.436A.489.489,0,0,0,237.018,282.8Z" transform="translate(-236 -282.8)" fill="#228fe0"/>
    </g>
    <g id="Group_15741" data-name="Group 15741" transform="translate(17.894 171.626)">
      <path id="SVGCleanerId_1_1_" d="M296.558,283.648a.946.946,0,0,0-.388-.048h-.97v.776h.97a.945.945,0,0,0,.388-.048.378.378,0,0,0,.145-.339.27.27,0,0,0-.145-.341Z" transform="translate(-295.2 -283.6)" fill="#228fe0"/>
    </g>
    <g id="Group_15742" data-name="Group 15742" transform="translate(0 164.4)">
      <path id="Path_46158" data-name="Path 46158" d="M119.444,264.376l-.679-.727v.824h-1.6l-.97-1.115-1.067,1.115h-3.2v-3.395h3.249l1.018,1.115.485-.582-1.212-1.212H111.2v4.752h4.267l.727-.727.63.727h2.619Z" transform="translate(-104.459 -254.581)" fill="#2fabf7"/>
      <path id="Path_46159" data-name="Path 46159" d="M9.941,169.152l-.63-.679H9.02v-.291l-.727-.727-.485,1.018H7.129l-1.164-2.667v2.667H4.316l-.339-.727H2.328l-.339.727H1.115l1.455-3.4H3.783l1.358,3.249v-3.249h.727l-.679-.679H4.461v.582l-.242-.582H2.085l-.97,2.279L0,169.152H2.522l.291-.727h.679l.339.727H6.547v-.582l.242.582H8.2l.242-.582v.582Z" transform="translate(0 -164.4)" fill="#2fabf7"/>
      <path id="Path_46160" data-name="Path 46160" d="M115.176,193.976l-.776-.776.582,1.261Z" transform="translate(-107.465 -191.454)" fill="#2fabf7"/>
    </g>
    <g id="Group_15743" data-name="Group 15743" transform="translate(4.801 164.448)">
      <path id="Path_46161" data-name="Path 46161" d="M193.6,262.655a1.774,1.774,0,0,0,.776-1.309l-.679-.679a1.434,1.434,0,0,1,.1.485.987.987,0,0,1-.291.727,1.414,1.414,0,0,1-1.018.339h-1.552v-.727h1.552a.409.409,0,0,0,.339-.1.351.351,0,0,0,0-.485.41.41,0,0,0-.291-.1c-.776-.048-1.7,0-1.7-1.067,0-.485.291-.921,1.018-1.018l-.533-.533c-.1.048-.145.1-.194.1V258H188.9a1.539,1.539,0,0,0-.97.291V258h-3.976v.291a1.876,1.876,0,0,0-1.067-.291h-2.619v.291a1.84,1.84,0,0,0-1.115-.291h-2.91l-.679.727-.63-.727H174.4l1.455,1.455.727-.776h2.57c.63,0,1.358.194,1.358,1.115,0,.97-.679,1.164-1.406,1.164h-.97v.727l.727.727v-.727h.242a2.949,2.949,0,0,0,1.115-.145v1.309H182.4v-1.261h.1c.145,0,.145,0,.145.145v1.115h6.6a1.9,1.9,0,0,0,1.115-.291v.291h2.085a1.924,1.924,0,0,0,1.164-.194Zm-9.65-1.746a1.1,1.1,0,0,1,.145.63v.679h-.824v-.436a1.083,1.083,0,0,0-.145-.679c-.1-.145-.291-.145-.582-.145h-.873v1.261h-.824v-3.443h1.843a1.952,1.952,0,0,1,.97.145.858.858,0,0,1,.436.776.965.965,0,0,1-.582.921.829.829,0,0,1,.439.292Zm3.35-1.409h-1.891v.63h1.843v.679h-1.843v.679H187.3v.727h-2.716v-3.443H187.3Zm2.037,2.716h-1.552v-.727h1.552a.409.409,0,0,0,.339-.1.352.352,0,0,0,0-.485.41.41,0,0,0-.291-.1c-.776-.048-1.7,0-1.7-1.067,0-.485.291-1.018,1.164-1.018h1.6v.824h-1.5a.719.719,0,0,0-.339.048c-.1.048-.1.145-.1.242,0,.145.1.194.194.242a.615.615,0,0,0,.291.048h.436a1.235,1.235,0,0,1,.921.291,1,1,0,0,1,.242.727c.006.738-.434,1.078-1.258,1.078Z" transform="translate(-168.629 -252.375)" fill="#228fe0"/>
      <path id="Path_46162" data-name="Path 46162" d="M459.2,283.891c0,.145.048.194.194.242a.615.615,0,0,0,.291.048h.436a1.408,1.408,0,0,1,.679.146l-.727-.727h-.436a.719.719,0,0,0-.339.048.37.37,0,0,0-.1.243Z" transform="translate(-436.166 -276.423)" fill="#228fe0"/>
      <path id="Path_46163" data-name="Path 46163" d="M431.2,240.4l.1.145h.048Z" transform="translate(-409.863 -235.842)" fill="#228fe0"/>
      <path id="Path_46164" data-name="Path 46164" d="M387.2,196.4l.824,1.988v-1.164Z" transform="translate(-368.53 -194.509)" fill="#228fe0"/>
      <path id="Path_46165" data-name="Path 46165" d="M89.578,168.692h.1c.1,0,.1,0,.1.145V169.9H93.27v-.291a2.905,2.905,0,0,0,1.309.291h1.455l.291-.776H97l.291.776H100.1v-.485l-.679-.679v.533H97.773l-.242-.776h-1.7l-.291.776h-.921a1.458,1.458,0,0,1-1.6-1.7,1.988,1.988,0,0,1,.436-1.358,1.529,1.529,0,0,1,1.212-.388h.776v.727h-.776a.894.894,0,0,0-.63.194,1.139,1.139,0,0,0-.242.776,1.055,1.055,0,0,0,.242.824.773.773,0,0,0,.582.194h.339l1.115-2.667h.485l-.679-.679H94.621a2.952,2.952,0,0,0-1.358.291V165.2H91.129v.291a1.4,1.4,0,0,0-.921-.291H82.4l-.533,1.212-.533-1.212H79.2l.679.679h.97l.824,1.794.291.291.873-2.134h1.358v3.443H83.37v-2.667l-.824,1.94,1.406,1.406h5.577Zm2.231-2.861h.824v3.443h-.824Zm-4.267.727H85.65v.63h1.843v.679H85.65v.679h1.891v.727H84.825V165.83h2.716Zm1.358,2.667h-.824v-3.443h1.843a1.859,1.859,0,0,1,.97.145.826.826,0,0,1,.388.776.965.965,0,0,1-.582.921.635.635,0,0,1,.388.291,1.213,1.213,0,0,1,.145.63v.679H90.4v-.436a1.155,1.155,0,0,0-.145-.679c-.048-.1-.194-.1-.485-.1H88.9v1.212Z" transform="translate(-79.2 -165.2)" fill="#228fe0"/>
    </g>
  </g>
</svg>
