
<svg xmlns="http://www.w3.org/2000/svg" width="24.034" height="24.757" viewBox="0 0 24.034 24.757">
  <g id="svgexport-7_23_" data-name="svgexport-7 (23)" transform="translate(-3.879)">
    <g id="Layer_4" transform="translate(3.911)">
      <g id="Group_14906" data-name="Group 14906">
        <g id="Group_14864" data-name="Group 14864" transform="translate(0.241 5.542)">
          <g id="Group_14863" data-name="Group 14863">
            <path id="Path_44827" data-name="Path 44827" d="M9.861,58.915H7.225a.813.813,0,1,1,0-1.625H9.861a.813.813,0,1,1,0,1.625Z" transform="translate(-6.412 -57.29)" fill="#fc657e"/>
          </g>
        </g>
        <g id="Group_14865" data-name="Group 14865" transform="translate(14.897 4.988)">
          <circle id="Ellipse_429" data-name="Ellipse 429" cx="3.564" cy="3.564" r="3.564" transform="translate(0 0)" fill="#b2e26d"/>
        </g>
        <g id="Group_14866" data-name="Group 14866" transform="translate(6.259 3.612)">
          <path id="Path_44828" data-name="Path 44828" d="M71.96,37.5H69.07a.482.482,0,0,0-.482.482v2.89a.482.482,0,0,0,.482.482h2.89a.482.482,0,0,0,.482-.482v-2.89a.482.482,0,0,0-.482-.482Z" transform="translate(-68.588 -37.5)" fill="#c18e6b"/>
        </g>
        <g id="Group_14867" data-name="Group 14867" transform="translate(8.397 0.241)">
          <path id="Path_44829" data-name="Path 44829" d="M97.324,2.5H91.269a.681.681,0,0,0-.681.681v2.69H91.84a.482.482,0,0,1,.482.482v2.89a.482.482,0,0,1-.482.482H97.2A3.561,3.561,0,0,1,98,8.349V3.181a.681.681,0,0,0-.681-.681Z" transform="translate(-90.588 -2.5)" fill="#a57453"/>
        </g>
        <g id="Group_14868" data-name="Group 14868" transform="translate(11.125 0.241)">
          <path id="Path_44830" data-name="Path 44830" d="M118.914,2.5V4.838a.36.36,0,0,0,.359.36h1.241a.36.36,0,0,0,.36-.36V2.5Z" transform="translate(-118.914 -2.5)" fill="#dae6f1"/>
        </g>
        <g id="Group_14869" data-name="Group 14869" transform="translate(10.23 20.981)">
          <path id="Path_44831" data-name="Path 44831" d="M109.615,216.8a1.931,1.931,0,0,1,.82,1.219h2.211a1.931,1.931,0,0,1,.82-1.219Z" transform="translate(-109.615 -216.801)" fill="#dae6f1"/>
        </g>
        <g id="Group_14870" data-name="Group 14870" transform="translate(5.76 20.981)">
          <path id="Path_44832" data-name="Path 44832" d="M65.753,216.8H64.058a.609.609,0,0,0,0,1.219h.875A1.931,1.931,0,0,1,65.753,216.8Z" transform="translate(-63.449 -216.801)" fill="#dae6f1"/>
        </g>
        <g id="Group_14871" data-name="Group 14871" transform="translate(7.214 20.655)">
          <circle id="Ellipse_430" data-name="Ellipse 430" cx="1.93" cy="1.93" r="1.93" transform="translate(0 0)" fill="#3a70bf"/>
        </g>
        <g id="Group_14872" data-name="Group 14872" transform="translate(13.236 20.655)">
          <circle id="Ellipse_431" data-name="Ellipse 431" cx="1.93" cy="1.93" r="1.93" transform="translate(0 0)" fill="#3a70bf"/>
        </g>
        <g id="Group_14873" data-name="Group 14873" transform="translate(3.167 6.912)">
          <path id="Path_44833" data-name="Path 44833" d="M51.469,81.227l1.913-5.486a3.553,3.553,0,0,1-1.389.282l-1.814,5.2h-9.41L38.8,73.875h9.919a3.542,3.542,0,0,1-.287-1.219H38.474l-.51-1.907a.811.811,0,0,1-.652.329H36.79l2.922,10.916a.609.609,0,0,0,.589.452H51.45a1.186,1.186,0,1,1,0,2.372H49.8a1.931,1.931,0,0,1,.82,1.219h.831a2.405,2.405,0,1,0,.019-4.81Z" transform="translate(-36.79 -70.749)" fill="#dae6f1"/>
        </g>
        <g id="Group_14875" data-name="Group 14875" transform="translate(16.517 7.331)">
          <g id="Group_14874" data-name="Group 14874">
            <path id="Path_44834" data-name="Path 44834" d="M176.25,78.536a.578.578,0,0,1-.409-.169l-1.09-1.09a.578.578,0,0,1,.817-.817l.681.681,1.2-1.2a.578.578,0,0,1,.817.817l-1.613,1.613a.578.578,0,0,1-.4.165Z" transform="translate(-174.582 -75.768)" fill="#dae6f1"/>
          </g>
        </g>
        <g id="Group_14876" data-name="Group 14876" transform="translate(8.333 21.773)">
          <circle id="Ellipse_432" data-name="Ellipse 432" cx="0.813" cy="0.813" r="0.813" transform="translate(0 0)" fill="#6cadef"/>
        </g>
        <g id="Group_14877" data-name="Group 14877" transform="translate(14.352 21.773)">
          <circle id="Ellipse_433" data-name="Ellipse 433" cx="0.813" cy="0.813" r="0.813" transform="translate(0 0)" fill="#6cadef"/>
        </g>
        <g id="Group_14878" data-name="Group 14878" transform="translate(21.264 12.537)">
          <path id="Path_44835" data-name="Path 44835" d="M224,130.746h.222v.222a.3.3,0,0,0,.308.308.309.309,0,0,0,.308-.3v-.231h.222a.3.3,0,0,0,.308-.308.309.309,0,0,0-.3-.308h-.231v-.222a.3.3,0,0,0-.308-.308.309.309,0,0,0-.308.3v.231H224a.308.308,0,1,0,0,.616Z" transform="translate(-223.689 -129.6)" fill="#70d6f9"/>
        </g>
        <g id="Group_14879" data-name="Group 14879" transform="translate(23.345 9.817)">
          <circle id="Ellipse_434" data-name="Ellipse 434" cx="0.328" cy="0.328" r="0.328" transform="translate(0 0)" fill="#87d147"/>
        </g>
        <g id="Group_14880" data-name="Group 14880" transform="translate(17.851 1.734)">
          <path id="Path_44836" data-name="Path 44836" d="M189.7,18.595a.751.751,0,0,1-.6-.588c0-.01-.029-.01-.029,0a.751.751,0,0,1-.6.588c-.01,0-.01.019,0,.029a.751.751,0,0,1,.6.588c0,.01.029.01.029,0a.751.751,0,0,1,.6-.588C189.7,18.614,189.7,18.595,189.7,18.595Z" transform="translate(-188.464 -18)" fill="#f5c84c"/>
        </g>
        <g id="Group_14881" data-name="Group 14881" transform="translate(2.811 17.022)">
          <circle id="Ellipse_435" data-name="Ellipse 435" cx="0.328" cy="0.328" r="0.328" transform="translate(0 0)" fill="#fc657e"/>
        </g>
        <g id="Group_14882" data-name="Group 14882" transform="translate(0.672 13.383)">
          <path id="Path_44837" data-name="Path 44837" d="M10.9,139.2a1.069,1.069,0,0,0,.857-.838c0-.019.039-.019.039,0a1.069,1.069,0,0,0,.857.838c.019,0,.019.029,0,.039a1.069,1.069,0,0,0-.857.838c0,.019-.039.019-.039,0a1.069,1.069,0,0,0-.857-.838C10.884,139.231,10.884,139.2,10.9,139.2Z" transform="translate(-10.889 -138.35)" fill="#f5c84c"/>
        </g>
        <g id="Group_14884" data-name="Group 14884" transform="translate(0 5.3)">
          <g id="Group_14883" data-name="Group 14883">
            <path id="Path_44838" data-name="Path 44838" d="M7.6,56.9H4.965a1.054,1.054,0,1,1,0-2.107H7.6a1.054,1.054,0,0,1,0,2.107ZM4.965,55.27a.572.572,0,1,0,0,1.144H7.6a.572.572,0,1,0,0-1.144Z" transform="translate(-3.911 -54.788)"/>
          </g>
        </g>
        <g id="Group_14885" data-name="Group 14885" transform="translate(6.538 15.275)">
          <path id="Path_44839" data-name="Path 44839" d="M81.966,158.42H71.537a.241.241,0,0,1,0-.482H81.966a.241.241,0,1,1,0,.482Z" transform="translate(-71.296 -157.938)"/>
        </g>
        <g id="Group_14886" data-name="Group 14886" transform="translate(6.003 13.429)">
          <path id="Path_44840" data-name="Path 44840" d="M77.6,139.34H65.979a.241.241,0,1,1,0-.482H77.6a.241.241,0,0,1,0,.482Z" transform="translate(-65.738 -138.858)"/>
        </g>
        <g id="Group_14887" data-name="Group 14887" transform="translate(5.576 11.584)">
          <path id="Path_44841" data-name="Path 44841" d="M72.71,120.259H61.6a.241.241,0,1,1,0-.482H72.71a.241.241,0,0,1,0,.482Z" transform="translate(-61.36 -119.777)"/>
        </g>
        <g id="Group_14888" data-name="Group 14888" transform="translate(14.656 4.747)">
          <path id="Path_44842" data-name="Path 44842" d="M158.894,56.61a3.8,3.8,0,1,1,3.8-3.8,3.8,3.8,0,0,1-3.8,3.8Zm0-7.128a3.323,3.323,0,1,0,3.323,3.323,3.323,3.323,0,0,0-3.323-3.323Z" transform="translate(-155.089 -49)"/>
        </g>
        <g id="Group_14889" data-name="Group 14889" transform="translate(6.018 3.372)">
          <path id="Path_44843" data-name="Path 44843" d="M69.7,39.335H66.81a.723.723,0,0,1-.722-.722v-2.89A.723.723,0,0,1,66.811,35H69.7a.723.723,0,0,1,.722.722v2.89A.723.723,0,0,1,69.7,39.335Zm-2.89-3.853a.241.241,0,0,0-.241.241v2.89a.241.241,0,0,0,.241.241H69.7a.241.241,0,0,0,.241-.241v-2.89a.241.241,0,0,0-.241-.241Z" transform="translate(-66.089 -35)"/>
        </g>
        <g id="Group_14890" data-name="Group 14890" transform="translate(8.156)">
          <path id="Path_44844" data-name="Path 44844" d="M95.747,6.246a.241.241,0,0,1-.241-.241V.922a.441.441,0,0,0-.441-.441H89.011a.441.441,0,0,0-.44.441V3.495a.241.241,0,0,1-.482,0V.922A.923.923,0,0,1,89.011,0h6.055a.923.923,0,0,1,.922.922V6.005a.241.241,0,0,1-.241.241Z" transform="translate(-88.089)"/>
        </g>
        <g id="Group_14891" data-name="Group 14891" transform="translate(9.409 7.253)">
          <path id="Path_44845" data-name="Path 44845" d="M106.6,75.482h-5.27a.241.241,0,0,1,0-.482h5.27a.241.241,0,0,1,0,.482Z" transform="translate(-101.089 -75)"/>
        </g>
        <g id="Group_14892" data-name="Group 14892" transform="translate(10.884 0.133)">
          <path id="Path_44846" data-name="Path 44846" d="M118.255,4.426h-1.241a.6.6,0,0,1-.6-.6v-2.2a.241.241,0,1,1,.482,0v2.2a.119.119,0,0,0,.119.119h1.241a.119.119,0,0,0,.119-.119V1.637a.241.241,0,1,1,.482,0V3.825a.6.6,0,0,1-.6.6Z" transform="translate(-116.414 -1.38)"/>
        </g>
        <g id="Group_14893" data-name="Group 14893" transform="translate(10.883 21.959)">
          <path id="Path_44847" data-name="Path 44847" d="M118.69,227.438h-2.047a.241.241,0,0,1,0-.482h2.047a.241.241,0,1,1,0,.482Z" transform="translate(-116.402 -226.956)"/>
        </g>
        <g id="Group_14894" data-name="Group 14894" transform="translate(10.05 20.74)">
          <path id="Path_44848" data-name="Path 44848" d="M111.719,214.783h-3.734a.241.241,0,0,1,0-.482h3.734a.241.241,0,1,1,0,.482Z" transform="translate(-107.744 -214.301)"/>
        </g>
        <g id="Group_14895" data-name="Group 14895" transform="translate(5.519 20.74)">
          <path id="Path_44849" data-name="Path 44849" d="M62.562,216H61.8a.85.85,0,0,1,0-1.7h1.626a.241.241,0,0,1,0,.482H61.8a.369.369,0,1,0,0,.737h.764a.241.241,0,1,1,0,.482Z" transform="translate(-60.948 -214.302)"/>
        </g>
        <g id="Group_14896" data-name="Group 14896" transform="translate(6.973 20.415)">
          <path id="Path_44850" data-name="Path 44850" d="M78.125,215.268A2.171,2.171,0,1,1,80.3,213.1,2.171,2.171,0,0,1,78.125,215.268Zm0-3.86a1.689,1.689,0,1,0,1.689,1.689A1.689,1.689,0,0,0,78.125,211.408Z" transform="translate(-75.954 -210.926)"/>
        </g>
        <g id="Group_14897" data-name="Group 14897" transform="translate(12.995 20.415)">
          <path id="Path_44851" data-name="Path 44851" d="M140.344,215.268a2.171,2.171,0,1,1,2.171-2.171,2.171,2.171,0,0,1-2.171,2.171Zm0-3.86a1.689,1.689,0,1,0,1.689,1.689A1.689,1.689,0,0,0,140.344,211.408Z" transform="translate(-138.173 -210.926)"/>
        </g>
        <g id="Group_14898" data-name="Group 14898" transform="translate(4.147 6.666)">
          <path id="Path_44852" data-name="Path 44852" d="M57.251,71.228H47.387a.241.241,0,0,1-.233-.179L46.661,69.2a.241.241,0,1,1,.465-.125l.446,1.665h9.679a.241.241,0,1,1,0,.482Z" transform="translate(-46.652 -68.902)"/>
        </g>
        <g id="Group_14899" data-name="Group 14899" transform="translate(4.982 9.756)">
          <path id="Path_44853" data-name="Path 44853" d="M66.781,108.531H57.372a.241.241,0,0,1-.233-.179L55.171,101a.241.241,0,0,1,.233-.3h9.832a.241.241,0,1,1,0,.482H55.718l1.839,6.87H66.61l1.714-4.916a.241.241,0,1,1,.455.159l-1.77,5.078a.241.241,0,0,1-.228.158Z" transform="translate(-55.163 -100.697)"/>
        </g>
        <g id="Group_14900" data-name="Group 14900" transform="translate(16.917 11.779)">
          <path id="Path_44854" data-name="Path 44854" d="M179.564,131.943H178.8a.241.241,0,0,1,0-.482h.762a2.164,2.164,0,0,0,.017-4.328.241.241,0,0,1-.225-.32l1.872-5.37a.241.241,0,0,1,.455.159l-1.769,5.073a2.646,2.646,0,0,1-.35,5.268Z" transform="translate(-178.561 -121.282)"/>
        </g>
        <g id="Group_14901" data-name="Group 14901" transform="translate(2.952 7.096)">
          <path id="Path_44855" data-name="Path 44855" d="M49.433,86.786H47.858a.241.241,0,1,1,0-.482h1.575a.945.945,0,1,0,0-1.891H38.284a.851.851,0,0,1-.821-.63l-2.9-10.82a.241.241,0,1,1,.465-.125l2.9,10.82a.369.369,0,0,0,.356.273H49.433a1.427,1.427,0,0,1,0,2.854Z" transform="translate(-34.558 -72.66)"/>
        </g>
        <g id="Group_14903" data-name="Group 14903" transform="translate(16.293 7.089)">
          <g id="Group_14902" data-name="Group 14902">
            <path id="Path_44856" data-name="Path 44856" d="M173.992,76.517a.813.813,0,0,1-.579-.24l-1.09-1.09a.819.819,0,1,1,1.158-1.158l.511.511,1.034-1.034a.819.819,0,1,1,1.158,1.158l-1.613,1.613a.814.814,0,0,1-.579.24Zm-1.09-2.246a.337.337,0,0,0-.238.575l1.09,1.09a.34.34,0,0,0,.238.1.335.335,0,0,0,.239-.1l1.612-1.613a.338.338,0,0,0,0-.477.345.345,0,0,0-.477,0l-1.2,1.2a.248.248,0,0,1-.341,0l-.681-.681a.335.335,0,0,0-.244-.094Z" transform="translate(-172.083 -73.267)"/>
          </g>
        </g>
        <g id="Group_14904" data-name="Group 14904" transform="translate(8.092 21.532)">
          <path id="Path_44857" data-name="Path 44857" d="M88.607,224.633a1.054,1.054,0,1,1,1.054-1.054A1.054,1.054,0,0,1,88.607,224.633Zm0-1.625a.572.572,0,1,0,.572.572.572.572,0,0,0-.572-.572Z" transform="translate(-87.554 -222.526)"/>
        </g>
        <g id="Group_14905" data-name="Group 14905" transform="translate(14.111 21.532)">
          <path id="Path_44858" data-name="Path 44858" d="M150.827,224.633a1.054,1.054,0,1,1,1.053-1.054,1.054,1.054,0,0,1-1.053,1.054Zm0-1.625a.572.572,0,1,0,.572.572.572.572,0,0,0-.572-.572Z" transform="translate(-149.773 -222.526)"/>
        </g>
      </g>
    </g>
  </g>
</svg>
