<svg xmlns="http://www.w3.org/2000/svg" width="23.035" height="23.049" viewBox="0 0 23.035 23.049">
  <g id="svgexport-6_17_" data-name="svgexport-6 (17)" transform="translate(-0.154 0)">
    <g id="Group_16077" data-name="Group 16077" transform="translate(0.154 0)">
      <path id="Path_46302" data-name="Path 46302" d="M246.8,316.041l-1.542,1.542,3.814,3.814a8.611,8.611,0,0,0,2.41-6.208Z" transform="translate(-234.229 -301.008)" fill="#96a1ab"/>
      <path id="Path_46303" data-name="Path 46303" d="M6.137,141.889,3.968,139.72a1.7,1.7,0,0,1,0-2.4l4.188-4.188.851-4.681a8.628,8.628,0,1,0,2.076,16.94L7.96,142.267A1.7,1.7,0,0,1,6.137,141.889Z" transform="translate(-0.154 -122.667)" fill="#96a1ab"/>
      <path id="Path_46304" data-name="Path 46304" d="M322.185,2.792a.675.675,0,0,0,.675-.675V.671a.675.675,0,0,0-1.35,0V2.117A.675.675,0,0,0,322.185,2.792Z" transform="translate(-307.051 0)" fill="#96a1ab"/>
      <path id="Path_46305" data-name="Path 46305" d="M452.239,160.587h-1.446a.675.675,0,0,0,0,1.35h1.446A.675.675,0,0,0,452.239,160.587Z" transform="translate(-429.876 -153.361)" fill="#96a1ab"/>
      <path id="Path_46306" data-name="Path 46306" d="M413.552,49.153l1.022-1.022a.675.675,0,0,0-.955-.954L412.6,48.2a.675.675,0,0,0,.955.954Z" transform="translate(-393.851 -44.865)" fill="#96a1ab"/>
      <path id="Path_46307" data-name="Path 46307" d="M103.953,265.419l2.169,2.169a.348.348,0,0,0,.491,0l3.86-3.86-2.66-2.66-3.86,3.86A.347.347,0,0,0,103.953,265.419Z" transform="translate(-99.185 -249.321)" fill="#96a1ab"/>
      <path id="Path_46308" data-name="Path 46308" d="M322.179,96.266l4.153,4.153A3.581,3.581,0,0,0,322.179,96.266Z" transform="translate(-307.69 -91.873)" fill="#96a1ab"/>
      <path id="Path_46309" data-name="Path 46309" d="M210.431,74.106a.675.675,0,0,0-1.141.356l-1.215,6.685,3.114,3.114,6.685-1.215a.675.675,0,0,0,.356-1.141Z" transform="translate(-198.719 -70.582)" fill="#96a1ab"/>
      <path id="Path_46310" data-name="Path 46310" d="M197.057,390.815l3.461,3.461a8.625,8.625,0,0,0,1.511-.918l-3.757-3.757Z" transform="translate(-188.197 -372.071)" fill="#96a1ab"/>
    </g>
  </g>
</svg>
