<svg xmlns="http://www.w3.org/2000/svg" width="24.34" height="20.596" viewBox="0 0 24.34 20.596">
  <g id="svgexport-7" transform="translate(0 -36)">
    <g id="Group_16078" data-name="Group 16078" transform="translate(0 36)">
      <path id="Path_46311" data-name="Path 46311" d="M0,141.548l8.786,5.03,2.283-2.864-9.252-4.885Z" transform="translate(0 -133.481)" fill="#fff"/>
      <path id="Path_46312" data-name="Path 46312" d="M254.7,140.088l2.291,2.875,8.8-5.04-1.842-2.908Z" transform="translate(-241.456 -129.865)" fill="#fff"/>
      <path id="Path_46313" data-name="Path 46313" d="M60.576,40.44,69.581,45.2,78.6,40.251,69.6,36Z" transform="translate(-57.425 -36)" fill="#fff"/>
      <path id="Path_46314" data-name="Path 46314" d="M44.112,252.671l9.156,4.834v-8.554l-1.93,2.422a.712.712,0,0,1-.911.174l-6.314-3.615Z" transform="translate(-41.818 -236.91)" fill="#fff"/>
      <path id="Path_46315" data-name="Path 46315" d="M247.542,248.95v8.532l9.156-5.027v-4.524l-6.314,3.615a.712.712,0,0,1-.911-.174Z" transform="translate(-234.667 -236.909)" fill="#fff"/>
    </g>
  </g>
</svg>
