<svg xmlns="http://www.w3.org/2000/svg"  viewBox="0 0 35.518 36.205">
  <g id="Canceled" transform="translate(0 0)">
    <g id="Group" transform="translate(0 0)">
      <path id="Shape"
        d="M17.83,36.205h-.141l-.091-.047a1.978,1.978,0,0,0-.19-.091l-2.39-.937-.008,0C10.23,33.253,5.288,31.315.424,29.421A.556.556,0,0,1,0,28.792C.01,22.9.01,16.905.009,11.11V7.027l.1-.04.149-.062,4.2-1.659C7.814,3.936,11.292,2.561,14.72,1.2c.68-.269,1.368-.55,2.034-.822l0,0L17.688,0h.141l.1.048c.07.034.143.069.217.1L20.1.909c4.927,1.926,10.022,3.919,15.039,5.869a.5.5,0,0,1,.38.561c-.009,6.856-.009,14.109,0,21.558a.43.43,0,0,1-.324.481c-4.654,1.814-9.4,3.674-13.83,5.414-.791.311-1.592.633-2.367.944l-.007,0-1.16.465ZM34.24,8.859l-.146.049c-.084.028-.157.052-.228.08l-3.135,1.236-.006,0c-3.931,1.55-8,3.154-12,4.724a.453.453,0,0,0-.343.505c.008,5.294.008,10.675.008,15.88v3.281l.127-.042c.086-.028.158-.051.23-.079l2.9-1.144.074-.029c3.985-1.573,8.106-3.2,12.163-4.791A.475.475,0,0,0,34.247,28c-.007-5.2-.007-10.494-.006-15.611V8.859ZM1.28,8.842V11.92c0,5.281,0,10.742-.006,16.12a.431.431,0,0,0,.329.48c4.153,1.628,8.372,3.292,12.453,4.9l2.782,1.1c.058.023.118.041.183.06l.093.028c0-.039,0-.075.005-.108,0-.061.006-.113.006-.166V30.778c0-5.043,0-10.257.005-15.4a.363.363,0,0,0-.277-.405c-1.567-.611-3.157-1.238-4.695-1.845l-.014-.005-1.892-.746a1.269,1.269,0,0,0-.171-.049l-.12-.03v4.861l-.05.032-.05.032c-.039-.047-.076-.1-.114-.144a3.731,3.731,0,0,0-.29-.342.386.386,0,0,0-.226-.1.089.089,0,0,0-.04.008A.423.423,0,0,1,9,16.7a.452.452,0,0,1-.344-.233.413.413,0,0,0-.336-.2.507.507,0,0,0-.181.037.2.2,0,0,1-.07.01c-.069,0-.155-.022-.174-.059a.512.512,0,0,0-.452-.335.777.777,0,0,0-.359.108v-4.9l-2.031-.8ZM27.291,5a.865.865,0,0,0-.311.066C22.006,7.072,16.953,9.121,12.067,11.1l-.392.159c-.07.028-.138.062-.216.1l-.138.067.112.049c.062.027.11.048.159.067l1.507.595c1.421.561,2.89,1.14,4.332,1.717a.869.869,0,0,0,.326.068.922.922,0,0,0,.346-.073c3.814-1.51,7.689-3.04,11.436-4.519l.084-.033,3.836-1.515c.069-.027.135-.057.211-.091l.127-.057L33.741,7.6a.319.319,0,0,0-.059-.037l-1.03-.42c-1.709-.7-3.474-1.419-5.214-2.116A.4.4,0,0,0,27.291,5Zm-9.523-3.58a1.03,1.03,0,0,0-.39.082C14.032,2.837,10.628,4.189,7.337,5.5l-3.1,1.231L2.75,7.321l-.009,0-.9.36.148.065c.09.04.16.071.231.1l1.258.5.007,0c1.155.455,2.349.926,3.522,1.4a.964.964,0,0,0,.363.076,1.026,1.026,0,0,0,.374-.078c3.587-1.4,7.235-2.814,10.763-4.184l.006,0L21.748,4.3c.429-.167.853-.333,1.3-.509l.015-.006.676-.265-.164-.064,0,0h0c-.082-.032-.147-.058-.213-.082l-1.394-.5c-1.263-.453-2.568-.92-3.848-1.388A1.008,1.008,0,0,0,17.769,1.419Z"
        transform="translate(0)" />
    </g>
  </g>
</svg>
