<svg xmlns="http://www.w3.org/2000/svg" width="52.761" height="44.829" viewBox="0 0 52.761 44.829">
  <g id="svgexport-17_20_" data-name="svgexport-17 (20)" transform="translate(0 -38.486)">
    <path id="Path_46355" data-name="Path 46355" d="M74.825,157.654H43.1a.881.881,0,0,0-.881.881V177.04h2.644a1.762,1.762,0,1,1,0,3.525H42.221v2.644a.881.881,0,0,0,.881.881h32.6V158.535A.881.881,0,0,0,74.825,157.654Z" transform="translate(-37.87 -106.887)" fill="#00c3ff"/>
    <path id="Path_46356" data-name="Path 46356" d="M377.739,294.472H367.165v12.337h14.1V298A3.525,3.525,0,0,0,377.739,294.472Z" transform="translate(-329.329 -229.607)" fill="#00aaf0"/>
    <path id="Path_46357" data-name="Path 46357" d="M367.165,320.126h9.546a1.762,1.762,0,0,1,1.762,1.762v7.931H367.165Z" transform="translate(-329.329 -252.617)" fill="#0096dc"/>
    <path id="Path_46358" data-name="Path 46358" d="M374.215,191.859h-7.049v3.525h9.693V194.5A2.644,2.644,0,0,0,374.215,191.859Z" transform="translate(-329.329 -137.568)" fill="#00aaf0"/>
    <path id="Path_46359" data-name="Path 46359" d="M377.739,233.112l-1.762-7.049h-8.812v7.049Z" transform="translate(-329.329 -168.247)" fill="#b4e6ff"/>
    <path id="Path_46360" data-name="Path 46360" d="M469.779,328.677H473.3V332.2h-1.762a1.762,1.762,0,0,1-1.762-1.762v-1.762Z" transform="translate(-421.369 -260.287)" fill="#f1f4fb"/>
    <path id="Path_46361" data-name="Path 46361" d="M373.333,354.33a7.045,7.045,0,0,0-6.168,3.639V360.5h13.157A7.046,7.046,0,0,0,373.333,354.33Z" transform="translate(-329.329 -283.296)" fill="#007dc8"/>
    <path id="Path_46362" data-name="Path 46362" d="M476.9,375.986v3.937h1.848A7.032,7.032,0,0,0,476.9,375.986Z" transform="translate(-427.759 -302.721)" fill="#0096dc"/>
    <circle id="Ellipse_1265" data-name="Ellipse 1265" cx="4.406" cy="4.406" r="4.406" transform="translate(39.598 73.677)" fill="#5b5d6e"/>
    <path id="Path_46363" data-name="Path 46363" d="M370.691,228.708h5.948l-.661-2.644h-8.812v7.049h2.644v-3.525a.881.881,0,0,1,.881-.881Z" transform="translate(-329.33 -168.248)" fill="#9bd6ff"/>
    <path id="Path_46364" data-name="Path 46364" d="M52.8,354.33a7.032,7.032,0,0,0-5.5,2.643H42.221v2.644a.881.881,0,0,0,.881.881h32.6v-3.525H58.293A7.033,7.033,0,0,0,52.8,354.33Z" transform="translate(-37.87 -283.296)" fill="#00aaf0"/>
    <circle id="Ellipse_1266" data-name="Ellipse 1266" cx="4.406" cy="4.406" r="4.406" transform="translate(10.519 73.677)" fill="#5b5d6e"/>
    <path id="Path_46365" data-name="Path 46365" d="M49.068,64.089,47.7,58.624a.826.826,0,0,0,.654-.808v-.881a3.474,3.474,0,0,0-3.47-3.47H38.662V51.648a1.709,1.709,0,0,0-1.707-1.707H25.383l7.032-2.813a.826.826,0,1,0-.614-1.534l-5.758,2.3a19.418,19.418,0,0,0,4.151-3.231A3.847,3.847,0,0,0,24.077,40c-.94,1.233-2.18,4.7-2.983,7.137-.8-2.441-2.043-5.9-2.983-7.137a3.847,3.847,0,0,0-6.118,4.666A19.412,19.412,0,0,0,16.143,47.9l-5.758-2.3a.826.826,0,1,0-.614,1.534L16.8,49.941H5.232a1.709,1.709,0,0,0-1.707,1.707v14.98a.826.826,0,1,0,1.652,0V51.648a.055.055,0,0,1,.055-.055H36.955a.055.055,0,0,1,.055.055v14.98a.826.826,0,0,0,1.652,0v-.937h9.75a2.7,2.7,0,0,1,2.567,1.873H48.41a.826.826,0,0,0-.826.826v1.762a2.591,2.591,0,0,0,2.588,2.588h.936v3.635h-2.16a5.23,5.23,0,0,0-9.889,0h-.4V70.153a.826.826,0,0,0-1.652,0v6.223H19.87a5.23,5.23,0,0,0-9.889,0H5.232a.055.055,0,0,1-.055-.055V74.5h3.58a.826.826,0,0,0,0-1.652H.826a.826.826,0,0,0,0,1.652h2.7v1.817a1.709,1.709,0,0,0,1.707,1.707H9.695c0,.018,0,.037,0,.055a5.232,5.232,0,0,0,10.464,0c0-.019,0-.037,0-.055H38.774c0,.018,0,.037,0,.055a5.232,5.232,0,0,0,10.464,0c0-.019,0-.037,0-.055h2.7a.826.826,0,0,0,.826-.826V68.39A4.357,4.357,0,0,0,49.068,64.089ZM25.39,41a2.2,2.2,0,0,1,3.491,2.662C28.6,44.039,27.629,44.97,24.37,47q-.922.572-1.857,1.121C23.34,45.576,24.591,42.049,25.39,41ZM13.306,43.663A2.2,2.2,0,0,1,16.8,41c.8,1.048,2.051,4.574,2.877,7.116q-.935-.55-1.857-1.121c-3.259-2.025-4.225-2.957-4.511-3.332ZM38.662,58.642H46l1.349,5.4h-8.69Zm6.223-3.525A1.82,1.82,0,0,1,46.7,56.935v.055H38.662V55.117ZM14.925,81.663a3.58,3.58,0,1,1,3.58-3.58A3.584,3.584,0,0,1,14.925,81.663Zm29.079,0a3.58,3.58,0,1,1,3.58-3.58A3.584,3.584,0,0,1,44,81.663Zm6.168-10.574a.937.937,0,0,1-.936-.936v-.936h1.872v1.873h-.936Z" transform="translate(0 0)"/>
    <path id="Path_46366" data-name="Path 46366" d="M30.265,237.432a1.707,1.707,0,1,0,1.707,1.707A1.709,1.709,0,0,0,30.265,237.432Zm29.079,0a1.707,1.707,0,1,0,1.707,1.707A1.709,1.709,0,0,0,59.344,237.432Zm-22.856-2.7a.826.826,0,0,0,.826.826H49.651a.826.826,0,0,0,0-1.652H37.314a.826.826,0,0,0-.826.826Zm-18.56-2.7H28.5a.826.826,0,1,0,0-1.652H17.928a.826.826,0,1,0,0,1.652ZM28.5,219.7a.826.826,0,1,0,0-1.652H24.978a.826.826,0,0,0-.826.826v7.049a.826.826,0,0,0,1.652,0v-2.7h1.817a.826.826,0,1,0,0-1.652H25.8V219.7Zm7.876,1.377a3.033,3.033,0,0,0-3.029-3.029h-2.2a.826.826,0,0,0-.826.826v7.049a.826.826,0,0,0,1.652,0V224.1h1.375l1.517,2.276a.826.826,0,1,0,1.375-.916L35,223.61A3.028,3.028,0,0,0,36.378,221.075ZM31.972,219.7h1.377a1.377,1.377,0,0,1,0,2.754H31.972Zm9.748,0a.826.826,0,1,0,0-1.652H38.2a.826.826,0,0,0-.826.826v7.049a.826.826,0,0,0,.826.826H41.72a.826.826,0,1,0,0-1.652h-2.7V223.22l.055,0h1.762a.826.826,0,1,0,0-1.652H39.077l-.055,0V219.7Zm6.168,0a.826.826,0,1,0,0-1.652H44.364a.826.826,0,0,0-.826.826v7.049a.826.826,0,0,0,.826.826h3.525a.826.826,0,1,0,0-1.652h-2.7v-1.872h.936a.826.826,0,1,0,0-1.652H45.19V219.7Z" transform="translate(-15.34 -161.056)"/>
  </g>
</svg>
