<svg xmlns="http://www.w3.org/2000/svg" viewBox="0 0 9.413 9.411">
  <path id="Contact_Us" data-name="Contact Us"
    d="M8.288,9.411c-.038,0-.076,0-.114-.006a9.053,9.053,0,0,1-3.036-.85A9.12,9.12,0,0,1,2.633,6.779a9.115,9.115,0,0,1-1.777-2.5A9.043,9.043,0,0,1,.006,1.24,1.089,1.089,0,0,1,.284.39,1.2,1.2,0,0,1,1.171,0H2.736A1.212,1.212,0,0,1,3.883.826l.506,1.521A1.207,1.207,0,0,1,4.1,3.584l-.25.249-.018.124A5.345,5.345,0,0,0,5.457,5.575l.127-.016.246-.243a1.205,1.205,0,0,1,1.235-.292l1.521.507a1.208,1.208,0,0,1,.827,1.146V8.241A1.15,1.15,0,0,1,8.288,9.411ZM1.171.659A.527.527,0,0,0,.779.827a.454.454,0,0,0-.119.348A8.481,8.481,0,0,0,8.24,8.749l.042,0a.461.461,0,0,0,.329-.144.524.524,0,0,0,.143-.366V6.677a.548.548,0,0,0-.374-.521L6.859,5.649a.551.551,0,0,0-.175-.028.545.545,0,0,0-.388.161l-.246.243a.772.772,0,0,1-.542.225.753.753,0,0,1-.425-.132,6.031,6.031,0,0,1-1.8-1.8.762.762,0,0,1,.1-.955l.25-.249a.551.551,0,0,0,.132-.563l-.51-1.521A.547.547,0,0,0,2.736.659ZM9.084,3.3a.33.33,0,0,1-.33-.33A2.31,2.31,0,0,0,6.446.659a.33.33,0,1,1,0-.659A2.97,2.97,0,0,1,9.414,2.967.33.33,0,0,1,9.084,3.3Zm-1.758,0A.33.33,0,0,1,7,2.967a.55.55,0,0,0-.549-.549.33.33,0,1,1,0-.659A1.21,1.21,0,0,1,7.655,2.967.33.33,0,0,1,7.326,3.3Z"
    transform="translate(0)" fill="#0d1863" />
</svg>
