<?xml version="1.0" encoding="UTF-8"?>
<svg version="1.1" xmlns="http://www.w3.org/2000/svg" width="512" height="512">
<path d="M0 0 C0.88084629 -0.00384115 1.76169258 -0.00768229 2.66923118 -0.01163983 C3.63264182 -0.01077335 4.59605247 -0.00990687 5.58865738 -0.00901413 C6.61548575 -0.01198525 7.64231411 -0.01495637 8.70025849 -0.01801753 C12.15169343 -0.02671065 15.6030937 -0.0282133 19.05453873 -0.02970505 C21.5248764 -0.03433278 23.99521335 -0.03935738 26.46554947 -0.04475021 C33.18464506 -0.05788037 39.90372706 -0.06435706 46.6228323 -0.06876087 C50.81937092 -0.07152466 55.01590724 -0.07576227 59.21244431 -0.08026505 C70.83455002 -0.09245679 82.4566539 -0.10275623 94.07876587 -0.10614014 C95.19429345 -0.10646949 95.19429345 -0.10646949 96.33235694 -0.10680549 C97.07780776 -0.10702377 97.82325858 -0.10724204 98.59129882 -0.10746694 C100.10183191 -0.1079104 101.61236501 -0.10835696 103.1228981 -0.10880661 C103.87217253 -0.10902804 104.62144697 -0.10924947 105.39342669 -0.10947761 C117.5319323 -0.11342488 129.67037785 -0.13087714 141.80886027 -0.15416613 C154.27532473 -0.17789106 166.74175907 -0.19034251 179.20824647 -0.19150805 C186.20607287 -0.19242418 193.20382101 -0.1981608 200.20162582 -0.21632767 C206.7843584 -0.23335691 213.36696876 -0.23497273 219.9497261 -0.22618866 C222.36520917 -0.2254173 224.78070016 -0.22977391 227.19616318 -0.23964691 C230.49514064 -0.25233991 233.79358986 -0.24650354 237.09256363 -0.23606491 C238.04705139 -0.24412132 239.00153915 -0.25217772 239.98495078 -0.26047826 C246.10086385 -0.21525898 252.43467444 0.1909772 257.15487266 4.58336139 C261.19600563 9.30924626 261.74892583 12.41860686 261.77157974 18.42341995 C261.77815094 19.17485275 261.78472214 19.92628555 261.79149246 20.70048904 C261.81124002 23.1930946 261.82289222 25.68563981 261.83285904 28.17830276 C261.83693457 29.02951958 261.84101009 29.88073639 261.84520912 30.75774765 C261.86607764 35.26446669 261.88037507 39.77115522 261.8897438 44.27791214 C261.90080051 48.92964179 261.9351894 53.58089205 261.9749155 58.23245239 C262.0010837 61.81159214 262.00943588 65.39061782 262.01302528 68.96984482 C262.01789197 70.68422808 262.02950834 72.39860621 262.04806328 74.11289597 C262.07245627 76.51626703 262.07148974 78.91840006 262.06454849 81.32185745 C262.08376358 82.37882324 262.08376358 82.37882324 262.10336685 83.45714188 C262.05077902 88.46812556 260.70257775 91.25670488 257.59457779 95.13142776 C253.3507581 98.96121627 250.38217189 100.26347379 244.70785904 100.22908401 C243.77006607 100.22586136 242.8322731 100.2226387 241.86606216 100.21931839 C240.4013649 100.20675003 240.4013649 100.20675003 238.90707779 100.19392776 C237.91901138 100.18941605 236.93094498 100.18490433 235.91293716 100.18025589 C233.47342305 100.1684708 231.0340309 100.15201788 228.59457779 100.13142776 C231.11893344 117.58048259 236.12148419 127.47477685 249.05771255 139.63875198 C261.22645437 151.14602397 261.22645437 151.14602397 261.71483231 159.08667374 C261.71261169 159.82613739 261.71039108 160.56560104 261.70810318 161.32747269 C261.70802765 162.16811768 261.70795212 163.00876266 261.7078743 163.87488174 C261.70271301 164.77809662 261.69755173 165.68131149 261.69223404 166.61189651 C261.69011162 168.00388008 261.69011162 168.00388008 261.68794632 169.42398453 C261.68234716 172.38899835 261.66979483 175.35393676 261.65707779 178.31892776 C261.65206268 180.3286923 261.64749979 182.33845802 261.64340591 184.34822464 C261.632378 189.27598809 261.61511396 194.20369514 261.59457779 199.13142776 C258.95457779 199.13142776 256.31457779 199.13142776 253.59457779 199.13142776 C253.59457779 210.35142776 253.59457779 221.57142776 253.59457779 233.13142776 C254.58457779 232.80142776 255.57457779 232.47142776 256.59457779 232.13142776 C258.22024858 231.98427578 259.85044636 231.8842091 261.48129654 231.81502151 C262.88798599 231.75217972 262.88798599 231.75217972 264.32309341 231.68806839 C265.29955826 231.64875198 266.2760231 231.60943558 267.28207779 231.56892776 C268.7641774 231.50415237 268.7641774 231.50415237 270.27621841 231.43806839 C272.71550751 231.33201234 275.15502433 231.23121803 277.59457779 231.13142776 C277.59457779 225.52142776 277.59457779 219.91142776 277.59457779 214.13142776 C283.20457779 214.13142776 288.81457779 214.13142776 294.59457779 214.13142776 C294.59457779 219.74142776 294.59457779 225.35142776 294.59457779 231.13142776 C295.85270279 231.09017776 297.11082779 231.04892776 298.40707779 231.00642776 C303.84401775 230.99858225 309.1931466 231.50569727 314.59457779 232.06892776 C315.44382828 232.15577835 316.29307877 232.24262894 317.16806412 232.33211136 C317.96881363 232.41928421 318.76956314 232.50645706 319.59457779 232.59627151 C320.31645279 232.67482376 321.03832779 232.75337601 321.78207779 232.83430862 C323.59457779 233.13142776 323.59457779 233.13142776 325.59457779 234.13142776 C325.92457779 227.53142776 326.25457779 220.93142776 326.59457779 214.13142776 C332.53457779 214.13142776 338.47457779 214.13142776 344.59457779 214.13142776 C344.66649988 221.61132527 344.63383064 228.73391141 343.59457779 236.13142776 C344.29018814 236.33300491 344.98579849 236.53458206 345.70248795 236.74226761 C348.87520911 237.66242545 352.04739673 238.58440974 355.21957779 239.50642776 C356.86119888 239.98209183 356.86119888 239.98209183 358.53598404 240.46736526 C359.5994606 240.77674026 360.66293716 241.08611526 361.75864029 241.40486526 C362.73268814 241.68765335 363.70673599 241.97044144 364.71030045 242.26179886 C367.69264719 243.16099635 370.64423351 244.13267309 373.59457779 245.13142776 C375.47931782 243.24668773 375.28789779 240.10396375 375.65707779 237.56892776 C376.12114029 234.38236526 376.12114029 234.38236526 376.59457779 231.13142776 C382.20457779 231.13142776 387.81457779 231.13142776 393.59457779 231.13142776 C393.68562196 238.23287315 393.36927974 245.07613766 392.59457779 252.13142776 C393.1073024 252.36740677 393.62002701 252.60338577 394.14828873 252.84651566 C404.26619624 257.52146016 414.07259432 262.31930799 423.59457779 268.13142776 C424.25457779 261.20142776 424.91457779 254.27142776 425.59457779 247.13142776 C431.53457779 247.13142776 437.47457779 247.13142776 443.59457779 247.13142776 C443.18173909 257.94780163 442.52808935 267.6888646 439.59457779 278.13142776 C440.45438248 278.79787308 441.31418716 279.46431839 442.20004654 280.15095901 C474.61411657 305.37834552 474.61411657 305.37834552 486.59457779 320.13142776 C487.39895279 321.08017776 488.20332779 322.02892776 489.03207779 323.00642776 C490.59457779 325.13142776 490.59457779 325.13142776 490.59457779 327.13142776 C488.9080839 328.74232021 487.14393445 330.27266507 485.34457779 331.75642776 C484.37004654 332.57369339 483.39551529 333.39095901 482.39145279 334.23299026 C479.59457779 336.13142776 479.59457779 336.13142776 475.59457779 336.13142776 C473.95615005 334.67366409 473.95615005 334.67366409 472.34848404 332.65095901 C462.15265815 320.3177799 450.40090381 309.66841394 437.59457779 300.13142776 C436.70254654 299.37474808 435.81051529 298.61806839 434.89145279 297.83845901 C432.67022889 295.83317781 432.67022889 295.83317781 429.59457779 296.13142776 C427.67627976 298.05167351 427.67627976 298.05167351 425.90707779 300.50642776 C425.2844606 301.31853714 424.66184341 302.13064651 424.02035904 302.96736526 C422.41118777 304.97785727 422.41118777 304.97785727 422.59457779 307.13142776 C424.17174018 308.38176373 425.80959101 309.55584818 427.46957779 310.69392776 C432.37813551 314.17213555 436.83656484 317.89901534 441.25473404 321.97517776 C443.37414119 323.92828753 445.53219673 325.81781146 447.71957779 327.69392776 C454.59230364 333.71272776 460.60839224 340.16578394 466.31723404 347.29939651 C467.77756741 349.11542 469.26271873 350.91192157 470.77817154 352.68220901 C477.02205717 360.01682689 482.22324616 367.90283521 487.29184341 376.07429886 C488.18695152 377.48775104 489.1149213 378.88075688 490.06918716 380.25496292 C493.57365867 385.41136979 493.57365867 385.41136979 493.66879654 388.68611526 C492.1861902 392.06106642 490.39002461 395.15947021 488.40707779 398.25642776 C487.96927994 398.9458345 487.53148209 399.63524124 487.08041763 400.34553909 C478.5557046 413.56017122 469.27488111 426.22086516 458.24301529 437.45222855 C456.40892743 439.32054258 454.59662396 441.20898084 452.78207779 443.09627151 C444.5766454 451.54751856 436.12405833 459.20753294 426.59457779 466.13142776 C425.55043716 466.89713089 424.50629654 467.66283401 423.43051529 468.45174026 C373.86259628 503.75197042 310.60328287 519.46043336 250.31235123 509.59431839 C240.06406685 507.74837267 229.93771069 505.66072269 219.97836685 502.59993362 C215.42485099 501.70499334 212.80125603 503.52295334 209.09457779 506.00642776 C207.96535904 506.77599808 207.96535904 506.77599808 206.81332779 507.56111526 C196.53856995 512.57380052 185.70582128 512.56527434 174.54184341 512.51961136 C172.85512835 512.52368494 171.16841595 512.5290312 169.48170853 512.53554153 C164.93417022 512.54912753 160.38683788 512.5439528 155.83929634 512.53440428 C151.06033051 512.5267622 146.28138129 512.53386584 141.5024147 512.53856277 C133.47988116 512.54400715 125.45743072 512.53686341 117.43490982 512.52254105 C108.18491217 512.50621709 98.93511296 512.51150653 89.68512011 512.52802026 C81.71616189 512.54167279 73.7472631 512.54353643 65.77829695 512.53570426 C61.03064825 512.53104839 56.28309255 512.53034505 51.53544998 512.54031372 C47.07013942 512.54903616 42.60508253 512.54286601 38.13979912 512.52563095 C36.50970059 512.52169411 34.87958038 512.52275154 33.24949074 512.52941895 C20.25202088 512.57764402 8.722715 511.41194818 -2.40542221 504.13142776 C-3.27167221 503.57455276 -4.13792221 503.01767776 -5.03042221 502.44392776 C-13.25628906 494.4345311 -18.43595258 484.32122943 -18.91158009 472.77704144 C-18.93464947 470.40198934 -18.93620811 468.02666352 -18.92008591 465.65155411 C-18.9305042 463.67568379 -18.9305042 463.67568379 -18.94113296 461.65989691 C-18.95964659 458.03261747 -18.95349482 454.40574944 -18.94297993 450.77845371 C-18.93595574 446.85541162 -18.95200999 442.93245134 -18.96497726 439.00943375 C-18.98656756 431.3359758 -18.98650339 423.66266644 -18.97835172 415.98918813 C-18.97204098 409.75096324 -18.97319858 403.51278156 -18.97962379 397.27455711 C-18.98052545 396.38526841 -18.9814271 395.49597971 -18.98235608 394.57974287 C-18.98420736 392.77294304 -18.98606992 390.96614323 -18.98794364 389.15934343 C-19.00450426 372.23498339 -18.99581714 355.31070684 -18.97895806 338.38635183 C-18.96425706 322.91286944 -18.97889821 307.43958116 -19.00772823 291.96612375 C-19.03713932 276.06191152 -19.04808987 260.15778882 -19.03854603 244.25355059 C-19.03752351 242.45386129 -19.0365289 240.65417198 -19.03556252 238.85448265 C-19.03508613 237.96909113 -19.03460974 237.08369961 -19.03411891 236.17147804 C-19.03195735 229.9428166 -19.0417449 223.7142402 -19.05633354 217.48559761 C-19.07387178 209.89202053 -19.07371791 202.29869101 -19.05098189 194.7051236 C-19.03985414 190.8333722 -19.03664355 186.96205675 -19.05528259 183.0903244 C-19.07525264 178.88796489 -19.056271 174.68666353 -19.0336113 170.48431778 C-19.04544703 169.26806416 -19.05728275 168.05181054 -19.06947714 166.79870075 C-18.97181539 157.87708731 -16.89487365 151.36458319 -11.18886948 144.44246292 C-10.45724594 143.77521194 -9.72562241 143.10796097 -8.97182846 142.42049026 C-8.15778549 141.64963089 -7.34374252 140.87877151 -6.50503159 140.08455276 C-4.81963624 138.53798521 -3.13214814 136.99369505 -1.44253159 135.45174026 C6.78946093 127.64273551 12.1873934 118.86836428 12.96957779 107.38142776 C13.0378981 106.67244339 13.10621841 105.96345901 13.17660904 105.23299026 C13.3372908 103.53435453 13.46933198 101.83304331 13.59457779 100.13142776 C13.02013931 100.14713821 12.44570084 100.16284866 11.85385513 100.17903519 C9.2258647 100.24178289 6.59803242 100.28054282 3.96957779 100.31892776 C3.06594498 100.34406448 2.16231216 100.3692012 1.23129654 100.39509964 C-4.87182944 100.46192219 -9.38515527 99.95082185 -14.04995346 95.59627151 C-17.83638904 90.64477883 -18.55936258 87.95230967 -18.58242416 81.83943558 C-18.58899536 81.08800278 -18.59556656 80.33656998 -18.60233688 79.56236649 C-18.62208444 77.06976093 -18.63373664 74.57721572 -18.64370346 72.08455276 C-18.64777899 71.23333595 -18.65185452 70.38211914 -18.65605354 69.50510788 C-18.67692206 64.99838884 -18.69121949 60.49170031 -18.70058823 55.98494339 C-18.71164493 51.33321374 -18.74603382 46.68196348 -18.78575993 42.03040314 C-18.81192812 38.45126339 -18.82028031 34.87223771 -18.82386971 31.29301071 C-18.82873639 29.57862745 -18.84035276 27.86424932 -18.8589077 26.14995956 C-18.88330069 23.7465885 -18.88233416 21.34445547 -18.87539291 18.94099808 C-18.88820297 18.23635422 -18.90101303 17.53171036 -18.91421127 16.80571365 C-18.86164521 11.7968041 -17.53929481 8.98890398 -14.40542221 5.13142776 C-9.59166185 1.42082082 -5.99110567 0.00983057 0 0 Z M253.59457779 250.13142776 C253.95470872 255.89352259 255.24665906 261.05266591 259.59457779 265.13142776 C262.69643556 265.96099438 265.4458651 265.58269255 268.59457779 265.13142776 C269.87268326 265.00574417 269.87268326 265.00574417 271.17660904 264.87752151 C273.31981699 264.66488829 275.45800492 264.40273861 277.59457779 264.13142776 C277.59457779 259.18142776 277.59457779 254.23142776 277.59457779 249.13142776 C269.49526095 249.05846095 261.62818758 249.00390358 253.59457779 250.13142776 Z M294.59457779 249.13142776 C294.59457779 254.08142776 294.59457779 259.03142776 294.59457779 264.13142776 C305.24740457 266.21193072 305.24740457 266.21193072 315.05551529 263.36970901 C316.6092245 260.98393726 317.65248823 258.81470071 318.59457779 256.13142776 C318.96582779 255.20588089 319.33707779 254.28033401 319.71957779 253.32674026 C320.00832779 252.60228714 320.29707779 251.87783401 320.59457779 251.13142776 C313.33213541 247.50020657 302.47882464 249.06039851 294.59457779 249.13142776 Z M338.59457779 254.13142776 C336.28457779 258.75142776 333.97457779 263.37142776 331.59457779 268.13142776 C333.80145279 268.70892776 336.00832779 269.28642776 338.28207779 269.88142776 C344.60601432 271.54921786 350.85238923 273.40452859 357.08285904 275.39705276 C359.47837049 276.22497125 359.47837049 276.22497125 361.59457779 276.13142776 C363.06040134 273.98861744 364.40581293 271.8643638 365.71957779 269.63142776 C366.09211685 269.0113887 366.46465591 268.39134964 366.84848404 267.75252151 C367.77036732 266.21604939 368.68331254 264.67422102 369.59457779 263.13142776 C366.59361742 261.13078752 364.38270239 260.36681266 360.93832779 259.40486526 C359.83360123 259.09549026 358.72887466 258.78611526 357.59067154 258.46736526 C356.4369606 258.15025589 355.28324966 257.83314651 354.09457779 257.50642776 C352.94086685 257.18158401 351.78715591 256.85674026 350.59848404 256.52205276 C344.68130357 254.76300557 344.68130357 254.76300557 338.59457779 254.13142776 Z M385.59457779 269.13142776 C384.42265732 271.08662161 383.25718489 273.04568166 382.09457779 275.00642776 C381.44489029 276.09697464 380.79520279 277.18752151 380.12582779 278.31111526 C378.43552926 280.88950448 378.43552926 280.88950448 378.59457779 283.13142776 C379.19930923 283.418647 379.80404068 283.70586624 380.42709732 284.00178909 C383.19155473 285.3152107 385.95556946 286.62956137 388.71957779 287.94392776 C390.14656998 288.62165237 390.14656998 288.62165237 391.60239029 289.31306839 C396.28928527 291.5425983 400.96481719 293.78537063 405.59457779 296.13142776 C410.00767321 292.97921675 412.60250793 289.57678869 415.59457779 285.13142776 C413.2902048 282.58296918 410.95469398 281.09199197 407.91879654 279.50252151 C407.00807388 279.02492386 406.09735123 278.5473262 405.15903091 278.05525589 C404.20963638 277.56476761 403.26024185 277.07427933 402.28207779 276.56892776 C401.34428482 276.0745723 400.40649185 275.58021683 399.44028091 275.07088089 C394.90568373 272.70931125 390.53730589 270.5306255 385.59457779 269.13142776 Z " fill="#020101" transform="translate(18.40542221069336,-0.13142776489257813)"/>
<path d="M0 0 C1.53251906 1.31988528 3.05357119 2.65320912 4.5625 4 C5.78646484 5.01126953 5.78646484 5.01126953 7.03515625 6.04296875 C24.96160323 21.254127 39.36940583 45.82704026 41.42773438 69.50561523 C43.12399927 100.90188045 38.70496777 130.89724892 17.16333008 155.20678711 C14.70032427 157.87774707 12.15255344 160.45270687 9.5625 163 C8.7271875 163.83402344 7.891875 164.66804687 7.03125 165.52734375 C-12.92033537 184.47487207 -41.23145691 193.83875119 -68.43359375 193.18359375 C-87.17993756 192.45368774 -103.17129985 186.96887721 -119.4375 178 C-120.40171875 177.47921875 -121.3659375 176.9584375 -122.359375 176.421875 C-135.28857945 168.84796233 -146.23516173 157.43742314 -154.4375 145 C-155.04851562 144.09378906 -155.65953125 143.18757812 -156.2890625 142.25390625 C-170.90469915 119.04272998 -175.45798423 89.1879289 -169.99731445 62.42797852 C-163.7300178 35.24600504 -146.56751035 10.52175324 -123.12792969 -4.64916992 C-116.52161554 -8.73311996 -109.59727827 -12.01397098 -102.4375 -15 C-101.6640625 -15.32613281 -100.890625 -15.65226562 -100.09375 -15.98828125 C-67.85133876 -28.07918546 -26.8949683 -21.11971649 0 0 Z " fill="#DDB089" transform="translate(369.4375,302)"/>
<path d="M0 0 C81.84 0 163.68 0 248 0 C248 5.28 248 10.56 248 16 C250.64 16 253.28 16 256 16 C256.02465098 20.96622349 256.04283649 25.93241166 256.05493164 30.89868164 C256.0599719 32.58944316 256.06680405 34.28020029 256.07543945 35.97094727 C256.08751857 38.39600707 256.09323123 40.82100944 256.09765625 43.24609375 C256.10281754 44.00651474 256.10797882 44.76693573 256.11329651 45.55039978 C256.11349238 47.3673257 256.06197277 49.18413127 256 51 C255.67 51.33 255.34 51.66 255 52 C252.69 52 250.38 52 248 52 C248 45.73 248 39.46 248 33 C242.39 33 236.78 33 231 33 C231.33 40.26 231.66 47.52 232 55 C228.46085139 56.7695743 225.87362407 57.57414575 222.0625 58.375 C216.14812088 59.67816828 210.43494715 61.35191823 204.6796875 63.23046875 C202 64 202 64 199 64 C197.95774825 58.91902274 197.92177131 54.16309352 198 49 C192.72 49 187.44 49 182 49 C182.99 59.89 182.99 59.89 184 71 C182.288125 71.81984375 180.57625 72.6396875 178.8125 73.484375 C176.54164989 74.57288166 174.27081749 75.66142528 172 76.75 C170.87464844 77.28882813 169.74929687 77.82765625 168.58984375 78.3828125 C162.70107839 81.20666489 156.82991034 84.05646684 151 87 C148.35945796 80.06857714 148.85977799 73.36165572 149 66 C143.39 66 137.78 66 132 66 C132.4554435 76.81678319 134.28234124 86.55913423 137 97 C136.33355469 97.47308594 135.66710937 97.94617188 134.98046875 98.43359375 C120.96287727 108.49097058 108.24455201 119.69323157 96 131.8125 C95.24509277 132.55435547 94.49018555 133.29621094 93.71240234 134.06054688 C93.00293457 134.76888672 92.2934668 135.47722656 91.5625 136.20703125 C90.92441406 136.8410083 90.28632812 137.47498535 89.62890625 138.12817383 C87.69565116 140.19236962 87.69565116 140.19236962 86 144 C90.95 148.455 90.95 148.455 96 153 C99.58708767 151.20645616 100.55667654 150.63223998 102.875 147.75 C114.62615979 133.90582248 128.22432482 122.4887288 143 112 C146.32997682 113.43240688 148.3992896 115.18236524 150.8125 117.875 C151.43769531 118.55304688 152.06289062 119.23109375 152.70703125 119.9296875 C154 122 154 122 154.0703125 123.96484375 C152.45145622 127.04303398 149.83206596 128.71213348 147.0625 130.6875 C141.87286996 134.52604285 137.00667524 138.54729648 132.2578125 142.9296875 C130.23524746 144.78428866 128.16516016 146.55035161 126.0625 148.3125 C111.77913129 160.85329773 100.51259405 176.77619046 90.21875 192.6328125 C87.91920116 196.16753568 85.46972649 199.58238552 83 203 C78.23828477 202.49876682 75.01102392 200.26382936 71.25 197.5 C70.63092773 197.04786133 70.01185547 196.59572266 69.37402344 196.12988281 C51.09542455 182.51856556 38.66659165 162.52915129 34.44921875 140.06640625 C32.40828433 124.8185852 32.20171564 107.39743489 38 93 C38.26844727 92.32469238 38.53689453 91.64938477 38.81347656 90.95361328 C43.0942818 80.42700416 48.53747049 71.54819613 56 63 C56.76957031 62.11828125 57.53914063 61.2365625 58.33203125 60.328125 C74.52439943 43.03478319 97.24933287 33.28883718 120.7878418 32.47729492 C135.46880141 32.28805044 148.62423875 35.00639345 162 41 C162.19335938 40.41992188 162.38671875 39.83984375 162.5859375 39.2421875 C164.05729167 34.828125 165.52864583 30.4140625 167 26 C164.1679225 25.03781983 161.33443873 24.0801792 158.5 23.125 C157.70851562 22.85558594 156.91703125 22.58617187 156.1015625 22.30859375 C147.79375508 19.51662568 139.77529394 17.50378857 131 17 C129.85917969 16.93425781 128.71835938 16.86851562 127.54296875 16.80078125 C97.23065174 15.9101458 70.44618126 27.57564125 48.54443359 48.07226562 C30.57899157 65.40724162 18.58449707 90.81864127 17.796875 115.8984375 C17.37171576 145.37973256 24.71841217 172.82454574 45 195 C45.76957031 195.85078125 46.53914063 196.7015625 47.33203125 197.578125 C59.17013823 210.0473427 74.22457661 218.72131082 90.4375 224.1875 C97.91848068 227.16566215 100.99550629 233.40526755 105 240 C106.65 242.31 108.3 244.62 110 247 C73.7 247 37.4 247 0 247 C0 165.49 0 83.98 0 0 Z " fill="#FBE7A5" transform="translate(16,182)"/>
<path d="M0 0 C81.84 0 163.68 0 248 0 C248 21.78 248 43.56 248 66 C166.16 66 84.32 66 0 66 C0 44.22 0 22.44 0 0 Z " fill="#FCC528" transform="translate(16,17)"/>
<path d="M0 0 C5.61 0 11.22 0 17 0 C17 11.22 17 22.44 17 34 C19.31 34.33 21.62 34.66 24 35 C26.252603 35.72228793 28.48400365 36.51446297 30.6875 37.375 C31.78449219 37.79523438 32.88148438 38.21546875 34.01171875 38.6484375 C37 40 37 40 39.14453125 41.7265625 C40.87503079 43.19732441 40.87503079 43.19732441 42.80883789 42.87280273 C45.90098811 41.64111058 47.60483072 39.69544492 49.9140625 37.30859375 C50.59763321 36.61154076 50.59763321 36.61154076 51.29501343 35.90040588 C52.74570942 34.41974943 54.18606269 32.92957988 55.625 31.4375 C57.52787132 29.47180993 59.43781186 27.51377335 61.3515625 25.55859375 C62.19541504 24.68517334 63.03926758 23.81175293 63.90869141 22.91186523 C66 21 66 21 68 21 C69.62109375 22.609375 69.62109375 22.609375 71.4375 24.75 C72.03433594 25.44609375 72.63117188 26.1421875 73.24609375 26.859375 C74.89097068 28.8669308 76.44971127 30.91915592 78 33 C77.32831787 33.64549805 76.65663574 34.29099609 75.96459961 34.95605469 C73.48154108 37.35396623 71.01008901 39.76269686 68.5456543 42.1796875 C67.47620493 43.22397145 66.40231404 44.26372669 65.32397461 45.29882812 C63.77572131 46.78651929 62.24410864 48.28970227 60.71484375 49.796875 C59.32446899 51.14797363 59.32446899 51.14797363 57.90600586 52.52636719 C55.75733372 54.76161707 55.75733372 54.76161707 56.10571289 57.12915039 C58.0657586 61.22956815 60.23880424 65.20632174 62.40625 69.19921875 C64 73 64 73 65 82 C76.22 82 87.44 82 99 82 C99 87.61 99 93.22 99 99 C87.78 99 76.56 99 65 99 C64.67 102.3 64.34 105.6 64 109 C62.65813178 112.21147357 61.13359602 115.12992805 59.43945312 118.16015625 C57.62442327 121.5046212 57 123.07378202 57 127 C58.95294052 129.50776542 58.95294052 129.50776542 61.59375 131.984375 C62.05986694 132.44483215 62.52598389 132.90528931 63.00622559 133.37969971 C64.4950182 134.84612742 65.99711722 136.29802983 67.5 137.75 C68.51262783 138.74256298 69.52435815 139.7360425 70.53515625 140.73046875 C73.01311691 143.16436157 75.50320278 145.58541748 78 148 C76.39464713 151.41059403 74.59481099 153.61792484 71.875 156.25 C71.15054688 156.95640625 70.42609375 157.6628125 69.6796875 158.390625 C68.84824219 159.18726563 68.84824219 159.18726563 68 160 C64.33247995 158.4608199 62.01419427 156.24514548 59.234375 153.4296875 C58.34492188 152.53378906 57.45546875 151.63789063 56.5390625 150.71484375 C55.15847656 149.30912109 55.15847656 149.30912109 53.75 147.875 C52.80515144 146.92011363 51.85984367 145.96568141 50.9140625 145.01171875 C48.60481662 142.67890913 46.30036797 140.34155914 44 138 C40.59548009 139.33943682 37.36600024 140.80184013 34.125 142.5 C28.22845215 145.47017789 23.71551305 147 17 147 C17 158.22 17 169.44 17 181 C11.39 181 5.78 181 0 181 C0 169.78 0 158.56 0 147 C-2.64 146.67 -5.28 146.34 -8 146 C-10.72265625 145.16796875 -10.72265625 145.16796875 -13.0625 144.1875 C-13.90167969 143.83816406 -14.74085938 143.48882812 -15.60546875 143.12890625 C-17.81232141 142.08848143 -19.81502511 140.92626894 -21.875 139.625 C-22.90625 139.08875 -23.9375 138.5525 -25 138 C-28.72021872 139.20146024 -31.06619008 141.83626944 -33.765625 144.5703125 C-34.65507812 145.46621094 -35.54453125 146.36210937 -36.4609375 147.28515625 C-37.38132812 148.22230469 -38.30171875 149.15945313 -39.25 150.125 C-40.19484856 151.07988637 -41.14015633 152.03431859 -42.0859375 152.98828125 C-44.39518338 155.32109087 -46.69963203 157.65844086 -49 160 C-52.41059403 158.39464713 -54.61792484 156.59481099 -57.25 153.875 C-57.95640625 153.15054688 -58.6628125 152.42609375 -59.390625 151.6796875 C-60.18726563 150.84824219 -60.18726563 150.84824219 -61 150 C-59.4608199 146.33247995 -57.24514548 144.01419427 -54.4296875 141.234375 C-53.53378906 140.34492188 -52.63789063 139.45546875 -51.71484375 138.5390625 C-50.77769531 137.61867188 -49.84054688 136.69828125 -48.875 135.75 C-47.92011363 134.80515144 -46.96568141 133.85984367 -46.01171875 132.9140625 C-43.67890913 130.60481662 -41.34155914 128.30036797 -39 126 C-40.39993933 122.46574512 -41.89633533 119.00940119 -43.5 115.5625 C-46.11983379 109.80504817 -48 105.41354477 -48 99 C-59.22 99 -70.44 99 -82 99 C-82 93.39 -82 87.78 -82 82 C-70.78 82 -59.56 82 -48 82 C-47.67 79.36 -47.34 76.72 -47 74 C-45.9140625 70.734375 -45.9140625 70.734375 -44.625 67.75 C-44.20476562 66.75484375 -43.78453125 65.7596875 -43.3515625 64.734375 C-42 62 -42 62 -40.2734375 59.890625 C-38.80468866 58.1286205 -38.80468866 58.1286205 -39.12719727 56.19335938 C-40.36132152 53.0919965 -42.31503434 51.34930759 -44.69140625 49.015625 C-45.38845924 48.32493927 -45.38845924 48.32493927 -46.09959412 47.62030029 C-47.58031819 46.15632189 -49.07114519 44.70313959 -50.5625 43.25 C-51.57034664 42.25720551 -52.57751633 41.2637233 -53.58398438 40.26953125 C-56.04819461 37.83833527 -58.52157329 35.41671132 -61 33 C-57.32167983 28.47384007 -53.58913637 24.60575001 -49 21 C-48.35450195 21.67168213 -47.70900391 22.34336426 -47.04394531 23.03540039 C-44.64603377 25.51845892 -42.23730314 27.98991099 -39.8203125 30.4543457 C-38.77602855 31.52379507 -37.73627331 32.59768596 -36.70117188 33.67602539 C-35.21348071 35.22427869 -33.71029773 36.75589136 -32.203125 38.28515625 C-30.85202637 39.67553101 -30.85202637 39.67553101 -29.47363281 41.09399414 C-27.23534603 43.24843705 -27.23534603 43.24843705 -24.85009766 42.87841797 C-21.21357025 41.15181126 -17.64127025 39.3311982 -14.0703125 37.47265625 C-9.07803345 35.07814072 -5.59642786 34 0 34 C0 22.78 0 11.56 0 0 Z " fill="#030202" transform="translate(296,297)"/>
<path d="M0 0 C4.81011135 2.96006852 9.57710721 5.984207 14.3125 9.0625 C15.31925781 9.71347656 16.32601562 10.36445313 17.36328125 11.03515625 C19.81188752 12.85982137 21.3436252 14.46173282 23 17 C21.02 17 19.04 17 17 17 C17.99 27.89 17.99 27.89 19 39 C17.288125 39.81984375 15.57625 40.6396875 13.8125 41.484375 C11.54164989 42.57288166 9.27081749 43.66142528 7 44.75 C5.87464844 45.28882813 4.74929687 45.82765625 3.58984375 46.3828125 C-2.29892161 49.20666489 -8.17008966 52.05646684 -14 55 C-16.64054204 48.06857714 -16.14022201 41.36165572 -16 34 C-21.61 34 -27.22 34 -33 34 C-32.5445565 44.81678319 -30.71765876 54.55913423 -28 65 C-28.66644531 65.47308594 -29.33289063 65.94617188 -30.01953125 66.43359375 C-44.03712273 76.49097058 -56.75544799 87.69323157 -69 99.8125 C-69.75490723 100.55435547 -70.50981445 101.29621094 -71.28759766 102.06054688 C-71.99706543 102.76888672 -72.7065332 103.47722656 -73.4375 104.20703125 C-74.07558594 104.8410083 -74.71367188 105.47498535 -75.37109375 106.12817383 C-77.30434884 108.19236962 -77.30434884 108.19236962 -79 112 C-75.7 114.97 -72.4 117.94 -69 121 C-65.41291233 119.20645616 -64.44332346 118.63223998 -62.125 115.75 C-50.37384021 101.90582248 -36.77567518 90.4887288 -22 80 C-18.67002318 81.43240688 -16.6007104 83.18236524 -14.1875 85.875 C-13.56230469 86.55304688 -12.93710938 87.23109375 -12.29296875 87.9296875 C-11 90 -11 90 -10.9296875 91.96484375 C-12.54854378 95.04303398 -15.16793404 96.71213348 -17.9375 98.6875 C-23.12713004 102.52604285 -27.99332476 106.54729648 -32.7421875 110.9296875 C-34.76475254 112.78428866 -36.83483984 114.55035161 -38.9375 116.3125 C-53.22086871 128.85329773 -64.48740595 144.77619046 -74.78125 160.6328125 C-77.08079884 164.16753568 -79.53027351 167.58238552 -82 171 C-86.76171523 170.49876682 -89.98897608 168.26382936 -93.75 165.5 C-94.36907227 165.04786133 -94.98814453 164.59572266 -95.62597656 164.12988281 C-113.90457545 150.51856556 -126.33340835 130.52915129 -130.55078125 108.06640625 C-132.59171567 92.8185852 -132.79828436 75.39743489 -127 61 C-126.73155273 60.32469238 -126.46310547 59.64938477 -126.18652344 58.95361328 C-121.9057182 48.42700416 -116.46252951 39.54819613 -109 31 C-108.23042969 30.11828125 -107.46085937 29.2365625 -106.66796875 28.328125 C-90.47560057 11.03478319 -67.75066713 1.28883718 -44.2121582 0.47729492 C-29.53119859 0.28805044 -16.37576125 3.00639345 -3 9 C-2.01 6.03 -1.02 3.06 0 0 Z " fill="#CD9D75" transform="translate(181,214)"/>
<path d="M0 0 C59.4 0 118.8 0 180 0 C180.99 6.93 180.99 6.93 182 14 C186.53289334 31.32212812 194.94719286 42.86713604 208.00048828 54.83398438 C208.64099121 55.43017578 209.28149414 56.02636719 209.94140625 56.640625 C210.52736572 57.16688477 211.1133252 57.69314453 211.71704102 58.23535156 C213 60 213 60 213 65 C131.82 65 50.64 65 -33 65 C-33 60 -33 60 -31.76586914 58.24584961 C-31.19473389 57.71999268 -30.62359863 57.19413574 -30.03515625 56.65234375 C-29.40407959 56.05349365 -28.77300293 55.45464355 -28.12280273 54.83764648 C-27.44290283 54.21059814 -26.76300293 53.5835498 -26.0625 52.9375 C-9.43081787 36.89987631 -3.75861683 23.80457328 0 0 Z " fill="#FBD66F" transform="translate(50,100)"/>
<path d="M0 0 C16.30734621 -0.16366633 32.61442523 -0.28703099 48.92239475 -0.3626852 C56.49484812 -0.39874975 64.06679061 -0.44790014 71.63891602 -0.52807617 C78.24035694 -0.59794085 84.84142782 -0.64302953 91.44322819 -0.65861946 C94.93768602 -0.66773017 98.43108544 -0.68907334 101.92520332 -0.7401104 C105.82997294 -0.79668077 109.73371591 -0.79792321 113.63891602 -0.79467773 C114.79194214 -0.81984467 115.94496826 -0.8450116 117.13293457 -0.87094116 C122.65170643 -0.82130113 126.05628846 -0.62749502 130.06919861 3.37852478 C131.05339847 4.57976651 132.03077586 5.78664283 133 7 C135.11097563 8.87253596 137.32662243 10.59187038 139.5625 12.3125 C140.16473389 12.77906006 140.76696777 13.24562012 141.38745117 13.72631836 C143.25107634 15.16067747 145.12317428 16.58296686 147 18 C147.57169922 18.43248047 148.14339844 18.86496094 148.73242188 19.31054688 C163.77797925 30.59906333 179.90468958 39.2311103 197 47 C197 47.66 197 48.32 197 49 C193.51459076 50.16180308 190.7800896 50.13772348 187.10081482 50.15390015 C186.04174623 50.16047353 186.04174623 50.16047353 184.96128231 50.1671797 C182.5893385 50.1805614 180.21743185 50.18674521 177.84545898 50.19287109 C176.14697604 50.20077275 174.44849476 50.20904174 172.75001526 50.21765137 C167.16539106 50.24387072 161.58075938 50.2591819 155.99609375 50.2734375 C154.07242389 50.27879778 152.14875407 50.28417529 150.2250843 50.28956985 C142.22052249 50.31120111 134.2159627 50.32993604 126.21137905 50.34119225 C114.74814385 50.35741878 103.28524828 50.39056229 91.82214111 50.44759309 C83.75829678 50.48634022 75.6945431 50.50583076 67.63060814 50.51111281 C62.81681613 50.51476058 58.00338637 50.52672012 53.18969536 50.55921555 C48.65631258 50.58937913 44.12350967 50.5955786 39.59004784 50.58383179 C37.93167708 50.58361172 36.27327879 50.59186087 34.61500168 50.60948563 C24.4182811 50.71190622 15.80251619 50.25971942 7.86937618 43.06868553 C1.59835327 36.75667658 -0.16989747 29.76605108 -0.29296875 20.99609375 C-0.2732322 18.47639453 -0.23775664 15.95677528 -0.1875 13.4375 C-0.17396484 12.14263672 -0.16042969 10.84777344 -0.14648438 9.51367188 C-0.1113737 6.34200786 -0.06219347 3.1712291 0 0 Z " fill="#F8D36E" transform="translate(16,445)"/>
<path d="M0 0 C6.60711798 1.9507575 12.49051548 4.58544901 18.5 7.9375 C19.36294678 8.41622559 20.22589355 8.89495117 21.11499023 9.38818359 C49.88369435 25.66538712 73.78753255 48.29643286 93 75 C93.43602539 75.59474121 93.87205078 76.18948242 94.32128906 76.80224609 C95.50208387 78.41833782 96.65810684 80.05244487 97.8125 81.6875 C98.45832031 82.59886719 99.10414063 83.51023437 99.76953125 84.44921875 C101.29063189 87.60248452 100.94863173 88.68536184 100 92 C98.79174805 94.18139648 98.79174805 94.18139648 97.26171875 96.37109375 C96.69533691 97.18545898 96.12895508 97.99982422 95.54541016 98.83886719 C94.9322998 99.69641602 94.31918945 100.55396484 93.6875 101.4375 C93.05376465 102.32985352 92.4200293 103.22220703 91.76708984 104.14160156 C78.39371283 122.74716587 62.55331922 139.49718444 44 153 C42.9790625 153.75410156 41.958125 154.50820313 40.90625 155.28515625 C29.00487913 163.80545585 15.07769177 173.56339411 1 178 C0.34 177.67 -0.32 177.34 -1 177 C-0.55011719 176.59652344 -0.10023438 176.19304687 0.36328125 175.77734375 C21.79741217 155.54592959 35.33323707 125.4042722 36.27734375 96.05078125 C36.32066824 93.49234724 36.35312517 90.93370731 36.375 88.375 C36.38909912 87.17174072 36.40319824 85.96848145 36.41772461 84.72875977 C36.37150756 76.14935521 35.07187424 68.3109669 33 60 C32.82259277 59.22301758 32.64518555 58.44603516 32.46240234 57.64550781 C27.5757934 36.58200443 15.96803398 18.36892565 1.43359375 2.64453125 C0 1 0 1 0 0 Z " fill="#CACFD7" transform="translate(391,299)"/>
<path d="M0 0 C0.99 0.495 0.99 0.495 2 1 C1.38125 1.2475 0.7625 1.495 0.125 1.75 C-2.1131181 2.80575908 -2.1131181 2.80575908 -2.9140625 4.84375 C-4.14248591 7.28292167 -5.59455176 8.79769647 -7.5 10.75 C-28.31663959 33.86702911 -37.31157658 65.59421859 -36.17041016 96.23144531 C-35.14772737 112.84637766 -31.10295077 127.99612955 -24 143 C-23.7019043 143.63502441 -23.40380859 144.27004883 -23.09667969 144.92431641 C-17.0896007 157.45679949 -8.44268501 167.90994415 1 178 C0.34 178.33 -0.32 178.66 -1 179 C-2.80908203 178.35424805 -2.80908203 178.35424805 -5.0078125 177.26171875 C-6.2287561 176.6574707 -6.2287561 176.6574707 -7.47436523 176.04101562 C-8.78642944 175.37102539 -8.78642944 175.37102539 -10.125 174.6875 C-11.02355713 174.23181641 -11.92211426 173.77613281 -12.84790039 173.30664062 C-45.28184838 156.60581358 -71.61216082 132.4176595 -93 103 C-93.39735352 102.46632813 -93.79470703 101.93265625 -94.20410156 101.3828125 C-95.38438163 99.79005361 -96.53637155 98.17645329 -97.6875 96.5625 C-98.37199219 95.61503906 -99.05648437 94.66757812 -99.76171875 93.69140625 C-101 91 -101 91 -100.39453125 88.46484375 C-99.70423828 87.24474609 -99.70423828 87.24474609 -99 86 C-98.54625 85.195625 -98.0925 84.39125 -97.625 83.5625 C-89.88123651 71.35118065 -80.99448588 60.42780006 -71 50 C-70.44715332 49.41460449 -69.89430664 48.82920898 -69.32470703 48.22607422 C-50.9135127 28.80254541 -25.72081867 8.71649966 0 0 Z " fill="#CACFD7" transform="translate(218,298)"/>
<path d="M0 0 C0.78238037 0.00572021 1.56476074 0.01144043 2.37084961 0.01733398 C13.52725344 0.35623671 23.40307936 4.57510104 31.3125 12.5 C39.01080633 21.31555556 43.16824871 31.65854 42.69140625 43.42578125 C41.11515575 56.21453529 35.50564258 66.750099 25.5625 74.96484375 C15.62735481 81.74351052 5.14933491 83.80222703 -6.6875 82.5 C-17.46523745 79.94297582 -26.62998177 74.20431501 -33.0625 65.125 C-33.96846833 63.60132599 -34.84456493 62.05942989 -35.6875 60.5 C-36.1 59.79875 -36.5125 59.0975 -36.9375 58.375 C-41.46077858 49.32844284 -41.09467352 37.63608836 -38.875 27.95703125 C-34.68845494 16.72022802 -25.78382411 7.68894658 -14.93481445 2.69287109 C-9.90555057 0.60730965 -5.42296275 -0.04661234 0 0 Z " fill="#CB9B74" transform="translate(303.6875,346.5)"/>
<path d="M0 0 C6.49901487 3.64275993 11.46835208 8.83369737 13.75 16 C14.69676553 24.91435077 13.5719989 31.76700165 8.625 39.1875 C4.42579162 43.7221481 -0.26484329 46.61269693 -6.44140625 47.4140625 C-15.00683116 47.63241632 -21.56581049 46.72549721 -28 40.875 C-33.65688801 34.68737421 -36.04782583 28.16325483 -35.6953125 19.7734375 C-34.52793774 12.50294556 -30.90231473 6.61323412 -25.0546875 2.18359375 C-17.12953006 -3.01407444 -8.68295344 -3.91195467 0 0 Z " fill="#030201" transform="translate(315.25,365)"/>
<path d="M0 0 C1.80078125 2.43359375 1.80078125 2.43359375 3.3125 5.4375 C3.82425781 6.42621094 4.33601563 7.41492188 4.86328125 8.43359375 C6 11 6 11 6 13 C-3.33333333 17.66666667 -12.66666667 22.33333333 -22 27 C-23.46451579 25.58972554 -24.9213893 24.17151204 -26.375 22.75 C-27.18710938 21.96109375 -27.99921875 21.1721875 -28.8359375 20.359375 C-30.75583143 18.26620545 -31.91633685 16.59602821 -33 14 C-27.68571623 10.96519328 -22.35402004 7.96416334 -17 5 C-16.08178467 4.48953125 -16.08178467 4.48953125 -15.14501953 3.96875 C-13.5433266 3.08733687 -11.92828871 2.23029889 -10.3125 1.375 C-9.40113281 0.88773437 -8.48976562 0.40046875 -7.55078125 -0.1015625 C-4.44747858 -1.19460938 -3.04246412 -1.26602537 0 0 Z " fill="#CA9A73" transform="translate(207,270)"/>
<path d="M0 0 C1.17154293 2.28929053 2.33738074 4.58118362 3.5 6.875 C3.83386719 7.52597656 4.16773438 8.17695313 4.51171875 8.84765625 C7 13.7734375 7 13.7734375 7 16 C3.70908159 16.79479812 0.41713158 17.58524337 -2.875 18.375 C-3.7928125 18.59671875 -4.710625 18.8184375 -5.65625 19.046875 C-11.74627666 20.5050504 -17.85036703 21.81821405 -24 23 C-30.16071429 14.02678571 -30.16071429 14.02678571 -32 9 C-26.35694132 6.35988226 -20.74114777 4.80145955 -14.6875 3.375 C-12.89925164 2.94734772 -11.11146574 2.51775557 -9.32421875 2.0859375 C-8.1499231 1.8082251 -8.1499231 1.8082251 -6.9519043 1.52490234 C-1.28139535 0 -1.28139535 0 0 0 Z " fill="#FAE5A3" transform="translate(253,253)"/>
<path d="M0 0 C3 2.0625 3 2.0625 5 5 C5.1506132 9.29247606 4.66257079 11.22050496 1.875 14.5 C-1.91613014 16.47798094 -3.92797973 16.13111674 -8 15 C-9.9375 13.9375 -9.9375 13.9375 -11 12 C-11.75471698 5.20754717 -11.75471698 5.20754717 -9.4375 1.5 C-6.00863886 -0.61006839 -3.95779649 -0.62491523 0 0 Z " fill="#AD7644" transform="translate(308,380)"/>
<path d="M0 0 C3.15371936 1.44343309 3.56414719 3.70797929 4.78125 6.8671875 C5.20921875 7.94871094 5.6371875 9.03023438 6.078125 10.14453125 C7.03125 12.9296875 7.03125 12.9296875 7.03125 14.9296875 C5.38125 15.2596875 3.73125 15.5896875 2.03125 15.9296875 C1.06701974 14.53792118 0.11013398 13.1410652 -0.84375 11.7421875 C-1.37742188 10.96488281 -1.91109375 10.18757813 -2.4609375 9.38671875 C-3.94890439 6.9620266 -4.99303078 4.5963376 -5.96875 1.9296875 C-3.86874653 0.65468539 -2.48398478 -0.08871374 0 0 Z " fill="#C99A73" transform="translate(226.96875,260.0703125)"/>
</svg>
