<?xml version="1.0" encoding="UTF-8"?>
<svg version="1.1" xmlns="http://www.w3.org/2000/svg" width="512" height="512">
<path d="M0 0 C0.98870087 0.00081573 0.98870087 0.00081573 1.99737549 0.00164795 C12.97851814 0.04318906 22.9941372 0.99005212 33.4375 4.375 C34.1190918 4.58930664 34.80068359 4.80361328 35.50292969 5.02441406 C49.73101879 9.60701941 62.12362402 16.56213576 73.4375 26.375 C74.24574219 27.03886719 75.05398437 27.70273437 75.88671875 28.38671875 C96.07609101 45.53342267 109.25124274 71.13485723 112.4375 97.375 C112.74917795 102.2327685 112.81899508 107.07052155 112.8125 111.9375 C112.81228851 112.59596924 112.81207703 113.25443848 112.81185913 113.93286133 C112.75955164 130.29643064 109.37296252 144.24443571 103.4375 159.375 C104.36030762 159.38901855 104.36030762 159.38901855 105.30175781 159.40332031 C108.09781086 159.45711085 110.8922062 159.54073819 113.6875 159.625 C114.65558594 159.63917969 115.62367188 159.65335938 116.62109375 159.66796875 C123.59416175 159.90841937 123.59416175 159.90841937 127.078125 161.8359375 C129.17320714 165.74916563 129.03153274 169.3760527 128.9375 173.75 C128.92468994 174.64468994 128.91187988 175.53937988 128.89868164 176.46118164 C128.36727343 194.04495886 120.69114126 209.81549562 108.4375 222.375 C93.79766085 235.37222045 77.499621 240.84669316 58.19213867 240.77905273 C56.79452473 240.78476893 55.39691544 240.79173797 53.99931335 240.79985046 C50.23461358 240.81766202 46.47014841 240.81663602 42.7054193 240.81090808 C39.54731805 240.80779785 36.38926068 240.81392911 33.23116571 240.81994683 C25.77182984 240.83395188 18.3126086 240.83246521 10.85327148 240.82104492 C3.19320619 240.80957546 -4.4665085 240.82362871 -12.12652761 240.8504414 C-18.73500631 240.87269547 -25.34337575 240.87921382 -31.95188922 240.87336498 C-35.88477303 240.87001634 -39.81743239 240.87226904 -43.75028419 240.88961601 C-47.45317095 240.90523839 -51.15554421 240.90096329 -54.85841179 240.88231087 C-56.84041045 240.87694854 -58.82243304 240.89102302 -60.80438232 240.90600586 C-79.54772937 240.75429668 -96.16192565 233.44922855 -109.5625 220.375 C-116.25095381 212.84124397 -120.91104252 204.73771149 -124.5625 195.375 C-124.9028125 194.529375 -125.243125 193.68375 -125.59375 192.8125 C-127.68594368 186.61340762 -127.89460731 180.42378317 -128 173.9375 C-128.02239746 173.0602124 -128.04479492 172.1829248 -128.06787109 171.27905273 C-128.05445683 167.62790185 -127.93556513 165.07705051 -126.20703125 161.82421875 C-121.94017794 159.48595792 -117.60245162 159.69515908 -112.8125 159.625 C-111.82894531 159.59535156 -110.84539062 159.56570313 -109.83203125 159.53515625 C-107.40877224 159.46457589 -104.98646846 159.41182299 -102.5625 159.375 C-102.76407715 158.79645264 -102.9656543 158.21790527 -103.17333984 157.62182617 C-110.6641504 135.99915619 -110.6641504 135.99915619 -111.5625 127.375 C-111.69398437 126.3025 -111.82546875 125.23 -111.9609375 124.125 C-114.83786201 94.46071168 -106.13060135 63.8750557 -87.15942383 40.80200195 C-64.86140423 14.61557671 -34.53738517 -0.04827948 0 0 Z " fill="#000101" transform="translate(143.5625,255.625)"/>
<path d="M0 0 C6.8406474 5.8950285 11.24395624 11.62057099 12.15234375 20.7734375 C12.3995453 27.75500862 12.01857852 33.11766605 9.4296875 39.63671875 C9.1684761 40.30427689 8.90726471 40.97183502 8.63813782 41.65962219 C7.71868526 43.99936466 6.78101578 46.33140181 5.84375 48.6640625 C5.08996146 50.56619668 4.33716697 52.46872499 3.58520508 54.37158203 C0.64167772 61.80666753 -2.32013956 69.23444445 -5.29272461 76.65795898 C-6.57002513 79.84990571 -7.84203433 83.04391967 -9.11328125 86.23828125 C-9.50489944 87.21222336 -9.89651764 88.18616547 -10.30000305 89.18962097 C-10.66095566 90.09859634 -11.02190826 91.00757172 -11.39379883 91.9440918 C-11.71101395 92.73744431 -12.02822906 93.53079681 -12.35505676 94.34819031 C-13.92487255 98.88578819 -14.29027955 103.14158715 -14.3671875 107.921875 C-14.39329102 109.16864014 -14.41939453 110.41540527 -14.44628906 111.69995117 C-14.45954224 112.3640097 -14.47279541 113.02806824 -14.4864502 113.71224976 C-15.01934759 138.41610952 -17.25141837 162.92204355 -20.46875 187.4140625 C-20.60186584 188.45426041 -20.60186584 188.45426041 -20.7376709 189.51547241 C-21.71785408 197.08234671 -22.8636552 204.55153052 -24.59666443 211.98791504 C-29.3357202 232.88435716 -30.0101806 253.01637776 -29.90067959 274.37876034 C-29.88350377 279.11007926 -29.90257393 283.84126486 -29.91778564 288.5725708 C-29.94155885 297.49043129 -29.93725217 306.40801309 -29.92066312 315.32588124 C-29.89184161 331.33298717 -29.9124594 347.34007817 -29.94306207 363.34716821 C-29.95264515 368.9464923 -29.94989508 374.54563097 -29.93638659 380.14494562 C-29.92954334 383.62314695 -29.93061649 387.10131751 -29.93339348 390.57952309 C-29.93288538 392.18104106 -29.92895951 393.78256249 -29.92121315 395.38406181 C-29.86159349 408.17329834 -29.82707725 420.239277 -38.15625 430.6640625 C-46.3361297 438.69274294 -53.92610342 441.15838676 -65.22070312 441.08837891 C-71.01804959 440.88598794 -75.28398722 439.73702492 -80.15625 436.6640625 C-80.77757812 436.3134375 -81.39890625 435.9628125 -82.0390625 435.6015625 C-88.96592899 431.28351586 -92.9642593 424.38389291 -95.15625 416.6640625 C-95.39561653 413.31284809 -95.39561653 413.31284809 -95.38088989 409.58821106 C-95.38103777 408.89880218 -95.38118564 408.2093933 -95.381338 407.49909323 C-95.37961715 405.1995487 -95.36378198 402.90031877 -95.34814453 400.60083008 C-95.34434294 398.94559927 -95.3415359 397.29036593 -95.33964539 395.63513184 C-95.33420249 392.06828805 -95.32321033 388.50151876 -95.30838394 384.93470192 C-95.28631006 379.24734623 -95.28601803 373.56011603 -95.29025269 367.87272644 C-95.29144629 365.9152384 -95.29261528 363.95775033 -95.2937603 362.00026226 C-95.29463068 360.52891844 -95.29463068 360.52891844 -95.29551864 359.02785051 C-95.30150184 345.80060316 -95.2899201 332.57357744 -95.23535156 319.34643555 C-95.19867292 310.41302449 -95.19184788 301.48007206 -95.21584976 292.54661292 C-95.22731099 287.84280765 -95.22546894 283.14002852 -95.18634415 278.43634987 C-94.99004707 253.59025011 -97.5375823 230.48455151 -102.67869055 206.17366987 C-106.83798907 186.06109846 -108.88379911 165.19491705 -110.40625 144.7265625 C-110.47497314 143.8083522 -110.54369629 142.89014191 -110.61450195 141.94410706 C-111.00939216 136.05210201 -111.16713556 130.24718733 -111.00878906 124.34301758 C-110.63171221 103.14517004 -115.31705503 86.67776767 -123.75567627 67.36859131 C-125.28698841 63.83261462 -126.75573901 60.27079173 -128.23046875 56.7109375 C-130.80371278 50.5175714 -133.42736618 44.34848739 -136.09362793 38.19448853 C-139.09984229 31.03577869 -139.31952982 22.52040535 -137.5078125 14.95703125 C-131.93422859 1.35653376 -118.8670092 -5.70149046 -105.9453125 -11.25 C-71.42308017 -24.69142939 -30.41319569 -22.50877602 0 0 Z " fill="#010101" transform="translate(484.15625,55.3359375)"/>
<path d="M0 0 C0.84626953 0.27908203 1.69253906 0.55816406 2.56445312 0.84570312 C12.46501222 4.30364705 20.81145771 10.67968799 26.1161499 19.85006714 C29.6450351 27.69664082 29.44986617 35.45959196 29.328125 43.8828125 C29.32064919 45.4155096 29.31496261 46.94821637 29.31097412 48.48092651 C29.29582288 52.48253546 29.25663463 56.48354823 29.2121582 60.48492432 C29.17097611 64.58101338 29.15291453 68.67720034 29.1328125 72.7734375 C29.09012774 80.78672957 29.02200731 88.79954028 28.9375 96.8125 C29.88625 96.915625 30.835 97.01875 31.8125 97.125 C34.9375 97.8125 34.9375 97.8125 36.9375 100.8125 C37.19476891 103.29443264 37.19476891 103.29443264 37.20492554 106.30943298 C37.21345551 107.45210129 37.22198547 108.59476959 37.23077393 109.77206421 C37.22986755 111.02669464 37.22896118 112.28132507 37.22802734 113.57397461 C37.23401127 114.90781532 37.24081651 116.24165256 37.24838257 117.57548523 C37.26606258 121.19944601 37.27073875 124.82331238 37.27201414 128.44731212 C37.27391261 131.47174026 37.28126945 134.49614638 37.28835833 137.52056605 C37.3046471 144.65524222 37.3095268 151.78986792 37.30810547 158.92456055 C37.30690353 166.28699647 37.32801443 173.64913948 37.3595928 181.01150125 C37.3857329 187.33090659 37.39647374 193.65021612 37.39519465 199.96967512 C37.39468439 203.74476481 37.40040256 207.51959417 37.42155075 211.29463005 C37.44089561 214.84470168 37.44108398 218.39426364 37.42651749 221.9443531 C37.42342486 223.86872952 37.44013166 225.79310578 37.45739746 227.71740723 C37.44900848 228.86289536 37.44061951 230.00838348 37.43197632 231.18858337 C37.43306585 232.18391051 37.43415539 233.17923765 37.43527794 234.20472622 C36.79516529 237.55816729 35.60668422 238.74411884 32.9375 240.8125 C29.75 241.32043457 29.75 241.32043457 25.9375 241.33007812 C24.89287598 241.34059204 24.89287598 241.34059204 23.82714844 241.35131836 C21.53019068 241.36889196 19.23446979 241.35727919 16.9375 241.34375 C15.33853927 241.34644513 13.73958013 241.35032773 12.140625 241.35534668 C8.79150774 241.36124082 5.44281757 241.35268192 2.09375 241.33398438 C-2.19728591 241.31119435 -6.48732111 241.32431796 -10.77832031 241.34827423 C-14.07950366 241.3627348 -17.38045011 241.35812515 -20.68164062 241.34776306 C-22.26367308 241.34509646 -23.84572711 241.34836322 -25.42773438 241.35768127 C-27.63990163 241.36785179 -29.850453 241.3523419 -32.0625 241.33007812 C-33.320625 241.32689575 -34.57875 241.32371338 -35.875 241.32043457 C-39.73382159 240.70552355 -40.6713802 239.83880813 -43.0625 236.8125 C-43.56586456 234.20751953 -43.56586456 234.20751953 -43.57043457 231.1953125 C-43.58171387 230.05126953 -43.59299316 228.90722656 -43.60461426 227.72851562 C-43.59651733 226.47748047 -43.58842041 225.22644531 -43.58007812 223.9375 C-43.58549968 222.60350785 -43.59262254 221.2695217 -43.60131836 219.93554688 C-43.61955113 216.31564652 -43.61248474 212.69620226 -43.59980202 209.07629395 C-43.58967395 205.2878293 -43.59906715 201.49940368 -43.60534668 197.7109375 C-43.61262368 191.34888702 -43.60303413 184.98702228 -43.58398438 178.625 C-43.56221536 171.26989863 -43.56926671 163.91524077 -43.59129 156.56015015 C-43.60944262 150.24494633 -43.61200305 143.92987602 -43.60153532 137.61465454 C-43.59529956 133.84296397 -43.59446682 130.07148186 -43.60768127 126.29980469 C-43.61923735 122.75377647 -43.61121944 119.20831997 -43.58810425 115.66235352 C-43.58029314 113.74040513 -43.59217522 111.81840838 -43.60461426 109.89648438 C-43.59333496 108.75244141 -43.58205566 107.60839844 -43.57043457 106.4296875 C-43.56892647 105.43565918 -43.56741837 104.44163086 -43.56586456 103.41748047 C-42.91502409 100.04929201 -41.79244568 98.84178864 -39.0625 96.8125 C-37.7425 96.8125 -36.4225 96.8125 -35.0625 96.8125 C-35.07138245 95.72557358 -35.08026489 94.63864716 -35.0894165 93.51878357 C-35.1705853 83.26386997 -35.23050528 73.00902175 -35.26974869 62.75385952 C-35.29060259 57.48184737 -35.31888032 52.21009505 -35.36425781 46.93823242 C-35.40779359 41.84834815 -35.43165364 36.75871343 -35.44200897 31.6686573 C-35.44938644 29.72901546 -35.46379298 27.78938691 -35.48542023 25.84985161 C-35.51455699 23.12803762 -35.51845172 20.40724817 -35.51660156 17.68530273 C-35.53817322 16.48875565 -35.53817322 16.48875565 -35.56018066 15.26803589 C-35.5112938 8.59941093 -33.54935856 4.29935856 -28.75 -0.5 C-19.24558076 -6.46789115 -9.84740204 -3.48840638 0 0 Z " fill="#000000" transform="translate(331.0625,255.1875)"/>
<path d="M0 0 C3.34973791 3.09731367 4.76278655 5.50862314 5.32348633 10.07861328 C5.20156141 16.68766492 2.15355121 22.66509225 -0.33203125 28.6796875 C-0.87132549 30.01298032 -1.40939238 31.34677018 -1.94628906 32.68103027 C-3.35451556 36.1712253 -4.7791886 39.65446785 -6.20751953 43.13647461 C-7.6653644 46.69887443 -9.10737887 50.26766751 -10.55078125 53.8359375 C-13.37917702 60.82143507 -16.22643697 67.79900288 -19.08203125 74.7734375 C-24.69203125 74.7734375 -30.30203125 74.7734375 -36.08203125 74.7734375 C-34.87779536 66.52905332 -33.44263319 58.41659292 -31.66796875 50.28125 C-30.44050599 43.50485084 -30.44050599 43.50485084 -32.70703125 37.3359375 C-35.79888356 35.30182414 -37.4457055 35.16738321 -41.08203125 35.7734375 C-45.39920059 38.96492074 -46.10880768 42.78682903 -47.00390625 47.8203125 C-47.15361877 48.59151428 -47.3033313 49.36271606 -47.45758057 50.1572876 C-47.93030591 52.61015232 -48.38141081 55.06642596 -48.83203125 57.5234375 C-49.14962162 59.19167722 -49.46861657 60.85965019 -49.7890625 62.52734375 C-50.56969052 66.60646416 -51.33096017 70.68877605 -52.08203125 74.7734375 C-53.40203125 74.7734375 -54.72203125 74.7734375 -56.08203125 74.7734375 C-56.24807861 73.8354834 -56.41412598 72.8975293 -56.58520508 71.93115234 C-57.2076688 68.42942848 -57.84239115 64.93001715 -58.48071289 61.43115234 C-58.75453614 59.92068191 -59.02509542 58.40961579 -59.29223633 56.89794922 C-59.6782958 54.71674913 -60.07630479 52.53800876 -60.4765625 50.359375 C-60.59232132 49.69038177 -60.70808014 49.02138855 -60.8273468 48.3321228 C-61.6274601 44.05981148 -62.87437507 40.52132715 -65.08203125 36.7734375 C-67.92286766 35.35301929 -69.93680403 35.45891478 -73.08203125 35.7734375 C-75.60209969 37.21005061 -75.60209969 37.21005061 -77.08203125 39.7734375 C-77.69118208 46.52024444 -75.98076135 52.95318637 -74.58203125 59.5234375 C-74.11076129 61.76770148 -73.6418958 64.01247212 -73.17578125 66.2578125 C-72.96630859 67.24491211 -72.75683594 68.23201172 -72.54101562 69.24902344 C-72.08203125 71.7734375 -72.08203125 71.7734375 -72.08203125 74.7734375 C-77.69203125 74.7734375 -83.30203125 74.7734375 -89.08203125 74.7734375 C-92.2260744 67.09450233 -95.35811211 59.41099577 -98.46966553 51.71884918 C-99.91515692 48.14676273 -101.36567571 44.57689976 -102.828125 41.01171875 C-104.24087729 37.56714588 -105.63984394 34.11726241 -107.02966309 30.66337585 C-107.56065677 29.35060444 -108.09648036 28.03977537 -108.6373291 26.73103333 C-114.92644276 11.49288233 -114.92644276 11.49288233 -112.2409668 4.62133789 C-108.96807341 0.39332769 -105.60343172 -2.27982546 -100.89453125 -4.7890625 C-100.20834717 -5.16546875 -99.52216309 -5.541875 -98.81518555 -5.9296875 C-67.63682682 -22.3692495 -28.88135756 -20.38099242 0 0 Z " fill="#FDB1B1" transform="translate(475.08203125,69.2265625)"/>
<path d="M0 0 C21.45 0 42.9 0 65 0 C65 3.96 65 7.92 65 12 C67.19826677 19.78552813 70.18379518 24.53202216 77 29 C80.77713315 30.78511231 83.78424151 31.25972524 87.94848633 31.29052734 C89.71105522 31.3096669 89.71105522 31.3096669 91.50923157 31.32919312 C93.40151741 31.33253159 93.40151741 31.33253159 95.33203125 31.3359375 C96.63774582 31.3425943 97.94346039 31.3492511 99.28874207 31.35610962 C102.05003159 31.36806192 104.81119621 31.37179266 107.57250977 31.37060547 C111.09298176 31.37040259 114.61264369 31.3976803 118.13292408 31.43214989 C121.51180384 31.45987804 124.89053939 31.45857109 128.26953125 31.4609375 C129.52498245 31.47530853 130.78043365 31.48967957 132.07392883 31.50448608 C140.10187971 31.46278244 145.72541556 30.6783261 151.98828125 25.2890625 C152.42527344 24.73992187 152.86226562 24.19078125 153.3125 23.625 C153.76238281 23.08101563 154.21226562 22.53703125 154.67578125 21.9765625 C160.27206036 13.62341433 159 11.45178853 159 0 C180.45 0 201.9 0 224 0 C222.31461889 15.16842997 216.04077142 27.90356788 204.0546875 37.625 C199.64140539 40.5783751 194.82935974 42.81560295 190 45 C189.19820312 45.36609375 188.39640625 45.7321875 187.5703125 46.109375 C180.31330476 48.62396127 172.58421837 48.16027028 165.00317383 48.17700195 C163.70469513 48.18357315 162.40621643 48.19014435 161.06838989 48.19691467 C156.78128265 48.2178354 152.49417554 48.22830536 148.20703125 48.23828125 C146.7242042 48.2423332 145.24137733 48.24645025 143.75855064 48.25063133 C136.78962099 48.26965618 129.82070174 48.28389319 122.85175115 48.2922433 C114.83745481 48.30200769 106.82343524 48.32831755 98.80923635 48.36874419 C92.59409484 48.39900809 86.37903224 48.41372183 80.16381854 48.41702431 C76.46117138 48.41936291 72.7588208 48.42816674 69.05625343 48.45348549 C64.91859427 48.48132555 60.78154601 48.47690387 56.64379883 48.4699707 C55.43558975 48.48278076 54.22738068 48.49559082 52.9825592 48.50878906 C38.67301999 48.42180347 25.38059408 43.13376452 14.75 33.4375 C6.5026561 24.55309613 0 12.27104065 0 0 Z " fill="#0AAEE8" transform="translate(32,432)"/>
<path d="M0 0 C21.12 0 42.24 0 64 0 C64 28.75844595 64 28.75844595 63 38.0625 C62.85691406 39.53879883 62.85691406 39.53879883 62.7109375 41.04492188 C62.48462834 43.36459074 62.24814118 45.68258576 62 48 C60.89543457 48.01401855 60.89543457 48.01401855 59.76855469 48.02832031 C56.42835782 48.08204155 53.08955881 48.16568622 49.75 48.25 C48.59113281 48.26417969 47.43226563 48.27835938 46.23828125 48.29296875 C45.12324219 48.32519531 44.00820313 48.35742188 42.859375 48.390625 C41.83295898 48.41157227 40.80654297 48.43251953 39.74902344 48.45410156 C36.322379 49.13456133 35.11751549 50.26648 33 53 C32.33333333 56 32.33333333 56 33 59 C35.05940298 61.61554873 36.27432431 62.84558329 39.56542969 63.54589844 C40.50805664 63.5668457 41.45068359 63.58779297 42.421875 63.609375 C43.44667969 63.64160156 44.47148437 63.67382812 45.52734375 63.70703125 C46.59082031 63.72121094 47.65429688 63.73539063 48.75 63.75 C49.82894531 63.77964844 50.90789062 63.80929688 52.01953125 63.83984375 C54.67976244 63.91046936 57.33912102 63.96320196 60 64 C59.52211131 76.34147547 57.16892641 88.36910027 55 100.5 C54.62704635 102.61448502 54.2546463 104.72906777 53.8828125 106.84375 C53.20251659 110.70176398 52.52055646 114.55946108 51.83203125 118.41601562 C51.69514893 119.18288696 51.5582666 119.9497583 51.41723633 120.73986816 C50.96961016 123.16461902 50.48356791 125.58216047 50 128 C38.12 128 26.24 128 14 128 C5.82733922 85.37124266 0 43.49439705 0 0 Z " fill="#E8E8E6" transform="translate(389,160)"/>
<path d="M0 0 C20.02414347 17.44339206 32.9409822 39.21068849 35.390625 65.87890625 C36.70676279 85.71106589 33.02757314 104.32589356 23.390625 121.87890625 C22.390625 122.87890625 22.390625 122.87890625 20.53295898 122.99243164 C19.74219971 122.98719482 18.95144043 122.98195801 18.13671875 122.9765625 C17.28271484 122.97333984 16.42871094 122.97011719 15.54882812 122.96679688 C14.65099609 122.95841797 13.75316406 122.95003906 12.828125 122.94140625 C11.92642578 122.93689453 11.02472656 122.93238281 10.09570312 122.92773438 C7.86061186 122.9159085 5.62565063 122.89942845 3.390625 122.87890625 C3.91011719 122.04230469 4.42960938 121.20570313 4.96484375 120.34375 C16.67149065 101.00221121 22.27257238 78.08788048 16.890625 55.69140625 C13.64073845 43.53289961 7.60827416 32.37029103 -0.609375 22.87890625 C-1.33125 21.88890625 -2.053125 20.89890625 -2.796875 19.87890625 C-14.95524329 5.62835121 -34.51439494 -1.67896919 -52.609375 -4.12109375 C-75.95578332 -5.19134488 -96.87537838 0.90057106 -114.921875 16.06640625 C-129.73219939 30.28628582 -139.24892854 50.07771341 -140.00927734 70.64111328 C-140.30639332 89.80702288 -134.81896709 106.73350481 -124.609375 122.87890625 C-130.879375 122.87890625 -137.149375 122.87890625 -143.609375 122.87890625 C-146.30820341 118.15595654 -148.37982357 114.28780056 -150.234375 109.31640625 C-150.84152344 107.70572266 -150.84152344 107.70572266 -151.4609375 106.0625 C-159.82859984 82.86642923 -158.50093323 57.38626314 -148.52783203 34.83300781 C-143.27358495 23.65411529 -136.36047257 14.53013395 -127.609375 5.87890625 C-126.81917969 5.07839844 -126.02898437 4.27789062 -125.21484375 3.453125 C-91.20835312 -29.19987347 -35.89540663 -29.17845179 0 0 Z " fill="#0AACE6" transform="translate(204.609375,293.12109375)"/>
<path d="M0 0 C10.56 0 21.12 0 32 0 C32.09029236 21.40970825 32.16397738 42.81926235 32.20724869 64.22911263 C32.22787428 74.17006369 32.25599486 84.11088806 32.30175781 94.05175781 C32.34162562 102.71618321 32.36743284 111.38051686 32.37635398 120.04503143 C32.38156882 124.63290062 32.39382553 129.22050732 32.42292023 133.80829239 C32.45008845 138.1273312 32.45844217 142.4459996 32.45243073 146.76511574 C32.45353034 148.34937236 32.46147602 149.93364149 32.4768219 151.51782417 C32.49677292 153.68381392 32.491922 155.84841176 32.48101807 158.01443481 C32.48470524 159.2256708 32.48839241 160.43690678 32.49219131 161.68484688 C31.72523835 166.85065629 29.22647387 169.91953493 25.375 173.3125 C20.72996234 176.6129215 16.59734271 176.84981554 11 176 C5.63349792 173.4830476 2.90052666 170.39657054 0.63254106 164.92115486 C-0.3566599 161.91675189 -0.3680485 159.11963452 -0.36076355 155.97010803 C-0.36332682 155.29850802 -0.3658901 154.62690802 -0.36853105 153.93495649 C-0.37343868 151.70386386 -0.3570272 149.47346101 -0.34057617 147.24243164 C-0.33972924 145.63550838 -0.34020633 144.02858396 -0.34190369 142.42166138 C-0.34276249 138.07293858 -0.3251554 133.72446531 -0.30418181 129.37580037 C-0.28539583 124.82610297 -0.28366306 120.27639951 -0.28010559 115.72666931 C-0.27079077 107.11722577 -0.24618461 98.50789685 -0.21605712 89.89850372 C-0.18249559 80.09443286 -0.16602269 70.29035645 -0.15097082 60.48624241 C-0.11963453 40.32408347 -0.06462949 20.16208161 0 0 Z " fill="#673A0C" transform="translate(405,304)"/>
<path d="M0 0 C15.84 0 31.68 0 48 0 C48 26.4 48 52.8 48 80 C32.16 80 16.32 80 0 80 C0 53.6 0 27.2 0 0 Z " fill="#EA9D2D" transform="translate(304,400)"/>
<path d="M0 0 C3.46921195 2.76493584 5.05995189 5.8183687 6.875 9.8125 C12.45952581 21.23098454 20.25238296 26.78982626 31.625 32.3125 C35 34 35 34 36 36 C36.55910987 41.68428373 36.55910987 41.68428373 36 44 C32.81936418 47.7097832 29.29915364 50.27759888 25.1875 52.875 C15.19603402 59.48304779 9.70822284 65.48891427 3.8828125 75.8671875 C2 79 2 79 0 80 C-7.27272727 80.58651026 -7.27272727 80.58651026 -10.05859375 78.33984375 C-12.1873749 75.77416989 -13.63956451 73.20063258 -15.1875 70.25 C-20.74712749 60.58210041 -28.82470735 55.21284907 -38.03515625 49.32373047 C-42.90125733 46.19748535 -42.90125733 46.19748535 -44 44 C-44.58587813 36.73511123 -44.58587813 36.73511123 -42.34375 33.921875 C-39.74506755 31.79095539 -37.24428576 30.51409135 -34.1875 29.125 C-22.76901546 23.54047419 -17.21017374 15.74761704 -11.6875 4.375 C-9.16664754 -0.66670491 -5.37227614 -1.10486434 0 0 Z " fill="#000000" transform="translate(196,136)"/>
<path d="M0 0 C3.46921195 2.76493584 5.05995189 5.8183687 6.875 9.8125 C12.45952581 21.23098454 20.25238296 26.78982626 31.625 32.3125 C35 34 35 34 36 36 C36.55910987 41.68428373 36.55910987 41.68428373 36 44 C32.81936418 47.7097832 29.29915364 50.27759888 25.1875 52.875 C15.19603402 59.48304779 9.70822284 65.48891427 3.8828125 75.8671875 C2 79 2 79 0 80 C-7.27272727 80.58651026 -7.27272727 80.58651026 -10.05859375 78.33984375 C-12.1873749 75.77416989 -13.63956451 73.20063258 -15.1875 70.25 C-20.74712749 60.58210041 -28.82470735 55.21284907 -38.03515625 49.32373047 C-42.90125733 46.19748535 -42.90125733 46.19748535 -44 44 C-44.58587813 36.73511123 -44.58587813 36.73511123 -42.34375 33.921875 C-39.74506755 31.79095539 -37.24428576 30.51409135 -34.1875 29.125 C-22.76901546 23.54047419 -17.21017374 15.74761704 -11.6875 4.375 C-9.16664754 -0.66670491 -5.37227614 -1.10486434 0 0 Z " fill="#000000" transform="translate(284,88)"/>
<path d="M0 0 C3.46921195 2.76493584 5.05995189 5.8183687 6.875 9.8125 C12.45952581 21.23098454 20.25238296 26.78982626 31.625 32.3125 C35 34 35 34 36 36 C36.55910987 41.68428373 36.55910987 41.68428373 36 44 C32.81936418 47.7097832 29.29915364 50.27759888 25.1875 52.875 C15.19603402 59.48304779 9.70822284 65.48891427 3.8828125 75.8671875 C2 79 2 79 0 80 C-7.27272727 80.58651026 -7.27272727 80.58651026 -10.05859375 78.33984375 C-12.1873749 75.77416989 -13.63956451 73.20063258 -15.1875 70.25 C-20.74712749 60.58210041 -28.82470735 55.21284907 -38.03515625 49.32373047 C-42.90125733 46.19748535 -42.90125733 46.19748535 -44 44 C-44.58587813 36.73511123 -44.58587813 36.73511123 -42.34375 33.921875 C-39.74506755 31.79095539 -37.24428576 30.51409135 -34.1875 29.125 C-22.76901546 23.54047419 -17.21017374 15.74761704 -11.6875 4.375 C-9.16664754 -0.66670491 -5.37227614 -1.10486434 0 0 Z " fill="#000000" transform="translate(228,16)"/>
<path d="M0 0 C5.63614101 4.12400562 9.28741002 9.11535351 13 15 C13.41765625 15.65871094 13.8353125 16.31742187 14.265625 16.99609375 C15.31176067 19.85070863 15.03249012 21.12407609 14 24 C12.35947987 26.48015642 10.47727833 28.72805486 8.5625 31 C7.45986876 32.34157023 6.35832297 33.68403326 5.2578125 35.02734375 C4.70641602 35.69620605 4.15501953 36.36506836 3.58691406 37.05419922 C1.31057987 39.84533515 -0.88097871 42.69703991 -3.0625 45.5625 C-7.85520329 51.8308413 -12.72510842 58.0363635 -17.60888672 64.23388672 C-19.90874245 67.15371058 -22.20410607 70.07706075 -24.5 73 C-24.94641846 73.56799316 -25.39283691 74.13598633 -25.8527832 74.72119141 C-28.27114685 77.79816029 -30.6875521 80.87664555 -33.1015625 83.95703125 C-33.60751953 84.60220703 -34.11347656 85.24738281 -34.63476562 85.91210938 C-35.61056559 87.15647813 -36.58584612 88.40125443 -37.56054688 89.64648438 C-40.8875378 93.8875378 -40.8875378 93.8875378 -42 95 C-44.3756852 95.0883967 -46.72208674 95.11530305 -49.09765625 95.09765625 C-50.16094398 95.09553383 -50.16094398 95.09553383 -51.24571228 95.09336853 C-53.51801712 95.08775443 -55.79022475 95.07519963 -58.0625 95.0625 C-59.59960796 95.05748681 -61.13671745 95.05292359 -62.67382812 95.04882812 C-66.44925642 95.03778042 -70.22461171 95.02050641 -74 95 C-71.61220805 90.93275424 -68.94107609 87.24195627 -66 83.5625 C-65.01033966 82.31386312 -64.02075853 81.06516345 -63.03125 79.81640625 C-62.52722656 79.18234863 -62.02320312 78.54829102 -61.50390625 77.89501953 C-59.15791653 74.93892014 -56.82941413 71.96916509 -54.5 69 C-53.58342691 67.83325982 -52.66675999 66.66659334 -51.75 65.5 C-51.29625 64.9225 -50.8425 64.345 -50.375 63.75 C-41.66666667 52.66666667 -32.95833333 41.58333333 -24.25 30.5 C-23.7957666 29.92185547 -23.3415332 29.34371094 -22.87353516 28.74804688 C-21.96186643 27.58780015 -21.05008359 26.42764309 -20.13818359 25.26757812 C-17.76907842 22.25343215 -15.40230195 19.23749783 -13.0390625 16.21875 C-12.55115234 15.59613281 -12.06324219 14.97351563 -11.56054688 14.33203125 C-10.63662307 13.15292849 -9.71339007 11.97328392 -8.79101562 10.79296875 C-5.92570709 7.13828298 -2.98778518 3.55535728 0 0 Z " fill="#E7E7E5" transform="translate(187,321)"/>
<path d="M0 0 C9.3169158 1.5528193 21.15016695 4.07441974 27 12 C27.6919043 12.90177979 28.38380859 13.80355957 29.09667969 14.73266602 C32.36780321 20.57132041 31.48924882 27.4145075 31.390625 33.90234375 C31.38315469 35.34964716 31.37746549 36.79696077 31.37347412 38.24427795 C31.35827961 42.03386894 31.31905289 45.82283624 31.2746582 49.61218262 C31.22633332 54.16931522 31.20814189 58.72665762 31.18484497 63.28397369 C31.14619636 70.18974814 31.06950247 77.09415703 31 84 C20.44 84 9.88 84 -1 84 C-1.02255075 73.19541543 -1.04091493 62.39084637 -1.05181217 51.58624363 C-1.05704107 46.5697753 -1.06413883 41.55332385 -1.07543945 36.53686523 C-1.0862681 31.69990306 -1.09227679 26.86295716 -1.09487724 22.02598381 C-1.09673153 20.17631715 -1.10035222 18.32665143 -1.10573006 16.47699165 C-1.1129402 13.89552986 -1.11399095 11.31413618 -1.11352539 8.73266602 C-1.11712067 7.96014999 -1.12071594 7.18763397 -1.12442017 6.39170837 C-1.11405216 1.11405216 -1.11405216 1.11405216 0 0 Z " fill="#D22A38" transform="translate(313,268)"/>
<path d="M0 0 C6.71539173 1.29975324 12.72019113 3.29928888 19 6 C16.30835391 10.85457598 12.92238293 15.08884419 9.5 19.4375 C8.87633545 20.23446289 8.2526709 21.03142578 7.61010742 21.85253906 C5.74286237 24.23723071 3.87183582 26.618911 2 29 C1.00636561 30.26681352 0.01286349 31.5337308 -0.98046875 32.80078125 C-3.20854496 35.64094455 -5.44026226 38.47822121 -7.67333984 41.31445312 C-9.95086206 44.20808827 -12.22524007 47.10419323 -14.5 50 C-15.4166523 51.16667796 -16.33331895 52.33334464 -17.25 53.5 C-17.70375 54.0775 -18.1575 54.655 -18.625 55.25 C-23.66666667 61.66666667 -28.70833333 68.08333333 -33.75 74.5 C-34.2042334 75.07814453 -34.6584668 75.65628906 -35.12646484 76.25195312 C-36.03813357 77.41219985 -36.94991641 78.57235691 -37.86181641 79.73242188 C-40.23092158 82.74656785 -42.59769805 85.76250217 -44.9609375 88.78125 C-45.69280273 89.71517578 -45.69280273 89.71517578 -46.43945312 90.66796875 C-47.36337693 91.84707151 -48.28660993 93.02671608 -49.20898438 94.20703125 C-50.46587566 95.81018938 -51.73162354 97.40591943 -53 99 C-53.44891602 99.57363281 -53.89783203 100.14726562 -54.36035156 100.73828125 C-55.52767737 102.19679806 -56.7591411 103.60350796 -58 105 C-58.66 105 -59.32 105 -60 105 C-61.69140625 102.98828125 -61.69140625 102.98828125 -63.5625 100.3125 C-64.18253906 99.44238281 -64.80257812 98.57226562 -65.44140625 97.67578125 C-68.10850546 93.09692671 -68.10850546 93.09692671 -68 90 C-66.29766308 87.03428327 -64.12750535 84.49183235 -61.9375 81.875 C-60.62921326 80.25575958 -59.32329103 78.63460635 -58.01953125 77.01171875 C-57.01140381 75.76527588 -57.01140381 75.76527588 -55.98291016 74.49365234 C-52.91811978 70.6394577 -50.0209238 66.66923868 -47.125 62.6875 C-42.16133573 55.89703364 -37.11336122 49.17843779 -32 42.5 C-26.21402064 34.94182036 -20.52430766 27.32089579 -14.89794922 19.64331055 C-10.03330733 13.01543048 -5.05314202 6.4852537 0 0 Z " fill="#F7F9FB" transform="translate(155,305)"/>
<path d="M0 0 C-4.21936454 6.52351473 -8.75191349 12.72850445 -13.5 18.875 C-18.73785909 25.69965066 -23.91969779 32.5572383 -29 39.5 C-34.87210581 47.52370408 -40.87571282 55.44141714 -46.93554688 63.32421875 C-47.90524414 64.58878906 -47.90524414 64.58878906 -48.89453125 65.87890625 C-49.75848511 67.00147827 -49.75848511 67.00147827 -50.63989258 68.14672852 C-52.04915517 69.95776313 -52.04915517 69.95776313 -53 72 C-53.66 72 -54.32 72 -55 72 C-55.76537286 52.05778503 -52.51563802 34.94065574 -38.6875 19.625 C-29.11019266 9.48114311 -14.5326516 -0.69203103 0 0 Z " fill="#E4E4E2" transform="translate(135,305)"/>
<path d="M0 0 C1.73618591 -0.00006042 1.73618591 -0.00006042 3.50744629 -0.00012207 C5.95179684 0.00523347 8.39614694 0.02281732 10.84033203 0.05175781 C14.58028833 0.09359939 18.31844293 0.09282635 22.05859375 0.0859375 C24.43490834 0.09643055 26.81121365 0.10936926 29.1875 0.125 C30.3053186 0.12520142 31.42313721 0.12540283 32.5748291 0.12561035 C34.14170471 0.14947815 34.14170471 0.14947815 35.74023438 0.17382812 C37.11326721 0.18645691 37.11326721 0.18645691 38.51403809 0.19934082 C41.63433226 0.676399 43.54257635 1.76301627 46.09375 3.59375 C47.49832737 6.40290474 47.34270157 8.48185534 47.09375 11.59375 C45.31390595 14.7296657 44.57066793 15.43477736 41.09375 16.59375 C39.38740843 16.70601312 37.67714861 16.76271412 35.96728516 16.78662109 C34.92255035 16.80268402 33.87781555 16.81874695 32.80142212 16.83529663 C28.03363736 16.87977343 23.26599045 16.92079304 18.49804688 16.94384766 C15.98200239 16.96042624 13.46600536 16.98774082 10.95019531 17.02587891 C7.32331909 17.08057216 3.69754524 17.10250922 0.0703125 17.1171875 C-1.61582657 17.15119156 -1.61582657 17.15119156 -3.33602905 17.18588257 C-11.12480853 17.16476223 -11.12480853 17.16476223 -15.11572266 14.24853516 C-16.90625 11.59375 -16.90625 11.59375 -17.53125 8.59375 C-15.57756079 -0.78395819 -7.83903622 -0.11497667 0 0 Z " fill="#0174B2" transform="translate(128.90625,431.40625)"/>
<path d="M0 0 C0.33 0 0.66 0 1 0 C1.80531207 15.9720228 -1.74862762 29.1292977 -10 43 C-10.62777344 44.09699219 -11.25554687 45.19398438 -11.90234375 46.32421875 C-14.8771273 50.52549534 -17.32327631 53.52734153 -22.60205078 54.45947266 C-29.09036205 54.93796806 -35.53057014 54.60688039 -42 54 C-33.09193625 42.09884265 -24.12358099 30.26876195 -14.69213867 18.77539062 C-10.67540837 13.86994875 -6.78391123 8.88114969 -2.98168945 3.80761719 C-2.00972497 2.52153847 -1.00809164 1.25796051 0 0 Z " fill="#E5E5E3" transform="translate(207,362)"/>
<path d="M0 0 C15.84 0 31.68 0 48 0 C48 5.28 48 10.56 48 16 C32.16 16 16.32 16 0 16 C0 10.72 0 5.44 0 0 Z " fill="#FBB540" transform="translate(304,368)"/>
<path d="M0 0 C3.38055068 1.12685023 4.1079382 2.05384625 6.3125 4.75 C9.29895915 8.28291763 12.35818708 11.15760943 16 14 C14.58143752 17.33435305 12.90068437 19.19565826 10.125 21.5 C7.28915088 23.89758153 4.57491762 26.31779415 2 29 C-1.36638887 27.54974765 -3.48039225 25.70513547 -6 23.0625 C-8.5251518 20.42391364 -11.02233271 18.12025863 -14 16 C-12.87314977 12.61944932 -11.94615375 11.8920618 -9.25 9.6875 C-5.71708237 6.70104085 -2.84239057 3.64181292 0 0 Z " fill="#F3AF3E" transform="translate(191,162)"/>
<path d="M0 0 C3.38055068 1.12685023 4.1079382 2.05384625 6.3125 4.75 C9.29895915 8.28291763 12.35818708 11.15760943 16 14 C14.58143752 17.33435305 12.90068437 19.19565826 10.125 21.5 C7.28915088 23.89758153 4.57491762 26.31779415 2 29 C-1.36638887 27.54974765 -3.48039225 25.70513547 -6 23.0625 C-8.5251518 20.42391364 -11.02233271 18.12025863 -14 16 C-12.87314977 12.61944932 -11.94615375 11.8920618 -9.25 9.6875 C-5.71708237 6.70104085 -2.84239057 3.64181292 0 0 Z " fill="#F3AF3E" transform="translate(279,114)"/>
<path d="M0 0 C3.38055068 1.12685023 4.1079382 2.05384625 6.3125 4.75 C9.29895915 8.28291763 12.35818708 11.15760943 16 14 C14.58143752 17.33435305 12.90068437 19.19565826 10.125 21.5 C7.28915088 23.89758153 4.57491762 26.31779415 2 29 C-1.36638887 27.54974765 -3.48039225 25.70513547 -6 23.0625 C-8.5251518 20.42391364 -11.02233271 18.12025863 -14 16 C-12.87314977 12.61944932 -11.94615375 11.8920618 -9.25 9.6875 C-5.71708237 6.70104085 -2.84239057 3.64181292 0 0 Z " fill="#F3AF3E" transform="translate(223,42)"/>
<path d="M0 0 C10.56 0 21.12 0 32 0 C32 2.64 32 5.28 32 8 C21.44 8 10.88 8 0 8 C0 5.36 0 2.72 0 0 Z " fill="#961B20" transform="translate(312,344)"/>
<path d="M0 0 C10.56 0 21.12 0 32 0 C32 2.64 32 5.28 32 8 C21.44 8 10.88 8 0 8 C0 5.36 0 2.72 0 0 Z " fill="#523121" transform="translate(405,304)"/>
<path d="M0 0 C0.33 0.66 0.66 1.32 1 2 C6.28 2 11.56 2 17 2 C16 6 16 6 14 9 C12.02880859 9.34057617 12.02880859 9.34057617 9.6484375 9.29296875 C8.79765625 9.28330078 7.946875 9.27363281 7.0703125 9.26367188 C6.18085938 9.23853516 5.29140625 9.21339844 4.375 9.1875 C3.4778125 9.17396484 2.580625 9.16042969 1.65625 9.14648438 C-0.56275471 9.11107473 -2.78145176 9.05726654 -5 9 C-3.35 6.03 -1.7 3.06 0 0 Z " fill="#0274B0" transform="translate(213,407)"/>
<path d="M0 0 C2.41396234 2.89675481 4.38617243 5.59787701 6 9 C2.89614789 9.11613204 -0.20714662 9.18722029 -3.3125 9.25 C-4.19357422 9.28351563 -5.07464844 9.31703125 -5.98242188 9.3515625 C-12.48126522 9.45040422 -12.48126522 9.45040422 -15.10546875 7.171875 C-16 5 -16 5 -16 2 C-10.72 2 -5.44 2 0 2 C0 1.34 0 0.68 0 0 Z " fill="#0274B0" transform="translate(74,407)"/>
</svg>
