<svg id="deliverytruck" xmlns="http://www.w3.org/2000/svg" viewBox="0 0 41.799 31.028">
  <g id="Group" transform="translate(0 0)">
    <path id="Shape"
      d="M40.709,31.028h0c-6.573,0-13.238,0-19.81,0s-13.237,0-19.81,0A1,1,0,0,1,0,30.37v-.408a1.135,1.135,0,0,1,1.117-.58h.038c.573.008,1.2.012,1.969.012l1.258,0,1.258,0H6.16a5.1,5.1,0,0,1-1.268-3.265H2.583a2.61,2.61,0,0,1-1.724-.6A3.112,3.112,0,0,1,0,24.084V2.041C.688.362,1.235,0,3.084,0h22.4a2.5,2.5,0,0,1,2.767,2.782q0,1.646,0,3.291V8.164c.655,0,1.313,0,1.95,0s1.269,0,1.9,0c1.029,0,1.872,0,2.65-.015h.056a2.656,2.656,0,0,1,2.6,1.638c1.022,2.087,2.079,4.2,3.1,6.244l0,.007q.642,1.284,1.283,2.568v5.469a2.612,2.612,0,0,1-1.633,1.9,5.116,5.116,0,0,1-1.244,3.409c.207,0,.405,0,.6,0l.53,0c.257,0,.467,0,.662-.01h.077a.963.963,0,0,1,1.012.659v.326A1.011,1.011,0,0,1,40.709,31.028Zm-5.466-8.166A3.282,3.282,0,0,0,32,26.071a3.193,3.193,0,0,0,.912,2.3,3.27,3.27,0,0,0,2.318,1.018h.049a3.3,3.3,0,0,0,3.244-3.212,3.26,3.26,0,0,0-3.19-3.312Zm-25.449,0h0a3.285,3.285,0,0,0-3.261,3.277,3.279,3.279,0,0,0,3.257,3.249H9.8a3.278,3.278,0,0,0,3.258-3.238A3.288,3.288,0,0,0,9.8,22.862H9.795Zm4.922,3.289a5.228,5.228,0,0,1-1.225,3.2H31.51c-.086-.157-.178-.313-.267-.464a6.959,6.959,0,0,1-.543-1.052,7.377,7.377,0,0,1-.3-1.163c-.035-.173-.07-.35-.111-.524H14.717Zm14.5-1.672c.226,0,.411.008.583.024.091.009.172.013.248.013a.813.813,0,0,0,.916-.724.2.2,0,0,1,.04-.072c.008-.011.016-.021.023-.032a4.715,4.715,0,0,1,4.195-2.441l.175,0a4.7,4.7,0,0,1,4.282,2.782,1.73,1.73,0,0,0,.113.181c.029.043.063.093.1.155.037-.088.077-.165.116-.239a.916.916,0,0,0,.137-.381c.015-1.049.013-2.077.012-3.165q0-.491,0-.988H30.921c-.748,0-1.039-.292-1.04-1.039,0-2.017,0-4.062,0-6.079,0-.75.291-1.042,1.036-1.044l2.281,0h3.191c-.057-.115-.112-.224-.166-.329-.111-.218-.215-.423-.3-.632a1.034,1.034,0,0,0-1.069-.679h-.016c-.823.007-1.7.01-2.83.01H28.632c-.081,0-.16.006-.244.012l-.114.008V24.492h.039c.151,0,.3,0,.444-.007S29.066,24.478,29.219,24.478Zm-25.279.01c.335,0,.607,0,.856.011H4.83a.488.488,0,0,0,.507-.347A5.111,5.111,0,0,1,7.119,22a4.772,4.772,0,0,1,2.662-.75H9.8a4.773,4.773,0,0,1,2.656.737,5.063,5.063,0,0,1,1.784,2.139.556.556,0,0,0,.6.372h.008c2.18-.006,4.312-.007,6.11-.007h5.657V16.954q0-7.087,0-14.175c0-.889-.256-1.147-1.141-1.147H2.783c-.893,0-1.151.255-1.151,1.136V17.961H3.059c.35,0,.637,0,.9.005a.831.831,0,0,1,.931.9c.013,1.037.012,2.08,0,3.1a.826.826,0,0,1-.9.89c-.17,0-.353.006-.578.006H1.633c0,.084,0,.161,0,.233,0,.131,0,.245,0,.358.006.746.3,1.038,1.041,1.042h.134l.6,0h0ZM1.662,19.62v1.587h1.58V19.62ZM33.5,13.062H31.541v4.88H39.6c0-.021,0-.039-.005-.057a.213.213,0,0,0-.015-.079l-.213-.427c-.675-1.354-1.372-2.753-2.07-4.125a.417.417,0,0,0-.306-.184C35.79,13.063,34.6,13.062,33.5,13.062Z"
        />
    <path id="Shape-2" data-name="Shape"
      d="M6.865,1.9c-1.911,0-3.822,0-5.734,0C.3,1.892-.191,1.3.07.626A1,1,0,0,1,1.132,0Q3.644,0,6.155,0h6.35a3.619,3.619,0,0,1,.426.01.963.963,0,0,1,.895.939.941.941,0,0,1-.9.932c-.44.034-.884.014-1.326.014Z"
      transform="translate(10.701 4.853)" />
    <path id="Shape-3" data-name="Shape"
      d="M5.014,1.9c-1.311,0-2.622.009-3.933,0C.272,1.885-.206,1.242.086.579a.926.926,0,0,1,.9-.574C3.676,0,6.362,0,9.047.008a.947.947,0,0,1,.987.943.965.965,0,0,1-1.039.941c-1.327.012-2.654,0-3.98,0Z"
      transform="translate(14.083 8.09)" />
    <path id="Shape-4" data-name="Shape"
      d="M1.881.943a.974.974,0,0,1-.943.938A.973.973,0,0,1,0,.938.974.974,0,0,1,.943,0a.976.976,0,0,1,.938.943Z"
      transform="translate(8.117 4.861)" />
    <path id="Shape-5" data-name="Shape"
      d="M3.785,1.881a1.914,1.914,0,0,1-1.894,1.9A1.911,1.911,0,0,1,0,1.927,1.906,1.906,0,0,1,1.869,0,1.91,1.91,0,0,1,3.785,1.881Z"
      transform="translate(8.055 23.442)" />
    <path id="Shape-6" data-name="Shape"
      d="M3.785,1.881a1.911,1.911,0,0,1-1.893,1.9A1.912,1.912,0,0,1,0,1.927,1.907,1.907,0,0,1,1.869,0,1.907,1.907,0,0,1,3.785,1.881Z"
      transform="translate(32.321 23.442)" />
  </g>
</svg>
