<svg id="svgexport-9_1_" data-name="svgexport-9 (1)" xmlns="http://www.w3.org/2000/svg" width="24.407" height="18.114" viewBox="0 0 24.407 18.114">
  <path id="Path_46266" data-name="Path 46266" d="M343.873,181.723l-1.88-3.814-.69-1.38a.954.954,0,0,0-.853-.527h-4.464v9.534h6.96a.953.953,0,0,0,.953-.953v-2.635A.963.963,0,0,0,343.873,181.723Z" transform="translate(-319.97 -170.759)" fill="#85e374"/>
  <g id="Group_15942" data-name="Group 15942" transform="translate(17.923 7.15)">
    <path id="Path_46267" data-name="Path 46267" d="M381.964,219.816h-5.979V216h4.1l1.806,3.612A.968.968,0,0,1,381.964,219.816Z" transform="translate(-375.985 -216.002)" fill="#57555c"/>
    <path id="Path_46268" data-name="Path 46268" d="M386.7,337.9a2.343,2.343,0,0,1,.048.477,2.383,2.383,0,1,1-4.767,0,2.343,2.343,0,0,1,.048-.477,2.383,2.383,0,0,1,4.671,0Z" transform="translate(-381.698 -330.277)" fill="#57555c"/>
  </g>
  <path id="Path_46269" data-name="Path 46269" d="M24.586,76.008H10.953a.953.953,0,0,0-.953.953V89.355a.953.953,0,0,0,.953.953H25.54V76.961A.953.953,0,0,0,24.586,76.008Z" transform="translate(-9.523 -75.531)" fill="#f0e6de"/>
  <g id="Group_15943" data-name="Group 15943" transform="translate(0.513 10.934)">
    <path id="Path_46270" data-name="Path 46270" d="M74.716,337.9a2.344,2.344,0,0,1,.048.477,2.383,2.383,0,1,1-4.767,0,2.344,2.344,0,0,1,.048-.477,2.383,2.383,0,0,1,4.671,0Z" transform="translate(-67.173 -334.061)" fill="#57555c"/>
    <rect id="Rectangle_5258" data-name="Rectangle 5258" width="1.924" height="1.924" transform="translate(0 0)" fill="#57555c"/>
  </g>
  <path id="Path_46271" data-name="Path 46271" d="M100.472,126.958a.477.477,0,1,0-.477-.477A.477.477,0,0,0,100.472,126.958Z" transform="translate(-95.228 -123.145)"/>
  <path id="Path_46272" data-name="Path 46272" d="M22.449,72.945l-.69-1.38a1.422,1.422,0,0,0-1.279-.791H16.493V67.438a1.432,1.432,0,0,0-1.43-1.43H1.43A1.432,1.432,0,0,0,0,67.438V79.832a1.432,1.432,0,0,0,1.43,1.43H2.86a2.849,2.849,0,0,0,.731,1.907H.477a.477.477,0,0,0,0,.953H23.93a.477.477,0,0,0,0-.953H22.722a2.848,2.848,0,0,0,.731-1.907c0-.027,0-.054,0-.081a1.432,1.432,0,0,0,.955-1.349V77.2C24.406,76.641,24.516,77.16,22.449,72.945Zm-.721.69,1.43,2.86H18.4v-2.86Zm-3.265,9.534H7.85a2.848,2.848,0,0,0,.731-1.907h9.152A2.849,2.849,0,0,0,18.463,83.169ZM.953,77.449h.953V78.4H.953Zm.477,2.86a.477.477,0,0,1-.477-.477v-.477h1.43a.477.477,0,0,0,.477-.477V76.972a.477.477,0,0,0-.477-.477H.953V67.438a.477.477,0,0,1,.477-.477H15.063a.477.477,0,0,1,.477.477V80.309H8.417a2.86,2.86,0,0,0-5.393,0Zm2.383.953a1.882,1.882,0,0,1,.039-.382,1.907,1.907,0,0,1,3.736,0v0a1.874,1.874,0,0,1,.038.38,1.907,1.907,0,1,1-3.813,0Zm14.873,0a1.882,1.882,0,0,1,.039-.382,1.907,1.907,0,0,1,3.736,0v0a1.874,1.874,0,0,1,.038.38,1.907,1.907,0,1,1-3.813,0Zm4.569-1.044a2.86,2.86,0,0,0-5.359.091h-1.4v-8.58H20.48a.474.474,0,0,1,.426.264l.345.69H17.923a.477.477,0,0,0-.477.477v3.814a.477.477,0,0,0,.477.477h5.53v2.383A.476.476,0,0,1,23.255,80.218Z" transform="translate(0 -66.008)"/>
  <path id="Path_46273" data-name="Path 46273" d="M140.471,126.958h6.006a.477.477,0,1,0,0-.953h-6.006a.477.477,0,0,0,0,.953Z" transform="translate(-133.32 -123.145)"/>
  <path id="Path_46274" data-name="Path 46274" d="M184.569,166h-4.1a.477.477,0,0,0,0,.953h4.1a.477.477,0,1,0,0-.953Z" transform="translate(-171.413 -161.237)"/>
  <path id="Path_46275" data-name="Path 46275" d="M412.936,366a.953.953,0,1,0,.953.953A.954.954,0,0,0,412.936,366Z" transform="translate(-392.344 -351.695)"/>
  <path id="Path_46276" data-name="Path 46276" d="M100.949,366a.953.953,0,1,0,.953.953A.954.954,0,0,0,100.949,366Z" transform="translate(-95.229 -351.695)"/>
</svg>
