<?xml version="1.0" encoding="UTF-8"?>
<svg version="1.1" xmlns="http://www.w3.org/2000/svg" width="512" height="512">
<path d="M0 0 C0.79096069 0.1263511 1.58192139 0.2527022 2.39685059 0.38288212 C17.06438334 2.8378546 31.59764726 6.11802543 46.1413269 9.20847964 C50.68266493 10.17238758 55.22518812 11.130679 59.76757812 12.08961487 C68.36183812 13.90479814 76.95505438 15.72487223 85.54788971 17.54678637 C95.26410814 19.60664755 104.98146333 21.66112007 114.69892883 23.71508873 C140.50239227 29.16924222 140.50239227 29.16924222 152.88126373 31.79349011 C156.88904855 32.64302039 160.897183 33.49079017 164.90637207 34.33367062 C171.11828673 35.64118557 177.32643098 36.95434639 183.51171875 38.38406372 C191.31606132 40.17487163 198.35285784 41.77487736 206.3203125 39.96850586 C207.59515503 39.72097565 207.59515503 39.72097565 208.89575195 39.46844482 C211.68438444 38.90641867 214.45387104 38.28398837 217.2265625 37.64819336 C219.29024241 37.19061077 221.35404844 36.73359667 223.41796875 36.27709961 C226.62506453 35.56140983 229.83090985 34.84108954 233.03466797 34.1105957 C236.15825029 33.40110381 239.28562468 32.71091192 242.4140625 32.02319336 C243.83168884 31.69205032 243.83168884 31.69205032 245.2779541 31.35421753 C253.18845874 29.63736181 261.37810631 29.08823582 268.5703125 33.40600586 C273.80149486 36.83304816 277.01474522 41.17481095 279.3203125 46.96850586 C280.2778829 52.31284454 280.46862996 57.47605244 280.46557617 62.88208008 C280.47061409 64.17866043 280.47061409 64.17866043 280.47575378 65.50143433 C280.48520649 68.34203553 280.48720396 71.18257744 280.48828125 74.02319336 C280.49149752 76.00945052 280.49486186 77.99570744 280.49836731 79.98196411 C280.50434418 84.13943023 280.50620867 88.2968756 280.50561523 92.4543457 C280.50551364 97.76574563 280.51917009 103.07701181 280.53638744 108.38838005 C280.54753788 112.48919275 280.54953351 116.58997341 280.54900551 120.69079971 C280.55018087 122.64829088 280.55457756 124.60578299 280.56233788 126.56325912 C280.57220042 129.30764742 280.56923526 132.05174908 280.56323242 134.79614258 C280.56885193 135.59435425 280.57447144 136.39256592 280.58026123 137.21496582 C280.53074661 146.18097656 279.27900101 154.04523655 272.6796875 160.59741211 C266.4002773 166.26253218 261.14898486 167.47433578 252.72998047 167.35131836 C243.31427261 166.74422317 234.03974849 164.10888309 224.8828125 161.96850586 C221.76901985 161.24936286 218.65435973 160.53471197 215.5375824 159.82861328 C213.61241694 159.39165018 211.68898941 158.94693181 209.76771545 158.49316406 C208.89247726 158.29295654 208.01723907 158.09274902 207.11547852 157.88647461 C205.97635765 157.62000122 205.97635765 157.62000122 204.81422424 157.34814453 C197.60591042 156.25085041 191.11358741 157.65318855 184.0925293 159.17163086 C182.98281265 159.40571655 181.87309601 159.63980225 180.72975159 159.88098145 C177.07491721 160.65358452 173.42227185 161.4360692 169.76953125 162.21850586 C167.22856185 162.75726601 164.68744738 163.29534242 162.14619446 163.83276367 C156.14825785 165.10267329 150.15162615 166.37857191 144.1556471 167.65768814 C132.76787766 170.08672945 121.37702697 172.50126562 109.98624611 174.9161377 C106.23981856 175.71154476 102.49408665 176.51016246 98.74845886 177.30932617 C96.46602456 177.79472932 94.18357986 178.28008358 91.90112305 178.76538086 C90.85332672 178.98979858 89.8055304 179.21421631 88.72598267 179.44543457 C87.77413589 179.64737427 86.82228912 179.84931396 85.84159851 180.05737305 C85.01185863 180.2343573 84.18211874 180.41134155 83.32723522 180.59368896 C81.3203125 180.96850586 81.3203125 180.96850586 79.3203125 180.96850586 C79.7642334 181.699646 80.2081543 182.43078613 80.66552734 183.18408203 C82.31973056 185.91258656 83.97054885 188.64310193 85.61914062 191.375 C86.3316689 192.55419549 87.04551841 193.73259373 87.76074219 194.91015625 C88.79193345 196.60846219 89.81789666 198.30993901 90.84375 200.01147461 C91.7706665 201.54324341 91.7706665 201.54324341 92.71630859 203.10595703 C96.1034387 209.15072119 96.9489864 213.2398239 95.3203125 219.96850586 C92.85632513 224.80522181 90.05976434 227.36645387 85.3203125 229.96850586 C82.99588475 230.66558873 80.66322707 231.33633483 78.3203125 231.96850586 C79.79517627 237.60209072 81.27020137 243.23563331 82.74536133 248.86914062 C83.24475215 250.77635623 83.74410263 252.68358239 84.2434082 254.59082031 C84.72844481 256.44353317 85.21356247 258.2962248 85.69876099 260.14889526 C86.18416521 262.00275512 86.66925136 263.8566983 87.15402222 265.71072388 C88.34735632 270.27122455 89.54779177 274.82961768 90.76416016 279.3840332 C90.99283279 280.24324875 91.22150543 281.10246429 91.45710754 281.98771667 C91.88584947 283.5971517 92.31675568 285.20601246 92.75028992 286.81416321 C96.55985252 301.13973394 96.18969712 313.84793841 89.078125 327.10913086 C82.55122176 337.72622679 74.24722023 343.66163047 62.3203125 346.96850586 C62.38763477 354.33373531 62.47756618 361.69844734 62.58276367 369.06323242 C62.61589169 371.56544837 62.64396083 374.06773687 62.66674805 376.57006836 C62.70051702 380.17975605 62.75284524 383.7887861 62.80859375 387.39819336 C62.81817863 389.05973953 62.81817863 389.05973953 62.82795715 390.75485229 C63.02225734 401.16323311 64.78424283 410.34757054 72.3203125 417.96850586 C78.84027952 423.1765283 85.74783322 425.21424927 94.09309387 425.22920227 C94.73722046 425.23302782 95.38134705 425.23685336 96.04499263 425.24079484 C98.18348203 425.25103744 100.32169854 425.24714953 102.46020508 425.24316406 C104.00164537 425.24751545 105.54308349 425.25270002 107.08451843 425.25865173 C111.25822047 425.27200866 115.43183177 425.27262398 119.605551 425.27008843 C123.0968532 425.26901624 126.58813723 425.27390856 130.07943553 425.27869385 C138.32095596 425.28977812 146.56243081 425.29023287 154.80395508 425.28417969 C163.28873906 425.27814334 171.77335706 425.29044475 180.25811273 425.31174976 C187.55772352 425.3294008 194.85728165 425.33536151 202.15691298 425.33211201 C206.50999223 425.33030422 210.86295314 425.3328846 215.21601295 425.34682655 C219.31271609 425.35945704 223.40916182 425.35741179 227.50586128 425.34441566 C229.00295857 425.34206146 230.50007427 425.34474278 231.99715042 425.35303879 C242.88911196 425.40900825 252.77967049 424.87873594 261.5625 417.78491211 C267.35446368 411.79988297 269.42891943 404.97286587 269.52563477 396.83496094 C269.53553436 396.11275864 269.54543396 395.39055634 269.55563354 394.64646912 C269.58721009 392.26035841 269.61199072 389.8742278 269.63671875 387.48803711 C269.6572916 385.83322127 269.67828816 384.17841065 269.69969177 382.52360535 C269.75487825 378.16875433 269.80430263 373.81385615 269.85253906 369.45892334 C269.90277908 365.01480921 269.95845209 360.57076354 270.01367188 356.12670898 C270.12121158 347.40736583 270.22266585 338.68796539 270.3203125 329.96850586 C269.6322905 329.76943634 268.94426849 329.57036682 268.23539734 329.36526489 C267.33360245 329.10043304 266.43180756 328.8356012 265.50268555 328.56274414 C264.60841354 328.30179962 263.71414154 328.0408551 262.79277039 327.77200317 C254.30334859 325.01311792 247.91850141 318.39542553 243.3203125 310.96850586 C239.83497635 303.54323048 238.712334 296.78077517 238.75390625 288.64038086 C238.74770767 287.60713684 238.74150909 286.57389282 238.73512268 285.50933838 C238.72807336 283.34469538 238.73111204 281.17999759 238.74389648 279.01538086 C238.75783875 275.71228731 238.72352485 272.41198947 238.68554688 269.10913086 C238.6845962 266.99454684 238.68645173 264.87995929 238.69140625 262.76538086 C238.67814804 261.78607605 238.66488983 260.80677124 238.65122986 259.79779053 C238.74035738 253.22004347 239.8958031 249.8910632 244.3203125 244.96850586 C248.22178823 242.44880279 250.75943643 241.83753476 255.3203125 241.96850586 C255.29936523 241.26242187 255.27841797 240.55633789 255.25683594 239.82885742 C255.17361952 236.6255521 255.12163465 233.42247423 255.0703125 230.21850586 C255.03679687 229.10733398 255.00328125 227.99616211 254.96875 226.85131836 C254.95585937 225.78139648 254.94296875 224.71147461 254.9296875 223.60913086 C254.90874023 222.62460937 254.88779297 221.64008789 254.86621094 220.62573242 C255.44527759 217.23725853 256.67414188 216.0856884 259.3203125 213.96850586 C262.06120478 213.24045635 264.55052456 213.39407345 267.3203125 213.96850586 C270.28889407 216.17591267 271.14897041 217.45447959 272.3203125 220.96850586 C272.40175105 222.59570068 272.4278427 224.22602305 272.41796875 225.85522461 C272.41474609 226.79301758 272.41152344 227.73081055 272.40820312 228.69702148 C272.39982422 229.67348633 272.39144531 230.64995117 272.3828125 231.65600586 C272.37830078 232.64407227 272.37378906 233.63213867 272.36914062 234.65014648 C272.3573557 237.08962544 272.33942033 239.52907327 272.3203125 241.96850586 C277.2703125 241.96850586 282.2203125 241.96850586 287.3203125 241.96850586 C287.26230469 240.36620117 287.20429688 238.76389648 287.14453125 237.11303711 C287.09762796 235.00238917 287.05212842 232.89170971 287.0078125 230.78100586 C286.96591797 229.7259082 286.92402344 228.67081055 286.88085938 227.58374023 C286.75735531 219.75358222 286.75735531 219.75358222 289.6171875 215.76538086 C293.15763703 213.41190285 295.14876329 213.28588872 299.3203125 213.96850586 C301.68528689 215.83559091 302.98061965 217.28912017 304.3203125 219.96850586 C304.40457344 221.63596646 304.42756393 223.30675773 304.41796875 224.97631836 C304.41474609 225.96245117 304.41152344 226.94858398 304.40820312 227.96459961 C304.39982422 228.99713867 304.39144531 230.02967773 304.3828125 231.09350586 C304.37830078 232.1337793 304.37378906 233.17405273 304.36914062 234.24584961 C304.35733202 236.82012548 304.34086325 239.39428732 304.3203125 241.96850586 C305.96773438 242.16379883 305.96773438 242.16379883 307.6484375 242.36303711 C311.83587752 243.05351924 313.38693194 243.95364251 316.3203125 246.96850586 C319.82757129 252.37984159 319.77292237 257.21361248 319.75390625 263.44897461 C319.7591481 264.45761063 319.76438995 265.46624664 319.76979065 266.50544739 C319.77619966 268.63610924 319.77488841 270.76680653 319.76635742 272.89746094 C319.75788547 276.12817888 319.78656416 279.35710467 319.81835938 282.58764648 C319.81997273 284.666422 319.81939129 286.74520061 319.81640625 288.82397461 C319.82764023 289.77644577 319.83887421 290.72891693 319.85044861 291.71025085 C319.73876321 302.67262484 316.07643617 312.13851434 308.3203125 319.96850586 C302.36068124 324.96565181 295.37986539 329.96850586 287.3203125 329.96850586 C287.33141556 330.90429977 287.34251862 331.84009369 287.35395813 332.804245 C287.45583417 341.67392108 287.53051566 350.54347665 287.57937336 359.4136076 C287.60533724 363.97260331 287.64048979 368.5311223 287.69750977 373.08984375 C287.75230613 377.49897174 287.78183204 381.90764464 287.79469872 386.31708717 C287.80385401 387.98944056 287.82172946 389.66177236 287.84896278 391.33392906 C288.09776728 407.26129266 284.71747741 419.11245603 273.48046875 430.89819336 C261.69658812 442.12782194 247.17419191 443.27163651 231.7097168 443.24316406 C230.14167032 443.24751776 228.57362596 443.25270309 227.00558472 443.25865173 C222.76781959 443.27198348 218.53014397 443.27262683 214.29236197 443.27008843 C210.74398553 443.26901457 207.19562689 443.27391277 203.64725429 443.27869385 C195.26946117 443.2897693 186.8917129 443.29023777 178.51391602 443.28417969 C169.89621039 443.27814352 161.27866818 443.29044635 152.66099042 443.31174976 C145.23986549 443.32941477 137.81879235 443.33535934 130.3976472 443.33211201 C125.97522935 443.33030652 121.55292805 443.33286139 117.1305294 443.34682655 C112.96813297 443.35948003 108.80598958 443.3573904 104.64359665 443.34441566 C103.12476195 443.34206646 101.60590902 443.34472444 100.08709526 443.35303879 C83.61557291 443.43663482 70.79033812 440.76902849 58.6484375 429.31616211 C48.32824308 418.90938888 45.20596861 406.79076892 45.20701599 392.36050415 C45.21217728 391.25403534 45.21733856 390.14756653 45.22265625 389.00756836 C45.22477867 387.28901138 45.22477867 387.28901138 45.22694397 385.53573608 C45.2325267 381.88829908 45.24507609 378.24092421 45.2578125 374.59350586 C45.26282973 372.11564216 45.26739225 369.6377775 45.27148438 367.15991211 C45.28249049 361.09608895 45.29921147 355.03230184 45.3203125 348.96850586 C44.7025293 348.90474762 44.08474609 348.84098938 43.44824219 348.77529907 C42.63774414 348.68904266 41.82724609 348.60278625 40.9921875 348.51391602 C39.7870752 348.38734116 39.7870752 348.38734116 38.55761719 348.25820923 C27.46915982 346.82239073 18.2078316 338.99058605 11.26611328 330.66796875 C2.94773236 319.12765033 -0.72864377 302.97466762 -5.4296875 289.71850586 C-6.26007224 287.38751457 -7.0909728 285.05670698 -7.92236328 282.72607422 C-9.20913313 279.11870955 -10.49558809 275.51123625 -11.78042603 271.90318298 C-16.33988487 259.10093419 -20.94571449 246.31549372 -25.5546875 233.53100586 C-26.66334453 230.45467559 -27.77187471 227.37830351 -28.87866211 224.30130005 C-29.56230147 222.40651268 -30.24982575 220.51312148 -30.94165039 218.62130737 C-32.39782673 214.62643611 -33.80645584 210.64371719 -35.01269531 206.56567383 C-36.63116042 200.37570638 -36.63116042 200.37570638 -40.48876953 195.57104492 C-42.55797709 194.77338668 -44.49996095 194.35745145 -46.6796875 193.96850586 C-47.97911819 193.48789897 -49.26641399 192.97313995 -50.5390625 192.42553711 C-51.17376465 192.1607959 -51.8084668 191.89605469 -52.46240234 191.62329102 C-64.85332503 186.31816775 -74.920318 179.28349076 -84.6796875 169.96850586 C-85.28167969 169.4412793 -85.88367188 168.91405273 -86.50390625 168.37084961 C-102.10279662 154.15367913 -111.59687379 131.19874936 -112.90283203 110.41772461 C-114.08053489 81.03053111 -109.17055526 55.99955164 -89.6796875 32.96850586 C-89.23367187 32.37682617 -88.78765625 31.78514648 -88.328125 31.17553711 C-74.25562831 13.00215948 -49.28650193 2.09717134 -27 -0.75024414 C-17.89262375 -1.52169248 -9.02543371 -1.44276481 0 0 Z " fill="#000000" transform="translate(136.6796875,35.031494140625)"/>
<path d="M0 0 C17.68953143 -1.42651716 34.57686593 2.88512032 51.68695068 6.77172852 C55.74015359 7.68406536 59.80510118 8.54141604 63.86889648 9.4050293 C67.22438414 10.11827426 70.57777037 10.84088965 73.93115234 11.56396484 C83.57434834 13.63384277 93.22976129 15.64533381 102.88427734 17.66162109 C117.07575924 20.62592626 131.26334056 23.6071738 145.44384766 26.62353516 C152.81004539 28.18994976 160.17800887 29.74757182 167.54833984 31.29443359 C168.38844101 31.47084885 169.22854218 31.6472641 170.09410095 31.82902527 C174.81867193 32.82106005 179.54352888 33.81170144 184.26899719 34.79945374 C194.09777999 36.8691007 203.88893877 39.04460141 213.69677734 41.22412109 C213.69677734 68.94412109 213.69677734 96.66412109 213.69677734 125.22412109 C200.82677734 127.86412109 187.95677734 130.50412109 174.69677734 133.22412109 C162.97068137 135.7935366 162.97068137 135.7935366 151.24755859 138.37646484 C141.08757108 140.60564591 130.89035204 142.65531482 120.69677734 144.72412109 C107.67715453 147.36725577 94.6704678 150.05086166 81.69677734 152.91162109 C80.41939697 153.19303955 79.1420166 153.47445801 77.82592773 153.7644043 C75.33500556 154.31424373 72.84419852 154.86460503 70.35351562 155.41552734 C59.81366799 157.74614394 49.26919152 160.04537895 38.69677734 162.22412109 C37.67229492 162.4372998 36.6478125 162.65047852 35.59228516 162.87011719 C8.98058051 168.30891128 -14.65986684 168.25490627 -38.12597656 153.04248047 C-57.05623021 140.03351349 -69.43803864 121.0015647 -73.79150391 98.40380859 C-77.09605639 74.90346895 -72.97344361 52.77178172 -59.25634766 33.32177734 C-57.35243168 30.86808718 -55.37919764 28.53311368 -53.30322266 26.22412109 C-52.51044922 25.30953125 -52.51044922 25.30953125 -51.70166016 24.37646484 C-38.19729297 9.77445204 -19.44589403 1.89223349 0 0 Z " fill="#6494CB" transform="translate(114.30322265625,50.77587890625)"/>
<path d="M0 0 C0.92311087 2.93187371 1.653979 5.756672 2.3125 8.75 C2.74417544 10.59450664 3.17917581 12.43823774 3.6171875 14.28125 C3.95508301 15.70824219 3.95508301 15.70824219 4.29980469 17.1640625 C5.38602874 21.56349714 6.65885086 25.9033409 7.9375 30.25 C10.43165472 38.79910138 12.62698681 47.40033028 14.74755859 56.04882812 C16.59436066 63.52277464 18.65028869 70.91690414 20.80932617 78.3059082 C22.87374196 85.42031827 24.69929331 92.58214356 26.43969727 99.78222656 C27.40803037 103.99843243 27.40803037 103.99843243 29 108 C29.93121034 118.64240387 28.96460722 126.27929501 22.53125 134.98828125 C17.18940809 141.1025954 9.88186428 144.16635694 1.98046875 145.515625 C-7.00710264 146.03391221 -13.96642158 142.77518382 -21.0625 137.453125 C-25.16120714 133.46420466 -27.12147373 128.61684647 -29.109375 123.3515625 C-29.40711319 122.57404633 -29.70485138 121.79653015 -30.01161194 120.99545288 C-34.33616447 109.60585695 -38.36634208 98.10682473 -42.4375 86.625 C-44.19985853 81.66466445 -45.96448618 76.70514017 -47.73046875 71.74609375 C-48.1708548 70.50924332 -48.61124084 69.27239288 -49.06497192 67.99806213 C-51.96284214 59.87250388 -54.89720301 51.76105231 -57.86328125 43.66015625 C-58.23952133 42.63170593 -58.61576141 41.60325562 -59.00340271 40.54364014 C-60.77089315 35.71556556 -62.54445172 30.88982542 -64.32592773 26.06689453 C-64.95180517 24.3610558 -65.57754608 22.65516698 -66.203125 20.94921875 C-66.48960403 20.1800563 -66.77608307 19.41089386 -67.07124329 18.61842346 C-68.17037555 15.61046389 -69 13.22958618 -69 10 C-67.75992188 9.92523438 -66.51984375 9.85046875 -65.2421875 9.7734375 C-47.54637431 8.52378121 -30.35622051 5.07095925 -13.0859375 1.10498047 C-11.20261719 0.67983154 -11.20261719 0.67983154 -9.28125 0.24609375 C-8.14751953 -0.01631104 -7.01378906 -0.27871582 -5.84570312 -0.54907227 C-3 -1 -3 -1 0 0 Z " fill="#524C47" transform="translate(186,223)"/>
<path d="M0 0 C2.87758912 1.95709682 4.64827552 3.46214331 5.44633484 6.95152473 C5.63880445 9.36000052 5.65272446 11.7171237 5.61523438 14.13305664 C5.62078339 15.04419724 5.6263324 15.95533783 5.63204956 16.89408875 C5.64384184 19.89998279 5.61957653 22.9043681 5.59375 25.91015625 C5.59203887 28.00093009 5.5921046 30.09170607 5.59387207 32.18247986 C5.59221911 36.5613969 5.57352367 40.93980181 5.54199219 45.31860352 C5.50229038 50.93335479 5.49794997 56.54743604 5.50545502 62.16230106 C5.50852323 66.47828823 5.49640983 70.79412455 5.47932434 75.110075 C5.47229038 77.18053682 5.46917029 79.25101574 5.47001648 81.32148933 C5.4682203 84.21342044 5.44685444 87.10454595 5.41992188 89.99633789 C5.42285248 90.85307098 5.42578308 91.70980408 5.42880249 92.59249878 C5.37791945 96.1306312 5.34043416 98.38985565 3.59396362 101.51997375 C0.57274682 104.32523236 -3.04025053 104.07599989 -7 104 C-10.32473031 103.54136844 -13.35236964 102.73567602 -16.625 101.875 C-28.02178517 98.99449386 -39.51312547 96.49714664 -51 94 C-51 66.28 -51 38.56 -51 10 C-6.71428571 0 -6.71428571 0 0 0 Z " fill="#FEC256" transform="translate(395,82)"/>
<path d="M0 0 C9.39588871 5.46611081 16.03578507 13.95841424 20 24 C23.17506318 36.30087369 20.86643258 47.6369058 14.6875 58.390625 C8.51360994 67.93728833 -1.04455444 73.38873454 -12 76 C-24.00894647 77.25782791 -33.50282053 75.06725097 -43.375 68.125 C-51.85768058 61.17025568 -55.5523846 53.34284619 -59 43 C-59.95749229 30.19157855 -58.29125102 20.03644983 -49.84375 9.99609375 C-36.64729995 -4.29074094 -17.77212801 -8.55399883 0 0 Z " fill="#FDC156" transform="translate(139,98)"/>
<path d="M0 0 C12.13417939 9.14730446 19.75529721 21.10139173 23 36 C23.21385832 38.91422396 23.18511327 41.82864004 23.1875 44.75 C23.19974609 45.5234375 23.21199219 46.296875 23.22460938 47.09375 C23.26015638 61.21775949 17.25450657 74.48423188 8 85 C1.44582459 91.39504521 -5.40972759 95.86171997 -14 99 C-14.83789062 99.31839844 -15.67578125 99.63679688 -16.5390625 99.96484375 C-30.42713878 104.51727963 -45.28235079 102.86471409 -58.22265625 96.38671875 C-72.28842865 88.52592154 -82.08126167 77.57147549 -87 62 C-87.4125 60.80375 -87.825 59.6075 -88.25 58.375 C-91.55034259 43.68698884 -88.35147518 28.97318291 -81.01171875 16.109375 C-72.074791 2.29618182 -60.46618432 -4.59491279 -45.11328125 -9.6171875 C-29.2282814 -12.49469209 -13.36482316 -8.7457229 0 0 Z M-64.3125 20.4375 C-72.104733 30.0644693 -74.16477857 40.8238611 -73 53 C-70.16946992 64.15204554 -64.42112705 73.33579224 -55 80 C-44.93776578 85.93964894 -34.4558585 87.8719888 -22.89453125 85.3125 C-9.82085934 80.88699752 -1.01958767 72.7614188 5.0546875 60.4921875 C8.75719849 50.73102216 8.2134372 38.4881537 4 29 C-2.11702832 17.74837517 -10.20491262 10.9454758 -22.32421875 6.88671875 C-39.08089632 2.84445965 -52.90216102 7.91186473 -64.3125 20.4375 Z " fill="#020202" transform="translate(153,88)"/>
<path d="M0 0 C15.84 0 31.68 0 48 0 C48.0825 6.084375 48.165 12.16875 48.25 18.4375 C48.28641602 20.33943115 48.32283203 22.2413623 48.36035156 24.20092773 C48.46985142 33.84702835 48.46052343 41.59138961 42.0703125 49.33984375 C34.33000964 55.69683948 27.94881843 56.78750542 18 56 C11.39881226 54.95651328 7.92837431 51.29544592 3.6640625 46.3515625 C0.15158793 41.38792473 -0.27354847 37.15800572 -0.125 31.1875 C-0.11597656 30.49462891 -0.10695313 29.80175781 -0.09765625 29.08789062 C-0.07426157 27.39177605 -0.03839641 25.69584129 0 24 C0.79696289 23.9906543 1.59392578 23.98130859 2.41503906 23.97167969 C6.02732175 23.91798502 9.63830821 23.83433392 13.25 23.75 C15.13138672 23.72873047 15.13138672 23.72873047 17.05078125 23.70703125 C18.25605469 23.67480469 19.46132813 23.64257812 20.703125 23.609375 C21.81333008 23.58842773 22.92353516 23.56748047 24.06738281 23.54589844 C27.62660537 22.88335917 28.83937402 21.86136954 31 19 C31.35457365 15.52517825 31.1054086 13.31622581 30 10 C26.7764018 8.72075724 23.35448268 8.80137931 19.921875 8.68359375 C18.76171875 8.64169922 17.6015625 8.59980469 16.40625 8.55664062 C15.1996875 8.51732422 13.993125 8.47800781 12.75 8.4375 C11.52796875 8.39431641 10.3059375 8.35113281 9.046875 8.30664062 C6.0313608 8.20062645 3.01576552 8.09856064 0 8 C0 5.36 0 2.72 0 0 Z " fill="#FBC055" transform="translate(392,293)"/>
<path d="M0 0 C5.26725451 3.56110051 9.14772361 8.3347843 11.07421875 14.40234375 C12.15567009 23.08810554 11.21847112 30.21857718 6.07421875 37.40234375 C1.84984347 42.33419936 -2.51405953 44.6262508 -8.92578125 45.40234375 C-10.01052734 45.54349609 -10.01052734 45.54349609 -11.1171875 45.6875 C-17.43952734 46.11631957 -21.89848183 44.1609838 -26.92578125 40.40234375 C-31.8992751 35.84059884 -35.41194454 30.63356703 -36.2421875 23.796875 C-36.51278531 17.4683779 -35.82786229 12.49788043 -31.92578125 7.40234375 C-22.87462609 -2.10474646 -12.47264029 -6.29230148 0 0 Z " fill="#010101" transform="translate(196.92578125,314.59765625)"/>
<path d="M0 0 C0.82127884 -0.00960754 1.64255768 -0.01921509 2.48872375 -0.02911377 C3.81531258 -0.03548859 3.81531258 -0.03548859 5.16870117 -0.04199219 C6.53933968 -0.0505423 6.53933968 -0.0505423 7.93766785 -0.05926514 C9.87184492 -0.06871136 11.80603807 -0.07524762 13.74023438 -0.07910156 C16.68998528 -0.08879592 19.63903599 -0.11981817 22.58862305 -0.15136719 C24.46947829 -0.15789867 26.35033851 -0.16314857 28.23120117 -0.16699219 C29.10952103 -0.17933899 29.98784088 -0.19168579 30.89277649 -0.20440674 C35.96950164 -0.18606666 39.5156499 0.30002509 43.89916992 3.16113281 C45.46388225 6.29055746 45.5961895 9.77195505 44.89916992 13.16113281 C43.54443359 15.25732422 43.54443359 15.25732422 40.89916992 17.16113281 C37.32134044 17.77643928 33.77203023 17.72123364 30.14916992 17.69238281 C28.57377441 17.69812317 28.57377441 17.69812317 26.96655273 17.70397949 C24.74746746 17.70669977 22.52835018 17.69933058 20.30932617 17.68261719 C16.91146397 17.66121027 13.51571631 17.68241607 10.11791992 17.70800781 C7.96166525 17.70536456 5.8054119 17.70023963 3.64916992 17.69238281 C2.63242187 17.70047974 1.61567383 17.70857666 0.56811523 17.71691895 C-6.46160425 17.62340049 -6.46160425 17.62340049 -9.73950195 15.25292969 C-11.92269957 11.89826018 -11.90134693 9.02105068 -11.10083008 5.16113281 C-8.03891341 1.04338281 -4.99003079 0.04723251 0 0 Z " fill="#000000" transform="translate(443.100830078125,92.8388671875)"/>
<path d="M0 0 C0.82127884 -0.00960754 1.64255768 -0.01921509 2.48872375 -0.02911377 C3.81531258 -0.03548859 3.81531258 -0.03548859 5.16870117 -0.04199219 C6.53933968 -0.0505423 6.53933968 -0.0505423 7.93766785 -0.05926514 C9.87184492 -0.06871136 11.80603807 -0.07524762 13.74023438 -0.07910156 C16.68998528 -0.08879592 19.63903599 -0.11981817 22.58862305 -0.15136719 C24.46947829 -0.15789867 26.35033851 -0.16314857 28.23120117 -0.16699219 C29.10952103 -0.17933899 29.98784088 -0.19168579 30.89277649 -0.20440674 C35.96950164 -0.18606666 39.5156499 0.30002509 43.89916992 3.16113281 C45.46388225 6.29055746 45.5961895 9.77195505 44.89916992 13.16113281 C43.54443359 15.25732422 43.54443359 15.25732422 40.89916992 17.16113281 C37.32134044 17.77643928 33.77203023 17.72123364 30.14916992 17.69238281 C28.57377441 17.69812317 28.57377441 17.69812317 26.96655273 17.70397949 C24.74746746 17.70669977 22.52835018 17.69933058 20.30932617 17.68261719 C16.91146397 17.66121027 13.51571631 17.68241607 10.11791992 17.70800781 C7.96166525 17.70536456 5.8054119 17.70023963 3.64916992 17.69238281 C2.63242187 17.70047974 1.61567383 17.70857666 0.56811523 17.71691895 C-6.46160425 17.62340049 -6.46160425 17.62340049 -9.73950195 15.25292969 C-11.92269957 11.89826018 -11.90134693 9.02105068 -11.10083008 5.16113281 C-8.03891341 1.04338281 -4.99003079 0.04723251 0 0 Z " fill="#000000" transform="translate(443.100830078125,156.8388671875)"/>
<path d="M0 0 C0.82127884 -0.00960754 1.64255768 -0.01921509 2.48872375 -0.02911377 C3.81531258 -0.03548859 3.81531258 -0.03548859 5.16870117 -0.04199219 C6.53933968 -0.0505423 6.53933968 -0.0505423 7.93766785 -0.05926514 C9.87184492 -0.06871136 11.80603807 -0.07524762 13.74023438 -0.07910156 C16.68998528 -0.08879592 19.63903599 -0.11981817 22.58862305 -0.15136719 C24.46947829 -0.15789867 26.35033851 -0.16314857 28.23120117 -0.16699219 C29.10952103 -0.17933899 29.98784088 -0.19168579 30.89277649 -0.20440674 C35.96950164 -0.18606666 39.5156499 0.30002509 43.89916992 3.16113281 C45.46388225 6.29055746 45.5961895 9.77195505 44.89916992 13.16113281 C43.54443359 15.25732422 43.54443359 15.25732422 40.89916992 17.16113281 C37.32134044 17.77643928 33.77203023 17.72123364 30.14916992 17.69238281 C28.57377441 17.69812317 28.57377441 17.69812317 26.96655273 17.70397949 C24.74746746 17.70669977 22.52835018 17.69933058 20.30932617 17.68261719 C16.91146397 17.66121027 13.51571631 17.68241607 10.11791992 17.70800781 C7.96166525 17.70536456 5.8054119 17.70023963 3.64916992 17.69238281 C2.63242187 17.70047974 1.61567383 17.70857666 0.56811523 17.71691895 C-6.46160425 17.62340049 -6.46160425 17.62340049 -9.73950195 15.25292969 C-11.92269957 11.89826018 -11.90134693 9.02105068 -11.10083008 5.16113281 C-8.03891341 1.04338281 -4.99003079 0.04723251 0 0 Z " fill="#000000" transform="translate(443.100830078125,124.8388671875)"/>
<path d="M0 0 C2.9375 0.5625 2.9375 0.5625 5.3125 2.0625 C7.59166433 5.56890667 7.75503559 8.49150647 6.9375 12.5625 C5.3125 15.0625 5.3125 15.0625 2.9375 16.5625 C0 17.125 0 17.125 -3.0625 16.5625 C-6.38524404 14.10655875 -7.83868008 12.6368356 -8.6875 8.5625 C-7.63783559 3.52411085 -5.07009643 0.9312422 0 0 Z " fill="#F3B952" transform="translate(185.0625,327.4375)"/>
<path d="M0 0 C3.31232312 3.12810644 5.421226 6.67998562 7.75 10.5625 C8.17410156 11.24763672 8.59820312 11.93277344 9.03515625 12.63867188 C10.08912404 14.38784643 11.052497 16.19094007 12 18 C11.67 18.66 11.34 19.32 11 20 C7.9375 20.625 7.9375 20.625 5 21 C4.16193384 18.06377536 3.32937556 15.12617933 2.5 12.1875 C2.26152344 11.35412109 2.02304688 10.52074219 1.77734375 9.66210938 C1.43896484 8.45844727 1.43896484 8.45844727 1.09375 7.23046875 C0.88427734 6.49207764 0.67480469 5.75368652 0.45898438 4.99291992 C0 3 0 3 0 0 Z " fill="#E6B04E" transform="translate(204,230)"/>
</svg>
