
<svg xmlns="http://www.w3.org/2000/svg" viewBox="0 0 9.998 7.245">
  <g id="svgexport-6" transform="translate(0 -70.499)">
    <g id="Group_15234" data-name="Group 15234" transform="translate(0 70.499)">
      <path id="Path_45252" data-name="Path 45252" d="M9.119,70.5H.879A.88.88,0,0,0,0,71.378v4.706a.88.88,0,0,0,.879.879H4.267l.5.664a.293.293,0,0,0,.469,0l.5-.664H9.119A.88.88,0,0,0,10,76.084V71.378A.88.88,0,0,0,9.119,70.5Zm.293,5.585a.293.293,0,0,1-.293.293H5.585a.293.293,0,0,0-.234.117L5,76.963l-.351-.469a.293.293,0,0,0-.234-.117H.879a.293.293,0,0,1-.293-.293V71.378a.293.293,0,0,1,.293-.293H9.119a.293.293,0,0,1,.293.293Z" transform="translate(0 -70.499)" fill="#0d1863"/>
      <path id="Path_45253" data-name="Path 45253" d="M158.986,164.225a.343.343,0,0,0-.639-.007l-.838,2.2a.293.293,0,1,0,.547.209l.136-.358h.939l.135.357a.293.293,0,0,0,.548-.207Zm-.57,1.459.248-.652.246.652Z" transform="translate(-154.414 -162.178)" fill="#0d1863"/>
      <path id="Path_45254" data-name="Path 45254" d="M76.755,165.425a.293.293,0,0,0,0-.586h-.9a.293.293,0,0,0-.293.293v2.21a.293.293,0,0,0,.586,0v-.833h.532a.293.293,0,1,0,0-.586h-.532v-.5Z" transform="translate(-74.09 -162.997)" fill="#0d1863"/>
      <path id="Path_45255" data-name="Path 45255" d="M294.6,166.165a1.407,1.407,0,1,0-.41.418l.139.139a.293.293,0,1,0,.414-.414Zm-2.006-.754a.82.82,0,1,1,1.574.322l-.137-.137a.293.293,0,1,0-.414.414l.144.144A.821.821,0,0,1,292.591,165.411Z" transform="translate(-286.303 -162.179)" fill="#0d1863"/>
    </g>
  </g>
</svg>
