<?xml version="1.0" encoding="UTF-8"?>
<svg version="1.1" xmlns="http://www.w3.org/2000/svg" width="512" height="512">
<path d="M0 0 C1.2946669 -0.00615326 2.5893338 -0.01230652 3.92323303 -0.01864624 C5.33741974 -0.00485131 6.7515994 0.00968259 8.16577148 0.02490234 C9.61400692 0.02728665 11.06224548 0.02819212 12.51048279 0.02767944 C15.54445784 0.03080722 18.57796024 0.04737145 21.61181641 0.07421875 C25.50490549 0.10822931 29.3974759 0.11584651 33.29069614 0.11432838 C36.28037995 0.11487161 39.26994989 0.12583052 42.25959587 0.14033127 C43.69534379 0.14670443 45.13110462 0.15063937 46.56686592 0.15211868 C48.57066601 0.15644429 50.57441803 0.17551659 52.578125 0.1953125 C54.28996727 0.20674789 54.28996727 0.20674789 56.03639221 0.21841431 C58.72436523 0.48583984 58.72436523 0.48583984 60.72436523 2.48583984 C60.96487427 4.51065063 60.96487427 4.51065063 60.95141602 7.02734375 C60.95118942 8.43858017 60.95118942 8.43858017 60.95095825 9.87832642 C60.94063568 10.89607147 60.93031311 11.91381653 60.91967773 12.96240234 C60.91684784 14.00278656 60.91401794 15.04317078 60.91110229 16.11508179 C60.89988227 19.44711678 60.87477438 22.77888571 60.84936523 26.11083984 C60.83933779 28.3660443 60.83021153 30.62125296 60.82202148 32.87646484 C60.79993702 38.41301439 60.76644162 43.94940811 60.72436523 49.48583984 C61.83823608 49.45647339 61.83823608 49.45647339 62.97460938 49.42651367 C63.95550537 49.41128662 64.93640137 49.39605957 65.94702148 49.38037109 C67.40120483 49.35100464 67.40120483 49.35100464 68.88476562 49.32104492 C74.4486998 49.64394541 78.27847778 52.00190272 82.09936523 55.92333984 C85.30710589 60.98170011 86.62346123 65.45856666 85.72436523 71.48583984 C83.96540336 76.72469385 81.52413394 80.55915161 76.72436523 83.48583984 C75.06603025 83.85841731 73.39945435 84.19780282 71.72436523 84.48583984 C74.56482942 96.19652554 79.3008475 105.06154932 89.72436523 111.48583984 C93.18366194 113.39495001 96.69483873 115.20296942 100.20849609 117.00952148 C136.06859566 135.62563501 162.01482071 168.51744122 174.72436523 206.48583984 C187.78667778 248.5826588 182.59066561 293.65235538 162.18432617 332.52978516 C160.04636599 336.4431043 157.64465823 340.09343617 155.07397461 343.73754883 C154.44599976 344.62933334 153.8180249 345.52111786 153.17102051 346.43992615 C152.45492615 347.45265343 152.45492615 347.45265343 151.72436523 348.48583984 C152.42673939 348.4873064 153.12911354 348.48877296 153.85277176 348.49028397 C170.93692882 348.52732301 188.02086868 348.58629894 205.10486221 348.66974258 C213.36654235 348.7095653 221.62812679 348.7419413 229.88989258 348.75683594 C237.09020342 348.76983578 244.29030397 348.7967575 251.4904964 348.84045291 C255.30359428 348.86310557 259.11643244 348.87874827 262.92960358 348.87772369 C266.51828919 348.8769793 270.10639987 348.89484002 273.69493675 348.92700768 C275.64074592 348.93959628 277.58665142 348.93242543 279.53248596 348.92469788 C280.69072372 348.93861069 281.84896149 348.9525235 283.04229736 348.96685791 C284.0488953 348.97054508 285.05549324 348.97423225 286.09259415 348.97803116 C289.44411146 349.62471719 290.66788446 350.80808043 292.72436523 353.48583984 C292.56286319 356.8773828 292.14139766 358.06880742 289.72436523 360.48583984 C286.85690027 360.73768884 286.85690027 360.73768884 283.09914494 360.74031544 C282.4071912 360.74352192 281.71523746 360.74672839 281.00231543 360.75003204 C278.66040204 360.75839958 276.31873993 360.75238441 273.9768219 360.74653625 C272.29018879 360.74955387 270.60355705 360.75344138 268.91692775 360.75812882 C264.26397125 360.7684679 259.61109129 360.76621207 254.95812833 360.76194823 C249.9471441 360.75949166 244.93617881 360.76848179 239.92520142 360.77598572 C230.10121968 360.78876461 220.27726523 360.79052245 210.45327658 360.78818545 C202.47184312 360.78640571 194.49041798 360.78814454 186.50898552 360.7924099 C184.80800712 360.79330268 184.80800712 360.79330268 183.07266552 360.7942135 C180.76931278 360.79542519 178.46596004 360.79663933 176.1626073 360.79785588 C154.53969697 360.80874368 132.91680222 360.80656304 111.29389101 360.80047103 C91.49228795 360.79530062 71.69073406 360.8065584 51.88914073 360.82556925 C31.57934539 360.84491923 11.26957334 360.85320866 -9.04023129 360.849446 C-20.45165153 360.84752965 -31.86302992 360.85006358 -43.27444267 360.86416054 C-52.98885125 360.87603919 -62.70319219 360.87751892 -72.41760164 360.86537037 C-77.37790886 360.85945688 -82.33809217 360.85844997 -87.29839134 360.87037277 C-91.83393493 360.8811483 -96.3692499 360.87822862 -100.90478242 360.86411109 C-102.5507946 360.86144099 -104.19682422 360.8639023 -105.84281939 360.87184695 C-108.07035178 360.8818572 -110.29707458 360.87361462 -112.52457333 360.86056995 C-114.38490575 360.86065248 -114.38490575 360.86065248 -116.28282064 360.86073667 C-119.27563477 360.48583984 -119.27563477 360.48583984 -121.17023236 359.11866921 C-122.77712187 356.74507533 -122.76525309 355.28365881 -122.27563477 352.48583984 C-120.44555814 350.36335428 -118.95302375 349.56219407 -116.16601562 349.24804688 C-113.6128313 349.19024665 -111.07836718 349.2248121 -108.52563477 349.29833984 C-107.6374707 349.311875 -106.74930664 349.32541016 -105.83422852 349.33935547 C-103.64740899 349.37462675 -101.4618351 349.42391232 -99.27563477 349.48583984 C-100.21922852 348.03177734 -100.21922852 348.03177734 -101.18188477 346.54833984 C-114.62364286 325.61194335 -124.62814198 303.32496428 -128.27563477 278.48583984 C-128.45739258 277.34759766 -128.63915039 276.20935547 -128.82641602 275.03662109 C-133.60515053 235.33855105 -124.03682362 193.74280694 -99.85522461 161.59765625 C-96.80921958 157.75722445 -93.56471073 154.11855061 -90.27563477 150.48583984 C-89.13481445 149.14779297 -89.13481445 149.14779297 -87.97094727 147.78271484 C-82.62150723 141.57660291 -76.78425425 136.44844866 -70.27563477 131.48583984 C-69.27274414 130.70595703 -68.26985352 129.92607422 -67.23657227 129.12255859 C-59.32936464 123.13957037 -50.94713229 118.40221392 -42.09082031 113.94750977 C-34.23154493 109.87256563 -27.18219532 104.69032806 -23.40063477 96.42333984 C-23.0177832 95.58931641 -22.63493164 94.75529297 -22.24047852 93.89599609 C-20.99652536 90.78863133 -20.0539029 87.7404157 -19.27563477 84.48583984 C-19.95625977 84.44458984 -20.63688477 84.40333984 -21.33813477 84.36083984 C-25.48573294 83.12538507 -28.42970079 80.72604679 -31.27563477 77.48583984 C-33.87621435 72.2588471 -34.03719153 67.20954017 -33.27563477 61.48583984 C-31.59358936 56.7761127 -28.95770708 53.52931671 -24.65063477 50.98583984 C-21.16754945 49.52799728 -18.26273257 49.3246363 -14.50219727 49.39208984 C-13.5207373 49.405625 -12.53927734 49.41916016 -11.52807617 49.43310547 C-10.78477051 49.45050781 -10.04146484 49.46791016 -9.27563477 49.48583984 C-9.28562752 48.65351837 -9.28562752 48.65351837 -9.29582214 47.80438232 C-9.36218974 42.02947788 -9.40744117 36.25468178 -9.44042969 30.47949219 C-9.45551659 28.32417399 -9.47598865 26.16888648 -9.50195312 24.01367188 C-9.5383402 20.9157758 -9.55536215 17.81828561 -9.56860352 14.72021484 C-9.58408737 13.75653992 -9.59957123 12.79286499 -9.61552429 11.79998779 C-9.61575089 10.89935608 -9.61597748 9.99872437 -9.61621094 9.07080078 C-9.62620369 7.8849942 -9.62620369 7.8849942 -9.63639832 6.67523193 C-8.65480621 0.7181723 -5.56713111 -0.01389334 0 0 Z " fill="#95D6F1" transform="translate(162.275634765625,107.51416015625)"/>
<path d="M0 0 C1.2946669 -0.00615326 2.5893338 -0.01230652 3.92323303 -0.01864624 C5.33741974 -0.00485131 6.7515994 0.00968259 8.16577148 0.02490234 C9.61400692 0.02728665 11.06224548 0.02819212 12.51048279 0.02767944 C15.54445784 0.03080722 18.57796024 0.04737145 21.61181641 0.07421875 C25.50490549 0.10822931 29.3974759 0.11584651 33.29069614 0.11432838 C36.28037995 0.11487161 39.26994989 0.12583052 42.25959587 0.14033127 C43.69534379 0.14670443 45.13110462 0.15063937 46.56686592 0.15211868 C48.57066601 0.15644429 50.57441803 0.17551659 52.578125 0.1953125 C54.28996727 0.20674789 54.28996727 0.20674789 56.03639221 0.21841431 C58.72436523 0.48583984 58.72436523 0.48583984 60.72436523 2.48583984 C60.96487427 4.51065063 60.96487427 4.51065063 60.95141602 7.02734375 C60.95118942 8.43858017 60.95118942 8.43858017 60.95095825 9.87832642 C60.94063568 10.89607147 60.93031311 11.91381653 60.91967773 12.96240234 C60.91684784 14.00278656 60.91401794 15.04317078 60.91110229 16.11508179 C60.89988227 19.44711678 60.87477438 22.77888571 60.84936523 26.11083984 C60.83933779 28.3660443 60.83021153 30.62125296 60.82202148 32.87646484 C60.79993702 38.41301439 60.76644162 43.94940811 60.72436523 49.48583984 C61.83823608 49.45647339 61.83823608 49.45647339 62.97460938 49.42651367 C63.95550537 49.41128662 64.93640137 49.39605957 65.94702148 49.38037109 C67.40120483 49.35100464 67.40120483 49.35100464 68.88476562 49.32104492 C74.4486998 49.64394541 78.27847778 52.00190272 82.09936523 55.92333984 C85.30710589 60.98170011 86.62346123 65.45856666 85.72436523 71.48583984 C83.96540336 76.72469385 81.52413394 80.55915161 76.72436523 83.48583984 C75.06603025 83.85841731 73.39945435 84.19780282 71.72436523 84.48583984 C74.56482942 96.19652554 79.3008475 105.06154932 89.72436523 111.48583984 C93.18366194 113.39495001 96.69483873 115.20296942 100.20849609 117.00952148 C136.06859566 135.62563501 162.01482071 168.51744122 174.72436523 206.48583984 C187.78667778 248.5826588 182.59066561 293.65235538 162.18432617 332.52978516 C160.04636599 336.4431043 157.64465823 340.09343617 155.07397461 343.73754883 C154.44599976 344.62933334 153.8180249 345.52111786 153.17102051 346.43992615 C152.45492615 347.45265343 152.45492615 347.45265343 151.72436523 348.48583984 C152.42673939 348.4873064 153.12911354 348.48877296 153.85277176 348.49028397 C170.93692882 348.52732301 188.02086868 348.58629894 205.10486221 348.66974258 C213.36654235 348.7095653 221.62812679 348.7419413 229.88989258 348.75683594 C237.09020342 348.76983578 244.29030397 348.7967575 251.4904964 348.84045291 C255.30359428 348.86310557 259.11643244 348.87874827 262.92960358 348.87772369 C266.51828919 348.8769793 270.10639987 348.89484002 273.69493675 348.92700768 C275.64074592 348.93959628 277.58665142 348.93242543 279.53248596 348.92469788 C280.69072372 348.93861069 281.84896149 348.9525235 283.04229736 348.96685791 C284.0488953 348.97054508 285.05549324 348.97423225 286.09259415 348.97803116 C289.44411146 349.62471719 290.66788446 350.80808043 292.72436523 353.48583984 C292.56286319 356.8773828 292.14139766 358.06880742 289.72436523 360.48583984 C286.85690027 360.73768884 286.85690027 360.73768884 283.09914494 360.74031544 C282.4071912 360.74352192 281.71523746 360.74672839 281.00231543 360.75003204 C278.66040204 360.75839958 276.31873993 360.75238441 273.9768219 360.74653625 C272.29018879 360.74955387 270.60355705 360.75344138 268.91692775 360.75812882 C264.26397125 360.7684679 259.61109129 360.76621207 254.95812833 360.76194823 C249.9471441 360.75949166 244.93617881 360.76848179 239.92520142 360.77598572 C230.10121968 360.78876461 220.27726523 360.79052245 210.45327658 360.78818545 C202.47184312 360.78640571 194.49041798 360.78814454 186.50898552 360.7924099 C184.80800712 360.79330268 184.80800712 360.79330268 183.07266552 360.7942135 C180.76931278 360.79542519 178.46596004 360.79663933 176.1626073 360.79785588 C154.53969697 360.80874368 132.91680222 360.80656304 111.29389101 360.80047103 C91.49228795 360.79530062 71.69073406 360.8065584 51.88914073 360.82556925 C31.57934539 360.84491923 11.26957334 360.85320866 -9.04023129 360.849446 C-20.45165153 360.84752965 -31.86302992 360.85006358 -43.27444267 360.86416054 C-52.98885125 360.87603919 -62.70319219 360.87751892 -72.41760164 360.86537037 C-77.37790886 360.85945688 -82.33809217 360.85844997 -87.29839134 360.87037277 C-91.83393493 360.8811483 -96.3692499 360.87822862 -100.90478242 360.86411109 C-102.5507946 360.86144099 -104.19682422 360.8639023 -105.84281939 360.87184695 C-108.07035178 360.8818572 -110.29707458 360.87361462 -112.52457333 360.86056995 C-114.38490575 360.86065248 -114.38490575 360.86065248 -116.28282064 360.86073667 C-119.27563477 360.48583984 -119.27563477 360.48583984 -121.17023236 359.11866921 C-122.77712187 356.74507533 -122.76525309 355.28365881 -122.27563477 352.48583984 C-120.44555814 350.36335428 -118.95302375 349.56219407 -116.16601562 349.24804688 C-113.6128313 349.19024665 -111.07836718 349.2248121 -108.52563477 349.29833984 C-107.6374707 349.311875 -106.74930664 349.32541016 -105.83422852 349.33935547 C-103.64740899 349.37462675 -101.4618351 349.42391232 -99.27563477 349.48583984 C-100.21922852 348.03177734 -100.21922852 348.03177734 -101.18188477 346.54833984 C-114.62364286 325.61194335 -124.62814198 303.32496428 -128.27563477 278.48583984 C-128.45739258 277.34759766 -128.63915039 276.20935547 -128.82641602 275.03662109 C-133.60515053 235.33855105 -124.03682362 193.74280694 -99.85522461 161.59765625 C-96.80921958 157.75722445 -93.56471073 154.11855061 -90.27563477 150.48583984 C-89.13481445 149.14779297 -89.13481445 149.14779297 -87.97094727 147.78271484 C-82.62150723 141.57660291 -76.78425425 136.44844866 -70.27563477 131.48583984 C-69.27274414 130.70595703 -68.26985352 129.92607422 -67.23657227 129.12255859 C-59.32936464 123.13957037 -50.94713229 118.40221392 -42.09082031 113.94750977 C-34.23154493 109.87256563 -27.18219532 104.69032806 -23.40063477 96.42333984 C-23.0177832 95.58931641 -22.63493164 94.75529297 -22.24047852 93.89599609 C-20.99652536 90.78863133 -20.0539029 87.7404157 -19.27563477 84.48583984 C-19.95625977 84.44458984 -20.63688477 84.40333984 -21.33813477 84.36083984 C-25.48573294 83.12538507 -28.42970079 80.72604679 -31.27563477 77.48583984 C-33.87621435 72.2588471 -34.03719153 67.20954017 -33.27563477 61.48583984 C-31.59358936 56.7761127 -28.95770708 53.52931671 -24.65063477 50.98583984 C-21.16754945 49.52799728 -18.26273257 49.3246363 -14.50219727 49.39208984 C-13.5207373 49.405625 -12.53927734 49.41916016 -11.52807617 49.43310547 C-10.78477051 49.45050781 -10.04146484 49.46791016 -9.27563477 49.48583984 C-9.28562752 48.65351837 -9.28562752 48.65351837 -9.29582214 47.80438232 C-9.36218974 42.02947788 -9.40744117 36.25468178 -9.44042969 30.47949219 C-9.45551659 28.32417399 -9.47598865 26.16888648 -9.50195312 24.01367188 C-9.5383402 20.9157758 -9.55536215 17.81828561 -9.56860352 14.72021484 C-9.58408737 13.75653992 -9.59957123 12.79286499 -9.61552429 11.79998779 C-9.61575089 10.89935608 -9.61597748 9.99872437 -9.61621094 9.07080078 C-9.62620369 7.8849942 -9.62620369 7.8849942 -9.63639832 6.67523193 C-8.65480621 0.7181723 -5.56713111 -0.01389334 0 0 Z M-9.27563477 84.48583984 C-9.93563477 87.45583984 -10.59563477 90.42583984 -11.27563477 93.48583984 C-14.79125232 105.49372838 -21.60601881 114.37600849 -32.39282227 120.55615234 C-36.19647081 122.63261537 -40.04101287 124.62573784 -43.88891602 126.61865234 C-59.87201142 134.9540273 -74.95793037 147.49450368 -86.27563477 161.48583984 C-86.69377441 161.99888672 -87.11191406 162.51193359 -87.54272461 163.04052734 C-104.00655931 183.51070198 -114.08046142 207.63711791 -118.27563477 233.48583984 C-118.44619385 234.41267578 -118.61675293 235.33951172 -118.79248047 236.29443359 C-121.4603211 253.91647138 -119.51062148 272.30164646 -115.27563477 289.48583984 C-115.06036133 290.48486328 -114.84508789 291.48388672 -114.62329102 292.51318359 C-109.82703058 312.8581053 -99.21415228 335.54732233 -84.27563477 350.48583984 C-81.40674895 350.66116274 -78.63570831 350.71721598 -75.76782227 350.68115234 C-74.92720245 350.67832245 -74.08658264 350.67549255 -73.2204895 350.6725769 C-70.53039431 350.66136414 -67.84062966 350.63625787 -65.15063477 350.61083984 C-63.32902498 350.60081145 -61.50740999 350.59168535 -59.68579102 350.58349609 C-55.21561118 350.56142126 -50.74567906 350.52688418 -46.27563477 350.48583984 C-46.52732422 349.75171875 -46.77901367 349.01759766 -47.03833008 348.26123047 C-56.59717179 320.27686709 -56.59717179 320.27686709 -59.27563477 307.48583984 C-59.41163086 306.84130859 -59.54762695 306.19677734 -59.68774414 305.53271484 C-63.11751251 288.91524555 -65.94375393 270.46140541 -64.27563477 253.48583984 C-63.61563477 252.82583984 -62.95563477 252.16583984 -62.27563477 251.48583984 C-59.15063477 251.86083984 -59.15063477 251.86083984 -56.27563477 252.48583984 C-56.24985352 253.58154297 -56.22407227 254.67724609 -56.19750977 255.80615234 C-55.19993182 286.56867222 -50.43937013 317.07507932 -38.27563477 345.48583984 C-37.99778137 346.35228119 -37.71992798 347.21872253 -37.43365479 348.11141968 C-34.80540387 351.00322416 -34.03919017 350.8831702 -30.24531555 351.08711243 C-28.04491092 351.10166791 -25.84422191 351.08818052 -23.64404297 351.0534668 C-22.44391571 351.05419693 -21.24378845 351.05492706 -20.0072937 351.05567932 C-16.71564048 351.05279035 -13.42555092 351.02770098 -10.13417459 350.99280953 C-6.69489912 350.96157424 -3.2556033 350.95861757 0.18379211 350.9526825 C6.69688985 350.93713556 13.20956846 350.89609619 19.72248155 350.84593505 C27.13710289 350.79006753 34.55174414 350.76256171 41.96652353 350.73745787 C57.21938025 350.6851806 72.47181872 350.59722249 87.72436523 350.48583984 C88.6823868 348.45212376 89.63572832 346.41620272 90.5871582 344.37939453 C91.11856415 343.24588562 91.64997009 342.11237671 92.19747925 340.94451904 C94.52748884 335.66661633 96.23543384 330.26808155 97.84936523 324.73583984 C98.18846924 323.58494873 98.52757324 322.43405762 98.87695312 321.24829102 C102.21518273 309.48221557 104.15229417 297.5974792 105.72436523 285.48583984 C106.00666992 283.55417969 106.00666992 283.55417969 106.29467773 281.58349609 C107.12835276 274.82319678 107.08420299 267.95978716 107.24194336 261.15771484 C107.27610352 260.07232422 107.31026367 258.98693359 107.34545898 257.86865234 C107.38304321 256.38969482 107.38304321 256.38969482 107.42138672 254.88085938 C107.72436523 252.48583984 107.72436523 252.48583984 109.72436523 250.48583984 C112.28686523 250.29833984 112.28686523 250.29833984 114.72436523 250.48583984 C116.73603403 252.49750864 115.89438784 256.39509959 115.9152832 259.08837891 C115.88373575 288.7159423 111.0777829 316.58795893 100.47705078 344.36474609 C99.75876195 346.38890871 99.20721971 348.39435969 98.72436523 350.48583984 C103.97093347 350.75959714 109.2132797 350.95815089 114.46533203 351.09008789 C116.2476445 351.14511447 118.02946692 351.21997133 119.81005859 351.31567383 C130.36356402 352.12202729 130.36356402 352.12202729 139.79272461 348.26074219 C142.13765507 345.45156971 143.95699375 342.68505355 145.72436523 339.48583984 C146.18544678 338.77194092 146.64652832 338.05804199 147.12158203 337.32250977 C148.28888928 335.49689139 149.331138 333.64793644 150.34936523 331.73583984 C150.71779541 331.05884033 151.08622559 330.38184082 151.46582031 329.68432617 C152.57164071 327.6277918 153.65274798 325.56037451 154.72436523 323.48583984 C155.04679199 322.86692871 155.36921875 322.24801758 155.70141602 321.61035156 C160.98882492 311.32051708 164.69877791 300.63940701 167.72436523 289.48583984 C168.06725586 288.23416016 168.41014648 286.98248047 168.76342773 285.69287109 C170.99606335 275.62514507 171.00741896 265.50309695 171.03686523 255.23583984 C171.04063171 254.50654266 171.04439819 253.77724548 171.04827881 253.02584839 C171.10593911 230.97140188 166.44984977 210.26612625 156.72436523 190.48583984 C155.90645508 188.80748047 155.90645508 188.80748047 155.07202148 187.09521484 C148.17163987 173.65164783 139.15524489 162.31969553 128.72436523 151.48583984 C128.03213867 150.71884766 127.33991211 149.95185547 126.62670898 149.16162109 C115.92868992 137.6803174 102.12442123 129.78441231 88.29980469 122.67016602 C71.20713367 113.76140041 67.06694012 103.5135645 60.72436523 84.48583984 C37.62436523 84.48583984 14.52436523 84.48583984 -9.27563477 84.48583984 Z " fill="#010102" transform="translate(162.275634765625,107.51416015625)"/>
<path d="M0 0 C14.50894703 11.24013288 25.72596732 26.47226258 28.61328125 44.91796875 C30.97692481 66.59774577 26.55111882 84.69455482 13 102 C4.25696926 112.25205918 -6.43518148 118.43856987 -19 123 C-20.2375 123.48146484 -20.2375 123.48146484 -21.5 123.97265625 C-38.01945672 129.52216124 -55.68455313 125.97515225 -71.0625 118.9375 C-88.04423994 109.9706844 -99.64441673 95.94309517 -105.7824707 77.6706543 C-107.99991427 70.40130726 -108.48657786 63.63387529 -108.4375 56.0625 C-108.45748047 54.97259766 -108.47746094 53.88269531 -108.49804688 52.75976562 C-108.49333849 44.83555151 -106.93176197 38.33876826 -104 31 C-103.34837891 29.34677734 -103.34837891 29.34677734 -102.68359375 27.66015625 C-93.72153636 8.97749744 -78.25878089 -2.72780272 -59.14453125 -10.1015625 C-39.25956841 -16.10351179 -16.96738141 -11.49891326 0 0 Z " fill="#66C642" transform="translate(228,263)"/>
<path d="M0 0 C15.82989059 11.42669576 20.55610558 32.31690152 26.5390625 49.90234375 C26.93722168 51.06113037 27.33538086 52.21991699 27.74560547 53.41381836 C28.11057129 54.51089111 28.47553711 55.60796387 28.8515625 56.73828125 C29.17769531 57.71071777 29.50382812 58.6831543 29.83984375 59.68505859 C30.60815293 62.80819247 30.87106176 65.32521089 30.5390625 68.52734375 C28.29213853 72.1433707 23.8287677 73.36101749 20.046875 74.9609375 C19.30509003 75.28014664 18.56330505 75.59935577 17.79904175 75.92823792 C16.22528988 76.60324328 14.64997724 77.27461965 13.07324219 77.94262695 C10.70314699 78.94826017 8.33964885 79.9682589 5.9765625 80.99023438 C-11.0247061 88.28304755 -27.83360568 95.19777397 -46.26953125 88.97265625 C-53.68306735 85.61524088 -59.03168455 80.61508713 -62.0859375 73.02734375 C-64.52726601 64.71988466 -64.18554583 57.39505572 -60.4609375 49.52734375 C-56.02947976 42.154653 -50.82966575 37.91840897 -42.4609375 35.52734375 C-42.6775 34.98207031 -42.8940625 34.43679687 -43.1171875 33.875 C-46.33160693 25.16928071 -46.53436384 18.4456944 -42.7109375 9.8828125 C-38.72137088 2.36497289 -33.37231846 -1.43849747 -25.4609375 -4.47265625 C-16.06315302 -6.67811539 -8.23626023 -4.92868271 0 0 Z " fill="#D74953" transform="translate(389.4609375,91.47265625)"/>
<path d="M0 0 C9.81415865 7.10375021 17.05263164 15.99430112 19.1875 28.1875 C20.58009717 41.3860819 19.10172556 52.32651379 11.4375 63.4375 C3.97900477 72.54292184 -5.0246641 79.01492441 -16.8125 81.1875 C-30.25191135 82.19365914 -41.15124768 80.74861224 -52.25 72.375 C-60.47202509 65.24392323 -66.05945074 56.46939695 -68.625 45.8125 C-68.686875 44.61625 -68.74875 43.42 -68.8125 42.1875 C-68.874375 41.22070312 -68.93625 40.25390625 -69 39.2578125 C-69.47213562 26.71671016 -65.27598555 15.39627812 -56.84765625 5.99609375 C-41.08682451 -9.0237224 -18.50133818 -11.59831788 0 0 Z " fill="#49A324" transform="translate(212.8125,282.8125)"/>
<path d="M0 0 C9.21252971 7.13428227 14.78450605 16.27832662 16.3203125 27.796875 C17.36181943 38.13304226 15.29291934 48.31176561 9.0078125 56.734375 C1.03878238 65.99201424 -8.01785682 71.87934863 -20.39453125 73.0546875 C-30.6739302 73.45992005 -40.89295561 71.22064988 -48.90625 64.4921875 C-58.14003012 55.66518184 -63.56960838 46.41897071 -63.9921875 33.484375 C-63.70854613 21.40458978 -59.25877075 10.90462945 -50.5546875 2.484375 C-35.95588326 -9.718348 -15.75417661 -10.23261632 0 0 Z " fill="#F7CAAC" transform="translate(103.6796875,85.203125)"/>
<path d="M0 0 C14.50894703 11.24013288 25.72596732 26.47226258 28.61328125 44.91796875 C30.97692481 66.59774577 26.55111882 84.69455482 13 102 C4.25696926 112.25205918 -6.43518148 118.43856987 -19 123 C-20.2375 123.48146484 -20.2375 123.48146484 -21.5 123.97265625 C-38.01945672 129.52216124 -55.68455313 125.97515225 -71.0625 118.9375 C-88.04423994 109.9706844 -99.64441673 95.94309517 -105.7824707 77.6706543 C-107.99991427 70.40130726 -108.48657786 63.63387529 -108.4375 56.0625 C-108.45748047 54.97259766 -108.47746094 53.88269531 -108.49804688 52.75976562 C-108.49333849 44.83555151 -106.93176197 38.33876826 -104 31 C-103.34837891 29.34677734 -103.34837891 29.34677734 -102.68359375 27.66015625 C-93.72153636 8.97749744 -78.25878089 -2.72780272 -59.14453125 -10.1015625 C-39.25956841 -16.10351179 -16.96738141 -11.49891326 0 0 Z M-85.25390625 18.56640625 C-96.53966374 33.27857968 -100.96591342 48.70091139 -98.60546875 67.0703125 C-95.12227178 83.56493556 -85.99894511 97.43523443 -72.14111328 106.89038086 C-64.30509559 111.94554862 -55.41037666 115.72322422 -46 116 C-44.92492187 116.07347656 -43.84984375 116.14695312 -42.7421875 116.22265625 C-27.03311513 116.86216963 -12.34854365 111.8878337 -0.25 101.6796875 C5.32994618 96.38206003 9.50758582 90.8420567 13 84 C13.38929688 83.24847656 13.77859375 82.49695313 14.1796875 81.72265625 C20.29499893 69.02334163 21.49717207 52.00813168 17.0234375 38.56640625 C16.51683594 37.29603516 16.51683594 37.29603516 16 36 C15.62101562 35.03964844 15.24203125 34.07929688 14.8515625 33.08984375 C8.60098701 19.08927727 -2.97290746 8.09451332 -17.02734375 2.1015625 C-41.61040119 -7.00805931 -67.77370431 -1.33739388 -85.25390625 18.56640625 Z " fill="#030504" transform="translate(228,263)"/>
<path d="M0 0 C8.27737221 7.13184302 13.33807483 14.49865421 14.49609375 25.5546875 C14.70246347 36.8807432 12.7888264 45.49929832 4.9375 53.94921875 C-3.52642971 61.73490367 -12.36688645 64.41414261 -23.6796875 64.2890625 C-33.11848362 63.46980269 -41.25369514 59.07414816 -47.59375 52.12890625 C-53.90141177 44.24432904 -56.04998907 36.08608967 -55.875 26.01171875 C-54.63431176 15.58465798 -50.15282502 7.11611153 -41.875 0.57421875 C-29.32184442 -8.02117211 -12.80216537 -8.85367143 0 0 Z " fill="#020201" transform="translate(464.875,349.98828125)"/>
<path d="M0 0 C3.12968067 2.30044904 5.79478036 5.02416083 7.828125 8.34375 C7.828125 9.33375 7.828125 10.32375 7.828125 11.34375 C8.37984375 11.18519531 8.9315625 11.02664062 9.5 10.86328125 C16.29083344 9.34787714 23.04153479 9.5347729 29.11328125 13.0859375 C34.31481437 16.90118503 37.57111989 22.0698484 38.828125 28.34375 C39.13030646 35.93454831 37.25489455 42.54502163 32.13671875 48.21875 C23.71191619 56.11593866 12.90015138 59.62238274 2.140625 63.21875 C0.95662109 63.63382812 -0.22738281 64.04890625 -1.44726562 64.4765625 C-13.65360626 68.57953414 -13.65360626 68.57953414 -18.171875 66.34375 C-20.63454756 62.63261968 -22.22246833 58.66002322 -23.859375 54.53125 C-24.31892578 53.44392578 -24.77847656 52.35660156 -25.25195312 51.23632812 C-36.20278623 24.94495564 -36.20278623 24.94495564 -32.32421875 11.37890625 C-29.69715025 5.45687049 -25.88166526 1.41999883 -20.171875 -1.65625 C-13.39469365 -3.85645717 -6.2043715 -3.53094313 0 0 Z " fill="#020000" transform="translate(436.171875,183.65625)"/>
<path d="M0 0 C12.88392406 6.36591863 16.87483696 21.33093033 21.19140625 33.95703125 C21.50585693 34.86477295 21.82030762 35.77251465 22.14428711 36.70776367 C25.15224001 45.75334044 25.15224001 45.75334044 24.37890625 50.14453125 C21.35058376 52.89571117 17.98774674 54.28566722 14.22265625 55.80859375 C12.44181641 56.53175781 12.44181641 56.53175781 10.625 57.26953125 C10.00995605 57.51574219 9.39491211 57.76195312 8.76123047 58.015625 C6.88235569 58.76814969 5.00737905 59.52978394 3.1328125 60.29296875 C-6.79059356 64.30111973 -17.97501599 68.19153858 -28.62109375 63.95703125 C-33.71154512 60.88155022 -38.04108507 58.04271792 -40.14453125 52.2265625 C-41.55358238 46.07062602 -41.70954821 40.24618453 -38.43359375 34.70703125 C-35.7592911 30.9994753 -32.73322884 28.20059879 -28.62109375 26.14453125 C-28.6675 25.29890625 -28.71390625 24.45328125 -28.76171875 23.58203125 C-29.17473635 10.60147796 -29.17473635 10.60147796 -24.62109375 5.14453125 C-17.75687425 -1.73448183 -9.16786305 -2.99219375 0 0 Z " fill="#010000" transform="translate(405.62109375,264.85546875)"/>
<path d="M0 0 C15.82989059 11.42669576 20.55610558 32.31690152 26.5390625 49.90234375 C26.93722168 51.06113037 27.33538086 52.21991699 27.74560547 53.41381836 C28.11057129 54.51089111 28.47553711 55.60796387 28.8515625 56.73828125 C29.17769531 57.71071777 29.50382812 58.6831543 29.83984375 59.68505859 C30.60815293 62.80819247 30.87106176 65.32521089 30.5390625 68.52734375 C28.29213853 72.1433707 23.8287677 73.36101749 20.046875 74.9609375 C19.30509003 75.28014664 18.56330505 75.59935577 17.79904175 75.92823792 C16.22528988 76.60324328 14.64997724 77.27461965 13.07324219 77.94262695 C10.70314699 78.94826017 8.33964885 79.9682589 5.9765625 80.99023438 C-11.0247061 88.28304755 -27.83360568 95.19777397 -46.26953125 88.97265625 C-53.68306735 85.61524088 -59.03168455 80.61508713 -62.0859375 73.02734375 C-64.52726601 64.71988466 -64.18554583 57.39505572 -60.4609375 49.52734375 C-56.02947976 42.154653 -50.82966575 37.91840897 -42.4609375 35.52734375 C-42.6775 34.98207031 -42.8940625 34.43679687 -43.1171875 33.875 C-46.33160693 25.16928071 -46.53436384 18.4456944 -42.7109375 9.8828125 C-38.72137088 2.36497289 -33.37231846 -1.43849747 -25.4609375 -4.47265625 C-16.06315302 -6.67811539 -8.23626023 -4.92868271 0 0 Z M-31.7734375 12.15234375 C-35.24782263 17.04221912 -35.29609631 21.65086265 -34.4609375 27.52734375 C-33.14798032 30.3183605 -31.65042034 32.72282664 -29.87109375 35.23828125 C-28.35360322 37.70157613 -27.85815724 39.6814403 -27.4609375 42.52734375 C-30.63735247 44.64495373 -31.51105518 44.7313504 -35.1484375 44.83984375 C-42.02636964 45.42220881 -46.21583016 48.22610873 -50.9609375 53.08984375 C-53.20617333 58.23517585 -53.20584389 63.00135452 -52.4609375 68.52734375 C-50.14120325 73.4344739 -46.74316819 76.33844855 -42.4609375 79.52734375 C-38.89264925 80.71677317 -35.61440797 80.74969002 -31.8984375 80.77734375 C-31.23263672 80.79796875 -30.56683594 80.81859375 -29.88085938 80.83984375 C-18.47115408 80.92685771 -8.1806544 75.41233861 2.0390625 70.90234375 C3.42165077 70.29766413 4.80446191 69.69349382 6.1875 69.08984375 C12.41217954 66.41387114 12.41217954 66.41387114 18.5390625 63.52734375 C17.72228817 56.72394201 15.75916769 50.66465813 13.52075195 44.21337891 C12.85930347 42.2997392 12.21527266 40.38083969 11.57226562 38.4609375 C7.63864511 27.0338589 2.85278232 13.54269774 -8.1484375 7.08984375 C-17.20739184 3.07330161 -25.30065764 4.80486391 -31.7734375 12.15234375 Z " fill="#020000" transform="translate(389.4609375,91.47265625)"/>
<path d="M0 0 C9.81415865 7.10375021 17.05263164 15.99430112 19.1875 28.1875 C20.58009717 41.3860819 19.10172556 52.32651379 11.4375 63.4375 C3.97900477 72.54292184 -5.0246641 79.01492441 -16.8125 81.1875 C-30.25191135 82.19365914 -41.15124768 80.74861224 -52.25 72.375 C-60.47202509 65.24392323 -66.05945074 56.46939695 -68.625 45.8125 C-68.686875 44.61625 -68.74875 43.42 -68.8125 42.1875 C-68.874375 41.22070312 -68.93625 40.25390625 -69 39.2578125 C-69.47213562 26.71671016 -65.27598555 15.39627812 -56.84765625 5.99609375 C-41.08682451 -9.0237224 -18.50133818 -11.59831788 0 0 Z M-49.8125 13.1875 C-57.70434663 22.68778013 -59.87876623 30.88545339 -58.8125 43.1875 C-56.32750333 54.2993885 -50.59503618 61.38863693 -41.375 67.7421875 C-33.55189483 72.15460963 -24.56248085 72.35659974 -15.8125 71.1875 C-6.71176087 68.42168878 0.83482956 62.75293292 5.75 54.59375 C10.18736706 46.02156362 11.72793279 37.83336718 9.50390625 28.23828125 C5.54302672 16.45425377 -1.13387244 10.02225943 -12.10546875 4.54296875 C-16.08385762 3.08827862 -19.50991447 2.72447141 -23.6875 2.8125 C-24.39076416 2.82337646 -25.09402832 2.83425293 -25.81860352 2.84545898 C-35.8009447 3.15081745 -42.6522704 6.19682047 -49.8125 13.1875 Z " fill="#020401" transform="translate(212.8125,282.8125)"/>
<path d="M0 0 C9.21252971 7.13428227 14.78450605 16.27832662 16.3203125 27.796875 C17.36181943 38.13304226 15.29291934 48.31176561 9.0078125 56.734375 C1.03878238 65.99201424 -8.01785682 71.87934863 -20.39453125 73.0546875 C-30.6739302 73.45992005 -40.89295561 71.22064988 -48.90625 64.4921875 C-58.14003012 55.66518184 -63.56960838 46.41897071 -63.9921875 33.484375 C-63.70854613 21.40458978 -59.25877075 10.90462945 -50.5546875 2.484375 C-35.95588326 -9.718348 -15.75417661 -10.23261632 0 0 Z M-46.1171875 13.171875 C-53.06860106 21.76634994 -53.68181448 28.80803428 -52.6796875 39.796875 C-51.02303486 47.56959746 -46.87404244 52.9378973 -40.6796875 57.796875 C-33.37717271 62.36094674 -25.82553545 64.17160415 -17.3046875 62.265625 C-8.19004139 59.43269445 -1.63542237 54.1065507 3.4296875 46.02734375 C6.75978215 38.81737467 6.599532 29.40082925 4.51171875 21.88671875 C1.13619128 14.32974203 -4.67033961 8.85136924 -11.98046875 5.10546875 C-24.65944364 0.62029812 -37.01123787 3.53899881 -46.1171875 13.171875 Z " fill="#020201" transform="translate(103.6796875,85.203125)"/>
<path d="M0 0 C7.07539941 3.98988688 11.32105824 9.18965216 13.97265625 16.90234375 C15.13908417 25.85399986 12.82138363 32.08142049 8.34765625 39.65234375 C2.46410919 45.22623044 -3.5214026 47.24960828 -11.58984375 47.58984375 C-20.11108597 47.29719503 -24.67268126 44.43356742 -30.40234375 38.40234375 C-35.28800468 30.88594232 -36.07238284 24.77024688 -35.02734375 15.90234375 C-32.93702633 9.48274671 -28.67130053 4.54939209 -23.02734375 0.90234375 C-16.20361266 -2.49190459 -7.12498444 -2.58338145 0 0 Z " fill="#F7C9AC" transform="translate(455.02734375,356.09765625)"/>
<path d="M0 0 C16.17 0 32.34 0 49 0 C49 3.63 49 7.26 49 11 C47.5975 10.9175 46.195 10.835 44.75 10.75 C41.30253184 10.73915891 40.34148842 10.74388368 37.5 12.875 C34.9823079 16.44173048 34.56974609 18.61141008 35 23 C36.4285061 25.9315113 36.4285061 25.9315113 39 28 C42.44423845 28.78552807 45.4789852 29 49 29 C49 32.3 49 35.6 49 39 C32.83 39 16.66 39 0 39 C0 26.13 0 13.26 0 0 Z " fill="#3E4650" transform="translate(164,118)"/>
<path d="M0 0 C3.79403187 1.33907007 5.55191271 2.33559471 7.8125 5.6875 C9.19372259 9.54038408 9.58665454 12.93543636 10 17 C11.01515258 18.20488924 11.01515258 18.20488924 13.0625 18.375 C16.23812484 17.96960108 17.30931335 17.23597162 19.875 15.4375 C22.94734477 13.40084208 23.8309179 13.0028658 27.6875 12.9375 C31.26057382 14.08358028 33.31914496 15.39799364 36 18 C37.60819739 21.21639478 37.46861231 24.51144167 37 28 C30.7189472 40.09684242 16.22616043 43.01298168 4.25 47.1796875 C1.05038543 47.98728252 -0.04617511 48.22073438 -3 47 C-4.14086914 45.30102539 -4.14086914 45.30102539 -5.03515625 43.09765625 C-5.36837891 42.29440918 -5.70160156 41.49116211 -6.04492188 40.66357422 C-6.38072266 39.80521973 -6.71652344 38.94686523 -7.0625 38.0625 C-7.41248047 37.19383301 -7.76246094 36.32516602 -8.12304688 35.43017578 C-15.41388295 17.11040548 -15.41388295 17.11040548 -14 9 C-10.69500232 2.62607591 -7.40265908 -0.88831909 0 0 Z " fill="#D64852" transform="translate(427,191)"/>
<path d="M0 0 C0.85086685 -0.00686325 1.7017337 -0.0137265 2.5783844 -0.02079773 C5.3897472 -0.03909218 8.20055336 -0.03522443 11.01196289 -0.02954102 C12.9672514 -0.03410163 14.92253831 -0.03940684 16.87782288 -0.04542542 C20.97590649 -0.05436177 25.07379528 -0.05192749 29.171875 -0.04199219 C34.42229874 -0.0305033 39.67204985 -0.05071018 44.92238522 -0.07990932 C48.96045704 -0.09826015 52.99836736 -0.09798106 57.03647041 -0.0922718 C58.97215277 -0.09211845 60.90784597 -0.09817483 62.84348869 -0.11056328 C65.55103553 -0.12544993 68.25733578 -0.11481353 70.96484375 -0.09765625 C72.1627504 -0.1121582 72.1627504 -0.1121582 73.38485718 -0.12695312 C77.09389218 -0.07776462 79.34690433 0.28313231 82.5483551 2.21665955 C84.54711914 4.40405273 84.54711914 4.40405273 85.10961914 7.90405273 C84.44428564 12.04390563 83.9056647 12.97176201 80.54711914 15.40405273 C77.54123447 15.80371169 74.90078864 15.96139676 71.89477539 15.9375 C71.0227951 15.94611557 70.15081482 15.95473114 69.25241089 15.96360779 C66.37117805 15.98630363 63.49091491 15.97952272 60.60961914 15.97045898 C58.60709341 15.97569273 56.60457014 15.98196829 54.60205078 15.98924255 C50.40556231 15.99965327 46.2094128 15.99507524 42.01293945 15.98046875 C36.63223906 15.96327444 31.25260584 15.98678086 25.87202454 16.02195835 C21.7370291 16.04390602 17.6022901 16.04249734 13.46725464 16.03419304 C11.48329497 16.03337218 9.49931673 16.04026115 7.51541138 16.05496407 C4.74275865 16.07236273 1.97203746 16.05790747 -0.80053711 16.03515625 C-1.62143829 16.04684845 -2.44233948 16.05854065 -3.28811646 16.07058716 C-7.20173749 16.00516663 -9.05315772 15.76792341 -11.99365234 13.09117126 C-13.45288086 10.40405273 -13.45288086 10.40405273 -13.45288086 6.77905273 C-12.45288086 3.40405273 -12.45288086 3.40405273 -10.91868591 1.71836853 C-7.35918884 -0.17890361 -3.93646182 -0.02213331 0 0 Z " fill="#31363D" transform="translate(152.452880859375,166.595947265625)"/>
<path d="M0 0 C0.75925781 0.05542969 1.51851563 0.11085938 2.30078125 0.16796875 C6.49521818 1.30067267 8.97049482 3.71458582 11.3125 7.30078125 C21.18908299 27.58705825 21.18908299 27.58705825 20.43945312 33.90209961 C19.6875 35.8125 19.6875 35.8125 16.44140625 37.62890625 C15.05166056 38.22836823 13.65390252 38.80948656 12.25 39.375 C11.15945313 39.82951538 11.15945313 39.82951538 10.046875 40.29321289 C-5.82309454 46.80293064 -5.82309454 46.80293064 -14.3125 45.8125 C-17.45030801 44.18548844 -19.55763472 42.76428666 -21.75 40 C-22.61339787 36.6423416 -22.14759639 34.15288557 -21.3125 30.8125 C-19.53124299 27.9469996 -18.10859084 27.02293165 -14.859375 26.1640625 C-13.06509085 25.8103322 -11.26381329 25.49008495 -9.45703125 25.20703125 C-7.33766476 25.02683013 -7.33766476 25.02683013 -6.3125 23.8125 C-6.59664344 20.11863534 -6.93083756 17.4384264 -8.875 14.25 C-10.71325846 11.13295304 -10.83278774 9.38018739 -10.3125 5.8125 C-7.26101782 1.23527673 -5.46910176 -0.48716369 0 0 Z " fill="#D64852" transform="translate(397.3125,274.1875)"/>
<path d="M0 0 C2.52407666 0.78091582 5.03171053 1.6012132 7.53771973 2.43829346 C8.91054108 2.89161545 8.91054108 2.89161545 10.31109619 3.35409546 C12.2349816 3.99157833 14.15783984 4.63216865 16.07971191 5.2756958 C19.02310711 6.25894415 21.97149219 7.22603335 24.92053223 8.19219971 C26.79325174 8.81492508 28.66565896 9.43859055 30.53771973 10.06329346 C31.41897522 10.35090546 32.30023071 10.63851746 33.20819092 10.93484497 C34.02624207 11.21168121 34.84429321 11.48851746 35.68713379 11.77374268 C36.40548401 12.01277313 37.12383423 12.25180359 37.86395264 12.49807739 C40.02653879 13.50168809 41.26907899 14.53983094 42.77209473 16.38360596 C43.19389532 19.1956099 43.11322872 20.74397973 41.77209473 23.25860596 C38.05721657 25.34822492 33.40782059 23.82247024 29.44818115 22.76010132 C26.90912612 21.97620758 24.39073886 21.14555897 21.87365723 20.29376221 C20.95748627 19.98917587 20.04131531 19.68458954 19.09738159 19.37077332 C17.17507359 18.72967926 15.25399443 18.08488979 13.33410645 17.43658447 C10.38837609 16.44316568 7.43806469 15.46437897 4.48693848 14.48712158 C2.61555628 13.86102996 0.74445222 13.23410625 -1.12634277 12.60626221 C-2.0096225 12.31348892 -2.89290222 12.02071564 -3.802948 11.71907043 C-4.61784698 11.44215866 -5.43274597 11.16524689 -6.27233887 10.87994385 C-6.98989349 10.63869278 -7.70744812 10.39744171 -8.44674683 10.14888 C-10.22790527 9.38360596 -10.22790527 9.38360596 -12.22790527 7.38360596 C-12.5574496 4.28588931 -12.68125128 2.21029573 -11.16540527 -0.55389404 C-7.6909864 -2.45922052 -3.66342052 -1.01355772 0 0 Z " fill="#000000" transform="translate(264.2279052734375,143.61639404296875)"/>
<path d="M0 0 C0.6875 3.3125 0.6875 3.3125 1 7 C-0.97339571 9.62737344 -3.03064894 10.59253454 -6.10083008 11.60986328 C-7.33274834 12.02511765 -7.33274834 12.02511765 -8.58955383 12.44876099 C-9.47394638 12.73637299 -10.35833893 13.02398499 -11.26953125 13.3203125 C-12.64016975 13.77650467 -12.64016975 13.77650467 -14.03849792 14.24191284 C-15.97127632 14.88315293 -17.90551004 15.52002063 -19.84106445 16.15283203 C-22.79403165 17.11895769 -25.74197819 18.0992933 -28.68945312 19.08203125 C-30.57003225 19.70397304 -32.45088314 20.32509382 -34.33203125 20.9453125 C-35.64951103 21.38280319 -35.64951103 21.38280319 -36.99360657 21.82913208 C-48.62266465 25.61617634 -48.62266465 25.61617634 -52.375 23.9375 C-54 22 -54 22 -54.5625 19 C-54 16 -54 16 -52.05419922 14.52441406 C-48.00532876 12.50353899 -43.85344385 11.05466748 -39.5703125 9.609375 C-38.20747635 9.14606781 -38.20747635 9.14606781 -36.81710815 8.67340088 C-34.90016826 8.02477524 -32.9820995 7.3794775 -31.06298828 6.73730469 C-28.13689279 5.75399655 -25.219017 4.74854353 -22.30078125 3.7421875 C-20.43275566 3.11320364 -18.56427996 2.48555466 -16.6953125 1.859375 C-15.82842804 1.55739197 -14.96154358 1.25540894 -14.06838989 0.9442749 C-8.8865999 -0.75751456 -5.3347181 -1.25109805 0 0 Z " fill="#000000" transform="translate(306,99)"/>
<path d="M0 0 C1.0144519 -0.00630432 2.02890381 -0.01260864 3.07409668 -0.019104 C4.72254578 -0.01303131 4.72254578 -0.01303131 6.40429688 -0.00683594 C7.52872192 -0.00874939 8.65314697 -0.01066284 9.81164551 -0.01263428 C12.1923037 -0.01399711 14.57296931 -0.01029388 16.95361328 -0.00195312 C20.60791641 0.00874477 24.26172788 -0.00184538 27.91601562 -0.01464844 C30.22461047 -0.01332686 32.533205 -0.01076451 34.84179688 -0.00683594 C35.94076294 -0.0108844 37.039729 -0.01493286 38.17199707 -0.019104 C39.18644897 -0.01279968 40.20090088 -0.00649536 41.24609375 0 C42.58939758 0.00238678 42.58939758 0.00238678 43.95983887 0.00482178 C46.12304688 0.25878906 46.12304688 0.25878906 48.12304688 2.25878906 C47.5461238 8.83571214 47.5461238 8.83571214 46.12304688 10.25878906 C44.5378911 10.36253864 42.94815221 10.39730796 41.35961914 10.40405273 C39.83782799 10.41362251 39.83782799 10.41362251 38.28529358 10.42338562 C37.18116623 10.42449844 36.07703888 10.42561127 34.93945312 10.42675781 C33.81361313 10.43008621 32.68777313 10.43341461 31.52781677 10.43684387 C29.14118866 10.441918 26.75455342 10.44425205 24.36791992 10.4440918 C20.70479713 10.44627758 17.04197565 10.46442646 13.37890625 10.48339844 C11.06575624 10.48633232 8.7526048 10.48831715 6.43945312 10.48925781 C4.78629845 10.50003609 4.78629845 10.50003609 3.0997467 10.5110321 C1.57322731 10.50641716 1.57322731 10.50641716 0.01586914 10.50170898 C-1.331959 10.50384651 -1.331959 10.50384651 -2.70701599 10.50602722 C-4.87695312 10.25878906 -4.87695312 10.25878906 -6.87695312 8.25878906 C-7.12695312 5.25878906 -7.12695312 5.25878906 -6.87695312 2.25878906 C-4.35080462 -0.26735944 -3.496197 0.00621204 0 0 Z " fill="#000000" transform="translate(258.876953125,127.7412109375)"/>
<path d="M0 0 C3.32920557 0.56667329 4.71584456 0.94921042 6.9375 3.5 C7.99840617 7.31926223 8.24532688 9.61499772 6.9375 13.375 C4.9375 15.5 4.9375 15.5 1.5625 16.5 C-2.41041005 16.5 -3.98865222 15.94099676 -7.0625 13.5 C-8.50680855 10.61138291 -8.43938506 8.70352299 -8.0625 5.5 C-5.57165752 2.13003665 -4.17661135 0.68189573 0 0 Z " fill="#000000" transform="translate(373.0625,412.5)"/>
<path d="M0 0 C3.0182722 0.05418801 4.04925828 0.22609892 6.6875 1.875 C8.77142818 5.26138329 8.74552097 7.40635318 8.1875 11.3125 C6.6875 13.75 6.6875 13.75 4.1875 15.3125 C0.66879436 15.93553037 -2.57021003 16.03382966 -5.75 14.1875 C-7.28099826 11.48573836 -7.6882742 9.41814495 -7.8125 6.3125 C-4.92369545 0.40358159 -4.92369545 0.40358159 0 0 Z " fill="#000000" transform="translate(160.8125,53.6875)"/>
<path d="M0 0 C3.5625 0.625 3.5625 0.625 6.5625 2.6875 C8.5625 5.625 8.5625 5.625 8.5625 9.25 C7.17034314 13.94852941 7.17034314 13.94852941 4.5625 15.625 C1.54726536 16.65652764 -0.04120446 16.7355941 -3.125 15.875 C-5.4375 14.625 -5.4375 14.625 -7.4375 11.625 C-7.9233395 7.90023051 -7.67983021 6.07088758 -5.875 2.75 C-3.4375 0.625 -3.4375 0.625 0 0 Z " fill="#000000" transform="translate(308.4375,43.375)"/>
<path d="M0 0 C2.4375 1.5 2.4375 1.5 4 4 C4.62604573 7.53573553 4.74756708 10.78028529 2.8125 13.9375 C0.45486621 15.31956119 -1.26425721 15.8045898 -4 16 C-7.09653751 15.0638375 -8.70423322 14.29576678 -11 12 C-11.67039106 5.0726257 -11.67039106 5.0726257 -9.4375 1.5 C-6.05111671 -0.58392818 -3.90614682 -0.55802097 0 0 Z " fill="#000000" transform="translate(451,116)"/>
<path d="M0 0 C2.4375 1.5625 2.4375 1.5625 4 4 C4.45746657 7.65973254 4.46134558 10.02604821 2.875 13.375 C0.25065402 15.64943318 -1.54847562 15.93096951 -5 16 C-7.32731556 14.86220128 -9.16840714 13.83159286 -11 12 C-11.57971014 4.92753623 -11.57971014 4.92753623 -9.4375 1.5 C-6.05111671 -0.58392818 -3.90614682 -0.55802097 0 0 Z " fill="#000000" transform="translate(347,236)"/>
<path d="M0 0 C2.191985 1.58918912 2.8969765 2.48766694 3.43359375 5.15625 C3.44402315 11.41388944 3.44402315 11.41388944 1.4375 14.0625 C-1.94782605 15.36454848 -4.40336722 15.4495791 -8 15 C-10.4375 13.4375 -10.4375 13.4375 -12 11 C-12.55802097 7.09385318 -12.58392818 4.94888329 -10.5 1.5625 C-6.75107996 -0.78057502 -4.38964238 -0.48773804 0 0 Z " fill="#000000" transform="translate(77,187)"/>
<path d="M0 0 C2 1 2 1 3 3 C3.75471698 9.79245283 3.75471698 9.79245283 1.4375 13.5 C-1.94888329 15.58392818 -4.09385318 15.55802097 -8 15 C-10.4375 13.4375 -10.4375 13.4375 -12 11 C-12.55802097 7.09385318 -12.58392818 4.94888329 -10.5 1.5625 C-6.75107996 -0.78057502 -4.38964238 -0.48773804 0 0 Z " fill="#000000" transform="translate(447,264)"/>
</svg>
