<svg xmlns="http://www.w3.org/2000/svg" width="16.818" height="16.82" viewBox="0 0 16.818 16.82">
  <g id="svgexport-17_21_" data-name="svgexport-17 (21)" transform="translate(0 0.008)">
    <g id="_14-Gift" data-name="14-Gift" transform="translate(0 -0.008)">
      <path id="Path_46367" data-name="Path 46367" d="M14.934,25h4.73v8.934a1.051,1.051,0,0,1-1.051,1.051H14.672V25Zm-3.942,0v9.986H7.051A1.051,1.051,0,0,1,6,33.934V25Z" transform="translate(-4.423 -18.428)" fill="#ffad39"/>
      <path id="Path_46368" data-name="Path 46368" d="M7.044,13v3.153H1.526A.527.527,0,0,1,1,15.628v-2.1A.527.527,0,0,1,1.526,13Zm10.248.526v2.1a.527.527,0,0,1-.526.526H11.248V13h5.518A.527.527,0,0,1,17.292,13.526Z" transform="translate(-0.737 -9.582)" fill="#febd55"/>
      <path id="Path_46369" data-name="Path 46369" d="M29.628,9.526v.526H27V9.526A.527.527,0,0,1,27.526,9H29.1A.527.527,0,0,1,29.628,9.526Z" transform="translate(-19.905 -6.633)" fill="#cb3541"/>
      <path id="Path_46370" data-name="Path 46370" d="M29.1,10.263H27.526A.526.526,0,0,1,27.073,10a.519.519,0,0,0-.073.263v.526h2.628v-.526A.519.519,0,0,0,29.554,10,.526.526,0,0,1,29.1,10.263Z" transform="translate(-19.905 -7.37)" fill="#a81e29"/>
      <path id="Path_46371" data-name="Path 46371" d="M13.73,7.314v.526H9.788A.772.772,0,0,1,9,7.051C9,6,10.313,6,10.313,6A5.155,5.155,0,0,1,13.73,7.314Z" transform="translate(-6.634 -4.421)" fill="#e03e3e"/>
      <path id="Path_46372" data-name="Path 46372" d="M15.314,1c2.1,0,2.1,2.628,2.1,2.628A5.155,5.155,0,0,0,14,2.314,1.287,1.287,0,0,1,15.314,1Zm4.73,2.628S20.044,1,22.146,1A1.287,1.287,0,0,1,23.46,2.314,5.155,5.155,0,0,0,20.044,3.628Z" transform="translate(-10.321 -0.735)" fill="#cb3541"/>
      <path id="Path_46373" data-name="Path 46373" d="M37,7.314A5.155,5.155,0,0,1,40.416,6S41.73,6,41.73,7.051a.772.772,0,0,1-.788.788H37Z" transform="translate(-27.277 -4.421)" fill="#e03e3e"/>
      <path id="Path_46374" data-name="Path 46374" d="M25,25h3.679v9.986H25Z" transform="translate(-18.431 -18.428)" fill="#cb3541"/>
      <path id="Path_46375" data-name="Path 46375" d="M28.2,13v3.153H24V13h4.2Z" transform="translate(-17.693 -9.582)" fill="#ff6161"/>
      <path id="Path_46376" data-name="Path 46376" d="M41.735,33.966c.055.25.623.447.623.715s-.568.465-.623.715.368.688.26.92-.707.163-.867.368.045.78-.155.943-.7-.168-.935-.053-.289.723-.539.78-.56-.462-.82-.462-.575.52-.82.462-.313-.667-.541-.78-.736.215-.933.053,0-.741-.158-.943-.752-.131-.865-.368.318-.662.26-.92S35,34.949,35,34.681s.568-.465.623-.715-.368-.688-.26-.92.707-.163.867-.368-.045-.78.155-.943.7.168.935.053.289-.723.539-.78.56.462.82.462.575-.52.82-.462.313.667.541.78.736-.215.933-.053,0,.741.158.943.752.131.865.368S41.677,33.709,41.735,33.966Z" transform="translate(-25.803 -22.854)" fill="#cb3541"/>
      <path id="Path_46377" data-name="Path 46377" d="M43.781,36.891c0,.21-.447.366-.49.562s.289.541.2.724-.555.128-.68.287.034.614-.123.742-.552-.131-.734-.042-.228.568-.425.614-.439-.365-.643-.365-.452.41-.643.365-.247-.526-.425-.614-.578.169-.734.042,0-.582-.123-.742-.592-.1-.68-.287.249-.521.2-.723S38,37.1,38,36.891s.447-.366.49-.562-.289-.541-.2-.724.555-.128.68-.287-.034-.614.123-.742.552.131.734.042.228-.568.425-.614.439.365.643.365.452-.41.643-.365.247.526.425.614.578-.169.734-.042,0,.582.123.742.592.1.68.287-.249.521-.2.723S43.781,36.68,43.781,36.891Z" transform="translate(-28.014 -25.064)" fill="#ff6161"/>
      <g id="Group_16520" data-name="Group 16520" transform="translate(1.577 6.572)">
        <path id="Path_46378" data-name="Path 46378" d="M19.665,26.051V25H14.672v1.051Zm-1.051,7.883H14.672v1.051h3.942a1.051,1.051,0,0,0,1.051-1.051V32.883A1.051,1.051,0,0,1,18.613,33.934ZM7.314,29.2V27.1a1.051,1.051,0,0,1,1.051-1.051h2.628V25H6v8.934a1.051,1.051,0,0,0,1.051,1.051h3.942V33.813A4.73,4.73,0,0,1,7.314,29.2Z" transform="translate(-6 -25)" fill="#e68c15"/>
      </g>
      <path id="Path_46379" data-name="Path 46379" d="M26.051,33.934A4.743,4.743,0,0,1,25,33.813v1.172h3.679V33.934ZM25,25h3.679v1.051H25Z" transform="translate(-18.431 -18.428)" fill="#a81e29"/>
      <path id="Path_46380" data-name="Path 46380" d="M3.759,14.839a.92.92,0,0,1,0-1.839H1.526A.527.527,0,0,0,1,13.526v2.1a.527.527,0,0,0,.526.526H7.044V14.839Zm13.008,0H11.248v1.314h5.518a.527.527,0,0,0,.526-.526V14.314A.526.526,0,0,1,16.767,14.839Z" transform="translate(-0.737 -9.582)" fill="#ffa930"/>
      <path id="Path_46381" data-name="Path 46381" d="M24,20v1.314h4.2V20Z" transform="translate(-17.693 -14.742)" fill="#cb3541"/>
      <path id="Path_46382" data-name="Path 46382" d="M16.365,3.435a5.313,5.313,0,0,0-2.331-.271A1.562,1.562,0,0,0,14,3.435a5.155,5.155,0,0,1,3.416,1.314A3.542,3.542,0,0,0,16.8,2.811C16.8,3.143,16.7,3.435,16.365,3.435Zm4.993,0c-.436,0-.47-.483-.413-.914a3.22,3.22,0,0,0-.9,2.228A5.155,5.155,0,0,1,23.46,3.435a1.586,1.586,0,0,0-.045-.324A6.279,6.279,0,0,0,21.358,3.435Z" transform="translate(-10.321 -1.857)" fill="#a81e29"/>
      <path id="Path_46383" data-name="Path 46383" d="M12.645,7.809a.265.265,0,0,1-.257.32h-2.6A.526.526,0,0,1,9.261,7.6V7.463A.9.9,0,0,0,9,8.13a.772.772,0,0,0,.788.788h3.942V8.392a4.7,4.7,0,0,0-1.138-.771A1.259,1.259,0,0,1,12.645,7.809Zm7.915.32h-2.6a.265.265,0,0,1-.258-.32,1.232,1.232,0,0,1,.124-.337,4.921,4.921,0,0,0-1.469.92v.526H20.3a.772.772,0,0,0,.788-.788,1.029,1.029,0,0,0-.047-.31A.526.526,0,0,1,20.561,8.13Z" transform="translate(-6.634 -5.5)" fill="#cb3541"/>
      <path id="Path_46384" data-name="Path 46384" d="M33.151,42.656c-.108-.231.318-.662.26-.92s-.623-.447-.623-.715.568-.465.623-.715c.043-.19-.177-.473-.253-.7-.219.131-.7.1-.8.309-.108.231.318.662.26.92s-.623.447-.623.715.568.465.623.715-.368.688-.26.92.707.163.865.368-.042.78.158.943c.1.081.275.039.455-.009V42.917C33.6,42.837,33.237,42.836,33.151,42.656Z" transform="translate(-23.591 -29.194)" fill="#961b25"/>
      <path id="Path_46385" data-name="Path 46385" d="M40.808,53.992c-.25-.058-.313-.667-.541-.78s-.736.215-.933.053,0-.741-.158-.943A.363.363,0,0,0,39,52.214v1.567a.784.784,0,0,1,.478-.044.532.532,0,0,1,.2.26c.1.215.184.483.346.52.244.058.56-.462.82-.462s.575.52.82.462c.162-.037.245-.3.345-.52a.98.98,0,0,1,.1-.167c-.16-.134-.325-.3-.473-.3C41.368,53.529,41.052,54.05,40.808,53.992Zm2.415-.794a.394.394,0,0,0-.237.013c-.148.074-.226.358-.332.563.188.05.375.1.48.015C43.257,53.689,43.227,53.429,43.223,53.2Z" transform="translate(-28.752 -38.491)" fill="#e68c15"/>
      <path id="Path_46386" data-name="Path 46386" d="M37.454,35.669c-.179-.048-.355-.089-.455-.008-.137.112-.086.42-.091.667.151-.067.377-.086.546-.142Z" transform="translate(-27.206 -26.254)" fill="#961b25"/>
      <path id="Path_46387" data-name="Path 46387" d="M51,24h.526v.526H51Z" transform="translate(-37.598 -17.691)"/>
      <path id="Path_46388" data-name="Path 46388" d="M15.5,8.14V6.827h.526a.788.788,0,0,0,.788-.788v-2.1a.788.788,0,0,0-.788-.788H14.588a1.072,1.072,0,0,0,.128-.526,1.352,1.352,0,0,0-1.334-1.3,1.488,1.488,0,0,0-1.557-1.33A2.37,2.37,0,0,0,9.533,2.175.782.782,0,0,0,9.2,2.1H7.621a.782.782,0,0,0-.336.079A2.37,2.37,0,0,0,4.993-.006a1.488,1.488,0,0,0-1.557,1.33A1.352,1.352,0,0,0,2.1,2.622a1.072,1.072,0,0,0,.128.526H.788A.788.788,0,0,0,0,3.936v2.1a.788.788,0,0,0,.788.788H6.307v9.46H2.628a.788.788,0,0,1-.788-.788V8.4H1.314v7.1a1.315,1.315,0,0,0,1.314,1.314H14.19A1.315,1.315,0,0,0,15.5,15.5v-.263h-.526V15.5a.788.788,0,0,1-.788.788H10.511V15.236H9.986v1.051H6.832V6.827H9.986V8.4h.526V6.827h1.839V6.3H10.774V3.673h1.839V8.14A.72.72,0,0,0,12,7.888c-.263.061-.376.323-.475.554a2.668,2.668,0,0,1-.114.245.994.994,0,0,1-.277-.053.784.784,0,0,0-.716.034.813.813,0,0,0-.189.7,1.915,1.915,0,0,1,0,.281,1.042,1.042,0,0,1-.27.075c-.23.046-.517.1-.632.347a.81.81,0,0,0,.126.706,1.619,1.619,0,0,1,.117.26,1.056,1.056,0,0,1-.21.187c-.188.145-.422.323-.422.6s.234.451.422.594a1.729,1.729,0,0,1,.206.171,1.062,1.062,0,0,1-.114.276.808.808,0,0,0-.126.706c.115.245.4.3.632.348a1.921,1.921,0,0,1,.259.061,1.1,1.1,0,0,1,.013.3.813.813,0,0,0,.189.7.785.785,0,0,0,.716.035c.087-.023.227-.058.259-.061a1.1,1.1,0,0,1,.131.254c.1.231.213.493.475.553s.468-.123.653-.285a1.89,1.89,0,0,1,.216-.174,1.061,1.061,0,0,1,.234.174.913.913,0,0,0,.554.3.436.436,0,0,0,.1-.012c.263-.061.376-.323.475-.553a2.614,2.614,0,0,1,.114-.245A1,1,0,0,1,14.62,15a.784.784,0,0,0,.716-.034.813.813,0,0,0,.189-.7,1.915,1.915,0,0,1,0-.281,1.042,1.042,0,0,1,.27-.075c.23-.046.517-.1.632-.347a.81.81,0,0,0-.126-.706,1.618,1.618,0,0,1-.117-.26,1.056,1.056,0,0,1,.21-.187c.188-.144.422-.323.422-.594s-.234-.451-.422-.594a1.729,1.729,0,0,1-.206-.171,1.062,1.062,0,0,1,.114-.276.808.808,0,0,0,.126-.706c-.115-.245-.4-.3-.632-.348a1.92,1.92,0,0,1-.259-.061,1.1,1.1,0,0,1-.013-.3.813.813,0,0,0-.189-.7.783.783,0,0,0-.716-.035c-.087.023-.228.058-.259.061a1.1,1.1,0,0,1-.131-.254c-.1-.231-.213-.492-.475-.554a.72.72,0,0,0-.617.252V3.673H16.03a.263.263,0,0,1,.263.263v2.1a.263.263,0,0,1-.263.263H14.453v.526h.526V8.14Zm-1.87.279a1.8,1.8,0,0,1,.112.231.923.923,0,0,0,.373.512.914.914,0,0,0,.636-.019A1.708,1.708,0,0,1,15,9.09a1.742,1.742,0,0,1,0,.261.946.946,0,0,0,.12.628.914.914,0,0,0,.575.26,1.61,1.61,0,0,1,.247.062,1.7,1.7,0,0,1-.107.238.966.966,0,0,0-.16.622.913.913,0,0,0,.4.481,1.477,1.477,0,0,1,.205.177,1.477,1.477,0,0,1-.205.177.913.913,0,0,0-.4.48.968.968,0,0,0,.159.622,1.673,1.673,0,0,1,.107.238,1.638,1.638,0,0,1-.246.062.916.916,0,0,0-.576.261.946.946,0,0,0-.12.628c0,.083.007.216,0,.263a1.591,1.591,0,0,1-.249-.053.914.914,0,0,0-.636-.019.924.924,0,0,0-.373.512,1.817,1.817,0,0,1-.113.231,1.847,1.847,0,0,1-.188-.15.932.932,0,0,0-.57-.3.932.932,0,0,0-.57.3,1.82,1.82,0,0,1-.188.15,1.782,1.782,0,0,1-.112-.231.923.923,0,0,0-.373-.512.535.535,0,0,0-.239-.053,1.581,1.581,0,0,0-.4.071,1.708,1.708,0,0,1-.239.053,1.741,1.741,0,0,1,0-.261.946.946,0,0,0-.12-.627.914.914,0,0,0-.575-.26,1.61,1.61,0,0,1-.247-.062,1.7,1.7,0,0,1,.107-.238.966.966,0,0,0,.16-.622.913.913,0,0,0-.4-.481,1.477,1.477,0,0,1-.205-.177,1.476,1.476,0,0,1,.205-.177.913.913,0,0,0,.4-.48.968.968,0,0,0-.159-.622,1.673,1.673,0,0,1-.107-.238,1.639,1.639,0,0,1,.246-.062.916.916,0,0,0,.576-.261.946.946,0,0,0,.12-.628q-.005-.131,0-.263A1.591,1.591,0,0,1,11,9.142a.917.917,0,0,0,.636.019.924.924,0,0,0,.373-.512,1.8,1.8,0,0,1,.113-.231,1.925,1.925,0,0,1,.188.15.932.932,0,0,0,.57.3.932.932,0,0,0,.57-.3,1.9,1.9,0,0,1,.188-.15ZM11.825.52a.958.958,0,0,1,1.02.8,5.454,5.454,0,0,0-2.791.965,3.367,3.367,0,0,1,.176-.615A1.626,1.626,0,0,1,11.825.52Zm-4.2,2.1H9.2a.263.263,0,0,1,.263.263v.263h-2.1V2.885A.263.263,0,0,1,7.621,2.622ZM4.993.52A1.865,1.865,0,0,1,6.769,2.288a5.451,5.451,0,0,0-2.8-.968A.962.962,0,0,1,4.993.52Zm-2.365,2.1c0-.773,1.009-.788,1.051-.788A4.963,4.963,0,0,1,6.832,3v.146H3.155a.5.5,0,0,1-.527-.526ZM.526,6.038v-2.1a.263.263,0,0,1,.263-.263H6.044V6.3H.788A.263.263,0,0,1,.526,6.038Zm9.723.263H6.569V3.673h3.679Zm.263-3.153H9.986V3a4.963,4.963,0,0,1,3.153-1.168c.043,0,1.051.009,1.051.788a.495.495,0,0,1-.526.526Z" transform="translate(0 0.008)"/>
      <path id="Path_46389" data-name="Path 46389" d="M5,28h.526v.526H5Zm9.8,5.858L17.951,30.7l.372.372-3.153,3.153Zm2.553-.865a.788.788,0,1,0,.788.788A.788.788,0,0,0,17.351,32.993Zm0,1.051a.263.263,0,1,1,.263-.263A.263.263,0,0,1,17.351,34.044Zm-1.577-2.1a.788.788,0,1,0-.788-.788A.788.788,0,0,0,15.774,31.942Zm0-1.051a.263.263,0,1,1-.263.263A.263.263,0,0,1,15.774,30.891Z" transform="translate(-3.686 -20.64)"/>
    </g>
  </g>
</svg>
