<?xml version="1.0" encoding="UTF-8"?>
<svg version="1.1" xmlns="http://www.w3.org/2000/svg" width="512" height="512">
<path d="M0 0 C10.90249129 5.52091217 20.24218959 12.77497019 29.05883789 21.22241211 C29.8180957 21.91850586 30.57735352 22.61459961 31.35961914 23.33178711 C41.26832409 32.70997417 47.92962063 44.18076663 54.05883789 56.22241211 C55.82259936 53.57676991 57.42951344 50.87990851 59.02783203 48.13305664 C63.20226892 41.00786151 67.65715403 34.4935823 73.05883789 28.22241211 C73.64793945 27.48893555 74.23704102 26.75545898 74.84399414 25.99975586 C90.74808413 6.85406791 117.21087882 -7.42697501 141.76586914 -10.19555664 C152.5386546 -10.62740178 159.0931402 -7.54539281 167.12133789 -0.59008789 C168.78629426 0.99422216 170.43240164 2.59858232 172.05883789 4.22241211 C172.82196289 4.97393555 173.58508789 5.72545898 174.37133789 6.49975586 C184.84040166 17.42320608 196.05883789 34.57939194 196.05883789 50.22241211 C204.07023133 45.93262342 210.82590117 41.19905792 217.66040039 35.26147461 C220.35536273 32.9703177 221.37397577 32.2985079 224.87133789 31.90991211 C228.89168552 32.30406384 230.17844044 33.43448327 233.05883789 36.22241211 C234.31665039 39.03491211 234.31665039 39.03491211 235.18383789 42.22241211 C235.50094727 43.36452148 235.81805664 44.50663086 236.14477539 45.68334961 C236.44641602 46.85124023 236.74805664 48.01913086 237.05883789 49.22241211 C237.36047852 50.34905273 237.66211914 51.47569336 237.97290039 52.63647461 C240.05883789 60.64881398 240.05883789 60.64881398 240.05883789 64.22241211 C240.71368164 64.0406543 241.36852539 63.85889648 242.04321289 63.67163086 C245.04563334 62.84469302 248.05208979 62.03346688 251.05883789 61.22241211 C252.08879883 60.93624023 253.11875977 60.65006836 254.17993164 60.35522461 C268.07851284 56.63713282 268.07851284 56.63713282 273.99633789 59.78491211 C276.70985736 62.99179875 276.75357386 65.0504703 277.05883789 69.22241211 C276.70255955 71.9800626 276.27646709 74.47961048 275.62133789 77.15991211 C275.35389771 78.2614563 275.35389771 78.2614563 275.08105469 79.38525391 C270.49248811 96.83076383 259.19009027 115.13491052 244.05883789 125.22241211 C244.62280273 125.23699463 245.18676758 125.25157715 245.76782227 125.26660156 C248.36545735 125.34186065 250.96191433 125.43825695 253.55883789 125.53491211 C254.88915039 125.56875 254.88915039 125.56875 256.24633789 125.60327148 C265.62261944 125.98245934 273.16926645 128.65364111 280.05883789 135.22241211 C283.92327171 140.36756607 285.17367567 145.21701006 285.2199707 151.53833008 C285.22957825 152.59978241 285.23918579 153.66123474 285.24908447 154.75485229 C285.25545929 156.46742722 285.25545929 156.46742722 285.26196289 158.21459961 C285.26766296 159.3932962 285.27336304 160.5719928 285.27923584 161.78640747 C285.28867965 164.27955224 285.29521736 166.77270946 285.29907227 169.26586914 C285.30878287 173.07582381 285.33981507 176.88524015 285.37133789 180.69506836 C285.37786768 183.11824224 285.38311825 185.54141998 285.38696289 187.96459961 C285.40548309 189.67110184 285.40548309 189.67110184 285.42437744 191.41207886 C285.40339487 198.87743879 284.69317268 203.46555012 279.37133789 209.03491211 C276.05883789 211.22241211 276.05883789 211.22241211 268.05883789 212.22241211 C268.38883789 218.82241211 268.71883789 225.42241211 269.05883789 232.22241211 C270.39946289 231.72741211 271.74008789 231.23241211 273.12133789 230.72241211 C281.72780333 228.18319961 291.30988201 227.48646395 299.62133789 231.28491211 C314.33203921 240.06778148 321.80391957 260.2137362 326.09008789 276.02709961 C328.36275806 285.81220729 329.78057578 294.95928048 325.05883789 304.22241211 C323.37791906 306.45196417 321.60955251 308.47908458 319.67993164 310.49584961 C317.86646256 312.33207262 317.86646256 312.33207262 316.05883789 315.22241211 C316.88383789 315.26366211 317.70883789 315.30491211 318.55883789 315.34741211 C324.9955097 316.95658006 329.45593764 320.86396721 332.99633789 326.40991211 C335.96754702 331.51636306 336.2446708 336.02229405 336.29711914 341.83569336 C336.30519089 342.68286423 336.31326263 343.5300351 336.32157898 344.40287781 C336.33540479 346.19581057 336.34613367 347.98876949 336.35400391 349.78173828 C336.37120892 352.51442717 336.41510638 355.24590337 336.45922852 357.97827148 C336.46935676 359.72240324 336.47787245 361.46654525 336.48461914 363.21069336 C336.50212723 364.02339188 336.51963531 364.83609039 336.53767395 365.67341614 C336.51744397 371.0025354 335.58262835 373.99010079 332.05883789 378.22241211 C327.75151289 381.76399044 324.51846469 382.56984133 319.05883789 383.22241211 C319.06772034 384.46998291 319.07660278 385.71755371 319.08575439 387.00292969 C319.16692207 398.7733029 319.22684275 410.54361916 319.26608658 422.31420898 C319.28694066 428.36527187 319.31521907 434.41610839 319.3605957 440.46704102 C319.40413031 446.30905373 319.42799139 452.15084903 319.43834686 457.99301147 C319.44572449 460.2193036 319.46013129 462.44558414 319.48175812 464.67178345 C319.51089262 467.79568992 319.5147896 470.91870364 319.51293945 474.04272461 C319.52732056 474.95838699 319.54170166 475.87404938 319.55651855 476.81745911 C319.51046147 484.02779648 317.68565272 489.2619589 312.87524414 494.68334961 C311.75956055 495.63081055 311.75956055 495.63081055 310.62133789 496.59741211 C309.88012695 497.24452148 309.13891602 497.89163086 308.37524414 498.55834961 C303.60656656 501.98407752 299.31657633 502.51377447 293.56306744 502.47968102 C292.81343382 502.48318709 292.0638002 502.48669316 291.29145041 502.49030548 C288.77134972 502.49963346 286.25147941 502.49469259 283.73136902 502.48983765 C281.9095916 502.4935732 280.08781579 502.49817434 278.26604253 502.50356829 C273.25327024 502.5158254 268.24056456 502.51553464 263.2277807 502.51317954 C257.82410993 502.51277206 252.42046071 502.52380394 247.01679993 502.53329468 C236.4275398 502.54992045 225.83830193 502.55540493 215.24902984 502.55651943 C206.64318761 502.55746915 198.03735274 502.56157561 189.43151283 502.56792068 C165.04238759 502.58553729 140.65327997 502.59475888 116.26414832 502.59325974 C114.94882508 502.59317982 113.63350183 502.59309991 112.27832031 502.59301758 C110.96139457 502.59293582 109.64446884 502.59285406 108.28763626 502.59276982 C86.94085524 502.59195677 65.59415456 502.61109811 44.24739238 502.63929431 C22.33851 502.66800509 0.42966204 502.68183561 -21.47923964 502.68010676 C-33.7833734 502.67944224 -46.08743322 502.68496168 -58.39155006 502.70646286 C-68.86698782 502.72465087 -79.34231811 502.72904156 -89.8177648 502.71544401 C-95.16354428 502.7089024 -100.50911746 502.70884028 -105.85487747 502.72615051 C-110.74835823 502.7418334 -115.64146827 502.73906656 -120.53493973 502.72158225 C-122.30544743 502.7185018 -124.07598247 502.72218392 -125.84645794 502.7333024 C-143.73908071 502.83822719 -143.73908071 502.83822719 -151.40209961 496.03881836 C-152.34956055 494.92313477 -152.34956055 494.92313477 -153.31616211 493.78491211 C-154.28682617 492.6730957 -154.28682617 492.6730957 -155.27709961 491.53881836 C-158.0839159 487.63167738 -159.19167205 484.15095757 -159.18725777 479.35924816 C-159.19123986 478.40180932 -159.19522196 477.44437048 -159.19932473 476.45791835 C-159.19349904 475.41414462 -159.18767336 474.37037089 -159.18167114 473.29496765 C-159.18337999 472.17996929 -159.18508884 471.06497092 -159.18684947 469.91618472 C-159.19014884 466.17273656 -159.17913313 462.42946686 -159.16821289 458.68603516 C-159.16764887 456.00552465 -159.16787704 453.32502515 -159.1690979 450.64451599 C-159.17014638 444.8698154 -159.1638736 439.09516003 -159.15262222 433.32047081 C-159.13636524 424.97125577 -159.13115901 416.62206259 -159.12864624 408.27283344 C-159.12426945 394.72663569 -159.11096077 381.18046202 -159.09204102 367.63427734 C-159.07368181 354.47574992 -159.0595255 341.31722905 -159.05102539 328.15869141 C-159.05049994 327.34754223 -159.0499745 326.53639305 -159.04943313 325.70066359 C-159.04682304 321.63134942 -159.04429563 317.56203521 -159.04180932 313.49272096 C-159.02107731 279.73593387 -158.98585221 245.97917594 -158.94116211 212.22241211 C-159.86670898 212.2572168 -160.79225586 212.29202148 -161.74584961 212.32788086 C-165.93961913 212.1894557 -167.70093327 210.82868313 -170.94116211 208.22241211 C-174.69266733 203.96394673 -176.05867657 201.63997775 -176.1340332 196.01342773 C-176.15009613 194.9246936 -176.16615906 193.83595947 -176.18270874 192.7142334 C-176.22723662 187.70785117 -176.2682655 182.70160269 -176.29125977 177.69506836 C-176.30777211 175.06086361 -176.33499884 172.42670278 -176.37329102 169.79272461 C-176.42831694 165.98780136 -176.44997937 162.18393081 -176.46459961 158.37866211 C-176.48726898 157.21161743 -176.50993835 156.04457275 -176.53329468 154.84216309 C-176.5118619 146.46505188 -174.90750722 139.72809936 -169.26322937 133.3163147 C-162.42342328 126.65343391 -153.50981802 125.76938787 -144.37866211 125.53491211 C-143.46536133 125.50075195 -142.55206055 125.4665918 -141.61108398 125.43139648 C-139.38789982 125.34991853 -137.16506014 125.28045473 -134.94116211 125.22241211 C-135.48305176 124.75770508 -136.02494141 124.29299805 -136.58325195 123.81420898 C-138.72212376 121.97172292 -140.8328565 120.09977258 -142.94116211 118.22241211 C-143.52639648 117.71709961 -144.11163086 117.21178711 -144.71459961 116.69116211 C-157.29584782 105.11405108 -164.72100421 87.70098549 -167.94116211 71.22241211 C-168.25740797 63.51391938 -168.25740797 63.51391938 -165.94116211 60.22241211 C-161.36778551 57.17349438 -157.24122695 57.7698387 -152.04272461 58.79272461 C-148.82775541 59.55437567 -145.63441683 60.37444256 -142.44116211 61.22241211 C-141.33256836 61.50858398 -140.22397461 61.79475586 -139.08178711 62.08959961 C-136.36589347 62.79198589 -133.65261248 63.50309978 -130.94116211 64.22241211 C-130.82385742 63.10350586 -130.70655273 61.98459961 -130.58569336 60.83178711 C-129.97080709 55.94284897 -128.85949557 51.23861827 -127.62866211 46.47241211 C-127.42821289 45.63581055 -127.22776367 44.79920898 -127.02124023 43.93725586 C-125.84584215 39.37394566 -124.92609079 36.10464106 -120.94116211 33.22241211 C-117.18118777 32.19696456 -115.0213698 31.66326614 -111.50366211 33.48413086 C-108.98837623 35.19038424 -106.69816329 37.01005917 -104.37866211 38.97241211 C-98.93561897 43.40565992 -93.080881 46.84662165 -86.94116211 50.22241211 C-86.87928711 49.17053711 -86.81741211 48.11866211 -86.75366211 47.03491211 C-84.22582981 27.16334157 -70.27001092 10.18951216 -55.94116211 -2.77758789 C-38.76137643 -15.95306262 -17.84353789 -8.61376889 0 0 Z " fill="#010000" transform="translate(175.941162109375,9.777587890625)"/>
<path d="M0 0 C50.82 0 101.64 0 154 0 C154 90.09 154 180.18 154 273 C117.5246875 273.12375 117.5246875 273.12375 80.3125 273.25 C68.79081909 273.30462402 68.79081909 273.30462402 57.03637695 273.36035156 C47.66442871 273.37841797 47.66442871 273.37841797 43.27848816 273.3817749 C40.21192373 273.38550503 37.14563563 273.40050832 34.07914734 273.42230225 C30.16778639 273.44973268 26.25682745 273.45796599 22.34537923 273.4522891 C20.90981147 273.45347621 19.4742297 273.46141233 18.03874457 273.47686052 C16.09923964 273.49676345 14.15951311 273.48957067 12.21992493 273.48101807 C11.133131 273.48470524 10.04633707 273.48839241 8.92660999 273.49219131 C5.29237567 272.88099318 3.62712264 271.53186562 1 269 C-0.1832255 266.63354899 -0.12428473 265.22361314 -0.12304783 262.58406639 C-0.12503888 261.65001768 -0.12702993 260.71596896 -0.12908131 259.75361574 C-0.12616847 258.72055822 -0.12325563 257.68750071 -0.12025452 256.62313843 C-0.12110894 255.5311211 -0.12196337 254.43910377 -0.12284368 253.313995 C-0.12449956 249.63037486 -0.11897533 245.94679959 -0.11352539 242.26318359 C-0.11324352 239.63238018 -0.11340126 237.00157668 -0.1139679 234.37077332 C-0.11449302 228.69425359 -0.11134745 223.01774533 -0.10573006 217.34122849 C-0.09761345 209.13387283 -0.09499967 200.92652273 -0.09374207 192.71916349 C-0.0915518 179.40424387 -0.0848924 166.08933036 -0.07543945 152.77441406 C-0.06626468 139.83789093 -0.05919563 126.90136947 -0.05493164 113.96484375 C-0.05466364 113.15970644 -0.05439565 112.35456913 -0.05411953 111.52503371 C-0.05204018 105.22861452 -0.05008323 98.93219529 -0.04816496 92.63577604 C-0.03872612 61.75717842 -0.01860904 30.87859609 0 0 Z " fill="#02A8F3" transform="translate(34,222)"/>
<path d="M0 0 C16.83 0 33.66 0 51 0 C51 90.09 51 180.18 51 273 C34.17 273 17.34 273 0 273 C0 182.91 0 92.82 0 0 Z " fill="#E81D62" transform="translate(205,222)"/>
<path d="M0 0 C50.82 0 101.64 0 154 0 C154 30 154 30 148.0625 36.25 C145.71696749 37.51612714 143.36300187 38.76678354 141 40 C138.2162073 42.53205137 138.2162073 42.53205137 135.875 45.3125 C134.85019531 46.48232422 134.85019531 46.48232422 133.8046875 47.67578125 C131.91585794 50.00043846 131.91585794 50.00043846 130.3828125 52.79296875 C129.92648437 53.52128906 129.47015625 54.24960937 129 55 C128.34 55 127.68 55 127 55 C125.70925452 53.35912126 124.49238973 51.65981448 123.3125 49.9375 C111.77722632 33.76326527 93.10861766 22.22172353 73.5625 18.3125 C72.386875 18.209375 71.21125 18.10625 70 18 C69.23945313 17.92394531 68.47890625 17.84789062 67.6953125 17.76953125 C60.08948604 17.33118923 54.28038898 19.54315379 48.35546875 24.328125 C40.46942082 32.58349198 34.54748017 45.27505994 31 56 C30.44505859 57.59714844 30.44505859 57.59714844 29.87890625 59.2265625 C26.4452451 69.94338728 24.70243075 81.15784764 29.51171875 91.73828125 C31.85326556 95.2966949 34.86658992 97.85434708 38.171875 100.50390625 C38.77515625 100.99761719 39.3784375 101.49132812 40 102 C40 102.33 40 102.66 40 103 C39.35933594 103.14695312 38.71867187 103.29390625 38.05859375 103.4453125 C30.79061602 105.33000419 26.09187941 107.7838008 21.61694336 113.88598633 C17.14956774 121.56789107 17.23439949 129.05642765 17.34814453 137.69580078 C17.37503538 140.12820029 17.34826139 142.55601903 17.31640625 144.98828125 C17.29860827 153.1775034 17.38777552 159.54887799 23 166 C26.85225841 169.06205155 28.82923834 169.13820639 34 170 C34.33 203.99 34.66 237.98 35 273 C23.45 273 11.9 273 0 273 C0 182.91 0 92.82 0 0 Z " fill="#01A8F2" transform="translate(273,222)"/>
<path d="M0 0 C20.12313924 -0.06770791 40.24618632 -0.1229765 60.36941051 -0.15543652 C69.71286788 -0.17090854 79.05624947 -0.19200446 88.3996582 -0.22631836 C96.54292247 -0.25621045 104.68613187 -0.27557257 112.82944947 -0.28226548 C117.14169597 -0.28617807 121.45378547 -0.29538012 125.76598167 -0.31719017 C129.82479222 -0.33755234 133.88338109 -0.34383437 137.94223785 -0.33932304 C139.43176541 -0.34014837 140.92130038 -0.34611574 142.41078377 -0.35761642 C144.44524394 -0.37255449 146.47982305 -0.36716313 148.514328 -0.36076355 C150.22194951 -0.36491162 150.22194951 -0.36491162 151.96406841 -0.36914349 C155.4026392 0.04895751 157.24330784 0.93220994 160 3 C169.06764701 16.60147051 162 35.65306689 162 52 C108.54 52 55.08 52 0 52 C0 34.84 0 17.68 0 0 Z " fill="#02A8F3" transform="translate(282,153)"/>
<path d="M0 0 C1.72974453 0.00691345 1.72974453 0.00691345 3.4944334 0.01396656 C4.13982325 0.00969444 4.78521309 0.00542231 5.45016021 0.00102073 C7.60501107 -0.00719194 9.75789965 0.02024195 11.91257 0.04761219 C13.4600854 0.04902306 15.00760415 0.04822992 16.55511761 0.04539967 C20.75126249 0.04396559 24.94669215 0.07335337 29.14267087 0.10826945 C33.52953127 0.13953471 37.91640823 0.14246382 42.30336285 0.14839649 C50.60839873 0.16393447 58.91310537 0.20496222 67.2179963 0.25514394 C76.67375036 0.31103891 86.12952017 0.33852428 95.58539832 0.36362112 C115.034768 0.41587828 134.48368636 0.50756931 153.93283367 0.61523914 C153.93283367 17.44523914 153.93283367 34.27523914 153.93283367 51.61523914 C100.47283367 51.61523914 47.01283367 51.61523914 -8.06716633 51.61523914 C-8.06716633 1.61818303 -8.06716633 1.61818303 0 0 Z " fill="#01A8F2" transform="translate(25.067166328430176,153.38476085662842)"/>
<path d="M0 0 C1.57614915 0.48417545 3.14769548 0.98353321 4.71484375 1.49609375 C5.54685303 1.76566895 6.3788623 2.03524414 7.23608398 2.31298828 C19.09061983 6.28310183 29.22067192 11.64272038 38.65234375 19.93359375 C39.39871094 20.536875 40.14507812 21.14015625 40.9140625 21.76171875 C53.45671472 32.18109476 64.44742466 48.42156515 69.65234375 63.93359375 C69.65234375 64.92359375 69.65234375 65.91359375 69.65234375 66.93359375 C65.18809305 68.00308194 61.22079275 68.57081273 56.65234375 67.93359375 C52.79175401 64.8182267 50.3676353 61.0436542 47.65234375 56.93359375 C40.2321243 47.36541604 28.22312772 38.01133823 16.65234375 33.93359375 C13.25840179 34.16267602 10.67020794 34.34257583 7.71484375 36.05859375 C6.00197418 39.08130476 6.29506512 41.5394468 6.65234375 44.93359375 C8.68044978 48.3480001 10.680878 49.6762079 14.27734375 51.24609375 C24.89740616 56.32525404 37.58216854 66.06893258 42.65234375 76.93359375 C42.48996831 80.07285221 42.01825984 82.70949929 41.12133789 85.70996094 C40.47494649 88.77468395 40.42877335 91.75682453 40.3359375 94.88671875 C40.30476585 95.87705109 40.30476585 95.87705109 40.27296448 96.88739014 C40.20784228 98.9860239 40.14875873 101.08477747 40.08984375 103.18359375 C40.04662296 104.61068922 40.00300755 106.0377728 39.95898438 107.46484375 C39.85219964 110.95430097 39.75082809 114.44389128 39.65234375 117.93359375 C33.47814328 118.09799554 28.02742751 117.66776285 22.02734375 116.24609375 C21.24955566 116.06530273 20.47176758 115.88451172 19.67041016 115.69824219 C-2.60313873 110.36277057 -21.84088693 101.02700491 -38.34765625 84.93359375 C-39.42853516 83.99 -39.42853516 83.99 -40.53125 83.02734375 C-45.33299581 78.15796772 -46.00160088 73.57755115 -46.03515625 66.99609375 C-45.51519702 46.66987163 -39.20207276 27.75645283 -26.34765625 11.93359375 C-25.71859375 11.09828125 -25.08953125 10.26296875 -24.44140625 9.40234375 C-22.1735928 6.72835476 -19.83706534 4.72549789 -17.03515625 2.62109375 C-16.13152344 1.92371094 -15.22789062 1.22632813 -14.296875 0.5078125 C-9.38525368 -2.11388736 -5.19434646 -1.39880501 0 0 Z " fill="#E71D62" transform="translate(148.34765625,18.06640625)"/>
<path d="M0 0 C2.03015227 1.6320832 4.02382894 3.28378334 5.98046875 5.00390625 C6.70492187 5.62265625 7.429375 6.24140625 8.17578125 6.87890625 C22.03179672 19.62450933 30.2773262 39.39456929 31.98046875 58.00390625 C32.04556641 58.64183105 32.11066406 59.27975586 32.17773438 59.93701172 C32.88683435 67.73173951 33.24952026 74.33744521 28.60546875 81.00390625 C27.12301218 82.72345166 25.57933985 84.39203619 23.98046875 86.00390625 C23.19800781 86.803125 22.41554688 87.60234375 21.609375 88.42578125 C8.73507784 100.70271102 -7.16973376 107.94213831 -24.01953125 113.00390625 C-25.2725 113.38804687 -26.52546875 113.7721875 -27.81640625 114.16796875 C-36.30747102 116.61663681 -44.17962772 117.50770666 -53.01953125 118.00390625 C-53.03411377 117.11195557 -53.04869629 116.22000488 -53.0637207 115.30102539 C-53.12523786 111.95149235 -53.19947106 108.60271916 -53.28198242 105.25366211 C-53.31497718 103.81171055 -53.34308602 102.36963773 -53.3659668 100.92749023 C-53.39159088 91.22104288 -53.39159088 91.22104288 -55.81640625 81.90234375 C-57.16679937 78.45497543 -57.15807757 78.32105606 -55.546875 74.6328125 C-54.71927094 73.58158139 -53.85314175 72.55988564 -52.95703125 71.56640625 C-52.49458008 71.01637939 -52.03212891 70.46635254 -51.55566406 69.8996582 C-44.11958754 61.32979112 -35.44215917 54.82667696 -25.47558594 49.5144043 C-22.15696848 47.88448697 -22.15696848 47.88448697 -20.01953125 45.00390625 C-19.51921919 41.58818772 -19.51921919 41.58818772 -20.01953125 38.00390625 C-21.95079227 35.32552052 -21.95079227 35.32552052 -25.01953125 34.00390625 C-38.90627115 34.80218591 -52.44868399 46.79848827 -61.39453125 56.62890625 C-63.26569217 58.75454506 -64.8329138 60.64118501 -66.12890625 63.16015625 C-67.27704815 65.38578517 -67.92284714 66.60456719 -70.01953125 68.00390625 C-74.78719149 68.29269024 -79.31410719 67.76161324 -84.01953125 67.00390625 C-75.59060567 41.09605077 -57.12304274 19.5224785 -33.01953125 7.00390625 C-24.60146236 2.84683519 -9.24677883 -4.56079033 0 0 Z " fill="#E71D62" transform="translate(326.01953125,17.99609375)"/>
<path d="M0 0 C5.61 0 11.22 0 17 0 C17 90.09 17 180.18 17 273 C11.39 273 5.78 273 0 273 C0 182.91 0 92.82 0 0 Z " fill="#AC1356" transform="translate(239,222)"/>
<path d="M0 0 C-0.35368652 0.58305908 -0.70737305 1.16611816 -1.07177734 1.7668457 C-5.52061611 10.08203028 -5.77362329 17.57027636 -5.65185547 26.77124023 C-5.62491921 29.19476906 -5.65177463 31.61371641 -5.68359375 34.03710938 C-5.70141338 42.21390302 -5.59838391 48.55641912 0 55 C3.85225841 58.06205155 5.82923834 58.13820639 11 59 C11.33 92.99 11.66 126.98 12 162 C0.45 162 -11.1 162 -23 162 C-23.11294397 142.58058724 -23.20501711 123.16144113 -23.25906086 103.74178314 C-23.28482323 94.72454556 -23.31993601 85.7075268 -23.37719727 76.69042969 C-23.42709263 68.82950202 -23.45930532 60.96873286 -23.47044247 53.10765123 C-23.47695091 48.94664413 -23.49220604 44.78609042 -23.52865028 40.62522888 C-23.56270706 36.7050105 -23.57303371 32.78543024 -23.56553841 28.86507797 C-23.56690866 27.43000185 -23.57678404 25.99490335 -23.59602737 24.5599556 C-23.69788964 16.56911051 -23.67244858 10.0803323 -18 4 C-12.49907415 -0.74691489 -6.99762606 -0.37655387 0 0 Z " fill="#0277BB" transform="translate(296,333)"/>
<path d="M0 0 C14.19 0 28.38 0 43 0 C43.16043524 24.00735065 43.16043524 24.00735065 43.1953125 34.23632812 C43.21922911 41.2176529 43.24753044 48.19876794 43.30175781 55.17993164 C43.34520121 60.80796419 43.36913423 66.43577184 43.37950897 72.06395912 C43.38690299 74.2117905 43.40134167 76.35960949 43.42292023 78.5073452 C43.45193366 81.51452666 43.45595679 84.5207774 43.45410156 87.52807617 C43.47567322 88.86164406 43.47567322 88.86164406 43.49768066 90.22215271 C43.47009114 94.35178905 43.3419999 96.45565975 41.09661865 100.02949524 C31.08844616 109.43566528 13.73461144 103 0 103 C0 69.01 0 35.02 0 0 Z " fill="#F14234" transform="translate(435,392)"/>
<path d="M0 0 C14.19 0 28.38 0 43 0 C43 33.99 43 67.98 43 103 C6 103 6 103 1 99 C-0.71350991 95.57298019 -0.12858983 91.63900197 -0.11352539 87.86865234 C-0.11367142 86.92226395 -0.11381744 85.97587555 -0.1139679 85.00080872 C-0.11326942 81.86249525 -0.10548002 78.72424063 -0.09765625 75.5859375 C-0.09579184 73.41403231 -0.09436805 71.24212671 -0.09336853 69.07022095 C-0.08954516 63.34585413 -0.07971639 57.62151258 -0.06866455 51.89715576 C-0.05665095 45.03310671 -0.05204733 38.16904923 -0.04621124 31.30499268 C-0.03650456 20.86997754 -0.01734672 10.43501785 0 0 Z " fill="#F04234" transform="translate(324,392)"/>
<path d="M0 0 C11.22 0 22.44 0 34 0 C34 33.66 34 67.32 34 102 C22.78 102 11.56 102 0 102 C0 68.34 0 34.68 0 0 Z " fill="#FE9701" transform="translate(384,393)"/>
<path d="M0 0 C22.44 0 44.88 0 68 0 C68 16.83 68 33.66 68 51 C45.56 51 23.12 51 0 51 C0 34.17 0 17.34 0 0 Z " fill="#E91E63" transform="translate(196,154)"/>
<path d="M0 0 C15.77927836 5.37455839 29.32575575 15.58043 37.875 30 C37.875 30.99 37.875 31.98 37.875 33 C37.23433594 33.1959375 36.59367187 33.391875 35.93359375 33.59375 C28.31707728 36.22718044 23.84336249 39.84096408 19.81640625 46.83984375 C17.15457122 52.86399671 17.16185515 59.51113863 16.875 66 C-0.96704781 67.15358068 -16.39146061 62.24139909 -30.3125 50.6875 C-33.57969881 47.56551003 -34.30823509 46.22658833 -34.5 41.875 C-34.30520371 26.87568536 -26.04531275 9.93384316 -16.125 -1 C-10.98578077 -3.56960961 -5.15650844 -1.69284942 0 0 Z " fill="#FCD900" transform="translate(350.125,258)"/>
<path d="M0 0 C2.91339821 0.04919434 5.2060155 0.57049541 7.4453125 2.48828125 C9.16079163 4.61529041 10.51634197 6.79803582 11.89453125 9.16015625 C12.55710937 10.28550781 13.2196875 11.41085937 13.90234375 12.5703125 C19.98124146 23.24771092 26.19040528 35.53284909 23.89453125 48.16015625 C17.83061364 59.03338783 3.16311815 63.61418065 -8.10546875 67.16015625 C-12.44793099 68.09981837 -16.54305576 68.26793597 -20.98046875 68.22265625 C-22.70910156 68.20912109 -22.70910156 68.20912109 -24.47265625 68.1953125 C-25.77589844 68.17791016 -25.77589844 68.17791016 -27.10546875 68.16015625 C-27.13125 67.17015625 -27.15703125 66.18015625 -27.18359375 65.16015625 C-27.55510182 55.28329531 -28.45728399 48.36793766 -35.85546875 41.34765625 C-39.70381824 38.17927829 -43.35670001 36.60174676 -48.10546875 35.16015625 C-46.38035703 25.26951574 -36.59979297 16.89963554 -28.87255859 11.33447266 C-20.15047577 5.53822806 -10.51057183 0.79950546 0 0 Z " fill="#FDDA00" transform="translate(462.10546875,255.83984375)"/>
<path d="M0 0 C1.12535156 0.18949219 1.12535156 0.18949219 2.2734375 0.3828125 C3.02882813 0.48335937 3.78421875 0.58390625 4.5625 0.6875 C7.37806567 1.79474493 8.12598 2.88901621 9.6484375 5.5078125 C10.03434086 8.76592922 10.03434086 8.76592922 10.04957581 12.7127533 C10.05637248 13.43951549 10.06316914 14.16627768 10.07017177 14.91506296 C10.08916659 17.35099132 10.08670556 19.78641787 10.08422852 22.22241211 C10.09320456 23.9685684 10.10341245 25.71471873 10.11476135 27.46086121 C10.14127929 32.20464221 10.14829551 36.94826092 10.15020871 41.69210887 C10.15305649 45.65098366 10.16409177 49.6098206 10.174725 53.56868082 C10.19915712 62.90737898 10.20647777 72.24599036 10.2043457 81.5847168 C10.20254261 91.22223071 10.23421266 100.85924126 10.28157669 110.49662775 C10.32078295 118.76850443 10.33689829 127.04021643 10.33497947 135.31218535 C10.33421399 140.25381985 10.34279604 145.19500694 10.37451363 150.136549 C10.40352489 154.78331141 10.40381826 159.42919766 10.38196373 164.07599068 C10.3788222 165.78160504 10.38593914 167.48727365 10.4040451 169.1927948 C10.42716664 171.52152674 10.41331082 173.8472227 10.39015198 176.17588806 C10.39178628 177.47871703 10.39342058 178.781546 10.39510441 180.12385464 C9.34846214 184.86732633 7.69598428 185.91239538 3.6484375 188.5078125 C-0.00625377 188.5078125 -2.255126 188.31186593 -5.2265625 186.1328125 C-7.77179504 182.45636549 -7.48665237 178.86444952 -7.50546265 174.54374695 C-7.5098449 173.83079541 -7.51422715 173.11784386 -7.5187422 172.38328773 C-7.53212408 169.9881885 -7.53830764 167.59312605 -7.54443359 165.19799805 C-7.55233495 163.48317295 -7.56060392 161.76834952 -7.56921387 160.05352783 C-7.59542674 154.41721178 -7.61073922 148.78088832 -7.625 143.14453125 C-7.63035969 141.20467435 -7.6357372 139.26481751 -7.64113235 137.32496071 C-7.66275861 129.25691083 -7.68149615 121.18886296 -7.69275475 113.12079144 C-7.70900028 101.55494598 -7.74219564 89.98943613 -7.79915559 78.4237172 C-7.83783576 70.29284459 -7.85738506 62.16206183 -7.86267531 54.03109962 C-7.86633096 49.17384176 -7.87837513 44.3169419 -7.91077805 39.45978355 C-7.94082541 34.89030019 -7.9471825 30.3213921 -7.93539429 25.75183105 C-7.93517328 24.0756548 -7.94350063 22.39945211 -7.96104813 20.72336769 C-7.98372485 18.4324955 -7.97545441 16.14371215 -7.95956421 13.85282898 C-7.96287436 12.57174602 -7.9661845 11.29066305 -7.96959496 9.97075939 C-7.14765469 5.36528043 -4.96526606 1.07223353 0 0 Z " fill="#F1F3F4" transform="translate(58.3515625,238.4921875)"/>
<path d="M0 0 C1.67575191 0.64348873 3.33927151 1.31867549 5 2 C5.65677734 2.268125 6.31355469 2.53625 6.99023438 2.8125 C12.39435283 5.13477114 17.97339159 7.60269567 22 12 C23.73792571 16.47310705 23.34415035 20.9345175 22.98828125 25.6328125 C22.52715081 33.93316048 28.37151968 40.19515091 33.44921875 46.1953125 C41.54034806 55.09183753 50.45709584 61.64350272 60.8203125 67.62890625 C61.53960937 68.08136719 62.25890625 68.53382813 63 69 C63 69.33 63 69.66 63 70 C32.43147039 70.54551691 3.7602415 69.94812618 -19.875 47.8125 C-26.89070625 40.45481693 -32.03594461 31.74746573 -35 22 C-29.4949764 22.62557086 -24.30634639 23.91192326 -18.96484375 25.37890625 C-15.73782833 26.05492134 -13.27900098 26.44852205 -10 26 C-4.22988583 22.10037147 -3.50315502 16.61048468 -2.1875 10.1875 C-1.97158203 9.20845703 -1.75566406 8.22941406 -1.53320312 7.22070312 C-1.00553343 4.8168745 -0.49513179 2.41070275 0 0 Z " fill="#E51D61" transform="translate(64,67)"/>
<path d="M0 0 C0.66 0.33 1.32 0.66 2 1 C2.7308745 3.7311626 3.3652539 6.42279292 3.9375 9.1875 C5.71627389 18.8901278 5.71627389 18.8901278 12 26 C19.99245189 26.32974752 28.27871539 23.76899748 36 22 C34.28309488 35.08663238 24.94116325 45.08679464 15.23046875 53.359375 C6.68320798 59.86458635 -2.36891343 63.64531453 -12.5625 66.75 C-13.24650879 66.96100342 -13.93051758 67.17200684 -14.63525391 67.3894043 C-25.12022811 70.42334898 -35.80335436 70.13069824 -46.625 70.0625 C-48.02473797 70.05747197 -49.4244777 70.05291138 -50.82421875 70.04882812 C-54.21619169 70.03713167 -57.60807233 70.02074086 -61 70 C-58.65987221 67.57391174 -56.45441916 66.01527817 -53.5 64.375 C-39.41263957 56.04971858 -28.32124594 44.64249188 -21 30 C-21.0928125 28.7521875 -21.185625 27.504375 -21.28125 26.21875 C-21.57856049 21.32825325 -21.83761714 16.62381429 -20 12 C-15.93130882 7.61355431 -10.31702121 5.17260021 -4.88525391 2.859375 C-2.74052366 1.94229451 -2.74052366 1.94229451 0 0 Z " fill="#E51D61" transform="translate(395,67)"/>
<path d="M0 0 C1.65 1.65 3.3 3.3 5 5 C8.10172309 5.80764788 8.10172309 5.80764788 11.3125 5.8125 C12.91544922 5.88404297 12.91544922 5.88404297 14.55078125 5.95703125 C15.35902344 5.97121094 16.16726563 5.98539062 17 6 C17.00423194 6.54776218 17.00846388 7.09552437 17.01282406 7.65988541 C17.11613222 20.98862322 17.22483167 34.31730767 17.33933926 47.64595413 C17.39455103 54.09158869 17.44796835 60.53722781 17.49731445 66.98291016 C17.5449836 73.20098607 17.59732751 79.41900653 17.65294075 85.6370163 C17.6733527 88.0117022 17.6920677 90.3864033 17.70907402 92.76111603 C17.73314353 96.08201095 17.76319489 99.40280107 17.79467773 102.72363281 C17.80331093 104.20285469 17.80331093 104.20285469 17.81211853 105.71195984 C17.82190735 106.61777298 17.83169617 107.52358612 17.84178162 108.45684814 C17.84823417 109.24221577 17.85468672 110.02758339 17.8613348 110.83675003 C17.95633491 113.33528219 17.95633491 113.33528219 19 117 C12.73 117 6.46 117 0 117 C0 78.39 0 39.78 0 0 Z " fill="#02A8F2" transform="translate(273,378)"/>
<path d="M0 0 C17.16 0 34.32 0 52 0 C52 11.55 52 23.1 52 35 C34.84 35 17.68 35 0 35 C0 23.45 0 11.9 0 0 Z " fill="#F4D300" transform="translate(375,341)"/>
<path d="M0 0 C14.19 0 28.38 0 43 0 C43.16043524 24.00735065 43.16043524 24.00735065 43.1953125 34.23632812 C43.21922911 41.2176529 43.24753044 48.19876794 43.30175781 55.17993164 C43.34520121 60.80796419 43.36913423 66.43577184 43.37950897 72.06395912 C43.38690299 74.2117905 43.40134167 76.35960949 43.42292023 78.5073452 C43.45193366 81.51452666 43.45595679 84.5207774 43.45410156 87.52807617 C43.47567322 88.86164406 43.47567322 88.86164406 43.49768066 90.22215271 C43.47009114 94.35178905 43.3419999 96.45565975 41.09661865 100.02949524 C37.52457765 103.3866741 35.19336923 103.10973891 30.375 103.0625 C29.18648438 103.05347656 27.99796875 103.04445313 26.7734375 103.03515625 C25.40058594 103.01775391 25.40058594 103.01775391 24 103 C24.16076523 102.20580658 24.32153046 101.41161316 24.48716736 100.59335327 C25.11318538 96.20692437 25.17625281 91.93131394 25.20532227 87.50634766 C25.22017166 86.10051926 25.22017166 86.10051926 25.23532104 84.66629028 C25.26679578 81.58223966 25.29163782 78.49817366 25.31640625 75.4140625 C25.3369879 73.27029022 25.35798468 71.12652189 25.37937927 68.98275757 C25.43447489 63.3505575 25.4839392 57.71832157 25.53222656 52.08605957 C25.58253309 46.33468447 25.63817132 40.58336121 25.69335938 34.83203125 C25.80078789 23.55473022 25.90177374 12.27738495 26 1 C17.42 1 8.84 1 0 1 C0 0.67 0 0.34 0 0 Z " fill="#C31D1D" transform="translate(435,392)"/>
<path d="M0 0 C6.31786794 -0.09189626 12.63341189 -0.17151592 18.95141602 -0.21972656 C21.0999335 -0.23982586 23.2483964 -0.26710993 25.39672852 -0.30175781 C28.48727905 -0.35034913 31.57710555 -0.37298579 34.66796875 -0.390625 C35.62648239 -0.41127014 36.58499603 -0.43191528 37.57255554 -0.45318604 C41.91177118 -0.45464178 44.31982776 -0.41901497 48.08325195 1.89941406 C51.34925261 5.47866125 51.11842048 7.76328883 51.09765625 12.5390625 C51.09515869 13.71162598 51.09266113 14.88418945 51.09008789 16.09228516 C51.08098389 17.58808105 51.07187988 19.08387695 51.0625 20.625 C51.041875 25.36875 51.02125 30.1125 51 35 C34.17 35 17.34 35 0 35 C0 23.45 0 11.9 0 0 Z " fill="#F34234" transform="translate(444,341)"/>
<path d="M0 0 C0.8452977 -0.00241196 1.6905954 -0.00482391 2.56150818 -0.00730896 C4.3407767 -0.00633331 6.12007663 0.00699289 7.89916992 0.03198242 C10.61677391 0.06635162 13.33113343 0.05261347 16.04882812 0.03320312 C17.78256587 0.04010071 19.51629526 0.04977232 21.25 0.0625 C22.05844864 0.05754013 22.86689728 0.05258026 23.69984436 0.04747009 C28.72688514 0.1520733 31.41556364 0.84530053 35.05859375 4.62890625 C36.49368596 7.49909066 36.17017881 9.96434348 36.15625 13.16796875 C36.15375244 14.34053223 36.15125488 15.5130957 36.14868164 16.72119141 C36.13957764 18.2169873 36.13047363 19.7127832 36.12109375 21.25390625 C36.10046875 25.99765625 36.07984375 30.74140625 36.05859375 35.62890625 C19.22859375 35.62890625 2.39859375 35.62890625 -14.94140625 35.62890625 C-15.06515625 30.78203125 -15.18890625 25.93515625 -15.31640625 20.94140625 C-15.37103027 19.42071533 -15.4256543 17.90002441 -15.48193359 16.33325195 C-15.49691895 15.12757568 -15.5119043 13.92189941 -15.52734375 12.6796875 C-15.55876465 11.44903564 -15.59018555 10.21838379 -15.62255859 8.95043945 C-14.87938324 5.32646072 -13.82497333 3.70762439 -10.809021 1.53633118 C-7.30175129 -0.16775901 -3.83557889 -0.06305973 0 0 Z " fill="#E31D60" transform="translate(219.94140625,101.37109375)"/>
<path d="M0 0 C1.38120529 0.0001133 1.38120529 0.0001133 2.79031372 0.00022888 C4.28412064 0.00797081 4.28412064 0.00797081 5.80810547 0.01586914 C7.33538773 0.01799156 7.33538773 0.01799156 8.89352417 0.02015686 C12.15414332 0.02576639 15.41469448 0.03832051 18.67529297 0.05102539 C20.88232323 0.05603916 23.08935456 0.06060228 25.29638672 0.06469727 C30.71440291 0.07488917 36.13227158 0.09446277 41.55029297 0.11352539 C41.55029297 11.33352539 41.55029297 22.55352539 41.55029297 34.11352539 C24.39029297 34.11352539 7.23029297 34.11352539 -10.44970703 34.11352539 C-10.53220703 29.59665039 -10.61470703 25.07977539 -10.69970703 20.42602539 C-10.73612305 19.00974854 -10.77253906 17.59347168 -10.81005859 16.13427734 C-10.82004883 15.00981201 -10.83003906 13.88534668 -10.84033203 12.72680664 C-10.8612793 11.57994385 -10.88222656 10.43308105 -10.90380859 9.25146484 C-10.35355602 5.44910124 -9.10699512 3.8322733 -6.44970703 1.11352539 C-4.07579867 -0.07342879 -2.64725752 -0.00723294 0 0 Z " fill="#ED4133" transform="translate(317.44970703125,340.886474609375)"/>
<path d="M0 0 C4.80420891 0.67258925 7.54844065 3.293272 11.125 6.4375 C11.84945313 7.05625 12.57390625 7.675 13.3203125 8.3125 C27.17632797 21.05810308 35.42185745 40.82816304 37.125 59.4375 C37.19009766 60.0754248 37.25519531 60.71334961 37.32226562 61.37060547 C38.0313656 69.16533326 38.39405151 75.77103896 33.75 82.4375 C32.26754343 84.15704541 30.7238711 85.82562994 29.125 87.4375 C28.34253906 88.23671875 27.56007813 89.0359375 26.75390625 89.859375 C15.57804856 100.51667289 0.20664994 109.68648929 -14.875 113.4375 C-15.865 113.1075 -16.855 112.7775 -17.875 112.4375 C-16.93140625 111.91542969 -15.9878125 111.39335938 -15.015625 110.85546875 C-3.47448211 104.30325335 7.29334852 96.35513335 15.125 85.4375 C15.53492188 84.88449219 15.94484375 84.33148438 16.3671875 83.76171875 C23.16002908 72.82290145 18.72215866 55.33177091 16.125 43.4375 C12.47792367 28.3791742 4.18675319 10.54027047 -8.875 1.4375 C-5.92732015 0.87603717 -2.96620722 0.45137936 0 0 Z " fill="#AB1355" transform="translate(320.875,16.5625)"/>
<path d="M0 0 C20.12311286 -0.07006631 40.24620099 -0.12297652 60.36941051 -0.15543652 C69.71286788 -0.17090854 79.05624947 -0.19200446 88.3996582 -0.22631836 C96.54292247 -0.25621045 104.68613187 -0.27557257 112.82944947 -0.28226548 C117.14169597 -0.28617807 121.45378547 -0.29538012 125.76598167 -0.31719017 C129.82479222 -0.33755234 133.88338109 -0.34383437 137.94223785 -0.33932304 C139.43176541 -0.34014837 140.92130038 -0.34611574 142.41078377 -0.35761642 C144.44524394 -0.37255449 146.47982305 -0.36716313 148.514328 -0.36076355 C150.22194951 -0.36491162 150.22194951 -0.36491162 151.96406841 -0.36914349 C155.4026392 0.04895751 157.24330784 0.93220994 160 3 C169.06764701 16.60147051 162 35.65306689 162 52 C108.54 52 55.08 52 0 52 C0 51.67 0 51.34 0 51 C47.85 51 95.7 51 145 51 C145.841485 25.75295853 145.841485 25.75295853 143 1 C95.81 1 48.62 1 0 1 C0 0.67 0 0.34 0 0 Z " fill="#0270AD" transform="translate(282,153)"/>
<path d="M0 0 C2.65323392 2.27229102 4.24994645 5.00053011 6 8 C6.99386719 9.68802734 6.99386719 9.68802734 8.0078125 11.41015625 C14.08671021 22.08755467 20.29587403 34.37269284 18 47 C13.09639382 55.79267316 2.48172956 60.06463432 -6.5625 63.5 C-7.26544189 63.76748047 -7.96838379 64.03496094 -8.69262695 64.31054688 C-10.43915416 64.94029505 -12.21821294 65.47829612 -14 66 C-14.66 65.67 -15.32 65.34 -16 65 C-15.09636719 64.33613281 -14.19273437 63.67226563 -13.26171875 62.98828125 C-12.06996818 62.09681429 -10.87858097 61.20486141 -9.6875 60.3125 C-8.79514648 59.65991211 -8.79514648 59.65991211 -7.88476562 58.99414062 C-4.39702611 56.36372256 -1.79036779 54.10133899 0 50 C2.16756392 33.52185277 -4.72318141 16.29970437 -14 3 C-14.99 2.34 -15.98 1.68 -17 1 C-11.02000007 -0.67495368 -6.0410401 -1.782602 0 0 Z " fill="#FABE07" transform="translate(468,257)"/>
<path d="M0 0 C0.33 0 0.66 0 1 0 C1 16.5 1 33 1 50 C17.5 50 34 50 51 50 C51 33.5 51 17 51 0 C56.61 0 62.22 0 68 0 C68 16.83 68 33.66 68 51 C45.56 51 23.12 51 0 51 C0 34.17 0 17.34 0 0 Z " fill="#AE1455" transform="translate(196,154)"/>
<path d="M0 0 C5.61 0 11.22 0 17 0 C18.9265832 26.18177164 18.9265832 26.18177164 15.86914062 32.24121094 C13.45695107 34.95126196 10.67461251 36.52950682 7.48046875 38.18359375 C3.75043695 40.13024335 1.62251843 42.15625982 -1.125 45.3125 C-2.14980469 46.48232422 -2.14980469 46.48232422 -3.1953125 47.67578125 C-5.08414206 50.00043846 -5.08414206 50.00043846 -6.6171875 52.79296875 C-7.07351563 53.52128906 -7.52984375 54.24960937 -8 55 C-8.66 55 -9.32 55 -10 55 C-11.54296875 53.35546875 -11.54296875 53.35546875 -13.1875 51.1875 C-13.73792969 50.47980469 -14.28835938 49.77210938 -14.85546875 49.04296875 C-15.23316406 48.36878906 -15.61085938 47.69460938 -16 47 C-14.76232292 43.28696875 -13.43640956 42.61990773 -10.25 40.4375 C-9.38890625 39.83808594 -8.5278125 39.23867188 -7.640625 38.62109375 C-5 37 -5 37 0 35 C0 23.45 0 11.9 0 0 Z " fill="#0274B8" transform="translate(410,222)"/>
<path d="M0 0 C6.31699883 -0.10152782 12.63378679 -0.17151879 18.95141602 -0.21972656 C21.0999335 -0.23982586 23.2483964 -0.26710993 25.39672852 -0.30175781 C28.48727905 -0.35034913 31.57710555 -0.37298579 34.66796875 -0.390625 C35.62648239 -0.41127014 36.58499603 -0.43191528 37.57255554 -0.45318604 C41.91177118 -0.45464178 44.31982776 -0.41901497 48.08325195 1.89941406 C51.34925261 5.47866125 51.11842048 7.76328883 51.09765625 12.5390625 C51.09515869 13.71162598 51.09266113 14.88418945 51.09008789 16.09228516 C51.08098389 17.58808105 51.07187988 19.08387695 51.0625 20.625 C51.041875 25.36875 51.02125 30.1125 51 35 C34.17 35 17.34 35 0 35 C0 34.67 0 34.34 0 34 C11.22 34 22.44 34 34 34 C33.7834375 26.636875 33.7834375 26.636875 33.5625 19.125 C33.51939697 17.57699707 33.47629395 16.02899414 33.43188477 14.43408203 C33.3747229 12.61432861 33.3747229 12.61432861 33.31640625 10.7578125 C33.26141968 8.88826904 33.26141968 8.88826904 33.20532227 6.98095703 C33.19710521 4.07363058 33.19710521 4.07363058 32 2 C21.44 1.67 10.88 1.34 0 1 C0 0.67 0 0.34 0 0 Z " fill="#BC1D1D" transform="translate(444,341)"/>
<path d="M0 0 C-1.71690512 13.08663238 -11.05883675 23.08679464 -20.76953125 31.359375 C-30.00837565 38.39094184 -39.76756142 42.32767902 -51 45 C-48.18221722 42.01183965 -45.28914122 39.7694583 -41.875 37.5 C-31.57207263 30.06815505 -23.90553542 19.69531622 -19 8 C-19 6.68 -19 5.36 -19 4 C-16.20895657 3.3306277 -13.41722977 2.66438908 -10.625 2 C-9.43390625 1.71382813 -9.43390625 1.71382813 -8.21875 1.421875 C-7.07792969 1.15117188 -7.07792969 1.15117188 -5.9140625 0.875 C-5.2123291 0.70742187 -4.5105957 0.53984375 -3.78759766 0.3671875 C-2 0 -2 0 0 0 Z " fill="#AA1355" transform="translate(431,89)"/>
<path d="M0 0 C0.97195313 -0.01933594 1.94390625 -0.03867187 2.9453125 -0.05859375 C7.19548846 -0.0296416 11.02327398 0.09381609 14.6875 2.4140625 C17 5.625 17 5.625 17 17.625 C5.78 17.625 -5.44 17.625 -17 17.625 C-17 5.625 -17 5.625 -14.6875 2.4140625 C-10.21362729 -0.41886511 -5.12238397 -0.10190419 0 0 Z " fill="#FBE739" transform="translate(401,306.375)"/>
<path d="M0 0 C2.68359375 1.78515625 2.68359375 1.78515625 5 5 C5.72001 9.0332699 5.6523304 12.97643084 5.5625 17.0625 C5.57345703 18.15111328 5.58441406 19.23972656 5.59570312 20.36132812 C5.52199342 28.34654571 5.52199342 28.34654571 3.17944336 31.27905273 C0.10103834 33.70984438 -2.10663054 34 -6 34 C-8.80189446 32.23358828 -10.51524911 30.96950178 -12 28 C-12.32135165 24.236118 -12.32437846 20.46340678 -12.375 16.6875 C-12.41238281 15.64142578 -12.44976562 14.59535156 -12.48828125 13.51757812 C-12.57672259 5.79861417 -12.57672259 5.79861417 -9.6953125 1.80859375 C-6.12347583 -0.58816042 -4.22033555 -0.75363135 0 0 Z " fill="#EFF3F4" transform="translate(63,444)"/>
</svg>
