
<svg xmlns="http://www.w3.org/2000/svg" viewBox="0 0 9.223 10.466">
  <g id="svgexport-7" transform="translate(-30.9 0.1)">
    <g id="Group_15233" data-name="Group 15233" transform="translate(31)">
      <g id="Group_15232" data-name="Group 15232">
        <path id="Path_45251" data-name="Path 45251" d="M35.511,0A4.516,4.516,0,0,0,31,4.511V6.957a.9.9,0,0,0,.9.9h.352a.9.9,0,0,0,1.753-.3V5.113a.9.9,0,0,0-1.753-.3H31.9a.9.9,0,0,0-.3.052V4.511a3.91,3.91,0,0,1,7.82,0v.352a.9.9,0,0,0-.3-.052h-.352a.9.9,0,0,0-1.753.3V7.559a.9.9,0,0,0,1.164.863.9.9,0,0,1-.863.64h-.954a.9.9,0,1,0,0,.6h.954a1.505,1.505,0,0,0,1.5-1.5v-.3h.3a.9.9,0,0,0,.9-.9V4.511A4.516,4.516,0,0,0,35.511,0ZM32.8,5.113a.3.3,0,0,1,.6,0V7.559a.3.3,0,0,1-.6,0Zm-.9.3h.3V7.258h-.3a.3.3,0,0,1-.3-.3V5.714A.3.3,0,0,1,31.9,5.414Zm3.609,4.251a.3.3,0,1,1,.3-.3A.3.3,0,0,1,35.511,9.664Zm2.707-2.105a.3.3,0,0,1-.6,0V5.113a.3.3,0,0,1,.6,0Zm1.2-.6a.3.3,0,0,1-.3.3h-.3V5.414h.3a.3.3,0,0,1,.3.3Z" transform="translate(-31)" fill="#0d1863" stroke="#0d1863" stroke-width="0.2"/>
      </g>
    </g>
  </g>
</svg>
