
<svg xmlns="http://www.w3.org/2000/svg" width="60" height="60" viewBox="0 0 60 60">
  <g id="Group_17077" data-name="Group 17077" transform="translate(-1174 -87)">
    <!-- <circle id="download_2_" data-name="download (2)" cx="30" cy="30" r="30" transform="translate(1174 87)" /> -->
    <g id="Group_6772" data-name="Group 6772" transform="translate(1190.993 105.004)">
      <path id="Path_10178" data-name="Path 10178" d="M23.878,19.152a7.141,7.141,0,0,0-10.415,0L13,19.634l-.452-.487A7.146,7.146,0,0,0,2.5,18.78q-.191.176-.369.366a7.879,7.879,0,0,0,0,10.768L12.324,40.6a.934.934,0,0,0,1.314.035l.035-.035L23.878,29.925a7.878,7.878,0,0,0,0-10.773Z" transform="translate(0 -16.896)" fill="#fff" stroke="#4e4e78" stroke-width="2"/>
    </g>
  </g>
</svg>
