
<?xml version="1.0" encoding="UTF-8"?>
<svg version="1.1" viewBox="0 0 1600 1600" width="1280" height="1280" xmlns="http://www.w3.org/2000/svg">
<path transform="translate(0)" d="m0 0h1600v1600h-1600v-1600z" fill="#F9FCFE"/>
<path transform="translate(457 348)" d="m0 0c1.33-0.00115 2.67-0.00274 4-0.00473 3.64-0.00415 7.29-0.00212 10.9 9.86e-4 3.94 0.00227 7.88-0.00123 11.8-0.00398 7.7-0.00444 15.4-0.00349 23.1-5.87e-4 6.26 0.00226 12.5 0.00256 18.8 0.00148 0.892-1.53e-4 1.78-3.06e-4 2.7-4.64e-4 1.81-3.2e-4 3.63-6.44e-4 5.44-9.73e-4 17-0.00285 34 4.23e-4 51 0.0058 14.6 0.00447 29.1 0.00369 43.7-9.19e-4 16.9-0.00535 33.9-0.00746 50.8-0.00439 1.81 3.19e-4 3.61 6.33e-4 5.42 9.43e-4 0.889 1.54e-4 1.78 3.09e-4 2.69 4.68e-4 6.25 8.62e-4 12.5-5.92e-4 18.8-0.00295 7.62-0.00281 15.2-0.00204 22.9 0.00328 3.89 0.00262 7.78 0.00366 11.7 3.51e-4 4.22-0.00354 8.44 6.94e-4 12.7 0.00568 1.22-0.00223 2.45-0.00446 3.71-0.00676 17.1 0.0391 17.1 0.0391 21.5 3.26 7.4 10.3 4.12 26.2 3.25 38.1-0.189 2.76-0.377 5.51-0.562 8.27-0.0504 0.743-0.101 1.49-0.153 2.25-0.403 6.02-0.757 12-1.1 18.1-1.1 19.4-2.25 38.7-3.61 58.1-0.054 0.768-0.108 1.54-0.164 2.33-0.442 6.28-0.887 12.6-1.33 18.8-1.33 18.7-2.57 37.3-3.36 56-0.656 15.1-2 30.1-3.34 45.2-2.05 23-3.48 46-4.53 69-0.113 2.46-0.226 4.93-0.339 7.39-0.055 1.2-0.11 2.4-0.167 3.64-0.671 14.3-1.62 28.7-2.61 43-0.607 8.92-1.13 17.8-0.914 26.7 0.614-0.201 1.23-0.403 1.86-0.61 1.46-0.48 2.93-0.96 4.39-1.44 2.9-0.959 2.9-0.959 6.21-2.48 5.84-2.19 11.9-2.3 18.1-2.66 1.15-0.0819 2.31-0.164 3.5-0.248 6.58-0.421 13.1-0.578 19.7-0.501 14 0.149 27.8-0.825 41.8-2.04 3.96-0.343 7.93-0.666 11.9-0.988 12.7-1.06 25.2-2.28 37.6-5.04 1.67-0.318 3.33-0.631 5-0.938 7.06-1.43 14-3.25 21-5.06 0.864-0.213 1.73-0.425 2.62-0.645 22.1-5.94 43.9-18.5 58.4-36.4 1.41-1.72 2.83-3.43 4.25-5.14 0.983-1.18 1.96-2.36 2.93-3.56 3.48-4.19 3.48-4.19 6.82-5.3 1.83 0.494 1.83 0.494 3.89 1.37 0.766 0.323 1.53 0.646 2.32 0.978 1.23 0.539 1.23 0.539 2.48 1.09 0.847 0.366 1.69 0.732 2.57 1.11 16.9 7.37 31.3 15.9 45.7 27.5 0.857 0.672 1.71 1.34 2.6 2.04 4.38 3.45 8.6 6.87 12.4 11 0.63 0.66 1.26 1.32 1.91 2 28.3 30.3 44.9 68.7 45.4 110 0.0181 1.35 0.0367 2.7 0.0558 4.05 0.0591 4.25 0.112 8.49 0.163 12.7 0.0597 4.92 0.122 9.85 0.192 14.8 0.0261 1.95 0.0471 3.9 0.068 5.85-0.101 10.8-0.101 10.8 1.24 21.4 2.7 2.66 2.7 2.66 6.38 4.06 1.29 0.632 2.57 1.28 3.85 1.93 0.64 0.325 1.28 0.649 1.94 0.983 14.9 8.3 25.2 26.7 30 42.5 2.8 10.3 2.42 20.7 2.38 31.3 0.00543 2.26 0.0126 4.52 0.0212 6.79 0.0181 6.1 0.0112 12.2-0.00152 18.3-0.0102 6.41-7.2e-4 12.8 0.00554 19.2 0.00773 11.5-0.00464 22.9-0.025 34.4-0.0179 10.4-0.0148 20.7 0.00368 31.1 0.0215 12.1 0.0293 24.1 0.0176 36.2-0.00621 6.37-0.00714 12.7 0.00615 19.1 0.0116 5.99 0.0034 12-0.0196 18-0.00525 2.19-0.00384 4.38 0.00505 6.56 0.0565 15.3-0.803 30-8.09 43.9-0.337 0.654-0.673 1.31-1.02 1.98-10.3 18.9-28.8 30-48.8 36.3-7.05 2.09-13.8 2.66-21.1 2.62-1.25 2.23e-4 -1.25 2.23e-4 -2.53 4.51e-4 -2.78-6.92e-4 -5.56-0.00852-8.34-0.0163-2-0.00192-4-0.00338-6-0.00443-4.3-0.00316-8.61-0.00942-12.9-0.0181-6.83-0.0136-13.7-0.0194-20.5-0.0241-15.8-0.012-31.5-0.034-47.3-0.0562-14.4-0.0203-28.8-0.0383-43.2-0.0482-5.66-0.00413-11.3-0.0104-17-0.0217-32.9-0.364-32.9-0.364-65.8 1.08-0.33 0.33-0.66 0.66-1 1-1.58 0.0981-3.16 0.126-4.75 0.127-1.03 0.00282-2.05 0.00564-3.11 0.00854-1.14-0.00202-2.27-0.00405-3.44-0.00613-1.19 0.00175-2.38 0.0035-3.6 0.00531-3.27 0.00366-6.54 0.00279-9.81-3.79e-4 -3.41-0.00252-6.83-1.86e-4 -10.2 0.00139-5.73 0.00182-11.5-5.84e-4 -17.2-0.00534-6.64-0.00544-13.3-0.00368-19.9 0.00183-5.69 0.00453-11.4 0.00518-17.1 0.00256-3.4-0.00156-6.8-0.00176-10.2 0.00154-3.79 0.00252-7.58-0.00131-11.4-0.0069-1.14 0.00202-2.27 0.00405-3.44 0.00613-1.03-0.00282-2.05-0.00564-3.11-0.00854-0.897-3.77e-4 -1.79-7.54e-4 -2.72-0.00114-2.03-0.126-2.03-0.126-3.03-1.13-3.11-0.0495-6.2-0.0412-9.31 0-8.4 0.0687-16.8-0.128-25.1-0.492-16.8-0.657-33.6-0.664-50.4-0.637-2.53 0.00382-5.06 0.00585-7.59 0.00747-20.7 0.0156-41.4 0.111-62.1 0.559-1.42 0.0293-1.42 0.0293-2.88 0.0593-2.61 0.056-5.21 0.119-7.82 0.187-1.11 0.0251-1.11 0.0251-2.25 0.0507-3.32 0.0981-6.3 0.415-9.5 1.27-1.72 0.0906-3.44 0.131-5.17 0.133-0.975 0.00129-1.95 0.00258-2.96 0.00391-1.01-0.00387-2.02-0.00773-3.06-0.0117-1.02 0.00387-2.05 0.00773-3.1 0.0117-0.971-0.00129-1.94-0.00258-2.94-0.00391-1.34-0.00169-1.34-0.00169-2.7-0.00342-2.07-0.129-2.07-0.129-3.07-1.13-0.927 0.0606-1.85 0.121-2.81 0.184-5.74 0.0687-10.9-2.18-16.3-4.12-1.12-0.408-2.23-0.815-3.38-1.23-18.5-7-35.2-19.1-44.2-37.1-6.36-14.1-8.49-27.5-8.53-42.9-0.00669-1.09-0.0134-2.17-0.0203-3.29-0.014-2.35-0.0259-4.7-0.0359-7.05-0.0166-3.76-0.0398-7.51-0.0649-11.3-0.0702-10.7-0.13-21.4-0.182-32-0.139-27.8-0.297-55.4-2.25-83.1-0.45-6.51-0.775-13-1.12-19.5-0.196-3.72-0.398-7.44-0.6-11.2-0.04-0.738-0.08-1.48-0.121-2.24-1.53-28.2-3.22-56.5-5.66-84.7-1.49-17.3-2.5-34.5-3.41-51.9-1.23-23.3-2.57-46.6-4.31-69.9-1.67-22.3-3.07-44.7-4.4-67-1.46-24.5-2.96-49-4.79-73.4-0.0817-1.1-0.163-2.19-0.247-3.32-0.317-4.25-0.635-8.51-0.954-12.8-0.814-10.9-1.57-21.8-2.3-32.7-0.0626-0.933-0.125-1.87-0.19-2.83-0.608-9.11-1.19-18.2-1.64-27.3-0.0347-0.705-0.0694-1.41-0.105-2.14-0.0347-0.706-0.0693-1.41-0.105-2.14-0.0705-1.43-0.141-2.87-0.212-4.3-0.0352-0.717-0.0703-1.43-0.107-2.17-0.727-14.5-1.92-28.9-3.12-43.4-0.112-1.35-0.223-2.7-0.335-4.05-0.0553-0.668-0.111-1.34-0.167-2.02-2.26-27.4-3.7-54.7-4.93-82.2-0.427-9.39-1.01-18.8-1.65-28.1-0.604-9.1-1.03-18.2-1.12-27.3-0.0176-0.974-0.0353-1.95-0.0535-2.95 0.00518-5.24 0.416-8.91 3.37-13.4 6.92-6.08 19.8-4.14 28.4-4.13z"/>
<path transform="translate(467 437)" d="m0 0c0.88-0.00261 1.76-0.00522 2.67-0.0079 1.46 0.00335 1.46 0.00335 2.95 0.00676 1.03-0.00156 2.06-0.00312 3.12-0.00473 3.47-0.00401 6.94-8.2e-4 10.4 0.00232 2.48-0.00135 4.96-0.00313 7.44-0.00531 6.05-0.0041 12.1-0.00348 18.2-5.87e-4 4.92 0.00226 9.85 0.00257 14.8 0.00148 1.05-2.3e-4 1.05-2.3e-4 2.12-4.64e-4 1.42-3.2e-4 2.85-6.44e-4 4.27-9.73e-4 13.4-0.00286 26.7 4.32e-4 40.1 0.0058 11.4 0.00446 22.9 0.0037 34.3-9.19e-4 13.3-0.00537 26.6-0.00745 39.9-0.00439 1.42 3.19e-4 2.84 6.33e-4 4.26 9.43e-4 0.699 1.54e-4 1.4 3.09e-4 2.12 4.68e-4 4.91 8.6e-4 9.81-5.86e-4 14.7-0.00295 6.63-0.00312 13.3-8.58e-4 19.9 0.00489 2.42 0.00132 4.85 9.55e-4 7.27-0.00126 11.2-0.00931 22.4-3.69e-4 33.6 0.912 3.59 0.279 7.11 0.287 10.7 0.22 2.04-0.0365 4.08-0.0485 6.12 0 1.92 1.92 1.17 4.79 1.19 7.34-0.013 11.3-0.408 22.5-1.02 33.7-0.0432 0.809-0.0863 1.62-0.131 2.45-1.02 19-2.3 38-3.58 57.1-1.79 26.4-3.57 52.8-4.89 79.3-1.36 27.1-3.3 54.2-5.19 81.2-0.0795 1.14-0.159 2.28-0.241 3.46-0.535 7.66-1.07 15.3-1.61 23-0.0702 0.998-0.14 2-0.213 3.02-0.0683 0.969-0.137 1.94-0.207 2.94-0.0661 0.939-0.132 1.88-0.2 2.85-0.128 1.8-0.257 3.6-0.389 5.4-0.276 3.77-0.54 7.54-0.726 11.3-0.0649 1.17-0.13 2.33-0.197 3.53-0.0444 0.975-0.0887 1.95-0.134 2.95-0.532 2.81-1.34 3.86-3.45 5.74-1.27 0.828-2.57 1.62-3.88 2.36-1.38 0.896-2.75 1.8-4.12 2.7-0.681 0.435-1.36 0.87-2.06 1.32-18.2 12.1-29.3 32.1-33.5 53.1-0.559 4.12-0.762 8.2-0.93 12.4-0.0406 0.945-0.0812 1.89-0.123 2.86-0.29 7.31-0.47 14.6-0.627 21.9-0.021 0.964-0.042 1.93-0.0636 2.92-0.106 4.91-0.204 9.81-0.294 14.7-0.037 1.83-0.0741 3.67-0.111 5.5-0.0135 0.852-0.0271 1.7-0.041 2.58-0.071 3.33-0.179 6.12-1.24 9.31-1.63 0.713-3.26 1.42-4.91 2.07-13.5 6.01-21.8 17.6-29.1 29.9-0.518 0.879-1.04 1.76-1.57 2.66-8.04 14.8-7.57 32-7.75 48.4-0.0206 1.62-0.0416 3.24-0.063 4.86-0.0547 4.23-0.104 8.46-0.153 12.7-0.0506 4.33-0.106 8.66-0.161 13-0.107 8.47-0.209 16.9-0.307 25.4-7.82 0.846-15.5 1.15-23.4 1.16-1.19 0.00496-2.38 0.00993-3.6 0.015-3.89 0.0145-7.78 0.0214-11.7 0.0269-1.35 0.00274-2.69 0.0056-4.04 0.00857-6.32 0.0136-12.6 0.0233-18.9 0.0272-7.28 0.0045-14.6 0.0222-21.8 0.051-5.64 0.0216-11.3 0.0317-16.9 0.033-3.36 0.00105-6.73 0.00698-10.1 0.0248-3.74 0.0169-7.48 0.0152-11.2 0.00869-1.67 0.0138-1.67 0.0138-3.38 0.0279-1.01-0.00557-2.03-0.0111-3.07-0.0169-0.884 0.00147-1.77 0.00293-2.68 0.00444-0.7-0.123-1.4-0.245-2.12-0.372-2.2-3.3-2.39-4.83-2.75-8.71-0.113-1.2-0.227-2.4-0.344-3.64-0.117-1.34-0.232-2.68-0.348-4.03-0.128-1.43-0.255-2.86-0.383-4.29-2.12-24.2-3.67-48.5-4.86-72.8-0.0564-1.15-0.113-2.29-0.171-3.48-0.057-1.16-0.114-2.32-0.173-3.51-0.117-2.38-0.234-4.75-0.352-7.13-0.0587-1.19-0.117-2.38-0.178-3.61-0.993-19.9-2.53-39.6-4.28-59.5-1.66-19-2.9-37.9-3.79-56.9-0.0587-1.24-0.117-2.48-0.178-3.76-0.0581-1.23-0.116-2.46-0.176-3.73-0.115-2.43-0.23-4.87-0.345-7.3-0.0837-1.77-0.0837-1.77-0.169-3.57-0.508-10.5-1.18-21-1.94-31.5-0.0611-0.844-0.122-1.69-0.185-2.56-0.254-3.5-0.508-7-0.764-10.5-0.882-12.1-1.68-24.2-2.49-36.3-0.0829-1.24-0.166-2.49-0.251-3.77-1.64-24.6-3.22-49.2-4.78-73.8-1.13-17.7-2.27-35.4-3.45-53.1-0.112-1.68-0.225-3.37-0.337-5.05-0.0552-0.828-0.11-1.66-0.167-2.51-0.22-3.3-0.441-6.61-0.661-9.91-0.108-1.63-0.217-3.25-0.325-4.88-1.36-20.4-2.63-40.8-3.55-61.3-0.405-8.89-1.06-17.7-1.99-26.6-0.962-9.77-0.799-19.6-0.613-29.4 2.31-1.15 3.6-1.13 6.17-1.13z" fill="#ACBC6D"/>
<path transform="translate(745 975)" d="m0 0c1.09-0.00261 2.18-0.00522 3.3-0.0079 1.2 0.00223 2.41 0.00446 3.65 0.00676 1.27-0.00156 2.54-0.00312 3.86-0.00473 3.54-0.00419 7.09-0.0021 10.6 9.86e-4 3.82 0.00225 7.63-0.00123 11.5-0.00398 7.48-0.00446 15-0.00348 22.4-5.87e-4 6.08 0.00225 12.2 0.00257 18.2 0.00148 0.864-1.53e-4 1.73-3.06e-4 2.62-4.64e-4 1.76-3.2e-4 3.51-6.44e-4 5.27-9.73e-4 16.5-0.00285 33 4.32e-4 49.4 0.0058 14.1 0.00447 28.3 0.00369 42.4-9.19e-4 16.4-0.00535 32.8-0.00746 49.2-0.00439 1.75 3.19e-4 3.5 6.33e-4 5.25 9.43e-4 1.29 2.31e-4 1.29 2.31e-4 2.61 4.68e-4 6.07 8.64e-4 12.1-5.95e-4 18.2-0.00295 7.4-0.0028 14.8-0.00205 22.2 0.00328 3.78 0.00263 7.56 0.00365 11.3 3.51e-4 4.09-0.00352 8.19 6.8e-4 12.3 0.00568 1.2-0.00223 2.4-0.00446 3.63-0.00676 1.64 0.00391 1.64 0.00391 3.32 0.0079 1.42 2.44e-4 1.42 2.44e-4 2.86 4.92e-4 2.64 0.126 5.04 0.587 7.62 1.13 2.73 0.0779 5.43 0.106 8.16 0.0818 1.21-0.0046 1.21-0.0046 2.45-0.00929 1.75-0.00713 3.49-0.0165 5.24-0.0279 2.76-0.0174 5.52-0.0277 8.28-0.0359 7.85-0.0244 15.7-0.0602 23.5-0.105 4.8-0.0267 9.61-0.0438 14.4-0.0549 1.83-0.00622 3.66-0.0162 5.5-0.0301 2.55-0.0191 5.11-0.0261 7.66-0.0303 0.761-0.00876 1.52-0.0175 2.31-0.0266 5.23 0.00983 5.23 0.00983 7.46 2.24 0.246 3.01 0.246 3.01 0.241 6.96 0.00256 1.09 0.00256 1.09 0.00518 2.2 0.00331 2.44-0.00773 4.88-0.0186 7.32-5.64e-4 1.74-2.48e-4 3.49 8.85e-4 5.23 5.76e-4 4.75-0.0112 9.49-0.0251 14.2-0.0125 4.96-0.0137 9.91-0.0161 14.9-0.00622 9.39-0.0226 18.8-0.0427 28.2-0.0223 10.7-0.0333 21.4-0.0434 32.1-0.0209 22-0.0561 44-0.101 66-38.8 0.207-77.7 0.394-116 0.562-0.727 0.00316-1.45 0.00633-2.2 0.00959-80.1 0.348-160 0.534-262 0.07-3.56-0.0171-7.12-0.0336-10.7-0.0497-14.5-0.0656-28.9-0.14-43.4-0.224-3.02-0.017-6.03-0.0324-9.05-0.0473-4.61-0.0232-9.23-0.0513-13.8-0.0836-1.67-0.0109-3.34-0.0202-5.01-0.0277-2.25-0.0104-4.51-0.0269-6.76-0.0451-1.88-0.0116-1.88-0.0116-3.8-0.0235-2.89-0.141-2.89-0.141-4.89-1.14-0.999-20.8-1.16-41.7-1.13-62.5 0.00402-2.63 0.00651-5.26 0.00867-7.89 0.0229-24.3 0.145-48.5 0.468-72.8 0.027-2.12 0.0507-4.24 0.0734-6.36 0.0427-3.9 0.102-7.8 0.165-11.7 0.0116-1.14 0.0231-2.29 0.035-3.47 0.0199-1.04 0.0397-2.09 0.0602-3.16 0.0133-0.902 0.0266-1.8 0.0404-2.73 0.295-2.54 0.995-4.21 2.28-6.4 0.898-0.0103 1.8-0.0206 2.72-0.0312 8.45-0.0979 16.9-0.2 25.3-0.308 4.34-0.0552 8.69-0.109 13-0.158 4.19-0.0476 8.38-0.1 12.6-0.156 1.6-0.0204 3.2-0.0391 4.8-0.0561 2.24-0.024 4.47-0.0541 6.71-0.0856 1.27-0.0155 2.55-0.0311 3.86-0.0471 3.6-0.191 6.36-1.28 10.1-1.28z" fill="#F5AD2C"/>
<path transform="translate(1014,710)" d="m0 0c5.21 1.7 9.46 4.8 13.9 7.88 0.842 0.579 1.68 1.16 2.55 1.75 7.62 5.32 14.7 11.1 21.5 17.4 0.963 0.88 1.93 1.76 2.92 2.67 19.5 18.6 31.9 42.6 39 68.3 0.216 0.769 0.432 1.54 0.654 2.33 0.194 0.746 0.388 1.49 0.588 2.26 0.171 0.647 0.343 1.29 0.519 1.96 0.354 2.44 0.399 4.7 0.387 7.17-0.00328 0.813-0.00656 1.63-0.00995 2.46-0.00633 0.931-0.00633 0.931-0.0128 1.88-23.8 1.24-47.6 1.15-71.5 1.13-5.72-0.00256-11.4-1.76e-4 -17.2 0.00139-9.58 0.00181-19.2-5.48e-4 -28.7-0.00534-11.1-0.00548-22.1-0.00365-33.2 0.00183-9.54 0.00453-19.1 0.00518-28.6 0.00256-5.69-0.00156-11.4-0.00177-17.1 0.00154-5.32 0.00288-10.6 9.06e-4 -16-0.00489-1.96-0.00133-3.91-9.35e-4 -5.87 0.00126-2.66 0.00271-5.32-6.72e-4 -7.97-0.00568-0.781 0.00223-1.56 0.00446-2.37 0.00676-5.32-0.0196-5.32-0.0196-7.55-1.13-2.84-0.157-5.66-0.258-8.51-0.316-0.841-0.0208-1.68-0.0416-2.55-0.063-2.69-0.0655-5.38-0.124-8.07-0.183-1.82-0.0432-3.64-0.0868-5.46-0.131-4.47-0.107-8.94-0.208-13.4-0.307v2c-8.32 0.0233-16.6 0.041-25 0.0518-3.86 0.0052-7.73 0.0122-11.6 0.0236-3.73 0.0109-7.47 0.0169-11.2 0.0194-1.42 0.00184-2.84 0.00542-4.26 0.0109-12.5 0.0459-12.5 0.0459-18.4-0.674-1.19-0.142-2.39-0.285-3.62-0.431l-1 1c-2.57 0.113-5.11 0.164-7.68 0.168-1.16 0.00499-1.16 0.00499-2.34 0.0101-1.63 0.00507-3.27 0.00741-4.9 0.00725-2.5 0.00219-5.01 0.0203-7.51 0.0393-1.58 0.00293-3.17 0.00492-4.75 0.00586-0.752 0.00719-1.5 0.0144-2.28 0.0218-5.31-0.0234-5.31-0.0234-7.54-2.25 1.33-13.1 11.8-23.4 21.1-31.9 1.92-1.52 3.86-2.84 5.94-4.13 1.03-0.645 2.05-1.29 3.11-1.95 11.3-6.89 22.8-10.9 35.9-13 4.52-0.721 8.69-1.68 12.9-3.38 13.9-4.39 31.2-2.83 45.6-3.09 3.07-0.0575 6.14-0.124 9.2-0.192 16.9-0.378 16.9-0.378 24.3-0.403 24.3-0.256 49.8-5.73 73-13 0.801-0.247 1.6-0.494 2.43-0.748 11.6-3.64 22.2-8.25 32.8-14.2 1.58-0.882 3.2-1.71 4.81-2.53 10.9-5.52 20.7-13.5 29-22.5 1.33-1.33 2.67-2.67 4-4z" fill="#F5E8D3"/>
<path transform="translate(521 468)" d="m0 0c0.728-0.00156 1.46-0.00312 2.21-0.00473 2.42-0.00397 4.85-8.37e-4 7.27 0.00232 1.75-0.00136 3.49-0.00314 5.24-0.00531 4.73-0.00455 9.46-0.00279 14.2 3.79e-4 4.96 0.00254 9.92 1.82e-4 14.9-0.00139 8.33-0.00182 16.7 5.76e-4 25 0.00534 9.61 0.00543 19.2 0.00369 28.8-0.00183 8.27-0.00455 16.5-0.00517 24.8-0.00256 4.93 0.00155 9.86 0.00178 14.8-0.00154 4.64-0.00291 9.29-8.52e-4 13.9 0.00489 1.7 0.00131 3.39 9.59e-4 5.09-0.00126 25.9-0.0308 25.9-0.0308 28.8 2.63 3.93 5.94 3.54 13.8 3.53 20.7 0.00336 0.785 0.00672 1.57 0.0102 2.38 0.00945 2.58 0.0115 5.16 0.0125 7.74 0.00322 1.81 0.00658 3.63 0.0101 5.44 0.00598 3.8 0.00784 7.6 0.00725 11.4-1.01e-4 4.82 0.0135 9.65 0.0308 14.5 0.0112 3.75 0.0131 7.49 0.0126 11.2 0.00117 1.78 0.00551 3.55 0.0133 5.33 0.0343 8.61-0.0714 17.2-0.944 25.8-0.188 1.88-0.188 1.88-0.38 3.79-1.13 4.08-2.59 5.72-5.92 8.3-3.67 0.997-7.14 1.12-10.9 1.11-1.78-1.06e-4 -1.78-1.06e-4 -3.6-2.14e-4 -1.29-0.00517-2.59-0.0103-3.92-0.0157-1.38-0.00192-2.77-0.00338-4.15-0.00443-2.98-0.00316-5.95-0.00942-8.93-0.0181-4.71-0.0136-9.42-0.0194-14.1-0.0241-10.9-0.012-21.7-0.034-32.6-0.0562-9.94-0.0202-19.9-0.0383-29.8-0.0482-4.68-0.00496-9.35-0.0148-14-0.0284-2.92-0.00751-5.84-0.0108-8.76-0.013-1.98-0.00274-3.97-0.0105-5.95-0.0185-6.12-3.59e-4 -12.1 0.166-18.2 0.894-2.68 0.293-5.3 0.253-8 0.133-1.55-0.0644-1.55-0.0644-3.12-0.13-1.06-0.0524-2.11-0.105-3.2-0.159-1.1-0.0518-2.2-0.104-3.33-0.157-2.16-0.104-4.31-0.212-6.47-0.324-2.42-0.121-4.84-0.216-7.27-0.296-1.13-0.0529-2.27-0.106-3.44-0.16-0.935-0.0374-1.87-0.0748-2.83-0.113-3.1-0.755-4.34-2.15-6.36-4.57-3.35-6.53-3.15-13.9-3.16-21.1-0.00496-0.886-0.00993-1.77-0.015-2.68-0.0145-2.91-0.0214-5.82-0.0269-8.73-0.00576-2.03-0.0115-4.07-0.0173-6.1-0.0105-4.26-0.0163-8.51-0.0198-12.8-0.00549-5.44-0.0295-10.9-0.058-16.3-0.0187-4.2-0.0238-8.4-0.0254-12.6-0.00302-2.01-0.011-4.01-0.0242-6.02-0.0171-2.81-0.0152-5.62-0.00869-8.43-0.00921-0.821-0.0184-1.64-0.0279-2.49 0.0399-5.55 1.02-9.71 3.38-14.8 5.3-3.53 11.3-3.13 17.6-3.13z"/>
<path transform="translate(975,1016)" d="m0 0c1 0.4 2.01 0.799 3.04 1.21 2.71 1.17 5.33 2.45 7.96 3.79 1.18 0.55 2.36 1.1 3.57 1.67 14.7 7.09 25.5 17.7 31.5 33.2 3.06 9.68 1.82 17.5-2.61 26.6-2.36 4.04-5.24 7.28-8.52 10.6-0.783 0.874-0.783 0.874-1.58 1.77-22.1 23.9-59.9 27.6-90.4 29.2-41.8 1.4-89.3-1.01-122-30.8-7-7.21-12.3-15.8-13.2-26 0.358-13.4 8.96-24.2 18.1-33.2 19.1-17.3 45.1-23.4 70-27 0.699-0.104 1.4-0.209 2.12-0.316 32.6-4.69 71-3.22 102 9.32z"/>
<path transform="translate(674 1184)" d="m0 0c1.12 0.00745 1.12 0.00745 2.26 0.0151 1.19-0.00391 1.19-0.00391 2.4-0.0079 2.68-0.00635 5.36 0.00169 8.05 0.00955 1.93-0.00159 3.86-0.00405 5.79-0.00732 5.33-0.00644 10.7-3.23e-4 16 0.00776 5.74 0.00656 11.5 0.00163 17.2-0.00188 11.2-0.00505 22.5 6.12e-4 33.7 0.00985 13.1 0.0104 26.2 0.0103 39.3 0.00983 24-5.16e-4 48.1 0.00953 72.1 0.0245 22 0.0136 43.9 0.0199 65.9 0.0192 1.41-4.04e-5 2.82-8.08e-5 4.23-1.21e-4 0.697-2.04e-5 1.39-4.07e-5 2.11-6.17e-5 3.51-1.01e-4 7.02-1.91e-4 10.5-2.7e-4 0.692-1.67e-5 1.38-3.34e-5 2.1-5.06e-5 22.3-4.43e-4 44.5 0.00667 66.8 0.0144 9.13 0.00302 18.3 0.00408 27.4 0.00453 11.1 6.81e-4 22.2 0.00513 33.4 0.0143 5.68 0.00463 11.4 0.00766 17 0.00641 5.19-0.00109 10.4 0.00239 15.6 0.00965 1.89 0.00182 3.77 0.00193 5.66 2.33e-4 2.55-0.00205 5.1 0.00197 7.64 0.00761 0.745-0.00206 1.49-0.00411 2.26-0.00623 5.06 0.0207 5.06 0.0207 7.29 1.13-0.455 5.25-2.4 8.77-5.44 12.9-0.444 0.614-0.888 1.23-1.34 1.86-6.07 8.05-13.4 13.1-23.4 14.7-3.69 0.46-7.22 0.601-10.9 0.609-0.69 0.00295-1.38 0.0059-2.09 0.00894-2.31 0.00864-4.61 0.0103-6.92 0.0119-1.67 0.00473-3.34 0.00989-5.02 0.0154-4.59 0.0139-9.18 0.0215-13.8 0.028-3.94 0.00638-7.88 0.0165-11.8 0.0266-13 0.0333-25.9 0.0548-38.9 0.0732-3.38 0.0048-6.75 0.00978-10.1 0.0148-21 0.031-42 0.0576-62.9 0.0744-4.86 0.00395-9.71 0.00795-14.6 0.012-1.81 0.00151-1.81 0.00151-3.66 0.00306-19.6 0.017-39.1 0.0581-58.7 0.109-20.1 0.0518-40.2 0.0809-60.3 0.0881-11.3 0.00466-22.6 0.0194-33.8 0.0597-9.6 0.0343-19.2 0.0482-28.8 0.0356-4.9-0.00582-9.79-0.00199-14.7 0.0282-4.49 0.0274-8.97 0.0268-13.5 0.00449-1.62-0.00322-3.24 0.0036-4.86 0.0218-15.5 0.163-26.3-5.12-37.4-15.8-3.95-4.37-6.97-8.44-9-14 2.48-2.48 3.91-2.24 7.29-2.26z" fill="#CD9022"/>
<path transform="translate(731 915)" d="m0 0c1.61 1.14e-4 3.23-2.01e-4 4.84-9.05e-4 4.4-6.04e-4 8.8 0.00512 13.2 0.012 4.76 0.0064 9.52 0.00699 14.3 0.00852 11.5 0.00507 22.9 0.0201 34.4 0.0369 4.32 0.00623 8.65 0.0119 13 0.0176 19.1 0.0254 38.2 0.0542 57.2 0.0917 4.66 0.0091 9.32 0.0182 14 0.0272 1.16 0.00224 2.32 0.00449 3.51 0.0068 18.8 0.0358 37.5 0.0511 56.3 0.058 19.3 0.0074 38.6 0.0336 57.9 0.0779 10.8 0.0244 21.7 0.0406 32.5 0.0357 9.21-0.00412 18.4 0.00873 27.6 0.0436 4.7 0.0172 9.39 0.0265 14.1 0.014 4.31-0.0113 8.61 6.65e-4 12.9 0.0305 1.55 0.00676 3.1 0.00528 4.65-0.0057 12.9-0.0835 25 1.95 35.1 10.6 5.54 5.71 12 12.9 12 21.1-36.4 0.0229-72.9 0.0405-109 0.0511-4.3 0.00125-8.6 0.00255-12.9 0.00387-0.856 2.62e-4 -1.71 5.25e-4 -2.6 7.95e-4 -13.9 0.00435-27.7 0.0122-41.6 0.0214-14.2 0.00935-28.5 0.0149-42.7 0.0169-8.78 0.00137-17.6 0.00571-26.3 0.0138-6.02 0.00528-12 0.00688-18.1 0.00558-3.47-6.41e-4 -6.95 3.44e-4 -10.4 0.0057-3.77 0.00497-7.54 0.00378-11.3 0.00105-1.64 0.00437-1.64 0.00437-3.32 0.00883-5.26-0.0103-10.2-0.265-15.4-1.13-2.56-0.0741-5.13-0.0978-7.69-0.0818-0.734 0.00307-1.47 0.00613-2.23 0.00929-1.58 0.00711-3.16 0.0165-4.75 0.0279-2.51 0.0175-5.01 0.0277-7.52 0.0359-7.12 0.0244-14.2 0.0601-21.4 0.105-4.37 0.0268-8.73 0.0438-13.1 0.0549-1.66 0.0062-3.32 0.0162-4.98 0.0301-2.32 0.0192-4.64 0.0261-6.96 0.0303-1.32 0.00746-2.64 0.0149-3.99 0.0226-3.28-0.223-5.5-0.81-8.44-2.23v2c-17.4 0.126-34.7-0.0948-52-1v2h-44c-0.33-0.66-0.66-1.32-1-2 6.91-14.3 16.8-21.7 31-28 10.3-3.42 22.7-2.14 33.4-2.12z" fill="#CD9022"/>
<path transform="translate(759 856)" d="m0 0c3.79 0.00257 7.58 1.73e-4 11.4-0.00139 6.36-0.00181 12.7 5.46e-4 19.1 0.00534 7.3 0.00544 14.6 0.00367 21.9-0.00183 6.33-0.00457 12.7-0.00516 19-0.00256 3.75 0.00154 7.51 0.00181 11.3-0.00154 27.3-0.0211 27.3-0.0211 40.4 0.912 5.66 0.362 11.3 0.349 17 0.322 1.17-0.00141 2.35-0.00283 3.56-0.00429 3.68-0.00551 7.35-0.018 11-0.0309 2.52-0.00503 5.05-0.00959 7.57-0.0137 6.12-0.0109 12.2-0.0275 18.4-0.0488v2c0.805-0.0303 1.61-0.0606 2.44-0.0918 24.9-0.905 49.7-1.02 74.6-0.908 0.33-0.66 0.66-1.32 1-2 15.2-0.0541 30.4 0.0589 45.5 0.262 2.72 0.0355 5.44 0.0629 8.15 0.084 3.96 0.0308 7.92 0.0855 11.9 0.142 1.22 0.00639 2.44 0.0128 3.7 0.0194 1.68 0.0297 1.68 0.0297 3.39 0.06 0.986 0.0111 1.97 0.0222 2.99 0.0336 0.776 0.132 1.55 0.263 2.35 0.399 2.33 3.49 2.24 4.86 2.2 8.98-0.00645 1.16-0.0129 2.33-0.0195 3.53-0.0168 1.21-0.0335 2.43-0.0508 3.68-0.00902 1.23-0.018 2.45-0.0273 3.72-0.0236 3.03-0.0565 6.06-0.0977 9.1-3.42 1.71-7.34 1.18-11.1 1.21-1.45 0.0148-1.45 0.0148-2.92 0.03-3.29 0.0322-6.59 0.0568-9.88 0.0811-2.4 0.0209-4.81 0.0419-7.21 0.0632-7.42 0.0633-14.8 0.116-22.2 0.168-2.84 0.02-5.69 0.0412-8.53 0.0623-57.7 0.428-115 0.499-173 0.512-7.02 0.00164-14 0.00459-21.1 0.0087-12.4 0.00722-24.7 0.00845-37.1 0.00357-4.14-0.00149-8.29-8.94e-4 -12.4 0.00176-27.1 0.0154-54.2-0.361-81.3-1.14-1.77-3.31-2.26-5.54-2.27-9.32-0.00387-1.52-0.00387-1.52-0.00781-3.06 0.00773-1.05 0.0155-2.1 0.0234-3.18-0.00773-1.05-0.0155-2.11-0.0234-3.19 0.00258-1.01 0.00516-2.02 0.00781-3.06 0.00226-0.922 0.00451-1.84 0.00684-2.8 0.259-2.39 0.259-2.39 2.26-5.39 2.62-0.41 5.01-0.604 7.65-0.679 1.24-0.0496 1.24-0.0496 2.51-0.1 12.8-0.442 25.5-0.366 38.3-0.355z" fill="#EEAA2C"/>
<path transform="translate(535 497)" d="m0 0c1.07 0.00184 2.15 0.00369 3.26 0.00559 1.23-0.00275 2.46-0.0055 3.73-0.00833 1.37 0.00708 2.74 0.0143 4.12 0.0218 1.44 5.64e-4 2.88 2.48e-4 4.32-8.85e-4 3.91-5.75e-4 7.83 0.0112 11.7 0.0251 4.09 0.0125 8.17 0.0137 12.3 0.0161 7.74 0.00622 15.5 0.0226 23.2 0.0427 8.81 0.0223 17.6 0.0333 26.4 0.0434 18.1 0.0209 36.3 0.0561 54.4 0.101 1.33 2.66 1.12 4.67 1.11 7.64-7.55e-5 1.18-1.51e-4 2.36-2.29e-4 3.58-0.00516 1.28-0.0103 2.56-0.0156 3.88-0.00212 1.96-0.00212 1.96-0.00429 3.96-0.00382 3.48-0.0136 6.95-0.0247 10.4-0.0102 3.55-0.0148 7.09-0.0198 10.6-0.0107 6.96-0.0278 13.9-0.0488 20.9-19.3 0.0233-38.6 0.041-57.8 0.0518-8.95 0.00516-17.9 0.0122-26.9 0.0236-7.8 0.00995-15.6 0.0164-23.4 0.0186-4.13 0.00131-8.26 0.00439-12.4 0.0116-3.88 0.00676-7.77 0.00889-11.7 0.00738-1.43 2.76e-4 -2.86 0.00228-4.29 0.0061-1.94 0.00494-3.89 0.00319-5.83 0.00105-1.09 9.22e-4 -2.18 0.00184-3.3 0.00279-2.43-0.123-2.43-0.123-3.43-1.12-0.104-1.8-0.139-3.6-0.145-5.41-0.00638-1.15-0.0128-2.31-0.0193-3.5-0.00111-1.26-0.00223-2.51-0.00337-3.81-0.00333-1.28-0.00666-2.56-0.0101-3.88-6e-3 -2.72-0.00784-5.43-0.00725-8.15 1.02e-4 -3.49-0.0135-6.97-0.0308-10.5-0.0138-3.32-0.0132-6.63-0.0144-9.95-0.00719-1.26-0.0144-2.51-0.0218-3.8 0.00308-1.16 0.00615-2.32 0.00932-3.51-0.00143-1.02-0.00285-2.05-0.00432-3.1 0.353-3.48 1.31-4.34 4.77-4.68z" fill="#F6E9D4"/>
<path transform="translate(713,1087)" d="m0 0c5.45-0.0969 10.6-0.129 16 1v2h3v6h9v2h2v2c6.93 0.495 6.93 0.495 14 1v2c1.42-0.0309 1.42-0.0309 2.88-0.0625 3.12 0.0625 3.12 0.0625 5.12 1.06v2c1.14-0.0348 1.14-0.0348 2.3-0.0703 0.994-0.018 1.99-0.0361 3.01-0.0547 0.986-0.0232 1.97-0.0464 2.99-0.0703 2.7 0.195 2.7 0.195 5.7 2.2 1.99 0.702 3.99 1.37 6 2v6h2c0.495 3.96 0.495 3.96 1 8 0.784-0.186 1.57-0.371 2.38-0.562 2.62-0.438 2.62-0.438 4.62 0.562v3h2v-9h7v-7h3v-2c1.32-0.66 2.64-1.32 4-2v-2h-2c0.33-0.66 0.66-1.32 1-2 1.06 0.543 2.12 1.09 3.22 1.64 1.43 0.723 2.85 1.45 4.28 2.17 0.696 0.356 1.39 0.713 2.11 1.08 21.6 10.9 46.5 14.5 70.4 15.1 1 0.0272 2 0.0545 3.03 0.0825 28 0.665 57.3-0.696 84-10.1 2.97 2.62 2.97 2.62 3.25 6.06-0.25 2.94-0.25 2.94-1.25 4.94h2c0.33-2.64 0.66-5.28 1-8h3c-0.0619 1.07-0.124 2.14-0.188 3.25 0.193 3.86 0.584 5.04 3.19 7.75h-3c0.66 0.66 1.32 1.32 2 2h1v5c-0.66 0.33-1.32 0.66-2 1-1.13 2.02-1.13 2.02-2 4h-2c0.33 1.65 0.66 3.3 1 5 1.08-0.464 1.08-0.464 2.19-0.938 2.62-0.988 5.06-1.59 7.81-2.06v2c1.48-0.495 1.48-0.495 3-1 0.33 3.3 0.66 6.6 1 10 2.31 0.66 4.62 1.32 7 2v1c-18.6 0.205-37.1 0.391-55.7 0.562-0.689 0.00638-1.38 0.0128-2.09 0.0193-38.1 0.352-76.2 0.517-114-0.0193-0.912-0.0128-1.82-0.0256-2.76-0.0388-10.7-0.152-21.4-0.325-32.1-0.524v-1c14.4-0.99 14.4-0.99 29-2-0.66-0.33-1.32-0.66-2-1 0.33-0.99 0.66-1.98 1-3-0.66-0.33-1.32-0.66-2-1v-3c-1.65-0.33-3.3-0.66-5-1v-2c-0.557-0.103-1.11-0.206-1.69-0.312-2.31-0.688-2.31-0.688-4.5-2.25-3.94-2.02-7.47-1.69-11.8-1.44 1.13 0.268 2.27 0.536 3.44 0.812 1.18 0.392 2.35 0.784 3.56 1.19 0.33 0.99 0.66 1.98 1 3-2.64-0.33-5.28-0.66-8-1v-2h-2v-2c-0.736 0.0116-1.47 0.0232-2.23 0.0352-0.976 0.00902-1.95 0.018-2.96 0.0273-1.44 0.0174-1.44 0.0174-2.92 0.0352-2.89-0.0977-2.89-0.0977-5.36-0.602-3.01-0.589-5.78-0.555-8.84-0.496-5.02 0.0456-9.74-0.223-14.7-1 3-2 3-2 5.19-1.62 0.598 0.206 1.2 0.412 1.81 0.625v-4c-1.07 0.0206-2.14 0.0412-3.25 0.0625-2.9-0.0483-5.04-0.194-7.75-1.06v-2c-1.32-0.33-2.64-0.66-4-1v-2c-2.64 0.33-5.28 0.66-8 1v3c0.99 0.33 1.98 0.66 3 1-3.69 2.46-6.78 2.48-11.1 2.69-1.1 0.0706-1.1 0.0706-2.22 0.143-5.45 0.305-5.45 0.305-7.72-0.83 0.058-0.687 0.116-1.37 0.176-2.08 0.136-2.72 0.195-5.22-0.176-7.92-2.37-2.01-2.37-2.01-5-3v-3h-3v-2c-1.98-0.66-3.96-1.32-6-2v-3h-2v-2h-6v-2h-2v-2c-0.66-0.33-1.32-0.66-2-1h15v3c2.97 0.33 5.94 0.66 9 1v-4c-0.66-0.33-1.32-0.66-2-1h2v-4h-2v-4c-1.28-0.144-2.56-0.289-3.88-0.438-2.38-0.269-3.97-0.485-6.12-1.56v-3z" fill="#EFAB2C"/>
<path transform="translate(464 378)" d="m0 0c1.03-0.00597 2.05-0.0119 3.11-0.0181 1.13 0.00874 2.26 0.0175 3.43 0.0265 1.2-0.00256 2.4-0.00513 3.63-0.00777 3.33-0.0041 6.67 0.00531 10 0.0203 3.59 0.0129 7.19 0.00857 10.8 0.00629 6.23-0.00157 12.5 0.00786 18.7 0.0247 9 0.0244 18 0.0322 27 0.036 14.6 0.00657 29.2 0.0265 43.8 0.0549 14.2 0.0275 28.4 0.0488 42.6 0.0615 1.31 0.00118 1.31 0.00118 2.65 0.00239 4.39 0.00392 8.77 0.00771 13.2 0.0114 36.4 0.0311 72.8 0.084 109 0.151 1.25 2.5 1.04 4.04 0.914 6.83-0.0657 1.45-0.0657 1.45-0.133 2.92-0.0516 1.01-0.103 2.02-0.156 3.06-0.0657 1.5-0.0657 1.5-0.133 3.03-0.216 4.5-0.574 8.74-1.49 13.2-70.1 0.664-140 1.12-210 1.18-6.04 0.00537-12.1 0.0159-18.1 0.0286-7.4 0.0154-14.8 0.0233-22.2 0.0216-3.8-7.4e-4 -7.59 0.00157-11.4 0.0122-4.13 0.0114-8.27 0.00703-12.4 0.00103-1.21 0.00562-2.42 0.0112-3.67 0.017-1.11-0.0042-2.22-0.00839-3.37-0.0127-0.957 5.45e-4 -1.91 0.00109-2.9 0.00165-3.19-0.286-5.81-1.04-8.77-2.25-2.01-4.01-1.53-9.02-1.75-13.4-0.0683-1.06-0.137-2.13-0.207-3.22-0.0503-1.02-0.101-2.04-0.152-3.09-0.0512-0.935-0.102-1.87-0.155-2.83 0.265-2.42 0.265-2.42 1.47-4.05 2.37-1.81 3.77-1.74 6.74-1.74z" fill="#F6E9D4"/>
<path transform="translate(963,1043)" d="m0 0c1.05 0.423 2.11 0.846 3.2 1.28 2.94 1.22 5.87 2.47 8.8 3.72 1.58 0.65 1.58 0.65 3.19 1.31 5.37 3.22 10.3 7.46 13.8 12.7 0.502 3.26 0.652 5.73-0.887 8.73-12.2 16-36.7 20.2-55.2 22.9-11.3 1.38-22.7 1.57-34.1 1.55-0.719-0.00127-1.44-0.00254-2.18-0.00385-28-0.0938-59.3-3.38-81.6-22.1-3.04-3.08-3.86-4.7-4.02-9.05 5.16-11.8 19.9-16.7 31-21.2 32.7-11.9 85.8-12.8 118 0.223z" fill="#F6E9D4"/>
<path transform="translate(510 1064)" d="m0 0c1.43-0.00423 1.43-0.00423 2.9-0.00854 1.04 0.00202 2.08 0.00405 3.16 0.00613 1.1-0.00175 2.21-0.0035 3.34-0.00531 3.65-0.00441 7.31-0.00148 11 0.00189 2.54-6.74e-4 5.09-0.00164 7.63-0.0029 5.34-0.00148 10.7 5.77e-4 16 0.00534 6.15 0.00542 12.3 0.0037 18.4-0.00183 5.93-0.00512 11.9-0.00453 17.8-0.00162 2.51 6.64e-4 5.03-1.41e-4 7.54-0.00248 3.53-0.00256 7.06 0.00136 10.6 0.0069 1.03-0.00202 2.05-0.00405 3.11-0.00613 5.13 0.0148 10.2 0.152 15.4 0.456 0.984 0.0568 1.97 0.114 2.98 0.172 2.4 0.507 2.4 0.507 4.4 3.51 0.227 2.82 0.227 2.82 0.195 6.2-0.00967 1.81-0.00967 1.81-0.0195 3.66-0.0251 1.89-0.0251 1.89-0.0508 3.83-0.00902 1.27-0.018 2.55-0.0273 3.86-0.0236 3.15-0.0565 6.3-0.0977 9.45-0.642 0.00365-1.28 0.00729-1.94 0.011-6.72 0.042-13.4 0.111-20.1 0.196-2.5 0.0281-5 0.0494-7.51 0.0635-3.61 0.0216-7.22 0.0683-10.8 0.12-1.11 0.00123-2.22 0.00246-3.36 0.00372-12.4 0.231-22.2 5.03-31.2 13.5-9.45 10.1-12.1 21.7-13.1 35.1-0.0864 1.07-0.173 2.13-0.262 3.23-0.211 2.61-0.415 5.22-0.613 7.83-6.25 0.0253-12.5 0.0428-18.7 0.0549-2.13 0.00504-4.25 0.0119-6.38 0.0205-3.05 0.0121-6.1 0.0178-9.15 0.0222-1.44 0.00774-1.44 0.00774-2.9 0.0156-0.881 7.55e-5 -1.76 1.51e-4 -2.67 2.29e-4 -0.779 0.00222-1.56 0.00444-2.36 0.00673-1.79-0.12-1.79-0.12-2.79-1.12-0.1-2.7-0.136-5.37-0.129-8.07-0.00175-0.845-0.0035-1.69-0.00531-2.56-0.00442-2.81-0.00148-5.62 0.00189-8.43-6.73e-4 -1.94-0.00164-3.89-0.0029-5.83-0.00148-4.08 6.78e-4 -8.16 0.00534-12.2 0.00569-5.24 0.00242-10.5-0.00357-15.7-0.00361-4.02-0.00247-8.03 1.28e-4 -12.1 6.69e-4 -1.93-1.57e-4 -3.87-0.00248-5.8-0.00253-2.7 0.00132-5.4 0.0069-8.1-0.00202-0.805-0.00405-1.61-0.00613-2.44 0.0213-5.53 0.0213-5.53 1.14-7.76 2.93-1.02 5.68-1.13 8.77-1.13z" fill="#F6E9D4"/>
<path transform="translate(551 615)" d="m0 0c0.988-0.00426 1.98-0.00853 2.99-0.0129 1.08 4.53e-4 2.16 9.06e-4 3.27 0.00137 1.14-0.00336 2.28-0.00672 3.46-0.0102 3.78-0.00951 7.55-0.0115 11.3-0.0125 2.62-0.00321 5.25-0.00658 7.87-0.0101 5.5-0.00639 11-0.00788 16.5-0.00725 6.35 6e-4 12.7-0.00994 19-0.0257 6.12-0.0147 12.2-0.0182 18.4-0.0176 2.6-0.00118 5.2-0.0056 7.79-0.0133 3.64-0.0098 7.27-0.00692 10.9-8.95e-4 1.07-0.00562 2.14-0.0112 3.25-0.017 12.6 0.0529 12.6 0.0529 17.2 3.81 4.06 5.16 6.33 8.64 6.01 15.4-0.639 5.17-2.2 7.5-5.94 11.1-4.28 2.86-8.05 3.12-13.1 3.13-1.01 0.00426-2.02 0.00853-3.05 0.0129-1.64-6.8e-4 -1.64-6.8e-4 -3.32-0.00137-1.16 0.00336-2.32 0.00672-3.52 0.0102-3.84 0.0095-7.68 0.0115-11.5 0.0125-1.99 0.0024-3.99 0.0048-5.98 0.00746-6.27 0.00813-12.5 0.0106-18.8 0.00987-6.46-6.01e-4 -12.9 0.00996-19.4 0.0257-5.55 0.0131-11.1 0.0184-16.7 0.0178-3.31-2.55e-4 -6.63 0.0035-9.94 0.0132-3.7 0.00979-7.39 0.00693-11.1 8.95e-4 -1.09 0.00562-2.19 0.0112-3.31 0.017-8.02-0.0333-13.9-1.11-20.3-6.26-2.92-4.38-3.79-7.79-3-13 2.86-5.8 6.27-10 12-13 3.02-0.945 5.76-1.13 8.91-1.13z"/>
<path transform="translate(506,1184)" d="m0 0h129c2.18 4.36 3.88 8.25 5.44 12.8 1.73 4.97 3.6 9.77 5.86 14.5 0.699 1.67 0.699 1.67 0.699 3.67-14 0.0468-28.1 0.0819-42.1 0.104-6.52 0.0104-13 0.0245-19.6 0.0473-6.3 0.0218-12.6 0.0337-18.9 0.0389-2.4 0.00369-4.8 0.0109-7.19 0.0217-3.37 0.0146-6.73 0.0165-10.1 0.0156-0.983 0.00719-1.97 0.0144-2.98 0.0218-13.5-0.04-21.9-3.17-31.7-12.8-4.15-4.46-8.07-8.85-10.4-14.5 0.66-1.32 1.32-2.64 2-4z" fill="#A5B365"/>
<path transform="translate(492 437)" d="m0 0c0.951-0.00156 1.9-0.00312 2.88-0.00473 3.2-4e-3 6.4-8.23e-4 9.6 0.00232 2.29-0.00135 4.58-0.00313 6.87-0.00531 6.23-0.00457 12.5-0.00279 18.7 3.79e-4 6.52 0.00253 13 1.85e-4 19.6-0.00139 11.7-0.00194 23.3 0.00118 35 0.00626 10.6 0.00446 21.1 0.0037 31.7-9.19e-4 12.3-0.00536 24.5-0.00734 36.8-0.00439 6.49 0.00156 13 0.00177 19.5-0.00154 6.11-0.0029 12.2-8.72e-4 18.3 0.00489 2.24 0.00132 4.48 9.48e-4 6.72-0.00126 3.06-0.00275 6.13 7.12e-4 9.19 0.00568 0.879-0.00223 1.76-0.00446 2.66-0.00676 5.85 0.0183 11.6 0.455 17.4 1.13 0.33 0.99 0.66 1.98 1 3-1.32 0.66-2.64 1.32-4 2 0.227 0.598 0.454 1.2 0.688 1.81 0.155 1.08 0.155 1.08 0.312 2.19-0.454 0.443-0.908 0.887-1.38 1.34-1.97 2.01-2.5 3.67-3.31 6.34-0.251 0.808-0.503 1.62-0.762 2.45-0.182 0.615-0.364 1.23-0.551 1.86h-2v3c-0.744-0.0606-1.49-0.121-2.25-0.184-8.94-0.686-17.9-1.11-26.8-1.42-0.951-0.0368-1.9-0.0736-2.88-0.112-0.848-0.0303-1.7-0.0606-2.57-0.0918-2.55-0.197-4.95-0.676-7.46-1.19-3.46-0.217-6.92-0.391-10.4-0.518-5.4-0.266-5.4-0.266-7.62-2.48 3.7-1.23 6.55-0.607 10.3-0.0625 13.5 1.76 27.1 1.24 40.7 1.06-0.786-0.0198-1.57-0.0396-2.38-0.0601-3.58-0.0956-7.16-0.205-10.7-0.315-1.24-0.0309-2.48-0.0619-3.75-0.0938-1.2-0.0387-2.4-0.0773-3.63-0.117-1.1-0.0314-2.2-0.0628-3.33-0.0952-3.31-0.334-6.03-1.22-9.16-2.32-2.07-0.35-2.07-0.35-4.04-0.414-0.735-0.0388-1.47-0.0777-2.23-0.118-0.779-0.0308-1.56-0.0616-2.36-0.0933-0.829-0.0372-1.66-0.0744-2.51-0.113-12-0.488-23.9-0.54-35.8 0.2-8.25 0.505-16 0.433-24.2-0.623-15.6-2.01-31.2-1.92-47-1.46-1.14 0.0319-1.14 0.0319-2.3 0.0644-2.17 0.0635-4.35 0.135-6.52 0.209-1.26 0.043-2.53 0.086-3.83 0.13-2.61 0.179-4.72 0.575-7.23 1.22-1.64 0.068-3.28 0.085-4.91 0.0625-0.926-0.00773-1.85-0.0155-2.8-0.0234-0.959-0.0129-1.92-0.0258-2.91-0.0391-1.91-0.0255-3.82-0.0465-5.73-0.0625-0.844-0.0116-1.69-0.0232-2.56-0.0352-2.15-0.041-2.15-0.041-4.09 1.1-5.93-0.724-12.7-1.66-17-6-0.99-0.66-1.98-1.32-3-2h3v-2c-1.23-0.182-1.23-0.182-2.48-0.367-1.62-0.251-1.62-0.251-3.27-0.508-1.07-0.162-2.13-0.325-3.23-0.492-2.72-0.57-4.68-1.16-7.02-2.63-0.33-0.66-0.66-1.32-1-2 4.05-1.35 7.96-1.14 12.2-1.13z" fill="#A5B365"/>
<path transform="translate(1120,1088)" d="m0 0c2.03 3.73 3 5.67 3 10 0.33-0.66 0.66-1.32 1-2h2c-0.0348 0.857-0.0696 1.71-0.105 2.6-0.159 6.71-4.76e-4 11.4 3.11 17.4v3c1.65-0.33 3.3-0.66 5-1v18c0.959-3.84 1.1-6.82 1.06-10.8-0.00902-1.17-0.018-2.34-0.0273-3.55-0.0116-0.892-0.0232-1.78-0.0352-2.7h2c0.0581 3.58 0.0936 7.17 0.125 10.8 0.0168 1.02 0.0335 2.03 0.0508 3.08 0.00645 0.98 0.0129 1.96 0.0195 2.97 0.0105 0.901 0.0209 1.8 0.0317 2.73-0.358 3.9-2.08 6.25-4.23 9.47-0.385 1.66-0.728 3.32-1 5h2v2h-7c0.309-0.536 0.619-1.07 0.938-1.62 1.21-2.43 1.21-2.43 1.56-5.5 0.5-2.88 0.5-2.88 2.5-4.88h-2v-5h-2c0.33 0.99 0.66 1.98 1 3-1.65 0.99-3.3 1.98-5 3v-5c-1.48 0.495-1.48 0.495-3 1-8.89 0.734-18.9 0.0496-27-4-0.928-0.144-1.86-0.289-2.81-0.438-3.08-0.543-5.47-1.01-8.19-2.56-0.812-2.62-0.812-2.62-1-5-1.65 0.66-3.3 1.32-5 2v-3c-0.866 0.495-0.866 0.495-1.75 1-2.25 1-2.25 1-6.25 1-0.124 0.598-0.247 1.2-0.375 1.81-0.625 2.19-0.625 2.19-2.62 5.19-1.48-0.495-1.48-0.495-3-1v-2c-0.94 0.0522-0.94 0.0522-1.9 0.105-0.817 0.0271-1.63 0.0541-2.48 0.082-0.812 0.0348-1.62 0.0696-2.46 0.105-0.714-0.0967-1.43-0.193-2.16-0.293-2-3-2-3-2-6h-2v-2h2v-3h-2c-0.495-1.48-0.495-1.48-1-3-2-1.21-2-1.21-4-2 0.66-1.65 1.32-3.3 2-5-0.66-0.33-1.32-0.66-2-1 0.639-0.784 1.28-1.57 1.94-2.38 2.04-2.42 2.04-2.42 3.06-4.62 2.32-0.387 4.66-0.718 7-1 0.99-0.33 1.98-0.66 3-1 0.908 0.206 1.82 0.412 2.75 0.625 4.3 0.496 6.5-0.54 10.2-2.62 1.38-1.63 2.72-3.29 4-5 4.04-3.07 6.48-3.21 11.4-2.56 6.56 0.658 12.3 0.0975 18.8-1.06 2.77-0.375 2.77-0.375 4.77 0.625v-2c3.23-2.15 4.28-2.2 8-2z" fill="#EFAB2C"/>
<path transform="translate(745 975)" d="m0 0c1.64-0.00299 1.64-0.00299 3.31-0.00603 1.21 0.00291 2.42 0.00583 3.66 0.00883 1.28-8.54e-4 2.55-0.00171 3.87-0.00259 3.55-0.00224 7.11 0.00178 10.7 0.00678 3.83 0.0043 7.65 0.00286 11.5 0.0021 6.63-5.25e-4 13.3 0.00262 19.9 0.00824 9.59 0.00812 19.2 0.0107 28.8 0.012 15.6 0.00219 31.1 0.00885 46.7 0.0183 15.1 0.00917 30.2 0.0163 45.4 0.0205 1.4 3.94e-4 1.4 3.94e-4 2.82 7.96e-4 4.67 0.00131 9.34 0.00257 14 0.00381 38.8 0.0104 77.6 0.028 116 0.0503 0.33 0.99 0.66 1.98 1 3-8.69 1.07-17.4 1.32-26.1 1.56-1.45 0.0433-2.9 0.0869-4.34 0.131-3.51 0.106-7.02 0.207-10.5 0.307v1c-0.987 0.0606-1.97 0.121-2.99 0.184-1.92 0.126-1.92 0.126-3.88 0.254-1.28 0.0812-2.55 0.162-3.87 0.246-3.14 0.108-3.14 0.108-5.26 1.32 0.33 0.66 0.66 1.32 1 2-0.543 0.254-1.09 0.508-1.64 0.77-0.715 0.344-1.43 0.688-2.17 1.04-0.708 0.336-1.42 0.673-2.14 1.02-2.16 1.23-3.56 2.17-5.04 4.17-0.362 2.51-0.362 2.51-0.188 5.19 0.0271 0.901 0.0541 1.8 0.082 2.73 0.0348 0.687 0.0696 1.37 0.105 2.08 0.99-0.495 0.99-0.495 2-1-0.0412-0.949-0.0825-1.9-0.125-2.88 0.125-3.12 0.125-3.12 2.12-5.12 0.899 3.09 1.16 5.91 1.19 9.12 0.0142 0.869 0.0284 1.74 0.043 2.63-0.23 2.24-0.23 2.24-2.23 4.24-2.12-0.375-2.12-0.375-4-1 1.32-0.33 2.64-0.66 4-1v-3c-0.763 0.186-1.53 0.371-2.31 0.562-2.69 0.438-2.69 0.438-5.69-0.562-0.33 0.99-0.66 1.98-1 3-6.03-0.512-12-1.07-18-2v-2c-4.48-1.49-9.16-1.68-13.8-2.07-4.26-0.435-6.29-0.836-9.16-3.93-2.34-1.3-4.66-2.52-7.06-3.69-0.637-0.32-1.27-0.641-1.93-0.971-3.34-1.76-3.34-1.76-7.01-2.34-0.33-0.66-0.66-1.32-1-2-1.89-0.685-1.89-0.685-4.06-1.12-0.733-0.168-1.47-0.335-2.22-0.508-0.566-0.121-1.13-0.242-1.71-0.367v-2h5v-2c1.98-0.66 3.96-1.32 6-2-10.5-0.133-21-0.263-31.5-0.391-4.88-0.0594-9.76-0.12-14.6-0.182-19.5-0.247-39-0.465-58.5-0.423-16.1 0.0319-32.2-0.207-48.3-0.468-3.88-0.0623-7.75-0.121-11.6-0.181-7.5-0.116-15-0.234-22.5-0.355v-2c2.53-1.27 4.28-1.12 7.12-1.12z" fill="#EFAB2C"/>
<path transform="translate(762 882)" d="m0 0c4.32 0.00229 8.64-0.00124 13-0.00398 8.43-0.00442 16.9-0.0035 25.3-5.87e-4 6.85 0.00227 13.7 0.00256 20.6 0.00148 0.979-1.53e-4 1.96-3.06e-4 2.97-4.64e-4 1.99-3.2e-4 3.98-6.44e-4 5.97-9.73e-4 18.6-0.00284 37.2 4.15e-4 55.8 0.0058 15.9 0.00447 31.9 0.00369 47.8-9.19e-4 18.6-0.00536 37.1-0.00746 55.7-0.00439 1.98 3.19e-4 3.96 6.33e-4 5.94 9.43e-4 0.974 1.54e-4 1.95 3.09e-4 2.95 4.68e-4 6.85 8.62e-4 13.7-5.9e-4 20.5-0.00295 8.34-0.00281 16.7-0.00204 25 0.00328 4.25 0.00262 8.51 0.00367 12.8 3.51e-4 3.9-0.00299 7.79-0.00132 11.7 0.00398 1.4 0.00111 2.81 5.63e-4 4.21-0.00188 21.3-0.0341 21.3-0.0341 25.6 2.13v2c-3.42 1.71-7.34 1.18-11.1 1.21-1.45 0.0148-1.45 0.0148-2.92 0.03-3.29 0.0322-6.59 0.0568-9.88 0.0811-2.4 0.0209-4.81 0.0419-7.21 0.0632-7.42 0.0633-14.8 0.116-22.2 0.168-2.84 0.02-5.69 0.0412-8.53 0.0623-57.7 0.428-115 0.499-173 0.512-7.02 0.00164-14 0.00459-21.1 0.0087-12.4 0.00722-24.7 0.00845-37.1 0.00357-4.14-0.00149-8.29-8.94e-4 -12.4 0.00176-27.1 0.0154-54.2-0.361-81.3-1.14-0.33-1.32-0.66-2.64-1-4 17.4-1.18 34.8-1.14 52.2-1.13z" fill="#CD9022"/>
<path transform="translate(607 1124)" d="m0 0c1.46-0.0141 1.46-0.0141 2.95-0.0286 15 0.0674 15 0.0674 19.8 4.53 3.45 6.07 3.83 11.3 3.69 18.1-0.00902 0.831-0.018 1.66-0.0273 2.52-0.0234 2.04-0.0593 4.07-0.0977 6.11-7.9 0.101-15.8 0.171-23.7 0.22-2.69 0.0179-5.38 0.0457-8.07 0.082-3.86 0.0485-7.72 0.0712-11.6 0.0889-1.2 0.0206-2.41 0.0413-3.65 0.0626-1.68 4.53e-4 -1.68 4.53e-4 -3.4 9.16e-4 -0.986 0.00888-1.97 0.0178-2.99 0.0269-3.35-0.617-4.53-1.84-6.61-4.48-1.06-8.39 2.39-16.2 7-22.9 7.63-5.24 17.8-4.25 26.7-4.31z" fill="#A5B365"/>
<path transform="translate(567 587)" d="m0 0c1.76-2.19e-4 1.76-2.19e-4 3.55-4.43e-4 3.84 6.92e-4 7.68 0.00845 11.5 0.0163 2.68 0.00187 5.35 0.00334 8.03 0.00429 6.3 0.0031 12.6 0.0113 18.9 0.0213 7.18 0.0112 14.4 0.0167 21.5 0.0217 14.8 0.0104 29.5 0.028 44.3 0.0503 0.33 0.99 0.66 1.98 1 3-3.63 0.33-7.26 0.66-11 1-0.33 0.99-0.66 1.98-1 3-1.33 0.333-2.67 0.667-4 1-0.33 0.99-0.66 1.98-1 3-3.06 1.19-3.06 1.19-6 2v2c-0.71 0.277-1.42 0.554-2.15 0.84-0.919 0.362-1.84 0.724-2.79 1.1-0.917 0.36-1.83 0.719-2.78 1.09-2.21 0.772-2.21 0.772-3.29 1.97-1.66 0.0289-3.33-0.0133-4.99-0.0859-1.02-0.0438-2.03-0.0877-3.08-0.133-1.07-0.0516-2.14-0.103-3.24-0.156-1.06-0.0438-2.12-0.0877-3.21-0.133-8.34-0.379-8.34-0.379-12.5-1.49-1.73-0.103-3.46-0.183-5.19-0.25-7.05-0.492-13.9-1.8-20.8-3.19-1.1-0.218-2.2-0.435-3.33-0.659-4.77-0.977-9.18-1.98-13.7-3.9v-1c6.08 0.374 11.9 1.16 17.9 2.44 13.9 2.88 28.9 3.7 43.1 3.56-0.964-0.0606-1.93-0.121-2.92-0.184-1.26-0.0838-2.53-0.168-3.83-0.254-1.88-0.122-1.88-0.122-3.8-0.246-3.45-0.316-3.45-0.316-5.47-0.832-2.97-0.726-5.93-0.687-8.98-0.797-6.28-0.308-12.2-1.22-18.4-2.56-11.2-2.42-22.4-3.64-33.8-4.83-3.95-0.414-7.91-0.857-11.9-1.3 0.33-0.99 0.66-1.98 1-3 7.41-0.904 14.7-1.14 22.2-1.11z" fill="#A5B365"/>
<path transform="translate(745 975)" d="m0 0c1.64-0.00299 1.64-0.00299 3.31-0.00603 1.21 0.00291 2.42 0.00583 3.66 0.00883 1.28-8.54e-4 2.55-0.00171 3.87-0.00259 3.55-0.00224 7.11 0.00178 10.7 0.00678 3.83 0.0043 7.65 0.00286 11.5 0.0021 6.63-5.25e-4 13.3 0.00262 19.9 0.00824 9.59 0.00812 19.2 0.0107 28.8 0.012 15.6 0.00219 31.1 0.00885 46.7 0.0183 15.1 0.00917 30.2 0.0163 45.4 0.0205 1.4 3.94e-4 1.4 3.94e-4 2.82 7.96e-4 4.67 0.00131 9.34 0.00257 14 0.00381 38.8 0.0104 77.6 0.028 116 0.0503 0.33 0.99 0.66 1.98 1 3-178 1.74-178 1.74-315 0v-2c2.53-1.27 4.28-1.12 7.12-1.12z" fill="#CD9022"/>
<path transform="translate(894,1245)" d="m0 0h152c0.33 0.99 0.66 1.98 1 3h-177v-1h24v-2z" fill="#F6E9D4"/>
<path transform="translate(730,856)" d="m0 0c18-0.0234 35.9-0.041 53.9-0.0518 8.34-0.00515 16.7-0.0122 25-0.0236 7.27-0.00999 14.5-0.0164 21.8-0.0186 3.85-0.0013 7.69-0.00434 11.5-0.0116 3.63-0.00683 7.25-0.00887 10.9-0.00738 1.95-4.02e-4 3.9-0.00576 5.86-0.0113 6.75 0.00784 13.4 0.277 20.1 1.12v2h-150c0.33-0.99 0.66-1.98 1-3z" fill="#C88D21"/>
<path transform="translate(661 1245)" d="m0 0c0.928 8.56e-4 1.86 0.00171 2.81 0.00259 11.6 0.0115 23.2 0.0317 34.7 0.0599 0.33 0.99 0.66 1.98 1 3-10.9 0.133-21.8 0.263-32.7 0.391-5.07 0.0595-10.1 0.12-15.2 0.182-38.7 0.472-38.7 0.472-56.9 0.515-1.4 0.0037-2.8 0.00898-4.2 0.016-13.9 0.0649-13.9 0.0649-19-1.1-0.33-0.66-0.66-1.32-1-2 30.1-0.914 60.3-1.09 90.4-1.06z" fill="#F6EAD7"/>
<path transform="translate(838 1245)" d="m0 0c0.779 8.56e-4 1.56 0.00171 2.36 0.00259 9.59 0.0113 19.2 0.0313 28.8 0.0599-0.33 0.99-0.66 1.98-1 3h-122v-2c30.6-0.728 61.2-1.1 91.9-1.06z" fill="#5C6034"/>
<path transform="translate(989 856)" d="m0 0c3.52 0.0722 7.04 0.125 10.6 0.178 2.25 0.0425 4.5 0.0861 6.75 0.131 1.57 0.022 1.57 0.022 3.18 0.0445 1.44 0.0346 1.44 0.0346 2.91 0.07 0.844 0.0163 1.69 0.0327 2.56 0.0495 2.05 0.285 2.05 0.285 4.05 2.29h-79v-2c16.4-0.851 32.6-1.1 49-0.758z" fill="#725012"/>
<path transform="translate(822,824)" d="m0 0v3c-8.42 0.0463-16.8 0.0819-25.3 0.104-3.91 0.0104-7.82 0.0246-11.7 0.0473-3.77 0.0217-7.55 0.0337-11.3 0.0389-1.44 0.0037-2.88 0.0109-4.32 0.0217-2.02 0.0145-4.03 0.0154-6.05 0.0156-1.72 0.00666-1.72 0.00666-3.48 0.0135-2.83-0.241-2.83-0.241-5.83-2.24 22.7-1.21 45.3-1.1 68-1z" fill="#ABAD5A"/>
<path transform="translate(650,1245)" d="m0 0h49c0.495 1.48 0.495 1.48 1 3h-51c0.33-0.99 0.66-1.98 1-3z" fill="#F1E3C8"/>
<path transform="translate(867 824)" d="m0 0c1.23 0.0254 1.23 0.0254 2.49 0.0512 1.33 0.0358 1.33 0.0358 2.7 0.0723 0.928 0.0209 1.86 0.0418 2.81 0.0634 3.02 0.0697 6.04 0.147 9.05 0.226 2.06 0.0496 4.11 0.099 6.17 0.148 14.2 0.349 28.5 0.805 42.7 1.48v1c-9.22 0.0463-18.4 0.0818-27.7 0.104-4.28 0.0105-8.56 0.0246-12.8 0.0473-4.13 0.0217-8.26 0.0337-12.4 0.0389-1.58 0.0037-3.16 0.0109-4.73 0.0217-2.21 0.0145-4.41 0.0165-6.62 0.0156-1.26 0.00444-2.51 0.00888-3.81 0.0135-2.94-0.241-2.94-0.241-4.94-2.24 2.76-0.922 4.24-1.1 7.07-1.04z" fill="#A9B261"/>
<path transform="translate(589,597)" d="m0 0c9.9 0.66 19.8 1.32 30 2v2c0.562-0.172 1.12-0.344 1.7-0.521 2.53-0.528 4.49-0.419 7.06-0.139 0.889 0.0935 1.78 0.187 2.7 0.283 0.92 0.104 1.84 0.208 2.79 0.314 0.936 0.0999 1.87 0.2 2.84 0.303 2.31 0.247 4.61 0.5 6.91 0.76v1c-9.97 0.31-19.9-0.214-29.8-0.875-1.24-0.0785-2.48-0.157-3.75-0.238-6.95-0.486-13.6-1.29-20.4-2.89v-2z" fill="#ADBD6E"/>
<path transform="translate(618,1245)" d="m0 0c10.7-0.14 21.3 0.267 32 1-0.33 0.66-0.66 1.32-1 2h-33c0.66-0.33 1.32-0.66 2-1v-2z" fill="#F6EDDD"/>
<path transform="translate(500,453)" d="m0 0c8.94-0.581 17.3 1.19 26 3-3.54 1.95-5.96 2.09-10 2l-2 1c-5.67-0.385-9.88-1.55-15-4 0.33-0.66 0.66-1.32 1-2z" fill="#A5B365"/>
<path transform="translate(1020 856)" d="m0 0c1.19 0.00786 1.19 0.00786 2.4 0.0159 1.28 0.00483 1.28 0.00483 2.59 0.00977 0.898 0.00838 1.8 0.0168 2.72 0.0254 0.902 0.00451 1.8 0.00902 2.73 0.0137 2.24 0.0118 4.47 0.0283 6.71 0.0488 0.33 0.99 0.66 1.98 1 3-2.94 0.0539-5.87 0.0936-8.81 0.125-0.833 0.0168-1.67 0.0335-2.53 0.0508-0.802 0.00645-1.6 0.0129-2.43 0.0195-1.11 0.0157-1.11 0.0157-2.24 0.0317-1.99-0.227-1.99-0.227-4.99-2.23 1-1 1-1 2.86-1.11z" fill="#CD9022"/>
<path transform="translate(571,1245)" d="m0 0c0.33 0.99 0.66 1.98 1 3h-26c-0.33-0.66-0.66-1.32-1-2 3.4-0.169 6.79-0.335 10.2-0.5 1.44-0.0715 1.44-0.0715 2.91-0.145 1.4-0.0677 1.4-0.0677 2.82-0.137 0.854-0.0419 1.71-0.0838 2.59-0.127 2.5-0.092 4.99-0.107 7.5-0.0918z" fill="#6D6D39"/>
<path transform="translate(783,825)" d="m0 0c-0.33 0.66-0.66 1.32-1 2-4.1 0.058-8.21 0.0936-12.3 0.125-1.17 0.0168-2.33 0.0335-3.54 0.0508-1.68 0.00967-1.68 0.00967-3.39 0.0195-1.55 0.0157-1.55 0.0157-3.13 0.0317-2.64-0.227-2.64-0.227-5.64-2.23 4.27-0.197 8.54-0.381 12.8-0.562 1.21-0.0561 2.43-0.112 3.68-0.17 1.16-0.0483 2.33-0.0967 3.53-0.146 1.07-0.0471 2.15-0.0943 3.25-0.143 2.73 0.0217 2.73 0.0217 5.73 1.02z" fill="#A6B162"/>
<path transform="translate(531,448)" d="m0 0h31v1c-4.42 0.394-8.83 0.762-13.2 1.12-1.88 0.168-1.88 0.168-3.8 0.34-1.81 0.145-1.81 0.145-3.65 0.293-1.67 0.141-1.67 0.141-3.36 0.286-2.97-0.044-4.45-0.477-6.93-2.04v-1z" fill="#ADBD6E"/>
<path transform="translate(732,438)" d="m0 0h11c0.33 0.99 0.66 1.98 1 3h-13c0.33-0.99 0.66-1.98 1-3z" fill="#A5B365"/>
<path transform="translate(977,1151)" d="m0 0c1.01 0.23 1.01 0.23 2.04 0.465 3.43 0.62 6.8 0.87 10.3 1.1 1.25 0.0838 2.51 0.168 3.8 0.254 1.43 0.0909 1.43 0.0909 2.89 0.184v2c-6.27-0.33-12.5-0.66-19-1v-3z" fill="#F6AE2C"/>
<path transform="translate(804,1131)" d="m0 0c-0.33 0.99-0.66 1.98-1 3h-3v2c-0.681-0.309-1.36-0.619-2.06-0.938-3.31-1.2-6.45-1.65-9.94-2.06v-1c1.92-0.169 3.83-0.335 5.75-0.5 1.07-0.0928 2.13-0.186 3.23-0.281 2.33-0.169 4.68-0.219 7.02-0.219z" fill="#F6AE2C"/>
</svg>
