<?xml version="1.0" encoding="UTF-8"?>
<svg version="1.1" xmlns="http://www.w3.org/2000/svg" width="512" height="512">
<path d="M0 0 C1.20555794 -0.01051392 1.20555794 -0.01051392 2.43547058 -0.02124023 C5.08949435 -0.03883111 7.74244995 -0.02719405 10.39648438 -0.01367188 C12.24206751 -0.01636649 14.08764926 -0.02024865 15.93322754 -0.02526855 C19.8001864 -0.03116507 23.66677554 -0.02259578 27.53369141 -0.00390625 C32.49055662 0.01888347 37.44655555 0.0057612 42.40338898 -0.01819611 C46.2141167 -0.03264998 50.02463902 -0.02805 53.83537292 -0.01768494 C55.66302086 -0.01501651 57.49068744 -0.01829148 59.3183136 -0.02760315 C61.8728678 -0.03776214 64.42601906 -0.02227788 66.98046875 0 C67.73591476 -0.00809692 68.49136078 -0.01619385 69.2696991 -0.02453613 C72.73729487 0.03149086 74.65316811 0.26469313 77.46246338 2.37237549 C79.50840933 5.24516772 79.44957728 7.0910898 79.38085938 10.59570312 C79.36796875 11.75585938 79.35507812 12.91601562 79.34179688 14.11132812 C79.29152344 15.92117187 79.29152344 15.92117187 79.24023438 17.76757812 C79.2221875 18.98960938 79.20414063 20.21164063 79.18554688 21.47070312 C79.13841538 24.48711891 79.0726285 27.50195304 78.99023438 30.51757812 C79.75311768 30.49872559 80.51600098 30.47987305 81.30200195 30.46044922 C82.29868896 30.44578613 83.29537598 30.43112305 84.32226562 30.41601562 C85.80690308 30.38773682 85.80690308 30.38773682 87.3215332 30.35888672 C89.99023438 30.51757812 89.99023438 30.51757812 92.67773438 32.14257812 C94.40519813 35.26846493 94.56603104 36.99082356 93.99023438 40.51757812 C92.67773438 43.39257812 92.67773438 43.39257812 89.99023438 45.51757812 C86.22215148 45.94589258 82.80417499 45.7445984 78.99023438 45.51757812 C78.99023438 50.46757812 78.99023438 55.41757813 78.99023438 60.51757812 C80.24668762 60.50869568 81.50314087 60.49981323 82.79766846 60.49066162 C94.6281529 60.40963816 106.45858118 60.3496426 118.28927994 60.31032944 C124.37184445 60.28943879 130.45418531 60.26109368 136.53662109 60.21582031 C142.40455072 60.17241602 148.27226497 60.14845216 154.14034271 60.13806915 C156.38110496 60.1306681 158.62185518 60.11621588 160.86252594 60.0946579 C163.99682759 60.06569655 167.1302349 60.06161916 170.26464844 60.06347656 C171.19469193 60.04909546 172.12473541 60.03471436 173.08296204 60.01989746 C174.36595436 60.02814545 174.36595436 60.02814545 175.67486572 60.03656006 C176.78654806 60.0310293 176.78654806 60.0310293 177.92068863 60.02538681 C180.97142768 60.75093118 182.13391552 62.0215616 183.99023438 64.51757812 C184.41902828 67.2800684 184.41902828 67.2800684 184.30809021 70.65089417 C184.28358249 71.61675614 184.28358249 71.61675614 184.25857967 72.60213047 C184.19193162 74.9085993 184.09151792 77.21237792 183.99023438 79.51757812 C183.9214218 81.37485833 183.8533021 83.23216429 183.78575325 85.08949089 C183.52698153 91.85613281 183.21548397 98.62011166 182.90454102 105.38452148 C182.78765277 107.98141721 182.67105823 110.57832617 182.55473328 113.17524719 C182.27243733 119.46526953 181.98657659 125.75512488 181.69947345 132.04492944 C181.3644197 139.38830461 181.03299664 146.73184237 180.7017067 154.07538814 C180.10996325 167.18962587 179.51501377 180.30371615 178.91821289 193.41772461 C178.3407261 206.10740024 177.76543041 218.79717263 177.19262695 231.48706055 C177.15734841 232.26861407 177.12206987 233.05016759 177.08572228 233.85540455 C177.05050177 234.63568209 177.01528127 235.41595963 176.97899348 236.21988195 C176.90805764 237.79138089 176.83712079 239.36287978 176.7661829 240.93437862 C176.71369118 242.09724104 176.71369118 242.09724104 176.66013903 243.28359562 C176.11192938 255.42613387 175.56166249 267.568579 175.011209 279.71101571 C174.81261906 284.09230934 174.61433748 288.4736168 174.41628725 292.85493486 C174.07236429 300.46318047 173.72702404 308.07135989 173.38015938 315.67947197 C173.26561538 318.19639476 173.15152693 320.71333834 173.03794479 323.23030472 C172.70247694 330.66009917 172.35546913 338.08918673 171.99023438 345.51757812 C171.95001435 346.35769164 171.90979433 347.19780516 171.86835551 348.06337667 C171.7597201 350.28158914 171.64183754 352.49906015 171.51976013 354.71656799 C171.45748954 355.88795602 171.39521894 357.05934404 171.33106136 358.26622868 C169.89982095 371.91967428 163.2080837 385.34269906 152.99023438 394.51757812 C138.73812934 405.39557198 125.29752418 408.12475336 107.73828125 408.03515625 C105.93481382 408.04058792 104.13135084 408.0477164 102.32789612 408.05639648 C97.4662655 408.07450862 92.60497744 408.06761274 87.74334145 408.05488014 C82.63385786 408.04468929 77.52440184 408.05416261 72.41491699 408.0604248 C63.83759342 408.06768359 55.26040802 408.05816008 46.68310547 408.0390625 C36.79402005 408.01729722 26.90526462 408.02434984 17.01618719 408.04636812 C8.49601863 408.06457268 -0.02405111 408.0670558 -8.54423285 408.05661345 C-13.6200027 408.05040624 -18.6956179 408.04946601 -23.77137756 408.0627594 C-28.54537821 408.07439116 -33.31895715 408.06615958 -38.09291267 408.04318237 C-39.8354682 408.03793416 -41.57805977 408.03934161 -43.32060051 408.04823303 C-58.46528083 408.11833168 -70.52247012 405.7218288 -83.00976562 396.51757812 C-83.74066406 395.98261719 -84.4715625 395.44765625 -85.22460938 394.89648438 C-95.07325055 387.01379076 -102.00203521 373.92261014 -104.00976562 361.51757812 C-104.27926731 358.23926296 -104.4289172 354.95697071 -104.58129883 351.67138672 C-104.6322061 350.63660816 -104.68311337 349.60182961 -104.73556328 348.53569412 C-104.91039095 344.95431642 -105.07929924 341.37268469 -105.24804688 337.79101562 C-105.34267077 335.82284899 -105.43730048 333.85468263 -105.53219134 331.88652885 C-106.03579453 321.43072997 -106.52377889 310.97420845 -107.00976562 300.51757812 C-107.05492782 299.54602594 -107.10009001 298.57447376 -107.14662075 297.57348061 C-108.56339228 267.07891999 -109.95560135 236.58325138 -111.3377341 206.08710313 C-111.39410167 204.84341769 -111.45046924 203.59973225 -111.50854492 202.31835938 C-111.59325064 200.44937284 -111.59325064 200.44937284 -111.67966759 198.542629 C-112.14332556 188.31837894 -112.61045449 178.09428936 -113.07821959 167.8702265 C-113.53503037 157.88169227 -113.98922761 147.89304132 -114.44144708 137.90429819 C-114.70917293 131.99190542 -114.97795507 126.07956556 -115.24950218 120.16734695 C-115.5028715 114.64936933 -115.75297489 109.13125302 -116.00063133 103.61301613 C-116.09136426 101.60351452 -116.18323509 99.59406389 -116.27638626 97.58467293 C-116.51923348 92.33865882 -116.74385726 87.0928363 -116.92629027 81.84434938 C-116.98146487 80.30642631 -117.0426355 78.76870539 -117.1101172 77.23127317 C-117.19869839 75.13880001 -117.26056684 73.04732581 -117.31416321 70.95370483 C-117.35271581 69.79761404 -117.39126841 68.64152325 -117.43098927 67.4503994 C-117.00976562 64.51757812 -117.00976562 64.51757812 -115.26045132 62.14538383 C-112.77404346 60.34709236 -111.71625645 60.02152593 -108.69439697 60.03656006 C-107.41140465 60.02831207 -107.41140465 60.02831207 -106.10249329 60.01989746 C-105.1724498 60.03427856 -104.24240631 60.04865967 -103.28417969 60.06347656 C-102.29848495 60.06289246 -101.31279022 60.06230835 -100.29722595 60.06170654 C-97.03958913 60.06449297 -93.78286758 60.09561222 -90.52539062 60.12695312 C-88.26666768 60.1344135 -86.00793827 60.14010739 -83.74920654 60.144104 C-77.80440398 60.15937619 -71.85999235 60.19867215 -65.91534424 60.24291992 C-59.84921558 60.28383816 -53.78302376 60.30210768 -47.71679688 60.32226562 C-35.81428137 60.36516447 -23.912056 60.43343536 -12.00976562 60.51757812 C-12.00976562 55.56757813 -12.00976562 50.61757812 -12.00976562 45.51757812 C-13.74226563 45.60007813 -15.47476563 45.68257812 -17.25976562 45.76757812 C-22.61533155 45.74690026 -22.61533155 45.74690026 -25.69726562 43.95507812 C-27.53011951 40.55120663 -27.55384177 38.32611112 -27.00976562 34.51757812 C-25.69726562 32.08007812 -25.69726562 32.08007812 -23.00976562 30.51757812 C-20.34106445 30.36499023 -20.34106445 30.36499023 -17.34179688 30.41992188 C-15.84676636 30.44107056 -15.84676636 30.44107056 -14.3215332 30.46264648 C-13.17720825 30.48983765 -13.17720825 30.48983765 -12.00976562 30.51757812 C-12.04118652 29.36757324 -12.04118652 29.36757324 -12.07324219 28.19433594 C-12.15641721 24.71888352 -12.20843137 21.2436405 -12.25976562 17.76757812 C-12.29328125 16.56101562 -12.32679688 15.35445312 -12.36132812 14.11132812 C-12.38066406 12.37109375 -12.38066406 12.37109375 -12.40039062 10.59570312 C-12.43181152 8.9932373 -12.43181152 8.9932373 -12.46386719 7.35839844 C-11.33404815 0.29034772 -6.17587769 -0.06619349 0 0 Z " fill="#F970A2" transform="translate(316.009765625,104.482421875)"/>
<path d="M0 0 C1.31291016 0.5259375 1.31291016 0.5259375 2.65234375 1.0625 C9.94181451 4.29727285 15.40710217 9.40710217 21 15 C21.74455972 23.12691326 19.40008038 29.13813865 16.4699707 36.6394043 C3.7797066 70.83086211 -2.11711134 102.8216467 -2.26953125 139.33203125 C-2.27365697 140.31957445 -2.2777827 141.30711764 -2.28203344 142.32458639 C-2.3151944 154.41339373 -2.17028593 166.49730648 -1.95794094 178.5840081 C-1.77894138 189.02749543 -1.72797972 199.47067093 -1.68355334 209.91545832 C-1.59002906 231.27923274 -1.3490599 252.63896187 -1 274 C-0.23214172 273.99555878 0.53571655 273.99111755 1.32684326 273.98654175 C8.56593274 273.94645471 15.80496833 273.91601038 23.04413986 273.89637566 C26.7658029 273.88594189 30.48737416 273.87179018 34.20898438 273.84912109 C37.80106762 273.8273781 41.39306263 273.81542831 44.9852066 273.81024551 C46.35512938 273.80655236 47.72504738 273.79934055 49.09493256 273.78853989 C51.01473779 273.77400651 52.93463196 273.77318292 54.85449219 273.77294922 C55.94703308 273.768508 57.03957397 273.76406677 58.16522217 273.75949097 C61.00389013 274.00033005 62.63933396 274.4376544 65 276 C66.61842958 279.23685916 66.15695953 282.77054511 66.14083862 286.32473755 C66.13702708 287.59713529 66.13702708 287.59713529 66.13313854 288.89523804 C66.05497911 298.5571852 65.41948857 308.16873969 64.74658203 317.80419922 C64.61137136 319.80868038 64.47670346 321.81319821 64.3425293 323.81774902 C63.98071021 329.19737939 63.61080746 334.57642366 63.23885584 339.95536184 C62.92818037 344.45907674 62.6215479 348.96306336 62.3148793 353.46705258 C61.59191461 364.08407358 60.86233542 374.70062543 60.12841797 385.31689453 C59.37194675 396.26096493 58.62629398 407.20573486 57.88592637 418.15090549 C57.24815183 427.57420816 56.60399783 436.9970596 55.95463836 446.41957104 C55.5675674 452.03685122 55.18286202 457.65426737 54.80420303 463.27212143 C54.44879018 468.54065626 54.08540967 473.80858155 53.71583557 479.07614136 C53.58156536 481.00892807 53.45011114 482.94191276 53.32166672 484.87509537 C53.14606105 487.51130953 52.96033003 490.14662045 52.77200317 492.7819519 C52.72335558 493.54818087 52.67470799 494.31440984 52.62458622 495.10385787 C52.24236193 500.24019563 51.71837793 504.28162207 48 508 C45.51338291 508.25447559 45.51338291 508.25447559 42.31288147 508.26069641 C41.10282944 508.26778122 39.8927774 508.27486603 38.64605713 508.28216553 C37.29797326 508.2798715 35.94988975 508.27736178 34.60180664 508.2746582 C33.18767527 508.27900351 31.77354626 508.28418604 30.35942078 508.29014587 C26.51232663 508.30356704 22.66533053 508.30411108 18.81821752 508.30158257 C15.60983307 508.30051493 12.40146864 508.30539094 9.19308847 508.310188 C1.62553668 508.32129405 -5.94196548 508.32171449 -13.50952148 508.31567383 C-21.32349392 508.30963249 -29.13728636 508.32194653 -36.95122808 508.3432439 C-43.65360698 508.36084177 -50.35592849 508.36686412 -57.05832964 508.36360615 C-61.06417866 508.36179018 -65.0698993 508.36446053 -69.07572746 508.37832069 C-72.84239881 508.39086498 -76.60878899 508.3889875 -80.37545586 508.37590981 C-81.75938511 508.37353698 -83.14333393 508.37630391 -84.52724075 508.38453293 C-86.41343419 508.3949415 -88.29970721 508.38513007 -90.18589783 508.3742218 C-91.77071158 508.37447341 -91.77071158 508.37447341 -93.38754177 508.37473011 C-96 508 -96 508 -97.80088139 506.72661114 C-100.62484493 502.66038545 -100.33020342 497.69878913 -100.65174866 492.90220642 C-100.70977282 492.07914979 -100.76779697 491.25609316 -100.82757944 490.40809542 C-101.02139419 487.64590887 -101.21003481 484.88339357 -101.39868164 482.12084961 C-101.53646706 480.14124048 -101.67455117 478.16165212 -101.81291199 476.18208313 C-102.18825524 470.79715762 -102.5589167 465.41191948 -102.92840123 460.02658916 C-103.23777941 455.52218662 -103.54920105 451.01792622 -103.86054987 446.51365954 C-104.5961059 435.87058832 -105.32764312 425.22724581 -106.05688477 414.58374023 C-106.80679642 403.6397973 -107.56414649 392.69638693 -108.32512003 381.7532081 C-108.97950332 372.33836685 -109.62880142 362.92318371 -110.27420896 353.50772291 C-110.65910377 347.89379656 -111.04593246 342.28002106 -111.43782234 336.66657829 C-111.80725748 331.37202855 -112.17028351 326.0770754 -112.52867317 320.78176689 C-112.66025518 318.85290737 -112.79398897 316.92419304 -112.93020248 314.99565506 C-113.60210826 305.46421969 -114.13615826 295.94214772 -114.26683044 286.38624573 C-114.28720023 285.58516134 -114.30757002 284.78407696 -114.32855707 283.95871729 C-114.35058407 278.49416632 -114.35058407 278.49416632 -112.6083231 276.03835964 C-109.26701377 273.8811558 -107.05690416 273.87842732 -103.08154297 273.88647461 C-101.21983963 273.88658791 -101.21983963 273.88658791 -99.32052612 273.88670349 C-97.96107951 273.8918105 -96.60163331 273.8970265 -95.2421875 273.90234375 C-93.85499116 273.90420858 -92.46779416 273.90563218 -91.08059692 273.90663147 C-87.42765488 273.91045152 -83.77475252 273.92027745 -80.12182617 273.93133545 C-76.39502499 273.94156056 -72.66821741 273.94613145 -68.94140625 273.95117188 C-61.62758606 273.96190017 -54.31379859 273.97897046 -47 274 C-46.63384168 251.59260848 -46.39841663 229.18686561 -46.30309582 206.77663136 C-46.25600792 196.36182593 -46.17147259 185.95024118 -45.98852539 175.53686523 C-45.78191822 163.46817479 -45.68004106 151.40252391 -45.73046875 139.33203125 C-45.73459447 138.34376296 -45.7387202 137.35549466 -45.74297094 136.33727884 C-45.97377461 99.74682193 -52.54365863 67.17151569 -65.84482002 33.11970329 C-68.29315423 26.74927607 -69.63073713 21.8385712 -69 15 C-64.36892238 6.24362798 -51.37913255 0.77194103 -42.5078125 -2.2734375 C-29.02411221 -6.17993011 -12.86836828 -5.5646998 0 0 Z " fill="#606180" transform="translate(126,4)"/>
<path d="M0 0 C1.20555794 -0.01051392 1.20555794 -0.01051392 2.43547058 -0.02124023 C5.08949435 -0.03883111 7.74244995 -0.02719405 10.39648438 -0.01367188 C12.24206751 -0.01636649 14.08764926 -0.02024865 15.93322754 -0.02526855 C19.8001864 -0.03116507 23.66677554 -0.02259578 27.53369141 -0.00390625 C32.49055662 0.01888347 37.44655555 0.0057612 42.40338898 -0.01819611 C46.2141167 -0.03264998 50.02463902 -0.02805 53.83537292 -0.01768494 C55.66302086 -0.01501651 57.49068744 -0.01829148 59.3183136 -0.02760315 C61.8728678 -0.03776214 64.42601906 -0.02227788 66.98046875 0 C67.73591476 -0.00809692 68.49136078 -0.01619385 69.2696991 -0.02453613 C72.73729487 0.03149086 74.65316811 0.26469313 77.46246338 2.37237549 C79.50840933 5.24516772 79.44957728 7.0910898 79.38085938 10.59570312 C79.36796875 11.75585938 79.35507812 12.91601562 79.34179688 14.11132812 C79.29152344 15.92117187 79.29152344 15.92117187 79.24023438 17.76757812 C79.2221875 18.98960938 79.20414063 20.21164063 79.18554688 21.47070312 C79.13841538 24.48711891 79.0726285 27.50195304 78.99023438 30.51757812 C79.75311768 30.49872559 80.51600098 30.47987305 81.30200195 30.46044922 C82.29868896 30.44578613 83.29537598 30.43112305 84.32226562 30.41601562 C85.80690308 30.38773682 85.80690308 30.38773682 87.3215332 30.35888672 C89.99023438 30.51757812 89.99023438 30.51757812 92.67773438 32.14257812 C94.40519813 35.26846493 94.56603104 36.99082356 93.99023438 40.51757812 C92.67773438 43.39257812 92.67773438 43.39257812 89.99023438 45.51757812 C86.22215148 45.94589258 82.80417499 45.7445984 78.99023438 45.51757812 C78.99023438 50.46757812 78.99023438 55.41757813 78.99023438 60.51757812 C80.24668762 60.50869568 81.50314087 60.49981323 82.79766846 60.49066162 C94.6281529 60.40963816 106.45858118 60.3496426 118.28927994 60.31032944 C124.37184445 60.28943879 130.45418531 60.26109368 136.53662109 60.21582031 C142.40455072 60.17241602 148.27226497 60.14845216 154.14034271 60.13806915 C156.38110496 60.1306681 158.62185518 60.11621588 160.86252594 60.0946579 C163.99682759 60.06569655 167.1302349 60.06161916 170.26464844 60.06347656 C171.19469193 60.04909546 172.12473541 60.03471436 173.08296204 60.01989746 C174.36595436 60.02814545 174.36595436 60.02814545 175.67486572 60.03656006 C176.78654806 60.0310293 176.78654806 60.0310293 177.92068863 60.02538681 C180.97142768 60.75093118 182.13391552 62.0215616 183.99023438 64.51757812 C184.41902828 67.2800684 184.41902828 67.2800684 184.30809021 70.65089417 C184.28358249 71.61675614 184.28358249 71.61675614 184.25857967 72.60213047 C184.19193162 74.9085993 184.09151792 77.21237792 183.99023438 79.51757812 C183.9214218 81.37485833 183.8533021 83.23216429 183.78575325 85.08949089 C183.52698153 91.85613281 183.21548397 98.62011166 182.90454102 105.38452148 C182.78765277 107.98141721 182.67105823 110.57832617 182.55473328 113.17524719 C182.27243733 119.46526953 181.98657659 125.75512488 181.69947345 132.04492944 C181.3644197 139.38830461 181.03299664 146.73184237 180.7017067 154.07538814 C180.10996325 167.18962587 179.51501377 180.30371615 178.91821289 193.41772461 C178.3407261 206.10740024 177.76543041 218.79717263 177.19262695 231.48706055 C177.15734841 232.26861407 177.12206987 233.05016759 177.08572228 233.85540455 C177.05050177 234.63568209 177.01528127 235.41595963 176.97899348 236.21988195 C176.90805764 237.79138089 176.83712079 239.36287978 176.7661829 240.93437862 C176.71369118 242.09724104 176.71369118 242.09724104 176.66013903 243.28359562 C176.11192938 255.42613387 175.56166249 267.568579 175.011209 279.71101571 C174.81261906 284.09230934 174.61433748 288.4736168 174.41628725 292.85493486 C174.07236429 300.46318047 173.72702404 308.07135989 173.38015938 315.67947197 C173.26561538 318.19639476 173.15152693 320.71333834 173.03794479 323.23030472 C172.70247694 330.66009917 172.35546913 338.08918673 171.99023438 345.51757812 C171.95001435 346.35769164 171.90979433 347.19780516 171.86835551 348.06337667 C171.7597201 350.28158914 171.64183754 352.49906015 171.51976013 354.71656799 C171.45748954 355.88795602 171.39521894 357.05934404 171.33106136 358.26622868 C169.89982095 371.91967428 163.2080837 385.34269906 152.99023438 394.51757812 C138.73812934 405.39557198 125.29752418 408.12475336 107.73828125 408.03515625 C105.93481382 408.04058792 104.13135084 408.0477164 102.32789612 408.05639648 C97.4662655 408.07450862 92.60497744 408.06761274 87.74334145 408.05488014 C82.63385786 408.04468929 77.52440184 408.05416261 72.41491699 408.0604248 C63.83759342 408.06768359 55.26040802 408.05816008 46.68310547 408.0390625 C36.79402005 408.01729722 26.90526462 408.02434984 17.01618719 408.04636812 C8.49601863 408.06457268 -0.02405111 408.0670558 -8.54423285 408.05661345 C-13.6200027 408.05040624 -18.6956179 408.04946601 -23.77137756 408.0627594 C-28.54537821 408.07439116 -33.31895715 408.06615958 -38.09291267 408.04318237 C-39.8354682 408.03793416 -41.57805977 408.03934161 -43.32060051 408.04823303 C-58.46528083 408.11833168 -70.52247012 405.7218288 -83.00976562 396.51757812 C-83.74066406 395.98261719 -84.4715625 395.44765625 -85.22460938 394.89648438 C-95.07325055 387.01379076 -102.00203521 373.92261014 -104.00976562 361.51757812 C-104.27926731 358.23926296 -104.4289172 354.95697071 -104.58129883 351.67138672 C-104.6322061 350.63660816 -104.68311337 349.60182961 -104.73556328 348.53569412 C-104.91039095 344.95431642 -105.07929924 341.37268469 -105.24804688 337.79101562 C-105.34267077 335.82284899 -105.43730048 333.85468263 -105.53219134 331.88652885 C-106.03579453 321.43072997 -106.52377889 310.97420845 -107.00976562 300.51757812 C-107.05492782 299.54602594 -107.10009001 298.57447376 -107.14662075 297.57348061 C-108.56339228 267.07891999 -109.95560135 236.58325138 -111.3377341 206.08710313 C-111.39410167 204.84341769 -111.45046924 203.59973225 -111.50854492 202.31835938 C-111.59325064 200.44937284 -111.59325064 200.44937284 -111.67966759 198.542629 C-112.14332556 188.31837894 -112.61045449 178.09428936 -113.07821959 167.8702265 C-113.53503037 157.88169227 -113.98922761 147.89304132 -114.44144708 137.90429819 C-114.70917293 131.99190542 -114.97795507 126.07956556 -115.24950218 120.16734695 C-115.5028715 114.64936933 -115.75297489 109.13125302 -116.00063133 103.61301613 C-116.09136426 101.60351452 -116.18323509 99.59406389 -116.27638626 97.58467293 C-116.51923348 92.33865882 -116.74385726 87.0928363 -116.92629027 81.84434938 C-116.98146487 80.30642631 -117.0426355 78.76870539 -117.1101172 77.23127317 C-117.19869839 75.13880001 -117.26056684 73.04732581 -117.31416321 70.95370483 C-117.35271581 69.79761404 -117.39126841 68.64152325 -117.43098927 67.4503994 C-117.00976562 64.51757812 -117.00976562 64.51757812 -115.26045132 62.14538383 C-112.77404346 60.34709236 -111.71625645 60.02152593 -108.69439697 60.03656006 C-107.41140465 60.02831207 -107.41140465 60.02831207 -106.10249329 60.01989746 C-105.1724498 60.03427856 -104.24240631 60.04865967 -103.28417969 60.06347656 C-102.29848495 60.06289246 -101.31279022 60.06230835 -100.29722595 60.06170654 C-97.03958913 60.06449297 -93.78286758 60.09561222 -90.52539062 60.12695312 C-88.26666768 60.1344135 -86.00793827 60.14010739 -83.74920654 60.144104 C-77.80440398 60.15937619 -71.85999235 60.19867215 -65.91534424 60.24291992 C-59.84921558 60.28383816 -53.78302376 60.30210768 -47.71679688 60.32226562 C-35.81428137 60.36516447 -23.912056 60.43343536 -12.00976562 60.51757812 C-12.00976562 55.56757813 -12.00976562 50.61757812 -12.00976562 45.51757812 C-13.74226563 45.60007813 -15.47476563 45.68257812 -17.25976562 45.76757812 C-22.61533155 45.74690026 -22.61533155 45.74690026 -25.69726562 43.95507812 C-27.53011951 40.55120663 -27.55384177 38.32611112 -27.00976562 34.51757812 C-25.69726562 32.08007812 -25.69726562 32.08007812 -23.00976562 30.51757812 C-20.34106445 30.36499023 -20.34106445 30.36499023 -17.34179688 30.41992188 C-15.84676636 30.44107056 -15.84676636 30.44107056 -14.3215332 30.46264648 C-13.17720825 30.48983765 -13.17720825 30.48983765 -12.00976562 30.51757812 C-12.04118652 29.36757324 -12.04118652 29.36757324 -12.07324219 28.19433594 C-12.15641721 24.71888352 -12.20843137 21.2436405 -12.25976562 17.76757812 C-12.29328125 16.56101562 -12.32679688 15.35445312 -12.36132812 14.11132812 C-12.38066406 12.37109375 -12.38066406 12.37109375 -12.40039062 10.59570312 C-12.43181152 8.9932373 -12.43181152 8.9932373 -12.46386719 7.35839844 C-11.33404815 0.29034772 -6.17587769 -0.06619349 0 0 Z M-101.00976562 75.51757812 C-100.38717465 95.95663244 -99.63339777 116.38514734 -98.74023438 136.81445312 C-98.64893849 138.91944675 -98.55788977 141.02445097 -98.46686924 143.12945652 C-98.14612946 150.54663065 -97.82290661 157.96369449 -97.49838245 165.38070393 C-97.26245449 170.77342302 -97.02744706 176.16618163 -96.7928772 181.55895996 C-95.07416317 221.05733549 -93.31807443 260.55339459 -91.33272648 300.03944778 C-91.18071375 303.06622866 -91.03016126 306.09308139 -90.87973976 309.11994171 C-90.80843988 310.54472333 -90.73630599 311.96946349 -90.66327477 313.39415741 C-90.27963673 320.88136443 -89.96879405 328.36366307 -89.82470703 335.859375 C-89.79455931 337.22296455 -89.76427275 338.58655104 -89.73384094 339.95013428 C-89.68300313 342.45982358 -89.64716435 344.96989081 -89.63078308 347.4800415 C-89.36036223 360.53908371 -86.01661772 371.84641275 -77.00976562 381.51757812 C-67.36914981 389.75509962 -58.24857994 392.62215312 -45.60505676 392.66474915 C-44.53685299 392.67026418 -44.53685299 392.67026418 -43.44706935 392.67589062 C-41.07839352 392.68683864 -38.70976169 392.69075604 -36.34106445 392.69458008 C-34.63538476 392.70085139 -32.92970642 392.70749877 -31.22402954 392.7144928 C-25.63829485 392.73545406 -20.05256013 392.74588691 -14.46679688 392.75585938 C-12.53820977 392.75990973 -10.60962281 392.76402673 -8.681036 392.76820946 C0.3809235 392.78724272 9.44287494 392.80147835 18.50485057 392.80982143 C28.94153961 392.81959083 39.3780164 392.84591049 49.81463069 392.88632232 C57.89812144 392.91654151 65.98155152 392.93129574 74.06509763 392.93460244 C78.88554249 392.936946 83.70576011 392.94581609 88.52614403 392.97106361 C93.0644539 392.99445164 97.60238859 392.99853473 102.14074326 392.98830223 C103.79826803 392.98780938 105.45581197 392.99405503 107.11327934 393.00785828 C121.79745447 393.12322101 133.82992267 390.74639924 144.99023438 380.51757812 C153.70570878 370.479646 155.92506644 360.04225151 156.42333984 347.06201172 C156.47495396 345.83012745 156.47495396 345.83012745 156.52761078 344.57335663 C156.64078773 341.85436592 156.74904939 339.13520171 156.85742188 336.41601562 C156.93702556 334.48697434 157.01699968 332.55794832 157.09732056 330.62893677 C157.26775747 326.52377319 157.43628415 322.41853775 157.60327148 318.31323242 C158.04338507 307.50336174 158.49702404 296.69405436 158.95117188 285.88476562 C158.99614052 284.81232857 159.04110916 283.73989151 159.08744049 282.63495636 C159.81015951 265.42473916 160.60838418 248.22043567 161.49023438 231.01757812 C163.01813744 201.14766047 164.2639142 171.26624819 165.50573158 141.38328171 C165.67147225 137.39870454 165.83818574 133.41416831 166.00495529 129.42963409 C166.11901179 126.69253596 166.23139216 123.95537273 166.34365845 121.21820068 C166.73031117 111.91037933 167.19472159 102.61441907 167.79586792 93.31781006 C168.09969268 87.37746124 168.05285734 81.46675983 167.99023438 75.51757812 C163.04023438 75.51757812 158.09023438 75.51757812 152.99023438 75.51757812 C151.35894589 103.72223705 149.98086605 131.93675851 148.65167236 160.15710449 C148.4374257 164.6997817 148.22197155 169.24240118 148.00634766 173.7850132 C147.89936878 176.04044437 147.79259748 178.2958854 147.68603516 180.55133629 C147.42310484 186.11566013 147.157789 191.67984758 146.88720703 197.24380493 C146.42874226 206.73420105 145.98481819 216.2229141 145.66530609 225.7191515 C145.53416921 229.59597164 145.38857174 233.47219801 145.2424469 237.34847832 C145.18012166 239.12004657 145.1252006 240.89189645 145.07896423 242.6639576 C144.65850909 258.73990594 142.12438978 275.03444152 134.74023438 289.51757812 C134.35673828 290.29609131 133.97324219 291.07460449 133.578125 291.87670898 C130.10221224 298.71583667 125.96605693 304.66315753 120.99023438 310.51757812 C120.29414063 311.37480469 119.59804688 312.23203125 118.88085938 313.11523438 C103.06136662 331.79262819 77.97697168 344.6702738 53.51087952 346.72589111 C50.97501044 346.82726721 48.44604284 346.87297134 45.90820312 346.88867188 C44.97333572 346.89770035 44.03846832 346.90672882 43.07527161 346.91603088 C41.10465648 346.93044739 39.13399443 346.93939852 37.16333008 346.94311523 C34.22259335 346.95489838 31.28403859 347.00407375 28.34375 347.0546875 C2.12111115 347.27991566 -20.52062248 339.88011759 -41.00976562 323.51757812 C-41.91339844 322.79828125 -42.81703125 322.07898438 -43.74804688 321.33789062 C-62.2321037 305.64225295 -74.41209167 281.58214104 -77.00976562 257.51757812 C-77.738044 247.49074543 -77.738044 247.49074543 -75.67382812 244.73242188 C-73.05303681 242.81912117 -71.15541945 243.06819901 -68.00976562 243.51757812 C-65.50609384 245.1990794 -64.23157177 246.61063985 -63.50708008 249.57299805 C-63.14877949 252.1551247 -62.88215549 254.73501359 -62.63476562 257.33007812 C-59.92328911 279.95226077 -48.06006637 300.06293378 -30.32226562 314.33007812 C-12.22314488 328.26980469 7.54181536 332.71963698 29.99169922 332.86767578 C31.80270372 332.88408389 33.61364767 332.91116815 35.42431641 332.94970703 C62.33697955 333.5170684 85.59424263 325.50386727 105.453125 307.02978516 C121.44972745 291.29233986 129.46142056 269.68964032 130.51513672 247.59399414 C130.55928554 246.72214635 130.60343435 245.85029856 130.64892101 244.95203114 C130.79454599 242.05866579 130.93543783 239.16509143 131.07617188 236.27148438 C131.17856822 234.21162851 131.28118853 232.15178376 131.38401794 230.09194946 C131.658835 224.56533192 131.92906924 219.03849955 132.19800186 213.51159286 C132.36502399 210.08439512 132.53321603 206.65725668 132.70175171 203.23013306 C134.16786952 173.3926458 135.56340768 143.55288124 136.80273438 113.70507812 C136.85022449 112.56703169 136.85022449 112.56703169 136.89867401 111.40599442 C137.1059656 106.43681959 137.30923117 101.46749914 137.50976562 96.49804688 C137.58438271 94.67848984 137.58438271 94.67848984 137.6605072 92.82217407 C137.70462234 91.70353973 137.74873749 90.5849054 137.79418945 89.43237305 C137.83240311 88.47570236 137.87061676 87.51903168 137.9099884 86.53337097 C138.0076613 82.86264184 137.99023438 79.1896065 137.99023438 75.51757812 C69.02023437 75.51757812 0.05023438 75.51757812 -71.00976562 75.51757812 C-70.3214358 102.64801209 -70.3214358 102.64801209 -69.16325188 129.74759865 C-69.02815673 132.26653736 -68.89966267 134.78575563 -68.77235413 137.30509949 C-68.41117858 144.4355285 -68.04086177 151.56546135 -67.66381836 158.69506836 C-66.48848551 180.992265 -65.69655325 203.1868569 -66.00976562 225.51757812 C-73.99354082 227.08703821 -73.99354082 227.08703821 -77.52929688 225.10571289 C-79.59412868 221.4960028 -79.64518217 218.16218846 -79.69726562 214.10742188 C-79.72510635 213.22858841 -79.75294708 212.34975494 -79.78163147 211.44429016 C-79.84184972 209.49153734 -79.89344539 207.53850526 -79.93777466 205.58532715 C-80.06520375 200.04456559 -80.2598319 194.50593421 -80.44335938 188.96679688 C-80.4827916 187.72463409 -80.52222382 186.48247131 -80.56285095 185.20266724 C-81.11760699 168.25243213 -81.97026341 151.31515242 -82.79858398 134.37649536 C-83.02554627 129.7349463 -83.24899491 125.09323673 -83.47118473 120.45145702 C-83.64126091 116.9041909 -83.81291393 113.35700241 -83.98504448 109.80983543 C-84.06517956 108.15534781 -84.14488381 106.50083926 -84.22410774 104.84630775 C-84.69400362 95.05759567 -85.27366671 85.2906383 -86.00976562 75.51757812 C-90.95976562 75.51757812 -95.90976563 75.51757812 -101.00976562 75.51757812 Z " fill="#020202" transform="translate(316.009765625,104.482421875)"/>
<path d="M0 0 C1.31291016 0.5259375 1.31291016 0.5259375 2.65234375 1.0625 C9.94181451 4.29727285 15.40710217 9.40710217 21 15 C21.74455972 23.12691326 19.40008038 29.13813865 16.4699707 36.6394043 C3.7797066 70.83086211 -2.11711134 102.8216467 -2.26953125 139.33203125 C-2.27365697 140.31957445 -2.2777827 141.30711764 -2.28203344 142.32458639 C-2.3151944 154.41339373 -2.17028593 166.49730648 -1.95794094 178.5840081 C-1.77894138 189.02749543 -1.72797972 199.47067093 -1.68355334 209.91545832 C-1.59002906 231.27923274 -1.3490599 252.63896187 -1 274 C-0.23214172 273.99555878 0.53571655 273.99111755 1.32684326 273.98654175 C8.56593274 273.94645471 15.80496833 273.91601038 23.04413986 273.89637566 C26.7658029 273.88594189 30.48737416 273.87179018 34.20898438 273.84912109 C37.80106762 273.8273781 41.39306263 273.81542831 44.9852066 273.81024551 C46.35512938 273.80655236 47.72504738 273.79934055 49.09493256 273.78853989 C51.01473779 273.77400651 52.93463196 273.77318292 54.85449219 273.77294922 C55.94703308 273.768508 57.03957397 273.76406677 58.16522217 273.75949097 C61.00389013 274.00033005 62.63933396 274.4376544 65 276 C66.61842958 279.23685916 66.15695953 282.77054511 66.14083862 286.32473755 C66.13702708 287.59713529 66.13702708 287.59713529 66.13313854 288.89523804 C66.05497911 298.5571852 65.41948857 308.16873969 64.74658203 317.80419922 C64.61137136 319.80868038 64.47670346 321.81319821 64.3425293 323.81774902 C63.98071021 329.19737939 63.61080746 334.57642366 63.23885584 339.95536184 C62.92818037 344.45907674 62.6215479 348.96306336 62.3148793 353.46705258 C61.59191461 364.08407358 60.86233542 374.70062543 60.12841797 385.31689453 C59.37194675 396.26096493 58.62629398 407.20573486 57.88592637 418.15090549 C57.24815183 427.57420816 56.60399783 436.9970596 55.95463836 446.41957104 C55.5675674 452.03685122 55.18286202 457.65426737 54.80420303 463.27212143 C54.44879018 468.54065626 54.08540967 473.80858155 53.71583557 479.07614136 C53.58156536 481.00892807 53.45011114 482.94191276 53.32166672 484.87509537 C53.14606105 487.51130953 52.96033003 490.14662045 52.77200317 492.7819519 C52.72335558 493.54818087 52.67470799 494.31440984 52.62458622 495.10385787 C52.24236193 500.24019563 51.71837793 504.28162207 48 508 C45.51338291 508.25447559 45.51338291 508.25447559 42.31288147 508.26069641 C41.10282944 508.26778122 39.8927774 508.27486603 38.64605713 508.28216553 C37.29797326 508.2798715 35.94988975 508.27736178 34.60180664 508.2746582 C33.18767527 508.27900351 31.77354626 508.28418604 30.35942078 508.29014587 C26.51232663 508.30356704 22.66533053 508.30411108 18.81821752 508.30158257 C15.60983307 508.30051493 12.40146864 508.30539094 9.19308847 508.310188 C1.62553668 508.32129405 -5.94196548 508.32171449 -13.50952148 508.31567383 C-21.32349392 508.30963249 -29.13728636 508.32194653 -36.95122808 508.3432439 C-43.65360698 508.36084177 -50.35592849 508.36686412 -57.05832964 508.36360615 C-61.06417866 508.36179018 -65.0698993 508.36446053 -69.07572746 508.37832069 C-72.84239881 508.39086498 -76.60878899 508.3889875 -80.37545586 508.37590981 C-81.75938511 508.37353698 -83.14333393 508.37630391 -84.52724075 508.38453293 C-86.41343419 508.3949415 -88.29970721 508.38513007 -90.18589783 508.3742218 C-91.77071158 508.37447341 -91.77071158 508.37447341 -93.38754177 508.37473011 C-96 508 -96 508 -97.80088139 506.72661114 C-100.62484493 502.66038545 -100.33020342 497.69878913 -100.65174866 492.90220642 C-100.70977282 492.07914979 -100.76779697 491.25609316 -100.82757944 490.40809542 C-101.02139419 487.64590887 -101.21003481 484.88339357 -101.39868164 482.12084961 C-101.53646706 480.14124048 -101.67455117 478.16165212 -101.81291199 476.18208313 C-102.18825524 470.79715762 -102.5589167 465.41191948 -102.92840123 460.02658916 C-103.23777941 455.52218662 -103.54920105 451.01792622 -103.86054987 446.51365954 C-104.5961059 435.87058832 -105.32764312 425.22724581 -106.05688477 414.58374023 C-106.80679642 403.6397973 -107.56414649 392.69638693 -108.32512003 381.7532081 C-108.97950332 372.33836685 -109.62880142 362.92318371 -110.27420896 353.50772291 C-110.65910377 347.89379656 -111.04593246 342.28002106 -111.43782234 336.66657829 C-111.80725748 331.37202855 -112.17028351 326.0770754 -112.52867317 320.78176689 C-112.66025518 318.85290737 -112.79398897 316.92419304 -112.93020248 314.99565506 C-113.60210826 305.46421969 -114.13615826 295.94214772 -114.26683044 286.38624573 C-114.28720023 285.58516134 -114.30757002 284.78407696 -114.32855707 283.95871729 C-114.35058407 278.49416632 -114.35058407 278.49416632 -112.6083231 276.03835964 C-109.26701377 273.8811558 -107.05690416 273.87842732 -103.08154297 273.88647461 C-101.21983963 273.88658791 -101.21983963 273.88658791 -99.32052612 273.88670349 C-97.96107951 273.8918105 -96.60163331 273.8970265 -95.2421875 273.90234375 C-93.85499116 273.90420858 -92.46779416 273.90563218 -91.08059692 273.90663147 C-87.42765488 273.91045152 -83.77475252 273.92027745 -80.12182617 273.93133545 C-76.39502499 273.94156056 -72.66821741 273.94613145 -68.94140625 273.95117188 C-61.62758606 273.96190017 -54.31379859 273.97897046 -47 274 C-46.63384168 251.59260848 -46.39841663 229.18686561 -46.30309582 206.77663136 C-46.25600792 196.36182593 -46.17147259 185.95024118 -45.98852539 175.53686523 C-45.78191822 163.46817479 -45.68004106 151.40252391 -45.73046875 139.33203125 C-45.73459447 138.34376296 -45.7387202 137.35549466 -45.74297094 136.33727884 C-45.97377461 99.74682193 -52.54365863 67.17151569 -65.84482002 33.11970329 C-68.29315423 26.74927607 -69.63073713 21.8385712 -69 15 C-64.36892238 6.24362798 -51.37913255 0.77194103 -42.5078125 -2.2734375 C-29.02411221 -6.17993011 -12.86836828 -5.5646998 0 0 Z M-99 289 C-98.17407699 303.95779122 -98.17407699 303.95779122 -97 318.875 C-96.25845027 327.35131593 -95.68362362 335.81580279 -95.34179688 344.31787109 C-95.18464118 348.04871517 -94.94327477 351.73235633 -94.50390625 355.44140625 C-93.83278146 361.12713597 -93.63201312 366.82190633 -93.39453125 372.5390625 C-93.1798245 377.32184043 -92.79504177 382.03494196 -92.23193359 386.78857422 C-91.83865755 390.53835781 -91.71387901 394.29656092 -91.5625 398.0625 C-91.2201585 405.72746812 -90.67116229 413.35709345 -90 421 C-89.25923872 429.43546983 -88.68192109 437.85690183 -88.34179688 446.31835938 C-88.11873307 451.61271051 -87.5886427 456.70221574 -87 462 C-86.34 472.23 -85.68 482.46 -85 493 C-44.74 493 -4.48 493 37 493 C38.485 470.23 38.485 470.23 40 447 C40.33 444.03 40.66 441.06 41 438 C41.1147602 436.35549809 41.21322402 434.70959711 41.28125 433.0625 C41.31863281 432.22976563 41.35601562 431.39703125 41.39453125 430.5390625 C41.42933594 429.70117188 41.46414062 428.86328125 41.5 428 C41.73480203 422.34735849 42.10769589 416.76851614 42.77246094 411.14990234 C43.13628137 407.7123458 43.24404152 404.26486909 43.375 400.8125 C43.81194282 390.83288165 44.62189787 380.89144879 45.4375 370.9375 C46.54815708 357.37588095 47.45723492 343.81868726 48.17984009 330.2310791 C48.69829635 320.5334574 49.35408327 310.86927244 50.39086914 301.21069336 C50.83309434 297.07715956 51 293.18179627 51 289 C1.5 289 -48 289 -99 289 Z " fill="#020001" transform="translate(126,4)"/>
<path d="M0 0 C4.95 0 9.9 0 15 0 C16.38090895 24.20793436 17.64364095 48.4197082 18.80493164 72.63916016 C19.02017629 77.12715952 19.23822044 81.61501797 19.45704079 86.10284424 C19.62987325 89.65608392 19.80081143 93.20941349 19.97150803 96.76275635 C20.05512141 98.49419983 20.13952624 100.22560528 20.22475052 101.95697021 C20.64619327 110.5213572 21.03096121 119.07892896 21.20263672 127.65234375 C21.2328038 128.9583252 21.26297089 130.26430664 21.29405212 131.60986328 C21.34378148 133.99986668 21.37747142 136.39028286 21.39161682 138.78076172 C21.41376755 139.81861816 21.43591827 140.85647461 21.45874023 141.92578125 C21.4673558 142.81692627 21.47597137 143.70807129 21.48484802 144.6262207 C22.16766685 147.77259548 23.54549041 148.98478169 26 151 C28.1381966 151.7872678 28.1381966 151.7872678 30 152 C30.13501894 154.43934225 30.23403897 156.87124104 30.3125 159.3125 C30.35439453 160.00279297 30.39628906 160.69308594 30.43945312 161.40429688 C30.48828125 163.42578125 30.48828125 163.42578125 30 167 C27.54296875 168.91796875 27.54296875 168.91796875 25 170 C23.39987546 171.60012454 23.75185712 173.21209846 23.6875 175.4375 C23.91647891 197.44809733 33.8190898 219.58743262 48 236 C48.56460938 236.69738281 49.12921875 237.39476562 49.7109375 238.11328125 C64.80275585 256.35808512 88.80136213 267.73693076 112 271 C118.54156181 271.56938434 125.08841729 271.5788933 131.65014648 271.52148438 C134.56383171 271.49999018 137.47505944 271.52143928 140.38867188 271.546875 C166.33476467 271.58597007 189.89063169 263.84343076 210 247 C210.72703125 246.41863281 211.4540625 245.83726562 212.203125 245.23828125 C228.20741784 231.89204404 237.87937707 212.90667869 243 193 C243.33080566 191.80785889 243.66161133 190.61571777 244.00244141 189.38745117 C245.4888612 182.58200581 245.56131914 175.62254621 245.83015633 168.68582726 C245.93735748 165.9225139 246.05425107 163.15974778 246.17344666 160.39692688 C246.3057932 157.32439996 246.43738671 154.25185408 246.56616688 151.17917538 C247.09088235 138.66780109 247.68541502 126.15971201 248.27702713 113.65136337 C248.47353738 109.4957328 248.66895861 105.3400515 248.86410522 101.18435669 C248.9298775 99.78374799 248.99564987 98.38313929 249.06142235 96.98253059 C249.09410674 96.28651812 249.12679113 95.59050564 249.16046596 94.87340188 C249.25993204 92.75622346 249.35951062 90.63905035 249.45913124 88.5218792 C249.7973963 81.33274756 250.1349398 74.14358324 250.47094727 66.9543457 C250.77036357 60.54803627 251.07099019 54.14178496 251.37305444 47.73559982 C251.53097073 44.38570442 251.68815331 41.03577887 251.84422493 37.68579674 C253.02573026 12.34094056 253.02573026 12.34094056 254 0 C258.95 0 263.9 0 269 0 C269.08393087 10.36226664 268.7630441 20.64732335 268.23046875 30.9921875 C268.14870561 32.63418787 268.06732062 34.27620711 267.98628235 35.91824341 C267.81333333 39.4136807 267.63860021 42.90902185 267.46240234 46.40429688 C266.98993633 55.78728019 266.53133487 65.1709456 266.07421875 74.5546875 C266.02775585 75.50709068 265.98129295 76.45949387 265.93342209 77.44075775 C265.03198574 95.9570615 264.24515498 114.47684662 263.5 133 C262.31644391 162.38494445 260.94245512 191.75875659 259.48437881 221.13134003 C259.31796126 224.48712326 259.15255712 227.84295583 258.98751068 231.19880676 C258.90774942 232.81746835 258.8275995 234.43611085 258.74704742 236.05473328 C258.34555114 244.14114653 257.9721021 252.2253928 257.73144531 260.31835938 C257.69230011 261.60015076 257.65315491 262.88194214 257.61282349 264.20257568 C257.54558482 266.54402894 257.48585731 268.88571738 257.4357605 271.2276001 C257.05409946 284.86556785 253.8218791 297.03261158 244 307 C232.13369834 316.39112217 220.53912776 317.4452405 205.95898438 317.37231445 C204.24961628 317.37474613 202.54024962 317.37846909 200.83088684 317.38337708 C196.21310943 317.39273819 191.59554576 317.383401 186.97778511 317.37004495 C182.13114541 317.35867851 177.28451543 317.36284196 172.43786621 317.36479187 C164.30082738 317.36567321 156.16387211 317.35462801 148.02685547 317.33618164 C138.6371559 317.31501652 129.24757868 317.31150514 119.85786009 317.3177436 C110.8023032 317.32345062 101.74678912 317.31777583 92.6912384 317.30657005 C88.84779565 317.30194178 85.00437922 317.30104251 81.16093445 317.3031559 C76.63003766 317.30504822 72.09926427 317.29686271 67.56839561 317.2810955 C65.91165871 317.27687575 64.25490924 317.27598643 62.59816933 317.27878571 C46.52446485 317.30181191 34.02621019 315.75288724 22 304 C13.34936839 293.67575373 11.44147207 281.32231111 11.12890625 268.234375 C11.08291933 266.88470656 11.03516785 265.53509733 10.98583984 264.18554688 C10.88180268 261.25962303 10.78809266 258.33362319 10.7024231 255.40710449 C10.48507896 248.03029706 10.20884095 240.65551121 9.94004631 233.28043365 C9.84232355 230.58566475 9.74663006 227.89082836 9.65101624 225.19598389 C8.91139756 204.59019943 7.89580637 183.99800728 6.88775635 163.40393066 C6.34260517 152.26441847 5.80661236 141.12446625 5.2734375 129.984375 C5.22034298 128.8753759 5.16724846 127.7663768 5.11254501 126.62377167 C3.94175843 102.1210061 2.86263125 77.61448963 1.81983566 53.10597229 C1.68833674 50.01963861 1.55606242 46.93333899 1.4236145 43.8470459 C1.21746402 39.03773493 1.01354672 34.22833461 0.81158066 29.41884613 C0.73784431 27.66744317 0.66354514 25.9160638 0.58862686 24.164711 C-0.10264884 7.96417406 -0.10264884 7.96417406 0 0 Z " fill="#FDFDFD" transform="translate(215,180)"/>
<path d="M0 0 C4.95 0 9.9 0 15 0 C15.08393087 10.36226664 14.7630441 20.64732335 14.23046875 30.9921875 C14.14870561 32.63418787 14.06732062 34.27620711 13.98628235 35.91824341 C13.81333333 39.4136807 13.63860021 42.90902185 13.46240234 46.40429688 C12.98993633 55.78728019 12.53133487 65.1709456 12.07421875 74.5546875 C12.02775585 75.50709068 11.98129295 76.45949387 11.93342209 77.44075775 C11.03198574 95.9570615 10.24515498 114.47684662 9.5 133 C8.31644391 162.38494445 6.94245512 191.75875659 5.48437881 221.13134003 C5.31796126 224.48712326 5.15255712 227.84295583 4.98751068 231.19880676 C4.90774942 232.81746835 4.8275995 234.43611085 4.74704742 236.05473328 C4.34555114 244.14114653 3.9721021 252.2253928 3.73144531 260.31835938 C3.69230011 261.60015076 3.65315491 262.88194214 3.61282349 264.20257568 C3.54558482 266.54402894 3.48585731 268.88571738 3.4357605 271.2276001 C3.05409946 284.86556785 -0.1781209 297.03261158 -10 307 C-19.53485403 314.54598877 -28.92481028 317.69368111 -41 317 C-40.34 316.360625 -39.68 315.72125 -39 315.0625 C-37.99668061 314.04492892 -36.99720021 313.02356848 -36 312 C-35.0409375 311.03513672 -35.0409375 311.03513672 -34.0625 310.05078125 C-28.85229339 304.55440799 -25.6640365 299.07312016 -23 292 C-22.66226562 291.11207764 -22.32453125 290.22415527 -21.9765625 289.30932617 C-20.89493599 285.64396432 -20.55271923 282.16561924 -20.3671875 278.375 C-20.32548935 277.64267654 -20.2837912 276.91035309 -20.24082947 276.15583801 C-20.10899786 273.770967 -19.99099361 271.3856903 -19.875 269 C-19.81196182 267.77994766 -19.81196182 267.77994766 -19.74765015 266.5352478 C-19.15358726 254.96059867 -18.81963308 243.40232048 -18.8125 231.8125 C-18.8112915 229.90887695 -18.8112915 229.90887695 -18.81005859 227.96679688 C-18.56244406 222.30818324 -18.56244406 222.30818324 -20 217 C-19.18962939 215.17818938 -18.2974723 213.39269322 -17.375 211.625 C-10.8180417 197.79356998 -8.33156326 183.05763148 -7.94352531 167.85599327 C-7.87526032 165.18962435 -7.78036172 162.52516765 -7.68006897 159.8598175 C-7.56829532 156.87182454 -7.45857519 153.88385523 -7.35647106 150.89551449 C-6.93177707 138.47917738 -6.32182135 126.07146854 -5.72599411 113.66244125 C-5.42562913 107.3994244 -5.13291957 101.13604759 -4.83934522 94.87270951 C-4.70680264 92.04703443 -4.57382519 89.22137987 -4.44084966 86.39572513 C-4.13589208 79.91531307 -3.83193597 73.43485505 -3.52905273 66.9543457 C-3.22963643 60.54803627 -2.92900981 54.14178496 -2.62694556 47.73559982 C-2.46902927 44.38570442 -2.31184669 41.03577887 -2.15577507 37.68579674 C-0.97426974 12.34094056 -0.97426974 12.34094056 0 0 Z " fill="#F6D1D8" transform="translate(469,180)"/>
<path d="M0 0 C7.59 0 15.18 0 23 0 C22.36506864 31.40447141 20.82570272 62.76723445 19.31222248 94.13873458 C18.96287563 101.38426101 18.61861821 108.63002706 18.27435684 115.87579656 C18.00757525 121.48689117 17.73961204 127.09792946 17.47142792 132.7089572 C17.37634545 134.69841099 17.28134232 136.68786857 17.18634033 138.6773262 C16.84699901 145.76972739 16.50333406 152.86188762 16.15090942 159.95365143 C16.05371267 161.9157237 15.95765565 163.87785293 15.86300659 165.84004974 C15.74220274 168.33288421 15.61617171 170.82539165 15.48828125 173.31787109 C15.45580292 174.00812189 15.42332458 174.69837269 15.38986206 175.40954018 C14.17324562 198.27632776 3.25372207 220.04565188 -13.60498047 235.46826172 C-20.13341007 241.04879675 -27.08253542 245.6042477 -35 249 C-33.50053496 245.70572075 -31.58154309 243.04897321 -29.375 240.1875 C-14.83072589 220.28480911 -8.66018559 196.82463876 -7.58276367 172.3659668 C-7.54994923 171.64109353 -7.51713478 170.91622026 -7.48332596 170.16938114 C-7.37515724 167.76278534 -7.2715576 165.35601569 -7.16796875 162.94921875 C-7.09085645 161.21249183 -7.0134614 159.47577744 -6.93580627 157.73907471 C-6.72628407 153.03521299 -6.5207308 148.3311853 -6.31590271 143.62711716 C-6.10059872 138.69800554 -5.88163629 133.76905644 -5.66308594 128.84008789 C-5.24788016 119.46290291 -4.83603805 110.08557332 -4.42547035 100.70818424 C-3.9493297 89.83581912 -3.4698283 78.96360293 -2.99021339 68.09139061 C-1.98910103 45.39445175 -0.99312119 22.6972898 0 0 Z " fill="#F84086" transform="translate(431,180)"/>
<path d="M0 0 C49.5 0 99 0 150 0 C148.93360216 19.19516105 148.93360216 19.19516105 148.24560547 24.72998047 C147.71356255 29.64741097 147.4789722 34.59272926 147.18405151 39.52902222 C147.05981277 41.60745554 146.93271388 43.68569771 146.80493164 45.76391602 C146.53415093 50.17579523 146.26681073 54.58787915 146 59 C145.69043634 64.11910539 145.37940292 69.23811288 145.06466675 74.35690308 C144.94046718 76.38895338 144.81892541 78.4211509 144.69750977 80.45336914 C144.29595595 86.99915989 143.76674744 93.48754088 143 100 C142.8852398 101.64450191 142.78677598 103.29040289 142.71875 104.9375 C142.68136719 105.77023437 142.64398438 106.60296875 142.60546875 107.4609375 C142.57066406 108.29882812 142.53585938 109.13671875 142.5 110 C142.26604403 115.63227345 141.89508566 121.190394 141.23193359 126.78857422 C140.83865574 130.53837504 140.71409431 134.29655782 140.5625 138.0625 C140.22725489 145.49713542 139.71237128 152.89899226 139.0625 160.3125 C137.78872835 174.85865777 136.90123014 189.42691685 136 204 C128.41 204 120.82 204 113 204 C113.24463 199.16985868 113.49181888 194.33995917 113.74462891 189.51025391 C113.82930777 187.87978938 113.91271412 186.24925808 113.99462891 184.61865234 C114.4850645 174.87654291 115.12673065 165.16332894 115.97265625 155.4453125 C117.11537767 142.26992942 117.85044217 129.07958104 118.5625 115.875 C118.81001386 111.28884468 119.06188625 106.70295873 119.31640625 102.1171875 C119.37059219 101.086008 119.42477814 100.05482849 119.48060608 98.99240112 C119.74444567 94.24527388 120.21271852 89.69039113 121 85 C121.30783035 81.3412574 121.51124287 77.67734389 121.71875 74.01171875 C121.78155151 72.9539473 121.84435303 71.89617584 121.90905762 70.80635071 C122.10906052 67.43357027 122.30491359 64.06056813 122.5 60.6875 C122.69538649 57.3251638 122.89175373 53.96289751 123.09094238 50.6007843 C123.21457049 48.51285509 123.33603195 46.42479605 123.45495605 44.33659363 C123.75986422 39.17428091 124.17971444 34.05409976 124.78479004 28.91838074 C125.04496185 26.59921025 125.1873997 24.28856229 125.28125 21.95703125 C125.31863281 21.11076172 125.35601562 20.26449219 125.39453125 19.39257812 C125.46532199 17.66082678 125.53562808 15.92905555 125.60546875 14.19726562 C125.64285156 13.35486328 125.68023437 12.51246094 125.71875 11.64453125 C125.74904297 10.89534424 125.77933594 10.14615723 125.81054688 9.37426758 C126.03480939 6.56376124 126.53648699 3.78107808 127 1 C85.42 1 43.84 1 1 1 C1 2.65 1 4.3 1 6 C0.67 6 0.34 6 0 6 C0 4.02 0 2.04 0 0 Z " fill="#454664" transform="translate(27,293)"/>
<path d="M0 0 C1.299375 1.0828125 1.299375 1.0828125 2.625 2.1875 C0.22620081 12.77693591 -2.86043465 23.04494611 -6.22265625 33.36474609 C-9.85885238 44.56674022 -13.13711687 55.86502744 -16.375 67.1875 C-22.975 67.1875 -29.575 67.1875 -36.375 67.1875 C-37.07625 64.81820312 -37.7775 62.44890625 -38.5 60.0078125 C-39.20665227 57.62357708 -39.91377879 55.23948283 -40.62097168 52.85540771 C-41.12241666 51.16431963 -41.62347655 49.47311731 -42.12414551 47.78179932 C-44.66926658 39.18628204 -47.22236479 30.59536972 -49.921875 22.046875 C-50.29699219 20.85433105 -50.67210938 19.66178711 -51.05859375 18.43310547 C-51.75670386 16.22657887 -52.4621568 14.02235875 -53.17578125 11.82080078 C-53.48386719 10.8461084 -53.79195313 9.87141602 -54.109375 8.8671875 C-54.37975586 8.02913574 -54.65013672 7.19108398 -54.92871094 6.32763672 C-55.375 4.1875 -55.375 4.1875 -54.375 1.1875 C-38.44590411 -10.60183085 -16.41810382 -11.58535552 0 0 Z " fill="#F870A1" transform="translate(128.375,22.8125)"/>
<path d="M0 0 C4.62 0 9.24 0 14 0 C14 57.09 14 114.18 14 173 C9.38 173 4.76 173 0 173 C0 115.91 0 58.82 0 0 Z " fill="#FA4087" transform="translate(95,105)"/>
<path d="M0 0 C19.47 0 38.94 0 59 0 C59 4.95 59 9.9 59 15 C39.53 15 20.06 15 0 15 C0 10.05 0 5.1 0 0 Z " fill="#FFFFFF" transform="translate(320,150)"/>
<path d="M0 0 C19.47 0 38.94 0 59 0 C59 4.95 59 9.9 59 15 C39.53 15 20.06 15 0 15 C0 10.05 0 5.1 0 0 Z " fill="#FFFFFF" transform="translate(320,120)"/>
<path d="M0 0 C7.26 0 14.52 0 22 0 C22 4.95 22 9.9 22 15 C14.74 15 7.48 15 0 15 C0 10.05 0 5.1 0 0 Z " fill="#F9D4DB" transform="translate(357,150)"/>
<path d="M0 0 C7.26 0 14.52 0 22 0 C22 4.95 22 9.9 22 15 C14.74 15 7.48 15 0 15 C0 10.05 0 5.1 0 0 Z " fill="#F9D4DB" transform="translate(357,120)"/>
</svg>
