<svg xmlns="http://www.w3.org/2000/svg" width="79.716" height="101.456" viewBox="0 0 79.716 101.456">
  <g id="svgexport-21_5_" data-name="svgexport-21 (5)" transform="translate(-5 -2)">
    <g id="Layer_2" data-name="Layer 2" transform="translate(5 2)">
      <path id="Path_46398" data-name="Path 46398" d="M84.716,5.623V86.861l-1.051,1.051c-.109.072-.217.181-.326.254L65.4,102.55l-.906.906H8.623A3.634,3.634,0,0,1,5,99.833V5.623A3.634,3.634,0,0,1,8.623,2H81.092a3.634,3.634,0,0,1,3.623,3.623Z" transform="translate(-5 -2)" fill="#ffd166"/>
      <path id="Path_46399" data-name="Path 46399" d="M47.988,5.623V79.614l-1.051,1.051c-.109.072-.217.181-.326.254L28.675,95.3l-.906.906H19V78.092a3.634,3.634,0,0,1,3.623-3.623h10.87V2h10.87a3.634,3.634,0,0,1,3.623,3.623Z" transform="translate(31.728 -2)" fill="rgba(0,0,0,0.13)"/>
      <path id="Path_46400" data-name="Path 46400" d="M47.988,23v8.769L46.937,32.82c-.109.072-.217.181-.326.254L28.675,47.458l-.906.906H19V26.623A3.634,3.634,0,0,1,22.623,23Z" transform="translate(31.728 53.092)" fill="#d8e2dc"/>
      <g id="Group_16560" data-name="Group 16560" transform="translate(14.493 32.61)">
        <path id="Path_46401" data-name="Path 46401" d="M20.632,29.118a3.642,3.642,0,1,1,3.642-3.642,3.642,3.642,0,0,1-3.642,3.642ZM35.14,25.494a3.6,3.6,0,0,1-2.007-.609l-10.87-7.247a3.624,3.624,0,1,1,4.022-6.029l10.87,7.247a3.623,3.623,0,0,1-2.015,6.638Z" transform="translate(11.962 -11)" fill="#073b4c"/>
        <circle id="Ellipse_1267" data-name="Ellipse 1267" cx="3.642" cy="3.642" r="3.642" transform="translate(14.495 10.835)" fill="#073b4c"/>
        <path id="Path_46402" data-name="Path 46402" d="M12.628,25.494a3.623,3.623,0,0,1-2.015-6.638l10.87-7.247a3.624,3.624,0,1,1,4.022,6.029l-10.87,7.247a3.6,3.6,0,0,1-2.011.609ZM48.862,47.235a3.59,3.59,0,0,1-.453-.029L19.422,43.583a3.623,3.623,0,0,1,.9-7.189l28.987,3.623a3.623,3.623,0,0,1-.446,7.218Z" transform="translate(-9 -11)" fill="#073b4c"/>
      </g>
    </g>
    <g id="Layer_3" data-name="Layer 3" transform="translate(5 37.531)">
      <path id="Path_46403" data-name="Path 46403" d="M48.507,68.817H5v1.812a3.634,3.634,0,0,0,3.623,3.623h47.1v-6.8a19.813,19.813,0,0,1-7.222,1.37ZM69.613,18.288a3.623,3.623,0,0,0-1-5.026l-.2-.13V19.4a3.587,3.587,0,0,0,1.2-1.112Z" transform="translate(-5 -8.327)" fill="rgba(0,0,0,0.13)"/>
      <path id="Path_46404" data-name="Path 46404" d="M9.609,21.767c.025.036.058.062.083.094l8.323-10.055-7.4,4.935a3.623,3.623,0,0,0-1,5.026Z" transform="translate(5.493 -11.806)" fill="#073b4c"/>
      <path id="Path_46405" data-name="Path 46405" d="M33.418,23A21.73,21.73,0,0,1,19,41.947v6.417h8.769l.906-.906L46.611,33.073c.109-.072.217-.181.326-.254l1.051-1.051V23Z" transform="translate(31.728 17.561)" fill="rgba(0,0,0,0.13)"/>
    </g>
  </g>
</svg>
