<svg xmlns="http://www.w3.org/2000/svg" xmlns:xlink="http://www.w3.org/1999/xlink" width="180" height="80"
  viewBox="0 0 40 40">

      <g id="Group" transform="translate(0 0)">
        <path id="Shape"
          d="M33.715,34.31H33.7c-1.178-.007-2.442-.01-4.1-.01H25.489c-.059,0-.1,0-.145-.006a.723.723,0,0,1-.009-1.444,1.562,1.562,0,0,1,.163-.007h7.71V9.322H25.386v.4q0,.795,0,1.589v.035c0,1.443,0,2.935,0,4.408a.789.789,0,0,1-.435.841.758.758,0,0,1-.3.066.9.9,0,0,1-.64-.333c-.581-.593-1.177-1.189-1.754-1.765l-.009-.009-.519-.519c-.056-.056-.115-.11-.178-.168l-.1-.092-2.106,2.106-.009.009-.162.162c-.124.124-.251.252-.378.377a.734.734,0,0,1-.52.233.788.788,0,0,1-.314-.07.715.715,0,0,1-.43-.734c0-.9,0-1.824,0-2.714v0q0-.6,0-1.208V9.3H17.48c-.168,0-.337,0-.5,0-.181,0-.366,0-.547,0-.289,0-.526-.006-.745-.019l-.084,0a.653.653,0,0,0-.65.442,6.814,6.814,0,0,1-2.139,2.5,7.275,7.275,0,0,1-3.1,1.183V32.848h9.03a1.407,1.407,0,0,1,.2.012.723.723,0,0,1,0,1.432,1.243,1.243,0,0,1-.186.011H9.208c-.747,0-.975-.228-.976-.977V24.262H.9a1.636,1.636,0,0,1-.3-.021.7.7,0,0,1-.6-.783.684.684,0,0,1,.7-.645c.271,0,.569-.007.939-.007H8.208v-9.4a6.732,6.732,0,0,1-4.97-3.172,6.464,6.464,0,0,1-.868-4.849A6.708,6.708,0,0,1,4.717,1.5,6.778,6.778,0,0,1,8.97,0a7.046,7.046,0,0,1,1.038.078A6.717,6.717,0,0,1,14.22,2.533a6.87,6.87,0,0,1,1.389,5.311h7.678c3.081,0,6.727,0,10.415-.008a.986.986,0,0,1,.988.517v25.44A.987.987,0,0,1,33.715,34.31ZM21.461,12a.853.853,0,0,1,.584.29c.39.378.707.7,1,1,.185.2.365.4.539.6q.12.138.242.275l.052-.058.027-.031V9.317h-4.9v4.82l.594-.59c.438-.436.852-.847,1.274-1.26A.854.854,0,0,1,21.461,12ZM8.957,1.448a5.269,5.269,0,0,0,0,10.539,5.269,5.269,0,0,0,0-10.539Z"
          transform="translate(2.525)" />
        <path id="Shape-2" data-name="Shape"
          d="M0,.525A.917.917,0,0,1,.939,0C3.152.016,5.365.007,7.578.009a1.582,1.582,0,0,1,.43.037.716.716,0,0,1,.49.76.7.7,0,0,1-.68.641c-2.382.012-4.764.019-7.146-.016-.226,0-.448-.306-.672-.47Q0,.743,0,.525Z"
          transform="translate(0 27.453)" />
        <path id="Shape-3" data-name="Shape"
          d="M0,.527A.875.875,0,0,1,.936,0c.348.026.7,0,1.049.009A.7.7,0,0,1,2.7.682a.693.693,0,0,1-.655.764,5.812,5.812,0,0,1-1.37-.014C.429,1.391.223,1.127,0,.963V.527Z"
          transform="translate(0 18.148)" />
        <path id="Shape-4" data-name="Shape"
          d="M4.514,4.654l-3.634,0a.763.763,0,0,1-.874-.867C0,2.724,0,1.761.007.841.012.262.275,0,.861,0L2.433,0H8.128c.635,0,.883.247.887.874.006,1.032.006,1.983,0,2.907,0,.6-.271.868-.866.869ZM1.478,1.473v1.7H7.534v-1.7Z"
          transform="translate(23.283 20.773)" />
        <path id="Shape-5" data-name="Shape"
          d="M3.41,0c.872,0,1.744,0,2.617,0,.51,0,.816.28.815.722a.727.727,0,0,1-.82.728q-2.6.009-5.2,0A.752.752,0,0,1,0,.718.739.739,0,0,1,.83,0c.86,0,1.72,0,2.58,0Z"
          transform="translate(25.451 27.459)" />
        <path id="Shape-6" data-name="Shape"
          d="M1.837,0c.35,0,.7-.008,1.05,0a.71.71,0,0,1,.728.662.7.7,0,0,1-.655.77c-.759.031-1.521.029-2.281,0A.711.711,0,0,1,0,.686.723.723,0,0,1,.75,0C1.112,0,1.474,0,1.837,0Z"
          transform="translate(4.885 18.155)" />
        <path id="Shape-7" data-name="Shape"
          d="M1.448.714a.733.733,0,0,1-.732.734A.733.733,0,0,1,0,.734.732.732,0,0,1,.732,0a.733.733,0,0,1,.716.714Z"
          transform="translate(23.916 32.851)" />
        <path id="Shape-8" data-name="Shape"
          d="M1.717,1.762C2.25,1.221,2.7.754,3.166.294A.732.732,0,1,1,4.191,1.316q-.931.941-1.872,1.871a.731.731,0,0,1-1.144.006Q.7,2.742.252,2.27A.724.724,0,0,1,.216,1.206a.735.735,0,0,1,1.067.048c.147.142.267.31.434.508Z"
          transform="translate(9.655 4.932)" />
      </g>


</svg>
