<svg xmlns="http://www.w3.org/2000/svg"  viewBox="0 0 48.529 33.333">
  <g id="svgexport-10" transform="translate(0 -80.164)">
    <path id="Path_45291" data-name="Path 45291"
      d="M421.985,384.777a.711.711,0,1,0,0,1.422h.008a.711.711,0,0,0-.008-1.422Z"
      transform="translate(-381.344 -275.741)"  />
    <path id="Path_45292" data-name="Path 45292"
      d="M173.485,384.777a.711.711,0,1,0,0,1.422h.008a.711.711,0,1,0-.008-1.422Z"
      transform="translate(-156.398 -275.741)"  />
    <path id="Path_45293" data-name="Path 45293"
      d="M133.312,188.2l-2.273-1.625-.033-6.875a1.8,1.8,0,0,0-1.877-1.827h-5.518a1.308,1.308,0,0,0-.237-1.028,1.287,1.287,0,0,0-1.035-.491h-4.954a.711.711,0,0,0,0,1.422h4.787l-4.912,18.333h-10.8a2.9,2.9,0,0,0-3.04-3.039,4.947,4.947,0,0,0-4.361,3.039H95.939l1.389-5.184a.711.711,0,0,0-1.373-.368l-1.425,5.319a1.328,1.328,0,0,0,.208,1.163,1.287,1.287,0,0,0,1.035.491h2.984a2.9,2.9,0,0,0,3.04,3.039,4.947,4.947,0,0,0,4.361-3.039h16.152a2.9,2.9,0,0,0,3.04,3.039,4.947,4.947,0,0,0,4.361-3.039h.252a2.84,2.84,0,0,0,2.613-2.047l1.4-5.218A1.869,1.869,0,0,0,133.312,188.2Zm-28.35,8.435a3.556,3.556,0,0,1-3.167,2.512,1.606,1.606,0,0,1-1.319-.575,1.774,1.774,0,0,1-.219-1.569,3.556,3.556,0,0,1,3.167-2.512,1.606,1.606,0,0,1,1.319.575A1.775,1.775,0,0,1,104.963,196.639Zm24.653-10.4h-4.6a.466.466,0,0,1-.377-.148.554.554,0,0,1-.048-.476l.611-2.279a1.418,1.418,0,0,1,1.24-.993H129.6Zm-1.1,10.4a3.556,3.556,0,0,1-3.167,2.512,1.606,1.606,0,0,1-1.319-.575,1.774,1.774,0,0,1-.219-1.569,3.556,3.556,0,0,1,3.167-2.512,1.606,1.606,0,0,1,1.319.575A1.775,1.775,0,0,1,128.516,196.639Zm2.687-1.52a1.43,1.43,0,0,1-1.185.99,2.9,2.9,0,0,0-3.04-3.036,4.947,4.947,0,0,0-4.361,3.039h-3.884l1.248-4.657h8.572a.711.711,0,1,0,0-1.422h-8.191l2.876-10.735h5.892c.207,0,.454.072.455.412l.006,1.205h-3.154a2.84,2.84,0,0,0-2.613,2.046l-.611,2.279a1.952,1.952,0,0,0,.294,1.71,1.868,1.868,0,0,0,1.505.7H130.1l2.384,1.7c.2.145.14.451.115.541l-.035.132h-.974a.711.711,0,1,0,0,1.422h.593Z"
      transform="translate(-85.523 -87.076)"  />
    <path id="Path_45294" data-name="Path 45294"
      d="M83.493,102.86A11.348,11.348,0,1,0,72.145,91.512,11.361,11.361,0,0,0,83.493,102.86Zm0-21.274a9.926,9.926,0,1,1-9.926,9.926,9.937,9.937,0,0,1,9.926-9.926Z"
      transform="translate(-65.307)"  />
    <path id="Path_45295" data-name="Path 45295"
      d="M153.017,146.057a.708.708,0,0,0,.5-.208l1.545-1.545a2.229,2.229,0,0,0,2.989-2.989l3.824-3.824a.711.711,0,0,0-1.005-1.005l-3.824,3.824a2.229,2.229,0,0,0-2.989,2.989l-1.545,1.545a.711.711,0,0,0,.5,1.213Zm3.039-4.559a.809.809,0,1,1-.809.809A.81.81,0,0,1,156.056,141.5Z"
      transform="translate(-137.87 -50.795)"  />
    <path id="Path_45296" data-name="Path 45296"
      d="M185.082,114.41a.711.711,0,0,0,.711-.711v-.76a.711.711,0,1,0-1.422,0v.76A.711.711,0,0,0,185.082,114.41Z"
      transform="translate(-166.896 -29.025)"  />
    <path id="Path_45297" data-name="Path 45297"
      d="M185.082,264.535a.711.711,0,0,0-.711.711v.76a.711.711,0,0,0,1.422,0v-.76A.711.711,0,0,0,185.082,264.535Z"
      transform="translate(-166.896 -166.896)"  />
    <path id="Path_45298" data-name="Path 45298"
      d="M257.227,193.812h.76a.711.711,0,0,0,0-1.422h-.76a.711.711,0,0,0,0,1.422Z"
      transform="translate(-232.203 -101.589)"  />
    <path id="Path_45299" data-name="Path 45299"
      d="M106.392,193.1a.711.711,0,0,0-.711-.711h-.76a.711.711,0,1,0,0,1.422h.76A.711.711,0,0,0,106.392,193.1Z"
      transform="translate(-94.333 -101.589)"  />
    <path id="Path_45300" data-name="Path 45300"
      d="M8.309,296.6H.711a.711.711,0,0,0,0,1.422h7.6a.711.711,0,0,0,0-1.422Z" transform="translate(0 -195.921)"
       />
    <path id="Path_45301" data-name="Path 45301"
      d="M29.318,328.664H24.759a.711.711,0,0,0,0,1.422h4.559a.711.711,0,0,0,0-1.422Z"
      transform="translate(-21.769 -224.946)"  />
    <path id="Path_45302" data-name="Path 45302"
      d="M50.327,360.728h-1.52a.711.711,0,1,0,0,1.422h1.52a.711.711,0,1,0,0-1.422Z"
      transform="translate(-43.538 -253.971)"  />
  </g>
</svg>
