<svg xmlns="http://www.w3.org/2000/svg" width="24.212" height="16.904" viewBox="0 0 24.212 16.904">
  <g id="svgexport-9" transform="translate(0 -80.164)">
    <path id="Path_46233" data-name="Path 46233" d="M332.852,204.975l-1.282-.916-.017-3.611a.547.547,0,0,0-.582-.559H327l-2.438,9.1h6.823a1.061,1.061,0,0,0,.961-.758l.7-2.6A.584.584,0,0,0,332.852,204.975Z" transform="translate(-309.216 -114.063)" fill="#ffa95f"/>
    <path id="Path_46234" data-name="Path 46234" d="M327.042,330.043a.21.21,0,0,1-.169-.065.253.253,0,0,1-.02-.216l.433-1.614h-1.909l-.813,3.033h6.823a1.061,1.061,0,0,0,.961-.758l.1-.379Z" transform="translate(-309.216 -236.257)" fill="#ff8b5a"/>
    <path id="Path_46235" data-name="Path 46235" d="M387.677,204.975l-1.282-.916-.017-3.611a.547.547,0,0,0-.582-.559h-2.061l-1.625,6.065h5.673l.088-.329A.584.584,0,0,0,387.677,204.975Z" transform="translate(-364.04 -114.063)" fill="#ffc269"/>
    <path id="Path_46236" data-name="Path 46236" d="M104.908,183.858h10.614a.281.281,0,0,1,.277.379l-2.539,9.477H102.267a.281.281,0,0,1-.277-.379l2.438-9.1A.53.53,0,0,1,104.908,183.858Z" transform="translate(-97.154 -98.79)" fill="#e5646e"/>
    <path id="Path_46237" data-name="Path 46237" d="M113.259,193.713l.3-1.137h-9.737a.371.371,0,0,1-.359-.468l.3-1.111a.374.374,0,0,1,.484-.252,6.361,6.361,0,0,0,2.4.3,6.6,6.6,0,0,0,5.919-5.444,5.111,5.111,0,0,0,.052-1.745h-7.713a.53.53,0,0,0-.481.379l-2.438,9.1a.281.281,0,0,0,.277.379h10.993Z" transform="translate(-97.153 -98.789)" fill="#db4655"/>
    <ellipse id="Ellipse_1255" data-name="Ellipse 1255" cx="1.733" cy="1.327" rx="1.733" ry="1.327" transform="matrix(0.753, -0.659, 0.659, 0.753, 18.115, 95.064)" fill="#5d5360"/>
    <ellipse id="Ellipse_1256" data-name="Ellipse 1256" cx="1.733" cy="1.327" rx="1.733" ry="1.327" transform="matrix(0.753, -0.659, 0.659, 0.753, 6.359, 95.07)" fill="#5d5360"/>
    <path id="Path_46238" data-name="Path 46238" d="M404.893,234.608h2.654l-.013-2.654H405.6a1.061,1.061,0,0,0-.961.758l-.3,1.137A.562.562,0,0,0,404.893,234.608Z" transform="translate(-385.191 -144.612)" fill="#dbeaff"/>
    <circle id="Ellipse_1257" data-name="Ellipse 1257" cx="5.307" cy="5.307" r="5.307" transform="translate(3.766 80.519)" fill="#eceaec"/>
    <circle id="Ellipse_1258" data-name="Ellipse 1258" cx="4.17" cy="4.17" r="4.17" transform="translate(4.904 81.656)" fill="#fff"/>
    <circle id="Ellipse_1259" data-name="Ellipse 1259" cx="0.758" cy="0.758" r="0.758" transform="translate(8.315 85.068)" fill="#5d5360"/>
    <path id="Path_46239" data-name="Path 46239" d="M407.546,234.608l-.005-1.137h-1.687a.209.209,0,0,1-.169-.065.253.253,0,0,1-.02-.216l.3-1.137.026-.1H405.6a1.061,1.061,0,0,0-.961.758l-.3,1.137a.562.562,0,0,0,.555.758h2.654Z" transform="translate(-385.191 -144.612)" fill="#c3ddff"/>
    <path id="Path_46240" data-name="Path 46240" d="M421.629,384.777a.355.355,0,1,0,0,.709h0a.355.355,0,0,0,0-.709Z" transform="translate(-401.352 -290.208)"/>
    <path id="Path_46241" data-name="Path 46241" d="M173.129,384.777a.355.355,0,1,0,0,.709h0a.355.355,0,1,0,0-.709Z" transform="translate(-164.604 -290.208)"/>
    <path id="Path_46242" data-name="Path 46242" d="M113.853,182.269l-1.134-.811-.016-3.43a.9.9,0,0,0-.936-.912h-2.753a.653.653,0,0,0-.118-.513.642.642,0,0,0-.516-.245h-2.472a.355.355,0,1,0,0,.709H108.3l-2.451,9.147h-5.386a1.445,1.445,0,0,0-1.517-1.516,2.468,2.468,0,0,0-2.176,1.516H95.207l.693-2.586a.355.355,0,0,0-.685-.184L94.5,186.1a.663.663,0,0,0,.1.58.642.642,0,0,0,.516.245h1.489a1.445,1.445,0,0,0,1.517,1.516,2.468,2.468,0,0,0,2.176-1.516h8.059a1.445,1.445,0,0,0,1.517,1.516,2.468,2.468,0,0,0,2.176-1.516h.126a1.417,1.417,0,0,0,1.3-1.021l.7-2.6a.933.933,0,0,0-.33-1.03Zm-14.144,4.208a1.774,1.774,0,0,1-1.58,1.253.8.8,0,0,1-.658-.287.885.885,0,0,1-.109-.783,1.774,1.774,0,0,1,1.58-1.253.8.8,0,0,1,.658.287A.886.886,0,0,1,99.709,186.477Zm12.3-5.191h-2.3a.232.232,0,0,1-.188-.074.277.277,0,0,1-.024-.238l.3-1.137a.708.708,0,0,1,.619-.5H112Zm-.549,5.191a1.774,1.774,0,0,1-1.58,1.253.8.8,0,0,1-.658-.287.885.885,0,0,1-.109-.783,1.774,1.774,0,0,1,1.58-1.253.8.8,0,0,1,.658.287A.886.886,0,0,1,111.461,186.477Zm1.34-.758a.714.714,0,0,1-.591.494,1.445,1.445,0,0,0-1.517-1.515,2.468,2.468,0,0,0-2.176,1.516h-1.938l.623-2.323h4.277a.355.355,0,0,0,0-.709h-4.087l1.435-5.356h2.94c.1,0,.226.036.227.206l0,.6h-1.574a1.417,1.417,0,0,0-1.3,1.021l-.3,1.137a.974.974,0,0,0,.147.853.932.932,0,0,0,.751.352h2.54l1.189.85c.1.072.07.225.058.27l-.018.066h-.486a.355.355,0,0,0,0,.709h.3Z" transform="translate(-90.01 -91.645)"/>
    <path id="Path_46243" data-name="Path 46243" d="M77.807,91.488a5.662,5.662,0,1,0-5.662-5.662A5.668,5.668,0,0,0,77.807,91.488Zm0-10.614a4.952,4.952,0,1,1-4.952,4.952A4.958,4.958,0,0,1,77.807,80.873Z" transform="translate(-68.733)"/>
    <path id="Path_46244" data-name="Path 46244" d="M152.661,141.157a.353.353,0,0,0,.251-.1l.771-.771a1.112,1.112,0,0,0,1.491-1.491l1.908-1.908a.355.355,0,0,0-.5-.5l-1.908,1.908a1.112,1.112,0,0,0-1.491,1.491l-.771.771a.355.355,0,0,0,.251.605Zm1.516-2.274a.4.4,0,1,1-.4.4A.4.4,0,0,1,154.177,138.883Z" transform="translate(-145.104 -53.46)"/>
    <path id="Path_46245" data-name="Path 46245" d="M184.726,113.316a.355.355,0,0,0,.355-.355v-.379a.355.355,0,0,0-.709,0v.379A.355.355,0,0,0,184.726,113.316Z" transform="translate(-175.652 -30.548)"/>
    <path id="Path_46246" data-name="Path 46246" d="M184.726,264.535a.355.355,0,0,0-.355.355v.379a.355.355,0,0,0,.709,0v-.379A.355.355,0,0,0,184.726,264.535Z" transform="translate(-175.652 -175.652)"/>
    <path id="Path_46247" data-name="Path 46247" d="M256.871,193.1h.379a.355.355,0,1,0,0-.709h-.379a.355.355,0,1,0,0,.709Z" transform="translate(-244.386 -106.919)"/>
    <path id="Path_46248" data-name="Path 46248" d="M105.3,192.745a.355.355,0,0,0-.355-.355h-.379a.355.355,0,1,0,0,.709h.379A.355.355,0,0,0,105.3,192.745Z" transform="translate(-99.282 -106.919)"/>
    <path id="Path_46249" data-name="Path 46249" d="M4.145,296.6H.355a.355.355,0,0,0,0,.709H4.145a.355.355,0,0,0,0-.709Z" transform="translate(0 -206.2)"/>
    <path id="Path_46250" data-name="Path 46250" d="M26.677,328.664H24.4a.355.355,0,0,0,0,.709h2.274a.355.355,0,0,0,0-.709Z" transform="translate(-22.911 -236.749)"/>
    <path id="Path_46251" data-name="Path 46251" d="M49.21,360.728h-.758a.355.355,0,0,0,0,.709h.758a.355.355,0,0,0,0-.709Z" transform="translate(-45.823 -267.296)"/>
  </g>
</svg>
