<svg xmlns="http://www.w3.org/2000/svg" width="24.02" height="21.725" viewBox="0 0 24.02 21.725">
  <g id="svgexport-10_1_" data-name="svgexport-10 (1)" transform="translate(0 -24.45)">
    <path id="Path_46252" data-name="Path 46252" d="M85.245,31.761H67.117a.294.294,0,0,0-.274.187l-.954,2.443V50.118a.789.789,0,0,0,.789.789H85.684a.789.789,0,0,0,.789-.789V34.391l-.954-2.443A.294.294,0,0,0,85.245,31.761Z" transform="translate(-62.797 -6.968)" fill="#927266"/>
    <path id="Path_46253" data-name="Path 46253" d="M85.684,104.348H66.677a.789.789,0,0,1-.789-.789V87.832H86.473v15.727A.789.789,0,0,1,85.684,104.348Z" transform="translate(-62.797 -60.409)" fill="#82635a"/>
    <path id="Path_46254" data-name="Path 46254" d="M84.4,87.832v14.213a1.282,1.282,0,0,1-1.282,1.282H66.677a.789.789,0,0,1-.789-.789v1.021a.789.789,0,0,0,.789.789H85.684a.789.789,0,0,0,.789-.789V87.832Z" transform="translate(-62.797 -60.409)" fill="#72544e"/>
    <path id="SVGCleanerId_0" d="M35.079,236.093a.782.782,0,0,1-.516.977l-3.4,1.052.2.082,2.269.925,3.756,1.531a.891.891,0,0,1,.489,1.162h0a.891.891,0,0,1-1.162.489l.871.355a.891.891,0,0,1,.489,1.162h0a.891.891,0,0,1-1.162.489l-.871-.355a.891.891,0,0,1,.5,1.146.907.907,0,0,1-1.187.5l-.726-.3a.891.891,0,0,1,.489,1.162h0a.891.891,0,0,1-1.162.489l-6.579-2.682a4.1,4.1,0,0,1-1.652-1.232h0a4.1,4.1,0,0,0-1.652-1.232L21.342,240.7l1.907-4.676,2.361.963c.79.322,8.543-1.424,8.543-1.424A.794.794,0,0,1,35.079,236.093Z" transform="translate(-20.341 -201.191)" fill="#fed9a8"/>
    <g id="Group_15940" data-name="Group 15940" transform="translate(1.001 34.353)">
      <path id="SVGCleanerId_0_1_" d="M35.079,236.093a.782.782,0,0,1-.516.977l-3.4,1.052.2.082,2.269.925,3.756,1.531a.891.891,0,0,1,.489,1.162h0a.891.891,0,0,1-1.162.489l.871.355a.891.891,0,0,1,.489,1.162h0a.891.891,0,0,1-1.162.489l-.871-.355a.891.891,0,0,1,.5,1.146.907.907,0,0,1-1.187.5l-.726-.3a.891.891,0,0,1,.489,1.162h0a.891.891,0,0,1-1.162.489l-6.579-2.682a4.1,4.1,0,0,1-1.652-1.232h0a4.1,4.1,0,0,0-1.652-1.232L21.342,240.7l1.907-4.676,2.361.963c.79.322,8.543-1.424,8.543-1.424A.794.794,0,0,1,35.079,236.093Z" transform="translate(-21.342 -235.544)" fill="#fed9a8"/>
    </g>
    <g id="Group_15941" data-name="Group 15941" transform="translate(10.821 36.931)">
      <path id="Path_46255" data-name="Path 46255" d="M235.2,415.954a1.239,1.239,0,0,0-.182-.094l-3.334-1.36a.848.848,0,0,0,.462,1.1l2.645,1.092a1.041,1.041,0,0,1,.536.634.888.888,0,0,0,.2-.3h0A.891.891,0,0,0,235.2,415.954Z" transform="translate(-231.575 -408.682)" fill="#f4c892"/>
      <path id="Path_46256" data-name="Path 46256" d="M250.642,382.138a.891.891,0,0,0-.474-1.137l-.009,0h0l-.006,0,0,0h0l-4.1-1.672h0a.835.835,0,0,0,.461,1.089l3.639,1.467a1.089,1.089,0,0,1,.434.388A.855.855,0,0,0,250.642,382.138Z" transform="translate(-245.267 -375.154)" fill="#f4c892"/>
      <path id="Path_46257" data-name="Path 46257" d="M230.677,290.491Z" transform="translate(-230.677 -290.491)" fill="#f4c892"/>
      <path id="Path_46258" data-name="Path 46258" d="M237.289,294.374a.9.9,0,0,0,.1-.184h0a.891.891,0,0,0-.489-1.162l-3.756-1.531-2.269-.925-.2-.082a4.562,4.562,0,0,0,2.228,1.943l4,1.63A1.134,1.134,0,0,1,237.289,294.374Z" transform="translate(-230.677 -290.49)" fill="#f4c892"/>
      <path id="Path_46259" data-name="Path 46259" d="M265.309,346.173l-4.971-2.027a.869.869,0,0,0,.478,1.133l4.493,1.823a1.192,1.192,0,0,1,.391.41.892.892,0,0,0-.391-1.34Z" transform="translate(-258.885 -341.629)" fill="#f4c892"/>
    </g>
    <path id="Path_46260" data-name="Path 46260" d="M9.588,226.778a.34.34,0,0,1,.443-.186l1.842.751a.34.34,0,0,1,.186.443L9.807,233.31a.34.34,0,0,1-.443.186l-1.842-.751a.34.34,0,0,1-.186-.443l2.253-5.524" transform="translate(-6.968 -192.634)" fill="#2d5872"/>
    <path id="Path_46261" data-name="Path 46261" d="M11.872,236.532l-.795-.324-2.1,5.156a.34.34,0,0,1-.443.186l-1.047-.427-.15.369a.34.34,0,0,0,.186.443l1.842.751a.34.34,0,0,0,.443-.186l2.253-5.525A.34.34,0,0,0,11.872,236.532Z" transform="translate(-6.967 -201.824)" fill="#1d4859"/>
    <path id="Path_46262" data-name="Path 46262" d="M239.546,31.761H236.09l-.609,2.63v5.556a.176.176,0,0,0,.293.132l1.927-1.707a.176.176,0,0,1,.233,0l1.927,1.707a.176.176,0,0,0,.293-.132V34.391Z" transform="translate(-224.434 -6.968)" fill="#ffb125"/>
    <path id="Path_46263" data-name="Path 46263" d="M239.863,93.52l-1.927-1.707a.176.176,0,0,0-.233,0l-1.927,1.707a.176.176,0,0,1-.293-.132V87.832h4.673v5.556A.176.176,0,0,1,239.863,93.52Z" transform="translate(-224.435 -60.409)" fill="#ff901d"/>
    <path id="Path_46264" data-name="Path 46264" d="M299.7,455.366h0Z" transform="translate(-285.638 -410.7)" fill="#fed9a8"/>
    <path id="Path_46265" data-name="Path 46265" d="M18.195,24.45H4.319a.633.633,0,0,0-.594.405L2.771,27.3l0,.005c0,.01-.007.019-.009.029l0,.011c0,.009,0,.018-.005.028l0,.011c0,.01,0,.021,0,.031s0,.005,0,.008h0v5.039a.343.343,0,1,0,.686,0v-4.7H10.7V32.98a.519.519,0,0,0,.863.388l1.817-1.609L15.2,33.368a.519.519,0,0,0,.863-.388V27.766h7.27V43.15a.447.447,0,0,1-.446.446H16.6s0-.008,0-.012c0-.031,0-.062,0-.092a1.234,1.234,0,0,0,1.453-1.672c-.012-.029-.025-.056-.039-.084L18,41.722q-.021-.039-.044-.076l-.009-.014c-.016-.025-.033-.05-.051-.075h0c-.018-.024-.037-.047-.056-.069l-.011-.012q-.029-.032-.06-.063l-.012-.012c-.022-.021-.044-.04-.067-.059l0,0c-.023-.018-.047-.036-.071-.053l-.013-.009q-.036-.024-.075-.046l-.006,0a1.235,1.235,0,0,0-.232-2.024q-.054-.028-.111-.052l-5.338-2.177,2.485-.769a1.127,1.127,0,0,0,.742-1.405,1.1,1.1,0,0,0-.376-.543,1.155,1.155,0,0,0-.947-.222h0c-.019,0-1.924.433-3.913.821l-.259.05-.2.038-.056.011-.337.063-.13.024a15.592,15.592,0,0,1-3.4.442h-.02L5.4,35.475l-.056-.023.07-.172a.678.678,0,0,0,0-.523.691.691,0,0,0-.064-.119.678.678,0,0,0-.307-.249l-1.842-.751a.683.683,0,0,0-.89.374L.05,39.538a.684.684,0,0,0,.374.89l1.842.751a.683.683,0,0,0,.89-.374l.017-.042.425.173h0a3.768,3.768,0,0,1,1.1.7q.088.08.172.166t.161.176q.039.045.076.092A4.457,4.457,0,0,0,6.9,43.4l.478.195H3.88a.447.447,0,0,1-.446-.446v-.868a.343.343,0,1,0-.686,0v.868A1.134,1.134,0,0,0,3.88,44.283H9.063l4.418,1.8a1.234,1.234,0,0,0,1.693-1.275,1.274,1.274,0,0,0,.684-.091,1.223,1.223,0,0,0,.531-.436h6.5a1.134,1.134,0,0,0,1.132-1.132V27.423h0s0-.005,0-.008,0-.021,0-.031l0-.011c0-.009,0-.019-.005-.028l0-.011c0-.01-.006-.02-.009-.029l0-.005-.954-2.443a.634.634,0,0,0-.594-.405H20.71a.343.343,0,0,0,0,.686h1.7l.76,1.944H15.993l-.45-1.944h2.652a.343.343,0,0,0,0-.686m-6.267.686h2.911l.45,1.944h-3.81ZM10.774,27.08H3.593l.76-1.944h6.872Zm4.6,5.528-1.65-1.461a.519.519,0,0,0-.688,0l-1.65,1.461V27.766h3.987v4.842ZM2.523,40.543.687,39.794l2.25-5.519,1.836.749Zm13.7,2.07-.394-.161h0l-4.1-1.672a.343.343,0,0,0-.259.635l4.1,1.672h0a.547.547,0,0,1,.05.023l.013.008.033.02.015.011.028.021.015.014.024.021.015.016.02.022.014.018.017.023.013.021.014.024.011.022.012.024c0,.008.006.016.009.024s.006.016.009.024,0,.017.007.025,0,.016.007.025,0,.017,0,.026,0,.017,0,.026,0,.017,0,.026,0,.017,0,.026,0,.017,0,.026,0,.018,0,.027,0,.017,0,.025,0,.018,0,.027,0,.017-.005.025,0,.018-.006.028-.005.016-.008.024-.006.018-.009.027l-.008.019,0,0a.534.534,0,0,1-.282.278.581.581,0,0,1-.447.006l-.726-.3-.01,0-.01,0-3.334-1.36a.343.343,0,0,0-.259.635l3.334,1.36.011,0,.01,0a.548.548,0,0,1-.414,1.015L9.26,43.622h0l-2.1-.855a3.768,3.768,0,0,1-1.514-1.129A4.455,4.455,0,0,0,3.858,40.3h0l-.425-.173.847-2.078.8-1.963.059.024a.891.891,0,0,0,.348.063,8.893,8.893,0,0,0,1.5-.127c.537-.076,1.2-.186,1.966-.327l.057-.01.109-.02.086-.016.1-.019.106-.02.086-.016.132-.025L9.7,35.58l.207-.04c1.983-.386,3.9-.815,3.982-.834l.026,0a.45.45,0,0,1,.5.3.44.44,0,0,1-.289.549L10.72,36.6a.343.343,0,0,0-.028.645l6.226,2.539a.548.548,0,0,1-.2,1.056h0l-.05,0-.015,0-.038-.005-.024-.006-.028-.007-.029-.01L16.5,40.8,12.4,39.13a.343.343,0,0,0-.259.635l4.971,2.027a.551.551,0,0,1,.1.05.549.549,0,0,1,.223.613q-.008.026-.018.051a.551.551,0,0,1-.024.051.561.561,0,0,1-.127.158l-.009.008a.551.551,0,0,1-.555.084Z" transform="translate(0)"/>
  </g>
</svg>
