<?xml version="1.0" standalone="no"?>
<!DOCTYPE svg PUBLIC "-//W3C//DTD SVG 20010904//EN"
 "http://www.w3.org/TR/2001/REC-SVG-20010904/DTD/svg10.dtd">
<svg version="1.0" xmlns="http://www.w3.org/2000/svg"
 width="512.000000pt" height="512.000000pt" viewBox="0 0 512.000000 512.000000"
 preserveAspectRatio="xMidYMid meet">

<g transform="translate(0.000000,512.000000) scale(0.100000,-0.100000)"
fill="#000000" stroke="none">
<path d="M1317 5106 c-58 -21 -109 -60 -196 -151 -96 -100 -160 -207 -203
-340 -17 -55 -33 -102 -34 -103 -5 -8 -100 54 -176 115 -81 64 -115 76 -157
53 -24 -12 -34 -40 -70 -183 -16 -65 -31 -120 -33 -122 -2 -2 -66 12 -143 31
-132 34 -141 35 -172 20 -20 -9 -35 -26 -39 -42 -18 -70 31 -239 106 -365 28
-48 77 -108 141 -171 l99 -98 -122 0 c-108 0 -129 -3 -174 -24 -28 -13 -65
-41 -82 -62 -57 -68 -62 -101 -62 -375 0 -150 4 -259 11 -276 17 -45 70 -93
116 -105 l43 -10 2 -1357 3 -1356 22 -40 c25 -47 74 -95 123 -121 34 -18 109
-19 2240 -19 2131 0 2206 1 2240 19 49 26 98 74 123 121 22 39 22 51 27 545
l5 504 34 7 c48 10 82 38 109 90 22 42 23 53 20 224 -3 176 -4 181 -30 227
-35 59 -91 106 -145 120 l-42 12 53 57 c36 38 57 72 66 103 28 101 -11 281
-96 446 -115 223 -215 281 -397 231 -42 -11 -79 -21 -82 -21 -3 0 -5 47 -5
103 l0 104 39 11 c53 16 90 48 112 96 16 36 19 69 19 281 0 133 -5 256 -10
277 -18 65 -70 130 -129 160 -50 26 -61 28 -179 28 l-126 0 77 71 c43 39 98
100 122 134 83 116 155 301 155 397 0 28 -7 42 -31 62 -17 14 -36 26 -42 26
-7 0 -73 -16 -147 -35 -74 -19 -138 -31 -141 -27 -3 4 -21 66 -38 137 -21 85
-40 138 -53 153 -32 33 -78 29 -130 -13 -70 -56 -208 -148 -214 -142 -3 3 -12
31 -21 64 -20 80 -84 213 -137 286 -56 79 -166 185 -231 223 -44 25 -59 29
-125 28 -51 0 -103 -9 -164 -28 -310 -94 -553 -295 -703 -581 -23 -44 -43 -75
-43 -70 0 16 -98 183 -136 235 -109 144 -301 296 -464 366 -93 40 -255 84
-309 84 -20 -1 -53 -7 -74 -14z m473 -1776 l0 -250 -811 0 -810 0 3 226 3 226
28 24 28 24 780 0 779 0 0 -250z m2464 228 c3 -13 6 -125 6 -250 l0 -228 -720
0 -720 0 0 250 0 250 714 0 714 0 6 -22z m-2384 -2023 l0 -1365 -712 0 c-462
0 -726 4 -750 10 -21 6 -42 19 -48 30 -7 12 -10 473 -10 1354 l0 1336 760 0
760 0 0 -1365z m2220 1192 l0 -173 -76 -52 -75 -53 -42 42 c-98 99 -214 169
-355 213 -142 45 -251 32 -324 -38 -111 -106 -228 -381 -231 -541 -2 -58 3
-79 26 -127 16 -32 45 -71 64 -87 l37 -30 -28 -11 c-15 -5 -30 -10 -33 -10 -3
0 -28 -16 -54 -35 -39 -28 -58 -35 -95 -35 -72 0 -116 -26 -161 -96 -9 -15
-12 116 -12 594 l-1 612 680 0 680 0 0 -173z m-626 -183 c155 -40 297 -140
394 -281 26 -37 28 -53 7 -53 -31 0 -93 -40 -132 -84 -47 -53 -63 -101 -63
-186 l0 -63 -82 5 c-112 8 -230 48 -326 112 -101 68 -110 84 -94 176 30 177
150 388 221 390 7 0 41 -7 75 -16z m1201 4 c59 -27 163 -237 187 -378 16 -92
7 -109 -95 -177 -95 -64 -209 -103 -324 -110 l-83 -6 0 64 c0 79 -12 125 -45
169 -30 41 -99 89 -137 97 -35 7 -35 14 1 66 87 126 222 222 376 268 73 21 87
22 120 7z m-514 -527 c25 -26 29 -37 29 -85 l0 -56 -170 0 -170 0 0 53 c0 57
18 93 54 107 11 5 67 9 124 9 101 1 104 0 133 -28z m117 -483 l2 -168 -255 0
-255 0 0 170 0 170 253 -2 252 -3 3 -167z m-1427 -258 l59 0 2 -537 c2 -296 7
-546 12 -556 8 -17 2 -18 -85 -15 l-94 3 -3 579 -2 579 26 -27 c23 -22 35 -26
85 -26z m1339 -600 l0 -510 -170 0 -170 0 0 510 0 510 170 0 170 0 0 -510z"/>
</g>
</svg>
