<svg xmlns="http://www.w3.org/2000/svg" xmlns:xlink="http://www.w3.org/1999/xlink" width="102.485" height="98.945" viewBox="0 0 102.485 98.945">
  <defs>
    <linearGradient id="linear-gradient" x1="0.001" y1="0.5" x2="1" y2="0.5" gradientUnits="objectBoundingBox">
      <stop offset="0" stop-color="#e1e1e1"/>
      <stop offset="1" stop-color="#f2f7fa"/>
    </linearGradient>
    <linearGradient id="linear-gradient-2" x1="0.07" y1="0.252" x2="0.929" y2="0.748" gradientUnits="objectBoundingBox">
      <stop offset="0" stop-color="#ed0000"/>
      <stop offset="1" stop-color="#ca0000"/>
    </linearGradient>
    <linearGradient id="linear-gradient-3" x1="0.262" y1="0.095" x2="0.57" y2="0.788" gradientUnits="objectBoundingBox">
      <stop offset="0" stop-color="#fff"/>
      <stop offset="0.09" stop-color="#fff" stop-opacity="0.969"/>
      <stop offset="0.22" stop-color="#fff" stop-opacity="0.902"/>
      <stop offset="0.37" stop-color="#fff" stop-opacity="0.78"/>
      <stop offset="0.54" stop-color="#fff" stop-opacity="0.612"/>
      <stop offset="0.72" stop-color="#fff" stop-opacity="0.388"/>
      <stop offset="0.92" stop-color="#fff" stop-opacity="0.122"/>
      <stop offset="1" stop-color="#fff" stop-opacity="0"/>
    </linearGradient>
  </defs>
  <g id="Group_17078" data-name="Group 17078" transform="translate(-45 -1054.726)">
    <path id="Path_46651" data-name="Path 46651" d="M429.179,237.955a6.476,6.476,0,0,1,1.217-.941l1.316-.855,5.172-3.408h.046l-.046-.033-5.152-3.455-1.316-.855a6.309,6.309,0,0,1-1.211-.948,5.264,5.264,0,0,1-1.112-5.685,6.876,6.876,0,0,1,.763-1.316l.869-1.316,3.481-5.126.066-.092h-.112l-6.08-1.178-1.52-.3a6.5,6.5,0,0,1-1.474-.4,5.264,5.264,0,0,1-3.2-4.784,6.582,6.582,0,0,1,.2-1.507l.309-1.52,1.25-6.067.039-.178-.178.039-6.073,1.23-1.513.3a6.251,6.251,0,0,1-1.5.191,5.369,5.369,0,0,1-1.494-.237,5.179,5.179,0,0,1-3.237-2.948,6.745,6.745,0,0,1-.4-1.461l-.29-1.52-1.178-6.087-.046-.2-.171.118-5.139,3.481-1.277.855a6.743,6.743,0,0,1-1.316.757,5.264,5.264,0,0,1-5.613-1.105,6.219,6.219,0,0,1-.934-1.2l-.855-1.316-3.422-5.165-.092-.138-.092.138-3.408,5.172-.855,1.316a6.207,6.207,0,0,1-.934,1.2,5.264,5.264,0,0,1-5.639,1.119,6.58,6.58,0,0,1-1.316-.757l-1.316-.869-5.132-3.468-.1-.066v.118L368,193.585l-.29,1.52a6.581,6.581,0,0,1-.408,1.474,5.264,5.264,0,0,1-4.8,3.231,6.291,6.291,0,0,1-1.52-.191l-1.52-.3-6.041-1.217h-.079v.079l1.237,6.073.309,1.513a6.632,6.632,0,0,1,.191,1.52,5.264,5.264,0,0,1-.9,2.882,5.178,5.178,0,0,1-2.329,1.915,6.5,6.5,0,0,1-1.474.4l-1.52.29-6.087,1.165h-.125l.066.105,3.474,5.139.862,1.283a6.508,6.508,0,0,1,.763,1.316,5.264,5.264,0,0,1-1.119,5.639,6.665,6.665,0,0,1-1.2.928l-1.316.855L339,232.619l-.145.092.145.1,5.165,3.422,1.316.855a6.218,6.218,0,0,1,1.2.934,5.179,5.179,0,0,1,1.388,2.632,5.535,5.535,0,0,1,.072,1.507,5.007,5.007,0,0,1-.362,1.461,6.745,6.745,0,0,1-.757,1.316l-.869,1.316-3.481,5.126-.125.184.217.039,6.087,1.178,1.52.29a6.737,6.737,0,0,1,1.461.395A5.192,5.192,0,0,1,355,258.189a6.262,6.262,0,0,1-.191,1.507l-.309,1.513-1.244,6.073-.046.224.217-.079,6.067-1.237,1.52-.309a6.2,6.2,0,0,1,1.494-.191,5.092,5.092,0,0,1,1.487.237,4.809,4.809,0,0,1,1.316.658,5.139,5.139,0,0,1,1.935,2.29,6.579,6.579,0,0,1,.4,1.454l.29,1.52,1.171,6.087.046.237.2-.138,5.132-3.468,1.316-.869a6.226,6.226,0,0,1,1.316-.75,5.165,5.165,0,0,1,5.567,1.1,6.173,6.173,0,0,1,.934,1.191l.849,1.316,3.415,5.172.138.2.138-.2,3.415-5.165.855-1.316a6.144,6.144,0,0,1,.928-1.191,5.179,5.179,0,0,1,5.573-1.112,6.759,6.759,0,0,1,1.316.75l1.283.869,5.139,3.461.164.105.033-.191,1.158-6.087.29-1.52a6.356,6.356,0,0,1,.4-1.467,5.22,5.22,0,0,1,4.757-3.211,6.277,6.277,0,0,1,1.513.191l1.52.3,6.067,1.23h.118v-.118l-1.25-6.067-.309-1.52a6.639,6.639,0,0,1-.2-1.52,5.264,5.264,0,0,1,3.218-4.81,6.766,6.766,0,0,1,1.481-.408l1.527-.3,6.08-1.178h.059l-.033-.046-3.487-5.132L428.909,245a6.289,6.289,0,0,1-.77-1.316,5.3,5.3,0,0,1,1.132-5.718Z" transform="translate(-289.445 871.418)" fill="#e1e1e1"/>
    <path id="Path_46652" data-name="Path 46652" d="M421.51,240.78a5.264,5.264,0,0,1,2.3-3.415l6.81-4.5-6.81-4.5a5.336,5.336,0,0,1-1.481-7.449l4.606-6.771L418.9,212.6a5.35,5.35,0,0,1-4.224-6.31l1.638-8-8,1.638a5.35,5.35,0,0,1-6.31-4.224l-1.54-8.028-6.771,4.606a5.35,5.35,0,0,1-7.455-1.5L381.727,184l-4.5,6.81a5.336,5.336,0,0,1-7.436,1.454l-6.777-4.606-1.54,8.028a5.343,5.343,0,0,1-5.264,4.33,5.4,5.4,0,0,1-1.079-.105l-8-1.638,1.638,8a5.35,5.35,0,0,1-4.224,6.31l-8.028,1.54,4.606,6.771a5.336,5.336,0,0,1-1.481,7.449l-6.81,4.5,6.817,4.5a5.336,5.336,0,0,1,1.474,7.442l-4.606,6.778,8.028,1.54a5.35,5.35,0,0,1,4.224,6.31l-1.612,8.021,8-1.638a5.417,5.417,0,0,1,1.079-.112,5.343,5.343,0,0,1,5.264,4.336l1.54,8.028,6.778-4.606a5.33,5.33,0,0,1,7.442,1.474l4.5,6.817,4.481-6.8a5.336,5.336,0,0,1,7.436-1.448l6.771,4.606,1.54-8.028a5.317,5.317,0,0,1,6.31-4.224l8,1.638-1.638-8a5.35,5.35,0,0,1,4.224-6.31l8.028-1.54-4.606-6.778A5.31,5.31,0,0,1,421.51,240.78Z" transform="translate(-287.383 871.277)" fill="#fff"/>
    <path id="Path_46653" data-name="Path 46653" d="M421.245,240.486a5.363,5.363,0,0,1,1.428-2.724,6.809,6.809,0,0,1,1.224-.954l1.316-.862,5.159-3.428v.118l-5.185-3.4-1.316-.849a6.685,6.685,0,0,1-1.244-.961,5.415,5.415,0,0,1-1.461-2.75,5.5,5.5,0,0,1,.289-3.106,6.81,6.81,0,0,1,.776-1.369l.869-1.283,3.455-5.146.1.23-6.093-1.145-1.52-.29a6.724,6.724,0,0,1-1.527-.408,5.534,5.534,0,0,1-3.4-5.027,6.914,6.914,0,0,1,.191-1.579l.309-1.52,1.217-6.073.276.276-6.067,1.27-1.513.316a6.581,6.581,0,0,1-1.6.2,5.58,5.58,0,0,1-1.592-.25,5.448,5.448,0,0,1-1.467-.691,5.593,5.593,0,0,1-2.053-2.481,6.625,6.625,0,0,1-.434-1.546l-.29-1.52-1.158-6.087.434.178-5.152,3.455-1.283.869a7.309,7.309,0,0,1-1.388.79,5.606,5.606,0,0,1-3.185.3,5.54,5.54,0,0,1-2.823-1.494,6.581,6.581,0,0,1-.98-1.263l-.869-1.3-3.409-5.179h.368l-3.4,5.179-.855,1.316a7,7,0,0,1-.98,1.25,5.534,5.534,0,0,1-5.955,1.158,7,7,0,0,1-1.369-.79l-1.316-.869-5.119-3.487.243-.105-1.184,6.087-.3,1.52a6.772,6.772,0,0,1-.428,1.513,5.468,5.468,0,0,1-4.975,3.33,6.844,6.844,0,0,1-1.559-.2l-1.513-.316-6.073-1.25.125-.118,1.25,6.067.316,1.52a6.409,6.409,0,0,1,.2,1.559,5.448,5.448,0,0,1-1.974,4.159,5.265,5.265,0,0,1-1.349.823,7.069,7.069,0,0,1-1.52.421l-1.52.29-6.087,1.184.1-.237,3.487,5.126.875,1.277a6.539,6.539,0,0,1,.783,1.375,5.521,5.521,0,0,1-1.158,5.922,6.488,6.488,0,0,1-1.244.974l-1.316.862-5.126,3.422v-.355l5.179,3.4,1.316.855a6.456,6.456,0,0,1,1.257.974,5.567,5.567,0,0,1,1.5,2.829,5.739,5.739,0,0,1,.086,1.612,5.613,5.613,0,0,1-.382,1.573,7.371,7.371,0,0,1-.79,1.395l-.869,1.283-3.461,5.165-.184-.441,6.087,1.1,1.527.29a7.238,7.238,0,0,1,1.546.421,5.639,5.639,0,0,1,2.494,2.053,5.738,5.738,0,0,1,.7,1.474,5.8,5.8,0,0,1,.25,1.612,6.942,6.942,0,0,1-.2,1.592l-.309,1.52-1.237,6.073-.362-.362,6.067-1.244,1.494-.27a6.625,6.625,0,0,1,1.606-.2,5.7,5.7,0,0,1,1.606.25,5.633,5.633,0,0,1,3.527,3.2,6.865,6.865,0,0,1,.434,1.553l.29,1.52,1.171,6.087-.487-.2,5.132-3.474,1.283-.869a6.766,6.766,0,0,1,1.4-.8,5.488,5.488,0,0,1,1.586-.388,5.659,5.659,0,0,1,4.5,1.586,6.856,6.856,0,0,1,.994,1.27l.855,1.316,3.415,5.165h-.54l3.415-5.172.855-1.316c.132-.211.29-.441.441-.658a6.349,6.349,0,0,1,.553-.658,5.652,5.652,0,0,1,2.869-1.494,5.587,5.587,0,0,1,3.211.322,6.58,6.58,0,0,1,1.395.8l1.277.869,5.119,3.494-.395.165,1.191-6.08.3-1.52a6.634,6.634,0,0,1,.428-1.527,5.508,5.508,0,0,1,5.06-3.369,6.5,6.5,0,0,1,1.566.2l1.52.316,6.067,1.27-.184.178-1.224-6.073-.3-1.52a6.447,6.447,0,0,1-.191-1.559,5.448,5.448,0,0,1,3.343-4.955,6.62,6.62,0,0,1,1.513-.408l1.527-.29,6.087-1.145-.046.112-3.435-5.073-.862-1.316a6.507,6.507,0,0,1-.77-1.349,5.37,5.37,0,0,1-.283-3.073Zm.066,0a5.264,5.264,0,0,0,.3,3.02,6.41,6.41,0,0,0,.77,1.316l.869,1.283,3.494,5.119.066.092h-.112l-6.08,1.184-1.52.3a6.449,6.449,0,0,0-1.467.4,5.264,5.264,0,0,0-3.178,4.764,6.521,6.521,0,0,0,.191,1.507l.316,1.52,1.263,6.067.046.23-.23-.046-6.073-1.217-1.52-.3a6.145,6.145,0,0,0-1.494-.184,5.192,5.192,0,0,0-2.8.882,5.126,5.126,0,0,0-1.856,2.27,6.416,6.416,0,0,0-.388,1.448l-.29,1.527-1.125,6.139-.072.382-.322-.217-5.165-3.455-1.316-.862a6.328,6.328,0,0,0-1.316-.73,5.021,5.021,0,0,0-5.4,1.086,4.487,4.487,0,0,0-.474.54,6.693,6.693,0,0,0-.428.658l-.855,1.316-3.422,5.172-.27.408-.27-.408-3.362-5.2-.855-1.316a5.79,5.79,0,0,0-.908-1.171,4.941,4.941,0,0,0-2.533-1.316,5.126,5.126,0,0,0-1.454-.079,5.021,5.021,0,0,0-1.408.349,6.7,6.7,0,0,0-1.316.737l-1.283.869-5.132,3.468-.395.27-.092-.467-1.165-6.087-.3-1.52a6.074,6.074,0,0,0-.388-1.428,5.034,5.034,0,0,0-1.829-2.224,4.89,4.89,0,0,0-1.316-.658,4.732,4.732,0,0,0-1.448-.224,6.033,6.033,0,0,0-1.454.184l-1.52.309-6.073,1.237-.447.092.092-.454L347.83,261l.309-1.52a6.055,6.055,0,0,0,.184-1.467,4.883,4.883,0,0,0-.224-1.441,5.014,5.014,0,0,0-2.849-3.152,6.887,6.887,0,0,0-1.428-.388l-1.527-.29-6.08-1.178-.434-.086.25-.362,3.487-5.119.875-1.283a6.225,6.225,0,0,0,.744-1.316,4.851,4.851,0,0,0,.355-1.421,5.126,5.126,0,0,0-1.415-4.053A6.58,6.58,0,0,0,338.9,237l-1.316-.855-5.165-3.428-.27-.184.27-.178,5.179-3.409,1.316-.849a6.381,6.381,0,0,0,1.191-.921,5.087,5.087,0,0,0,1.382-2.632,5.146,5.146,0,0,0-.27-2.935,7.12,7.12,0,0,0-.75-1.316l-.869-1.283-3.461-5.139-.132-.191.23-.046,6.087-1.158,1.52-.29a6.436,6.436,0,0,0,1.467-.395,5.061,5.061,0,0,0,1.316-.776,5.3,5.3,0,0,0,1.013-1.119,5.185,5.185,0,0,0,.888-2.843,6.58,6.58,0,0,0-.191-1.507l-.3-1.52-1.23-6.073-.033-.151h.151l6.073,1.23,1.52.309a6.212,6.212,0,0,0,1.507.184,5.192,5.192,0,0,0,4.738-3.2,6.646,6.646,0,0,0,.4-1.461l.29-1.52,1.152-6.093.046-.23.2.132,5.139,3.461,1.283.862a6.4,6.4,0,0,0,1.316.75,5.146,5.146,0,0,0,5.54-1.105,6.416,6.416,0,0,0,.915-1.191l.855-1.316,3.4-5.179.184-.276.184.276,3.428,5.159.855,1.316a6.138,6.138,0,0,0,.921,1.178,5.08,5.08,0,0,0,5.475,1.073,6.3,6.3,0,0,0,1.316-.75l1.277-.869,5.126-3.487.349-.237.079.415,1.184,6.08.3,1.52a6.468,6.468,0,0,0,.388,1.434,5.067,5.067,0,0,0,1.829,2.237,4.725,4.725,0,0,0,1.316.658,4.982,4.982,0,0,0,1.454.23,6.12,6.12,0,0,0,1.467-.178l1.52-.309,6.073-1.217.349-.072-.072.349-1.263,6.146-.316,1.52a6.489,6.489,0,0,0-.191,1.487,5.146,5.146,0,0,0,3.126,4.7,6.855,6.855,0,0,0,1.454.4l1.52.3,6.08,1.191.224.039-.125.191-3.494,5.119-.869,1.283a6.284,6.284,0,0,0-.763,1.316,5.264,5.264,0,0,0,1.092,5.626,6.507,6.507,0,0,0,1.2.941l1.316.855,5.159,3.435.092.059-.092.059-5.179,3.4-1.316.849a6.726,6.726,0,0,0-1.217.934,5.264,5.264,0,0,0-1.428,2.685Z" transform="translate(-287.15 871.566)" fill="url(#linear-gradient)"/>
    <path id="Path_46654" data-name="Path 46654" d="M427.785,235.976l-2.632,1.757a8.627,8.627,0,0,0-2.389,12.035l1.79,2.632-3.126.6a8.627,8.627,0,0,0-6.824,10.2l.658,3.119-3.112-.658a8.633,8.633,0,0,0-10.272,6.85l-.6,3.126-2.632-1.783a8.627,8.627,0,0,0-12.035,2.389l-1.757,2.632L383.1,276.24a8.627,8.627,0,0,0-12.035-2.389l-2.632,1.783-.6-3.126a8.627,8.627,0,0,0-10.2-6.824l-3.119.658.658-3.119a8.627,8.627,0,0,0-6.824-10.2l-3.132-.6,1.79-2.632a8.627,8.627,0,0,0-2.375-12.061L342,235.976l2.632-1.757a8.633,8.633,0,0,0,2.389-12.035l-1.79-2.632,3.132-.6a8.633,8.633,0,0,0,6.8-10.212l-.658-3.119,3.119.658a8.627,8.627,0,0,0,10.2-6.824l.6-3.126,2.632,1.79a8.627,8.627,0,0,0,12.035-2.389l1.757-2.632,1.757,2.632a8.627,8.627,0,0,0,12.035,2.389l2.632-1.79.6,3.126a8.626,8.626,0,0,0,10.206,6.824l3.112-.658-.658,3.112a8.627,8.627,0,0,0,6.824,10.206l3.126.6-1.79,2.632a8.633,8.633,0,0,0,2.389,12.035Z" transform="translate(-290.519 868.166)" fill="url(#linear-gradient-2)"/>
    <!-- <text id="_20" data-name="20" transform="translate(76.13 1108.801)" fill="#fff" font-size="29" font-family="AllRoundGothic-Bold, All Round Gothic" font-weight="700"><tspan x="0" y="0">20</tspan></text> -->
    <!-- <text id="_" data-name="%" transform="translate(106.569 1099.736)" fill="#fff" font-size="17" font-family="AllRoundGothic-Bold, All Round Gothic" font-weight="700"><tspan x="0" y="0">%</tspan></text> -->
    <!-- <text id="OFF" transform="translate(82.617 1126.717)" fill="#070707" font-size="13" font-family="Poppins-Medium, Poppins" font-weight="500" letter-spacing="0.05em"><tspan x="0" y="0">OFF</tspan></text> -->
    <path id="Path_46655" data-name="Path 46655" d="M350.8,244.225a9.87,9.87,0,0,1-1.52,7.508l-.658.987,1.165.224a9.87,9.87,0,0,1,6.041,3.764,101.176,101.176,0,0,1,65.617-30.861,9.916,9.916,0,0,1,1.408-3.145l.658-.987-1.165-.224a9.943,9.943,0,0,1-7.9-11.759l.237-1.165-1.165.237a9.832,9.832,0,0,1-1.974.2,9.949,9.949,0,0,1-9.758-8.067l-.224-1.165-.987.658a9.943,9.943,0,0,1-13.871-2.75l-.658-.994-.658.994a9.943,9.943,0,0,1-13.871,2.75l-.987-.658-.224,1.165a9.943,9.943,0,0,1-9.752,8.067,9.733,9.733,0,0,1-1.974-.2l-1.171-.237.243,1.165a9.949,9.949,0,0,1-7.9,11.759l-1.165.224.658.987a9.943,9.943,0,0,1-2.75,13.871l-1,.658,1,.658a9.87,9.87,0,0,1,4.3,6.337Z" transform="translate(-291.716 866.938)" opacity="0.5" fill="url(#linear-gradient-3)"/>
  </g>
</svg>
