<?xml version="1.0" encoding="UTF-8"?>
<svg version="1.1" xmlns="http://www.w3.org/2000/svg" width="512" height="512">
<path d="M0 0 C1.12795361 -0.00935994 1.12795361 -0.00935994 2.27869415 -0.01890898 C4.80004674 -0.03487215 7.32043701 -0.02222232 9.84179688 -0.00964355 C11.64868738 -0.01506322 13.45557347 -0.022185 15.26245117 -0.03088379 C20.17152718 -0.04913865 25.0802674 -0.04204069 29.98934937 -0.02936745 C35.12311722 -0.01925099 40.25685604 -0.02862936 45.390625 -0.03491211 C54.01242238 -0.04219246 62.63408278 -0.03259062 71.25585938 -0.0135498 C81.22843656 0.00821965 91.20068666 0.00116856 101.17325592 -0.02085543 C109.73046929 -0.03899836 118.2875841 -0.04157316 126.84481049 -0.03110075 C131.95787417 -0.02485974 137.07078404 -0.02404689 142.18383789 -0.0372467 C146.99052263 -0.04878848 151.79678503 -0.04081012 156.60342407 -0.01766968 C158.36910297 -0.01237363 160.13481731 -0.01391164 161.90048218 -0.02272034 C164.30783501 -0.03362444 166.71382798 -0.01997589 169.12109375 0 C169.82264839 -0.00892289 170.52420303 -0.01784577 171.24701691 -0.02703905 C174.33214811 0.02274262 176.34512292 0.37880361 179.00564671 1.97359371 C181.34564992 5.7875786 181.03084152 9.18019032 180.87840271 13.56532288 C180.85389499 14.89852281 180.85389499 14.89852281 180.82889217 16.25865608 C180.6255403 25.38238265 180.08940517 34.48599358 179.47485352 43.58972168 C179.35770548 45.39730869 179.24112055 47.20493226 179.12504578 49.0125885 C178.81271785 53.85082886 178.49241681 58.6885093 178.17032933 63.5261085 C177.83282569 68.6136458 177.50227383 73.70163551 177.17076111 78.78956604 C176.6144555 87.31178913 176.05314499 95.83367058 175.48852539 104.35534668 C174.83618053 114.20163869 174.19080275 124.048368 173.54930598 133.89537233 C172.92999625 143.40073949 172.30686004 152.9058515 171.6816082 162.41082954 C171.41621728 166.4453307 171.15197663 170.47990475 170.88862801 174.51453972 C170.57906631 179.25337154 170.26609441 183.99196629 169.95047188 188.73039818 C169.83523925 190.46818766 169.72114065 192.20605276 169.60825729 193.94399643 C169.45406484 196.3148467 169.29574874 198.68538663 169.1363678 201.05589294 C169.09258926 201.74362083 169.04881072 202.43134871 169.00370556 203.13991684 C168.76167998 206.66910114 168.34752106 210.05780185 167.56054688 213.50793457 C168.81158203 213.20049316 168.81158203 213.20049316 170.08789062 212.88684082 C171.21324219 212.61742676 172.33859375 212.3480127 173.49804688 212.07043457 C174.60019531 211.80359863 175.70234375 211.5367627 176.83789062 211.26184082 C185.6400793 209.47923598 194.41440947 209.30231071 203.37304688 209.07043457 C232.86263036 208.14639676 268.86734623 206.43422241 290.56054688 183.50793457 C291.26179688 182.39418457 291.96304687 181.28043457 292.68554688 180.13293457 C294.63659963 177.40146072 296.05987697 176.1263036 299.40039062 175.44543457 C313.06855043 175.8408967 328.3235737 189.54645007 337.56054688 198.50793457 C338.2334375 199.10734863 338.90632813 199.7067627 339.59960938 200.32434082 C353.88011669 213.49540633 363.48923379 233.53592166 364.71279907 252.91995239 C364.92358899 259.24131213 364.83565092 265.56001638 364.74804688 271.88293457 C364.73296162 273.79438227 364.71928006 275.70584159 364.70703125 277.61730957 C364.67435567 282.24781072 364.62278925 286.87774036 364.56054688 291.50793457 C365.34445801 291.81336182 366.12836914 292.11878906 366.93603516 292.43347168 C375.30273338 295.85875902 381.82453964 302.87154954 385.73473358 310.92684937 C388.57260742 318.2419485 389.13263237 324.71509108 389.078125 332.51574707 C389.08863892 334.39359894 389.08863892 334.39359894 389.09936523 336.30938721 C389.11385353 339.71054022 389.11060027 343.11070703 389.09784889 346.51180267 C389.08763553 350.0914175 389.09713748 353.67099366 389.10339355 357.25061035 C389.11064595 363.25898697 389.10114598 369.26716614 389.08203125 375.2755127 C389.06026697 382.19608194 389.06732006 389.11617961 389.08933687 396.03673744 C389.10756002 402.00654921 389.11001564 407.97622002 389.0995822 413.94605064 C389.093385 417.49932953 389.09240626 421.05238765 389.10572815 424.60565186 C389.11955864 428.57065791 389.10032452 432.53514687 389.078125 436.50012207 C389.08622192 437.65888855 389.09431885 438.81765503 389.10266113 440.01153564 C388.98215854 451.68931287 385.67808507 461.00461239 377.56054688 469.50793457 C367.85509511 478.77306339 357.51116822 481.11489423 344.39111328 481.01586914 C342.46530395 481.02522908 342.46530395 481.02522908 340.50058937 481.03477812 C336.96643971 481.05135938 333.43272629 481.04327686 329.89857578 481.03083324 C326.07572652 481.02173869 322.25294941 481.03577419 318.43011475 481.04675293 C310.95283068 481.06449599 303.47570764 481.06071703 295.99841738 481.04910237 C289.91895513 481.04005167 283.83953786 481.03885111 277.7600708 481.04319763 C276.89327371 481.04381056 276.02647662 481.0444235 275.13341296 481.045055 C273.37227486 481.04633396 271.61113678 481.04763082 269.84999871 481.04894537 C253.35385324 481.06033882 236.85779683 481.04725687 220.36166596 481.0257439 C206.22153481 481.00787404 192.08153503 481.01097849 177.94140625 481.02941895 C161.5024137 481.0508475 145.06349912 481.0592403 128.62449455 481.04696989 C126.87000403 481.04569576 125.1155135 481.04443827 123.36102295 481.04319763 C122.06631606 481.04227198 122.06631606 481.04227198 120.74545348 481.04132763 C114.67657634 481.03788068 108.60774884 481.04368891 102.53887939 481.05311584 C95.13822409 481.06435929 87.7377384 481.06124664 80.33710241 481.03999287 C76.56452194 481.02951387 72.79222378 481.02530637 69.01964569 481.03858948 C64.92284715 481.0527955 60.82675522 481.03578055 56.72998047 481.01586914 C55.54776728 481.02479203 54.36555408 481.03371491 53.14751625 481.04290819 C41.42533355 480.9326426 32.09932524 477.65932034 23.56054688 469.50793457 C14.04254441 459.5375914 11.96944231 449.06696741 12.13148499 435.62091064 C12.1314901 434.25422365 12.12912787 432.88753497 12.12461698 431.52085543 C12.11668653 428.5791541 12.11791591 425.63767117 12.12604415 422.69597101 C12.14233991 414.57171991 12.05856719 406.44824846 11.95803833 398.32470703 C11.94759976 397.47393799 11.93716118 396.62316894 11.92640629 395.74661902 C11.66764726 376.2094341 10.60119031 356.74181996 9.33569336 337.24719238 C9.28026594 336.38948122 9.22483852 335.53177006 9.16773148 334.64806765 C8.4707979 323.88628716 7.74408755 313.12663106 7.00550836 302.36763741 C6.34896024 292.78951767 5.71612229 283.20986448 5.08423138 273.63009164 C3.95636286 256.53812616 2.81314217 239.44722856 1.65844727 222.35705566 C0.54421107 205.8649087 -0.56568795 189.37248366 -1.66772461 172.8795166 C-1.73616278 171.85533132 -1.80460096 170.83114603 -1.87511302 169.77592483 C-2.62357471 158.57247168 -3.37021697 147.36889847 -4.11458492 136.16517258 C-4.18009093 135.17926332 -4.24559694 134.19335407 -4.31308798 133.17756878 C-4.57495115 129.23593125 -4.83678921 125.29429207 -5.09839033 121.35263714 C-5.85843313 109.90130771 -6.62396419 98.45037907 -7.40000176 87.00012186 C-7.88431171 79.85204016 -8.36425657 72.7036745 -8.84087152 65.55507562 C-9.11487203 61.44866251 -9.39105687 57.34242743 -9.6732769 53.23657036 C-11.61003329 25.0185523 -11.61003329 25.0185523 -11.82041931 12.66217041 C-11.8460651 11.86959343 -11.87171088 11.07701645 -11.89813381 10.26042199 C-11.90669028 6.95885556 -11.6537791 4.84862089 -9.88060856 2.03004074 C-6.6009741 -0.01487282 -3.74902609 -0.04768287 0 0 Z " fill="#000000" transform="translate(67.439453125,15.4920654296875)"/>
<path d="M0 0 C50.82 0 101.64 0 154 0 C152.92587625 34.37195994 152.92587625 34.37195994 151.53125 50.328125 C150.869304 58.20911979 150.47485188 66.10304249 150.0625 74 C149.27435102 88.99148875 148.23792338 103.95584191 147.11010742 118.92529297 C146.17977718 131.30863437 145.36050461 143.69506313 144.64648438 156.09277344 C144.45103397 159.39694183 144.23288214 162.698292 144 166 C143.93824585 167.13489868 143.93824585 167.13489868 143.87524414 168.29272461 C143.61422188 171.3316276 143.26246176 172.73753824 141.07421875 174.92578125 C140.28660156 175.38339844 139.49898437 175.84101563 138.6875 176.3125 C137.90761719 176.78300781 137.12773437 177.25351563 136.32421875 177.73828125 C134 179 134 179 131.83203125 179.91796875 C129.50383936 181.29304157 129.07023432 182.54925334 128 185 C127.05499779 186.36350319 126.09566646 187.71714623 125.125 189.0625 C119.70319854 197.31537703 117.68587795 204.57708599 117.7421875 214.39453125 C117.74654816 215.23627396 117.75090881 216.07801666 117.75540161 216.94526672 C117.79046687 220.46129373 117.84779102 223.97460114 117.96191406 227.48901367 C118.39602378 242.44244494 118.39602378 242.44244494 114.85205078 246.39648438 C112.1875 247.95703125 112.1875 247.95703125 109.53515625 248.98364258 C103.30540842 251.48118112 99.5930738 258.10691227 96.82421875 263.9453125 C96.55222656 264.62335938 96.28023438 265.30140625 96 266 C95.66154053 266.80373047 95.32308105 267.60746094 94.97436523 268.43554688 C93.63449399 273.33710541 93.64310346 278.02492548 93.5859375 283.0859375 C93.56829346 284.02348877 93.55064941 284.96104004 93.5324707 285.92700195 C93.46968499 289.40949757 93.42330443 292.89227341 93.375 296.375 C93.25125 304.17125 93.1275 311.9675 93 320 C68.91 320 44.82 320 20 320 C19.566875 312.925625 19.13375 305.85125 18.6875 298.5625 C17.64985012 281.77513446 16.51416087 264.99954804 15.24694824 248.22805786 C14.28122863 235.40020683 13.49461461 222.57099802 12.81759644 209.72488403 C12.33181839 200.53459328 11.76915415 191.35932849 11 182.1875 C8.98871294 158.20377713 7.70868518 134.16592572 6.30352783 110.14074707 C4.42543903 77.33030149 4.42543903 77.33030149 1.9375 44.5625 C0.83100968 29.73552974 0.46440454 14.86094534 0 0 Z " fill="#B0BC6F" transform="translate(75,64)"/>
<path d="M0 0 C84.48 0 168.96 0 256 0 C256 31.68 256 63.36 256 96 C171.52 96 87.04 96 0 96 C0 64.32 0 32.64 0 0 Z " fill="#F6AF2F" transform="translate(184,352)"/>
<path d="M0 0 C18.61340255 6.98002596 32.31820117 22.52477304 40.7109375 40.05078125 C44.16266885 47.94792418 45 53.11963583 45 62 C-22.98 62 -90.96 62 -161 62 C-159.78135231 53.46946618 -157.11950178 49.41424308 -150.55859375 43.9765625 C-134.24899581 32.17389162 -113.55858116 30.81041942 -94 30.4375 C-70.43600852 29.92681662 -46.5442306 28.43869268 -25 18 C-23.8759375 17.46503906 -22.751875 16.93007812 -21.59375 16.37890625 C-9.09521669 10.10527945 -9.09521669 10.10527945 0 0 Z " fill="#F9E7D6" transform="translate(370,210)"/>
<path d="M0 0 C0.9778093 -0.00554901 1.95561859 -0.01109802 2.96305847 -0.01681519 C6.19136748 -0.02861436 9.41827378 -0.00433254 12.64648438 0.02148438 C14.89180436 0.02319546 17.13712635 0.02312982 19.38244629 0.0213623 C24.08670174 0.02301571 28.79048076 0.04171827 33.49462891 0.07324219 C39.52404007 0.11291941 45.55282712 0.11728746 51.58234406 0.10977936 C56.2183402 0.10670954 60.85419609 0.11883071 65.49015808 0.13591003 C67.71330383 0.14294039 69.93646548 0.14606452 72.15962219 0.1452179 C75.26686319 0.14701597 78.37335698 0.16839946 81.48046875 0.1953125 C82.39906174 0.1923819 83.31765472 0.18945129 84.26408386 0.18643188 C89.05386571 0.25042776 92.37603763 0.45115905 96.24023438 3.61523438 C97.48980233 6.11437029 97.38065741 7.83163613 97.40136719 10.62817383 C97.41097473 11.67298416 97.42058228 12.71779449 97.43048096 13.79426575 C97.43473083 14.92756821 97.43898071 16.06087067 97.44335938 17.22851562 C97.44905945 18.39021774 97.45475952 19.55191986 97.46063232 20.74882507 C97.47009233 23.2110401 97.47662026 25.67326785 97.48046875 28.13549805 C97.49016747 31.9017551 97.52117946 35.66746503 97.55273438 39.43359375 C97.55926492 41.82356446 97.56451519 44.21353908 97.56835938 46.60351562 C97.58070618 47.73074539 97.59305298 48.85797516 97.60577393 50.0193634 C97.60277283 51.07363022 97.59977173 52.12789703 97.59667969 53.21411133 C97.60214813 54.60071709 97.60214813 54.60071709 97.60772705 56.01533508 C97.15922464 59.18835369 96.1529652 61.05960431 94.24023438 63.61523438 C91.50299275 64.52764825 89.8895176 64.74430207 87.07203674 64.75567627 C85.79977737 64.76424149 85.79977737 64.76424149 84.5018158 64.77297974 C83.57446121 64.7740976 82.64710663 64.77521545 81.69165039 64.77636719 C80.71252686 64.78133209 79.73340332 64.786297 78.72460938 64.79141235 C75.48111269 64.80603449 72.23766488 64.81283538 68.99414062 64.81835938 C66.74356586 64.82410991 64.49299111 64.82986765 62.24241638 64.83563232 C57.5222043 64.84614186 52.80200925 64.85198513 48.08178711 64.85546875 C42.02763241 64.8609594 35.97370193 64.88499995 29.91961765 64.9134407 C25.27084184 64.93204339 20.62212036 64.93727138 15.97331047 64.93880463 C13.74094349 64.94183604 11.50857757 64.94988092 9.27624702 64.96298981 C6.15672736 64.98000377 3.03775985 64.97818155 -0.08178711 64.97167969 C-1.00711746 64.98089447 -1.93244781 64.99010925 -2.88581848 64.99960327 C-9.1051763 64.95890192 -9.1051763 64.95890192 -12.30213928 63.28045654 C-14.93412691 60.27362001 -14.89924557 57.30738679 -14.95263672 53.48876953 C-14.97673111 51.92166733 -14.97673111 51.92166733 -15.00131226 50.32290649 C-15.04578905 45.55512174 -15.08680867 40.78747482 -15.10986328 36.01953125 C-15.12644187 33.50348676 -15.15375644 30.98748973 -15.19189453 28.47167969 C-15.24658779 24.84480347 -15.26852484 21.21902962 -15.28320312 17.59179688 C-15.3058725 16.46770416 -15.32854187 15.34361145 -15.35189819 14.18545532 C-15.34904816 13.1344162 -15.34619812 12.08337708 -15.34326172 11.00048828 C-15.35134857 10.07910065 -15.35943542 9.15771301 -15.36776733 8.20840454 C-13.43525286 -0.03390599 -7.0705358 -0.10208901 0 0 Z " fill="#000000" transform="translate(110.759765625,79.384765625)"/>
<path d="M0 0 C1.23524414 0.00563965 2.47048828 0.0112793 3.74316406 0.01708984 C23.20773332 0.27367057 44.81759979 3.20735655 59.5 17.3125 C63.93747525 22.58903002 66.56219699 27.79983435 66.078125 34.796875 C64.36069134 42.27003228 59.82629347 47.86016451 53.55859375 52.078125 C50.27731692 54.04564583 47.01388819 55.79383946 43.5 57.3125 C42.73558594 57.65152344 41.97117187 57.99054688 41.18359375 58.33984375 C18.72142354 67.427592 -9.528491 67.20338648 -32.5 60.3125 C-33.70785156 59.95027344 -34.91570312 59.58804688 -36.16015625 59.21484375 C-46.69748978 55.57915557 -56.20567315 49.99602596 -61.53125 39.88671875 C-63.49455173 34.6697194 -63.47776157 30.23605574 -61.71484375 24.96484375 C-57.1263915 15.37678762 -48.20263068 10.01299224 -38.578125 6.3359375 C-33.61407997 4.68545552 -28.61481951 3.39955624 -23.5 2.3125 C-22.80100586 2.14258545 -22.10201172 1.9726709 -21.38183594 1.79760742 C-14.23937746 0.17148741 -7.30701676 -0.03489026 0 0 Z " fill="#040301" transform="translate(310.5,367.6875)"/>
<path d="M0 0 C1.34935859 -0.00935994 1.34935859 -0.00935994 2.72597694 -0.01890898 C5.72302535 -0.03479067 8.71925499 -0.02225356 11.71630859 -0.00964355 C13.87197339 -0.01506681 16.02763448 -0.0221906 18.18328857 -0.03088379 C24.02623356 -0.04909573 29.86889556 -0.04205824 35.7118454 -0.02936745 C41.8313421 -0.01922885 47.95081483 -0.02863553 54.0703125 -0.03491211 C64.34623558 -0.04218598 74.62204361 -0.03260755 84.89794922 -0.0135498 C96.77230106 0.00821834 108.64637816 0.00116679 120.52072334 -0.02085543 C130.72222302 -0.03901674 140.92364006 -0.04156413 151.12515068 -0.03110075 C157.21525449 -0.02486989 163.30522923 -0.02401912 169.39532471 -0.0372467 C175.12131845 -0.0488151 180.84695852 -0.04076095 186.57291412 -0.01766968 C188.67232934 -0.01238794 190.7717744 -0.01388717 192.87117767 -0.02272034 C195.74101546 -0.03368035 198.60972588 -0.01990639 201.47949219 0 C202.30674112 -0.00892289 203.13399006 -0.01784577 203.98630714 -0.02703905 C210.91561778 0.06594394 216.08642315 2.14533065 221.27099609 6.76184082 C222.24552734 7.90459473 222.24552734 7.90459473 223.23974609 9.07043457 C224.24521484 10.21705566 224.24521484 10.21705566 225.27099609 11.38684082 C226.73974609 13.50793457 226.73974609 13.50793457 226.73974609 16.50793457 C143.57974609 16.50793457 60.41974609 16.50793457 -25.26025391 16.50793457 C-24.29604486 12.65109838 -23.67597552 11.39825226 -21.19775391 8.50793457 C-20.64990234 7.84793457 -20.10205078 7.18793457 -19.53759766 6.50793457 C-13.59039949 1.28500925 -7.75331351 -0.08362892 0 0 Z " fill="#DF9E2B" transform="translate(211.26025390625,319.4920654296875)"/>
<path d="M0 0 C83.16 0 166.32 0 252 0 C250.42413408 6.30346367 246.32615163 10.5860647 240.8125 13.9375 C235.5691304 15.91832852 230.87661953 16.14840879 225.29669189 16.14717102 C224.40870431 16.15084771 223.52071672 16.1545244 222.60582042 16.1583125 C219.62425205 16.16934349 216.64271853 16.17319218 213.66113281 16.17700195 C211.52576588 16.18326698 209.39040004 16.18991382 207.2550354 16.19691467 C200.23773965 16.21795055 193.22044369 16.22831575 186.203125 16.23828125 C183.78752379 16.2423288 181.37192269 16.24644573 178.95632172 16.25063133 C167.60911369 16.26968095 156.26191216 16.28391319 144.91469121 16.2922433 C131.81441763 16.30201911 118.71431287 16.32834869 105.61409879 16.36874419 C95.48913467 16.39889456 85.36421898 16.41371111 75.23921084 16.41702431 C69.19149458 16.41937578 63.14395872 16.42834922 57.09629059 16.45348549 C51.40650655 16.47675252 45.71702187 16.48100479 40.02720261 16.47072411 C37.94067515 16.47022833 35.85413302 16.47656111 33.7676506 16.49028015 C30.91515627 16.50798429 28.06373805 16.50089999 25.21124268 16.48774719 C24.38904716 16.49871644 23.56685164 16.50968568 22.71974111 16.52098733 C15.80283318 16.44418864 10.64210332 14.3526136 5.46875 9.74609375 C4.49421875 8.60333984 4.49421875 8.60333984 3.5 7.4375 C2.8296875 6.67308594 2.159375 5.90867187 1.46875 5.12109375 C0 3 0 3 0 0 Z " fill="#DF9E2B" transform="translate(186,464)"/>
<path d="M0 0 C68.64 0 137.28 0 208 0 C208 5.28 208 10.56 208 16 C139.36 16 70.72 16 0 16 C0 10.72 0 5.44 0 0 Z " fill="#F7B030" transform="translate(208,288)"/>
<path d="M0 0 C26.4 0 52.8 0 80 0 C80 10.56 80 21.12 80 32 C53.6 32 27.2 32 0 32 C0 21.44 0 10.88 0 0 Z " fill="#FBE9D8" transform="translate(112,96)"/>
<path d="M0 0 C52.14 0 104.28 0 158 0 C158 5.28 158 10.56 158 16 C105.86 16 53.72 16 0 16 C0 10.72 0 5.44 0 0 Z " fill="#FAE8D7" transform="translate(73,32)"/>
<path d="M0 0 C1.67465034 1.40710265 3.27481599 2.90213377 4.85546875 4.4140625 C4.85546875 7.12607223 4.34435405 8.86153533 2.53515625 10.90625 C-13.13245921 23.9965088 -37.95671993 23.64523422 -57.14453125 22.4140625 C-69.05378393 21.07023363 -83.0161867 17.81597255 -91.14453125 8.4140625 C-91.39453125 6.0390625 -91.39453125 6.0390625 -90.14453125 3.4140625 C-70.43580131 -15.43776614 -21.52500362 -15.91830869 0 0 Z " fill="#F7E6D5" transform="translate(355.14453125,393.5859375)"/>
<path d="M0 0 C23.76 0 47.52 0 72 0 C72 5.61 72 11.22 72 17 C69.9271875 16.95359375 67.854375 16.9071875 65.71875 16.859375 C63.68654306 16.83153655 61.65433117 16.80384955 59.62207031 16.78027344 C58.22155527 16.7602937 56.82112218 16.7330998 55.42089844 16.69824219 C46.06612072 16.47137882 39.10340735 16.52785035 31.7578125 22.96484375 C31.21898438 23.61582031 30.68015625 24.26679688 30.125 24.9375 C29.57070312 25.58589844 29.01640625 26.23429687 28.4453125 26.90234375 C25.24240362 31.55088988 24.68814406 35.72809759 24.375 41.3125 C24.25125 43.519375 24.1275 45.72625 24 48 C16.08 48 8.16 48 0 48 C0 32.16 0 16.32 0 0 Z " fill="#FAE8D7" transform="translate(96,400)"/>
<path d="M0 0 C0.66569504 -0.00554901 1.33139008 -0.01109802 2.01725769 -0.01681519 C4.20691044 -0.02857861 6.39447797 -0.00437471 8.58398438 0.02148438 C10.11185614 0.02319649 11.63973084 0.02312877 13.16760254 0.0213623 C16.36543997 0.02301365 19.56257476 0.04167599 22.76025391 0.07324219 C26.85265379 0.1129199 30.94413402 0.11728643 35.03668976 0.10977936 C38.19037249 0.1067051 41.3438497 0.11884625 44.4974823 0.13591003 C46.00610565 0.14292529 47.5147523 0.14606636 49.02339172 0.1452179 C51.13450962 0.14702221 53.24453978 0.16845545 55.35546875 0.1953125 C57.15485901 0.20794128 57.15485901 0.20794128 58.99060059 0.2208252 C62.47938538 0.65256382 64.38053785 1.52169287 67.17773438 3.61523438 C68.58231174 6.42438911 68.42668595 8.50333972 68.17773438 11.61523438 C66.39789033 14.75115008 65.65465231 15.45626173 62.17773438 16.61523438 C59.98138324 16.72994826 57.78173889 16.78461539 55.58251953 16.80810547 C54.91711655 16.81628296 54.25171356 16.82446045 53.56614685 16.83288574 C51.36637258 16.85767791 49.16666249 16.87423814 46.96679688 16.88867188 C46.21454205 16.89399555 45.46228722 16.89931923 44.68723679 16.90480423 C40.70686615 16.93150667 36.72652659 16.95089235 32.74609375 16.96533203 C29.45381955 16.97868118 26.16216371 17.00655447 22.87011719 17.04736328 C18.89194295 17.09667402 14.9143303 17.12145046 10.93586349 17.12855911 C9.42158246 17.13527098 7.90731392 17.15049166 6.39320755 17.17444992 C4.27205411 17.20610378 2.15306628 17.20614005 0.03173828 17.19873047 C-1.77670059 17.21086075 -1.77670059 17.21086075 -3.62167358 17.22323608 C-7.75547101 16.43795765 -9.23531615 14.86445309 -11.82226562 11.61523438 C-12.44726562 8.61523438 -12.44726562 8.61523438 -11.82226562 5.61523438 C-8.14529699 1.00473595 -5.84277586 -0.01000643 0 0 Z " fill="#010100" transform="translate(123.822265625,159.384765625)"/>
<path d="M0 0 C23.43 0 46.86 0 71 0 C72.98 4.62 74.96 9.24 77 14 C77.495 14.99 77.495 14.99 78 16 C70.05442985 16.0929886 62.10908991 16.16390999 54.16310883 16.20724869 C50.47280045 16.2280571 46.78286642 16.25624919 43.09277344 16.30175781 C39.52657939 16.34545943 35.96074369 16.36918776 32.39430237 16.37950897 C30.38249888 16.39041494 28.37083804 16.42160191 26.35925293 16.45318604 C17.71223021 16.45529171 12.09831799 15.64927389 5.46875 9.74609375 C4.49421875 8.60333984 4.49421875 8.60333984 3.5 7.4375 C2.8296875 6.67308594 2.159375 5.90867187 1.46875 5.12109375 C0 3 0 3 0 0 Z " fill="#AFBB6F" transform="translate(98,464)"/>
<path d="M0 0 C0.93714844 -0.00257813 1.87429687 -0.00515625 2.83984375 -0.0078125 C7.80437377 0.06260637 11.52949427 0.18039685 15.5 3.5 C16.5 5.5 16.5 5.5 16.5 16.5 C5.94 16.5 -4.62 16.5 -15.5 16.5 C-15.5 5.5 -15.5 5.5 -13.65625 2.34375 C-9.08867899 -0.32443505 -5.19499591 -0.15720758 0 0 Z " fill="#9EA964" transform="translate(151.5,431.5)"/>
</svg>
