<svg id="svgexport-21_4_" data-name="svgexport-21 (4)" xmlns="http://www.w3.org/2000/svg" width="24" height="24" viewBox="0 0 24 24">
  <path id="Path_51114" data-name="Path 51114" d="M4.183,23.794l4.1-4.1,1.989,1.989a.7.7,0,0,0,1.164-.275L15.416,9.474a.7.7,0,0,0-.889-.889L2.594,12.562a.7.7,0,0,0-.275,1.164l1.989,1.989-4.1,4.1a.7.7,0,0,0,0,.994l2.983,2.983A.7.7,0,0,0,4.183,23.794ZM14.859,5.625a.7.7,0,0,0,.7-.7V.7a.7.7,0,1,0-1.406,0V4.922A.7.7,0,0,0,14.859,5.625Zm3.48,1.03,2.983-2.984a.7.7,0,1,0-.994-.994L17.345,5.661a.7.7,0,0,0,.994.994ZM21.323,15.6a.7.7,0,0,0,0-.994l-2.983-2.983a.7.7,0,0,0-.994.994L20.329,15.6A.7.7,0,0,0,21.323,15.6ZM12.374,6.655a.7.7,0,0,0,0-.994L9.39,2.677a.7.7,0,0,0-.994.994l2.983,2.983a.7.7,0,0,0,.994,0Zm6.7,3.189H23.3a.7.7,0,0,0,0-1.406H19.078a.7.7,0,0,0,0,1.406Z" fill="#ffa800"/>
</svg>
