
<svg xmlns="http://www.w3.org/2000/svg" width="27" height="27" viewBox="0 0 27 27">
  <g id="Group_17068" data-name="Group 17068" transform="translate(-0.064 -0.256)">
    <circle id="Ellipse_1406" data-name="Ellipse 1406" cx="13.5" cy="13.5" r="13.5" transform="translate(0.064 0.256)" fill="#fff"/>
    <path id="Path_51165" data-name="Path 51165" d="M343.42,294.936h-.377a4.089,4.089,0,0,1-3.431-1.853v6.291a4.661,4.661,0,1,1-4.661-4.655h.286v2.288a2.285,2.285,0,0,0-.286-.034,2.379,2.379,0,0,0,0,4.758,2.431,2.431,0,0,0,2.471-2.35v-10.7h2.2a4.1,4.1,0,0,0,3.774,3.649Z" transform="translate(-322.855 -282.485)" fill="#0e123e"/>
  </g>
</svg>
