<svg id="svgexport-21_6_" data-name="svgexport-21 (6)" xmlns="http://www.w3.org/2000/svg" width="20" height="20"
  viewBox="0 0 20 20">
  <g id="Group_16588" data-name="Group 16588" transform="translate(0 0)">
    <path id="Path_46406" data-name="Path 46406"
      d="M15,20H5a5,5,0,0,1-5-5V5A5,5,0,0,1,5,0H15a5,5,0,0,1,5,5V15a5,5,0,0,1-5,5" transform="translate(0 0)"
      fill="#2d0f1e" fill-rule="evenodd" />
    <path id="Path_46407" data-name="Path 46407"
      d="M9.284,6.07h5.57A2.9,2.9,0,0,0,17.64,3.19a2.965,2.965,0,0,0-2.5-3.175C15.045.01,14.951,0,14.855,0h-9.9A5.188,5.188,0,0,0,0,5.4V16.187C0,10.6,4.157,6.07,9.284,6.07"
      transform="translate(0 0)" fill="#501432" fill-rule="evenodd" />
    <path id="Path_46408" data-name="Path 46408" d="M37.4,21.4a5.4,5.4,0,1,0,5.4,5.4V16a5.4,5.4,0,0,1-5.4,5.4"
      transform="translate(-22.791 -12.187)" fill-rule="evenodd" />
    <path id="Path_46409" data-name="Path 46409"
      d="M19.912,12.637A.615.615,0,0,1,20.5,12h1.25a.6.6,0,0,1,.58.512,2.4,2.4,0,0,0,2.309,2.035.615.615,0,0,1,.591.637v1.274a.615.615,0,0,1-.591.637,4.449,4.449,0,0,1-2.365-.682v5.14a4.307,4.307,0,0,1-4.138,4.457A4.307,4.307,0,0,1,14,21.551a4.307,4.307,0,0,1,4.138-4.457.615.615,0,0,1,.591.637V19a.615.615,0,0,1-.591.637,1.916,1.916,0,1,0,1.774,1.91Z"
      transform="translate(-9.279 -8.706)" fill="#fe2c55" fill-rule="evenodd" />
    <path id="Path_46410" data-name="Path 46410"
      d="M17.912,10.6A.6.6,0,0,1,18.5,10h1.25a.594.594,0,0,1,.58.485,2.363,2.363,0,0,0,2.309,1.925.6.6,0,0,1,.591.6v1.205a.6.6,0,0,1-.591.6,4.637,4.637,0,0,1-2.365-.646v4.863a4.139,4.139,0,1,1-4.138-4.218.6.6,0,0,1,.591.6v1.205a.6.6,0,0,1-.591.6,1.808,1.808,0,1,0,1.774,1.808Z"
      transform="translate(-7.953 -6.628)" fill="#25f4ee" fill-rule="evenodd" />
    <path id="Path_46411" data-name="Path 46411"
      d="M16.6,21.922a1.743,1.743,0,0,0,1.978.8,1.792,1.792,0,0,0,1.284-1.731V12.6a.593.593,0,0,1,.587-.6h1.255a2.379,2.379,0,0,0,.931,1.371A2.32,2.32,0,0,0,24.558,14.4v1.2a.593.593,0,0,1-.587.6,4.593,4.593,0,0,1-2.346-.642v4.836a4.2,4.2,0,0,1-2.345,3.788,4.037,4.037,0,0,1-4.356-.539,4.266,4.266,0,0,1-.527-4.449,4.1,4.1,0,0,1,3.709-2.395v1.2a.593.593,0,0,1-.587.6A1.766,1.766,0,0,0,15.824,19.9,1.815,1.815,0,0,0,16.6,21.922Z"
      transform="translate(-9.279 -7.953)" fill="#fff" fill-rule="evenodd" />
  </g>
</svg>
