<svg id="svgexport-17_24_" data-name="svgexport-17 (24)" xmlns="http://www.w3.org/2000/svg" width="20" height="20"
  viewBox="0 0 20 20">
  <path id="Path_46416" data-name="Path 46416" d="M295.72,241.39Z" transform="translate(-281.966 -230.163)" />
  <path id="Path_46417" data-name="Path 46417"
    d="M17.839,0H2.161A2.161,2.161,0,0,0,0,2.161V17.839A2.161,2.161,0,0,0,2.161,20H17.839A2.161,2.161,0,0,0,20,17.839V2.161A2.161,2.161,0,0,0,17.839,0ZM12.757,16.96,9.04,11.551,4.387,16.96h-1.2l5.322-6.186L3.184,3.029H7.243l3.519,5.122,4.406-5.122h1.2L11.3,8.928h0l5.519,8.032Z" />
</svg>
