
<svg xmlns="http://www.w3.org/2000/svg" width="60" height="60" viewBox="0 0 60 60">
  <g id="Group_17075" data-name="Group 17075" transform="translate(-1335 -87)">
    <g id="Group_16888" data-name="Group 16888" transform="translate(0 -13)">
      <!-- <circle id="download_2_" data-name="download (2)" cx="30" cy="30" r="30" transform="translate(1335 100)" fill="currentColor"/> -->
    </g>
    <g id="svgexport-17_22_" data-name="svgexport-17 (22)" transform="translate(1355 106)">
      <path id="Path_46471" data-name="Path 46471" d="M9.876,9.58a5.6,5.6,0,0,0,4.094-1.7,5.6,5.6,0,0,0,1.7-4.094A5.6,5.6,0,0,0,13.97-.3,5.6,5.6,0,0,0,9.876-2,5.6,5.6,0,0,0,5.782-.3a5.6,5.6,0,0,0-1.7,4.094,5.6,5.6,0,0,0,1.7,4.094A5.6,5.6,0,0,0,9.876,9.58Zm10.131,8.905a14.3,14.3,0,0,0-.195-1.519,11.959,11.959,0,0,0-.374-1.527,7.544,7.544,0,0,0-.628-1.424,5.375,5.375,0,0,0-.947-1.234,4.175,4.175,0,0,0-1.36-.855,4.7,4.7,0,0,0-1.736-.314,1.762,1.762,0,0,0-.941.4q-.489.318-.98.632a5.616,5.616,0,0,1-1.268.559,4.925,4.925,0,0,1-3.1,0,5.606,5.606,0,0,1-1.267-.559c-.365-.233-.695-.446-.981-.632a1.76,1.76,0,0,0-.941-.4,4.693,4.693,0,0,0-1.736.315,4.171,4.171,0,0,0-1.36.854,5.375,5.375,0,0,0-.946,1.234,7.561,7.561,0,0,0-.628,1.424,11.988,11.988,0,0,0-.373,1.527,14.252,14.252,0,0,0-.195,1.519Q0,19.194,0,19.9a3.992,3.992,0,0,0,1.186,3.02A4.267,4.267,0,0,0,4.24,24.039H15.815a4.267,4.267,0,0,0,3.055-1.114,3.99,3.99,0,0,0,1.186-3.02c0-.484-.016-.962-.049-1.42Zm0,0" transform="translate(0)" fill="#fff" stroke="#4e4e78" stroke-width="2"/>
    </g>
  </g>
</svg>
