<svg xmlns="http://www.w3.org/2000/svg" viewBox="0 0 12.119 13.199">
  <g id="svgexport-17_32_" data-name="svgexport-17 (32)" transform="translate(-1.738 -0.815)">
    <g id="Group_16797" data-name="Group 16797" transform="translate(4.43 0.815)">
      <path id="Path_46461" data-name="Path 46461"
        d="M9.4.815a3.1,3.1,0,1,0,3.1,3.1A3.1,3.1,0,0,0,9.4.815Zm2.46,6.653a1.566,1.566,0,0,1,1.176-.531h1.126a1.568,1.568,0,0,1,1.568,1.569v3.94a1.568,1.568,0,0,1-1.568,1.568H13.034a1.566,1.566,0,0,1-1.176-.531.443.443,0,1,1,.663-.585.682.682,0,0,0,.513.231h1.126a.683.683,0,0,0,.683-.683V8.506a.683.683,0,0,0-.683-.684H13.034a.68.68,0,0,0-.513.232.443.443,0,1,1-.664-.586Z"
        transform="translate(-6.3 -0.815)" fill="currentColor" fill-rule="evenodd" />
      <path id="Path_46462" data-name="Path 46462"
        d="M16.59,16.567a.443.443,0,0,1,0,.625l-1.18,1.18a.442.442,0,1,1-.626-.625l1.18-1.18a.443.443,0,0,1,.625,0Z"
        transform="translate(-9.725 -7.22)" fill="currentColor" fill-rule="evenodd" />
      <path id="Path_46463" data-name="Path 46463"
        d="M16.59,16.373a.443.443,0,0,0,0-.625l-1.18-1.18a.442.442,0,1,0-.626.625l1.18,1.18a.443.443,0,0,0,.625,0Z"
        transform="translate(-9.725 -6.4)" fill="currentColor" fill-rule="evenodd" />
      <path id="Path_46464" data-name="Path 46464"
        d="M11.154,16.881a.443.443,0,0,1,.443-.443h2.95a.443.443,0,1,1,0,.885H11.6A.443.443,0,0,1,11.154,16.881Z"
        transform="translate(-8.29 -7.22)" fill="currentColor" fill-rule="evenodd" />
    </g>
    <path id="Path_46465" data-name="Path 46465"
      d="M8.848,13.564a11.152,11.152,0,0,0-6.591,1.221.977.977,0,0,0-.519.864v2.167a1.033,1.033,0,0,0,1.033,1.033h6.3a1.332,1.332,0,0,1-.012-.9A1.33,1.33,0,0,1,8.482,17H7.736a1.328,1.328,0,1,1,0-2.655h.746a1.322,1.322,0,0,1,.366-.776Z"
      transform="translate(0 -5.193)" fill="currentColor" />
  </g>
</svg>
