<svg xmlns="http://www.w3.org/2000/svg" viewBox="0 0 11.685 13.199">
  <g id="svgexport-17_31_" data-name="svgexport-17 (31)" transform="translate(-58.722)">
    <circle id="Ellipse_1268" data-name="Ellipse 1268" cx="3.058" cy="3.058" r="3.058" transform="translate(60.687 0)"
      fill="currentColor" />
    <path id="Path_46459" data-name="Path 46459"
      d="M310.787,308.16a2.627,2.627,0,1,0,2.627,2.627A2.627,2.627,0,0,0,310.787,308.16Zm1.131,3.117h-.641v.641a.49.49,0,1,1-.98,0v-.641h-.641a.49.49,0,1,1,0-.98h.641v-.641a.49.49,0,0,1,.98,0v.641h.641a.49.49,0,0,1,0,.98Z"
      transform="translate(-243.007 -300.216)" fill="currentColor" />
    <path id="Path_46460" data-name="Path 46460"
      d="M64.431,269.451A3.349,3.349,0,0,1,67.78,266.1q.085,0,.17,0a1.893,1.893,0,0,0-.79-.273c-.632-.067-2.2-.1-3.181-.1s-2.9.037-3.535.1a1.914,1.914,0,0,0-1.142.55,1.881,1.881,0,0,0-.543,1.133s0,.009,0,.013a4.8,4.8,0,0,0-.03.81,7.029,7.029,0,0,0,.03.978s0,.009,0,.013a2.211,2.211,0,0,0,.541,1.213,2.122,2.122,0,0,0,1.138.689,20.811,20.811,0,0,0,3.541.278c.329,0,.725-.012,1.13-.038A3.323,3.323,0,0,1,64.431,269.451Z"
      transform="translate(0 -258.88)" fill="currentColor" />
  </g>
</svg>
