<svg xmlns="http://www.w3.org/2000/svg" width="30.649" height="9.303" viewBox="0 0 30.649 9.303">
  <g id="svgexport-7_5_" data-name="svgexport-7 (5)" transform="translate(0 -175.599)">
    <path id="Path_46133" data-name="Path 46133" d="M184.8,189.156l1.557-8.756h2.432l-1.508,8.756Z" transform="translate(-173.563 -4.508)" fill="#3c58bf"/>
    <path id="Path_46134" data-name="Path 46134" d="M184.8,189.156l1.994-8.756h1.994l-1.508,8.756Z" transform="translate(-173.563 -4.508)" fill="#293688"/>
    <path id="Path_46135" data-name="Path 46135" d="M255.442,175.989a6.169,6.169,0,0,0-2.238-.389c-2.432,0-4.183,1.216-4.183,2.967,0,1.313,1.216,1.994,2.189,2.432s1.265.73,1.265,1.119c0,.584-.778.876-1.459.876a5.287,5.287,0,0,1-2.335-.486l-.341-.146-.34,1.994a7.887,7.887,0,0,0,2.773.486c2.578,0,4.281-1.216,4.281-3.065,0-1.022-.632-1.8-2.092-2.432-.876-.438-1.411-.681-1.411-1.119,0-.389.438-.778,1.411-.778a4.462,4.462,0,0,1,1.848.34l.243.1.389-1.9Z" transform="translate(-232.92)" fill="#3c58bf"/>
    <path id="Path_46136" data-name="Path 46136" d="M255.442,175.989a6.169,6.169,0,0,0-2.238-.389c-2.432,0-3.746,1.216-3.746,2.967A2.543,2.543,0,0,0,251.21,181c.973.438,1.265.73,1.265,1.119,0,.584-.778.876-1.459.876a5.287,5.287,0,0,1-2.335-.486l-.341-.146-.34,1.993a7.887,7.887,0,0,0,2.773.486c2.578,0,4.281-1.216,4.281-3.065,0-1.022-.632-1.8-2.092-2.432-.876-.438-1.411-.681-1.411-1.119,0-.389.438-.778,1.411-.778a4.462,4.462,0,0,1,1.848.34l.243.1.389-1.9Z" transform="translate(-232.92)" fill="#293688"/>
    <path id="Path_46137" data-name="Path 46137" d="M363.313,180.4c-.584,0-1.022.049-1.265.632l-3.648,8.124h2.627l.486-1.459h3.113l.292,1.459h2.335L365.21,180.4Zm-1.119,5.837c.146-.438.973-2.578.973-2.578s.2-.535.341-.876l.146.827s.486,2.189.584,2.675H362.2Z" transform="translate(-336.608 -4.508)" fill="#3c58bf"/>
    <path id="Path_46138" data-name="Path 46138" d="M363.9,180.4c-.584,0-1.021.049-1.265.632l-4.232,8.124h2.627l.486-1.459h3.113l.292,1.459h2.335L365.21,180.4Zm-1.7,5.837c.2-.486.973-2.578.973-2.578s.2-.535.34-.876l.146.827s.486,2.189.584,2.675H362.2Z" transform="translate(-336.607 -4.508)" fill="#293688"/>
    <path id="Path_46139" data-name="Path 46139" d="M54.848,187.28l-.243-1.265a7.052,7.052,0,0,0-3.4-3.843l2.189,7.783h2.627l3.94-8.756H57.329Z" transform="translate(-48.087 -5.259)" fill="#3c58bf"/>
    <path id="Path_46140" data-name="Path 46140" d="M54.848,187.28l-.243-1.265a7.052,7.052,0,0,0-3.4-3.843l2.189,7.783h2.627l3.94-8.756h-2.14Z" transform="translate(-48.087 -5.259)" fill="#293688"/>
    <path id="Path_46141" data-name="Path 46141" d="M0,180.4l.438.1a8.2,8.2,0,0,1,6.08,4.767l-.876-4.135c-.146-.584-.584-.73-1.119-.73Z" transform="translate(0 -4.508)" fill="#ffbc00"/>
    <path id="Path_46142" data-name="Path 46142" d="M0,180.4H0c3.113.73,5.691,2.627,6.518,4.816l-.827-3.454a1.187,1.187,0,0,0-1.167-.924Z" transform="translate(0 -4.508)" fill="#f7981d"/>
    <path id="Path_46143" data-name="Path 46143" d="M0,180.4H0c3.113.73,5.691,2.627,6.518,4.816l-.584-1.9a1.716,1.716,0,0,0-1.022-1.411Z" transform="translate(0 -4.508)" fill="#ed7c00"/>
    <g id="Group_15737" data-name="Group 15737" transform="translate(3.162 176.865)">
      <path id="Path_46144" data-name="Path 46144" d="M58.032,201.264l-1.654-1.654-.778,1.848-.195-1.216A7.052,7.052,0,0,0,52,196.4l2.189,7.783h2.627Z" transform="translate(-52 -196.4)" fill="#051244"/>
      <path id="Path_46145" data-name="Path 46145" d="M187.281,291.34l-2.092-2.14-.389,2.14Z" transform="translate(-176.725 -283.557)" fill="#051244"/>
      <path id="Path_46146" data-name="Path 46146" d="M252.232,274.8h0c.2.2.292.341.243.535,0,.584-.778.876-1.459.876a5.287,5.287,0,0,1-2.335-.486l-.341-.146-.34,1.994a7.886,7.886,0,0,0,2.773.486,4.816,4.816,0,0,0,3.551-1.216Z" transform="translate(-236.082 -270.033)" fill="#051244"/>
      <path id="Path_46147" data-name="Path 46147" d="M364,225.972h2.286l.486-1.459h3.113l.292,1.459h2.335l-.827-3.551-2.919-2.821.146.778s.486,2.189.584,2.675h-2.043c.2-.486.973-2.578.973-2.578s.2-.535.341-.876" transform="translate(-345.029 -218.189)" fill="#051244"/>
    </g>
  </g>
</svg>
