<svg xmlns="http://www.w3.org/2000/svg" width="20.685" height="21" viewBox="0 0 20.685 21">
  <g id="svgexport-6_94_" data-name="svgexport-6 (94)" transform="translate(-3.63 -3)">
    <path id="Path_44907" data-name="Path 44907" d="M21.982,25.15,20.9,14.35A1.494,1.494,0,0,0,19.41,13H6.22a1.5,1.5,0,0,0-1.493,1.35l-1.08,10.8A3.5,3.5,0,0,0,7.13,29H18.5a3.5,3.5,0,0,0,3.483-3.85Z" transform="translate(0 -5)" fill="#f1eeee"/>
    <g id="Group_14909" data-name="Group 14909" transform="translate(7.815 3)">
      <circle id="Ellipse_438" data-name="Ellipse 438" cx="1" cy="1" r="1" transform="translate(0 6)" fill="#aab2b7"/>
      <circle id="Ellipse_439" data-name="Ellipse 439" cx="1" cy="1" r="1" transform="translate(8 6)" fill="#aab2b7"/>
      <path id="Path_44908" data-name="Path 44908" d="M21.5,10.5A.5.5,0,0,1,21,10V7.5a3.5,3.5,0,1,0-7,0V10a.5.5,0,0,1-1,0V7.5a4.5,4.5,0,0,1,9,0V10A.5.5,0,0,1,21.5,10.5Z" transform="translate(-12.5 -3)" fill="#aab2b7"/>
    </g>
    <circle id="Ellipse_440" data-name="Ellipse 440" cx="5.5" cy="5.5" r="5.5" transform="translate(13.315 13)" fill="#f1eeee"/>
    <path id="Path_44909" data-name="Path 44909" d="M31,34a.5.5,0,0,1-.353-.146l-1.5-1.5a.5.5,0,1,1,.707-.707L31,32.793l2.647-2.647a.5.5,0,1,1,.707.707l-3,3A.5.5,0,0,1,31,34Z" transform="translate(-12.685 -13.5)" fill="#aab2b7"/>
    <path id="Path_44910" data-name="Path 44910" d="M18.5,29H7.13a3.5,3.5,0,0,1-3.483-3.85l1.08-10.8A1.493,1.493,0,0,1,6.22,13H19.41A1.494,1.494,0,0,1,20.9,14.35l.455,4.539a.5.5,0,1,1-1,.1l-.455-4.54a.5.5,0,0,0-.5-.45H6.22a.5.5,0,0,0-.5.45L4.642,25.25A2.5,2.5,0,0,0,7.13,28H18.49a.52.52,0,0,1,.585.5.488.488,0,0,1-.476.5.811.811,0,0,1-.1,0Z" transform="translate(0 -5)" fill="#aab2b7"/>
    <path id="Path_44911" data-name="Path 44911" d="M28.5,34A5.5,5.5,0,1,1,34,28.5,5.5,5.5,0,0,1,28.5,34Zm0-10A4.5,4.5,0,1,0,33,28.5,4.5,4.5,0,0,0,28.5,24Z" transform="translate(-9.685 -10)" fill="#aab2b7"/>
  </g>
</svg>
