<svg xmlns="http://www.w3.org/2000/svg" width="31.646" height="20.019" viewBox="0 0 31.646 20.019">
  <g id="svgexport-6_91_" data-name="svgexport-6 (91)" transform="translate(0 -94.062)">
    <path id="Path_44859" data-name="Path 44859" d="M61.777,102.079H42.75a.529.529,0,0,0-.529.529v11.1h1.586a1.057,1.057,0,1,1,0,2.114H42.221v1.586a.529.529,0,0,0,.529.529H62.306V102.608A.529.529,0,0,0,61.777,102.079Z" transform="translate(-39.611 -7.521)" fill="#f1eeee"/>
    <path id="Path_44860" data-name="Path 44860" d="M373.508,238.9h-6.343v7.4h8.457v-5.285A2.114,2.114,0,0,0,373.508,238.9Z" transform="translate(-344.471 -135.884)" fill="#f1eeee"/>
    <path id="Path_44861" data-name="Path 44861" d="M367.165,264.551h5.726a1.057,1.057,0,0,1,1.057,1.057v4.757h-6.783Z" transform="translate(-344.471 -159.951)" fill="#efefef"/>
    <path id="Path_44862" data-name="Path 44862" d="M371.393,136.284h-4.228V138.4h5.814v-.529A1.586,1.586,0,0,0,371.393,136.284Z" transform="translate(-344.471 -39.612)" fill="#efefef"/>
    <path id="Path_44863" data-name="Path 44863" d="M373.508,174.717l-1.057-4.228h-5.285v4.228Z" transform="translate(-344.471 -71.703)" fill="#f1eeee"/>
    <path id="Path_44864" data-name="Path 44864" d="M469.779,273.1h2.114v2.114h-1.057a1.057,1.057,0,0,1-1.057-1.057V273.1Z" transform="translate(-440.742 -167.974)" fill="#f1f4fb"/>
    <path id="Path_44865" data-name="Path 44865" d="M370.865,298.756a4.226,4.226,0,0,0-3.7,2.183v1.517h7.892A4.226,4.226,0,0,0,370.865,298.756Z" transform="translate(-344.471 -192.042)" fill="#d9d9e0"/>
    <path id="Path_44866" data-name="Path 44866" d="M476.9,320.412v2.361h1.109A4.218,4.218,0,0,0,476.9,320.412Z" transform="translate(-447.427 -212.359)" fill="#d9d9e0"/>
    <circle id="Ellipse_436" data-name="Ellipse 436" cx="2.643" cy="2.643" r="2.643" transform="translate(23.751 108.3)" fill="#5b5d6e"/>
    <path id="Path_44867" data-name="Path 44867" d="M369.28,172.075h3.568l-.4-1.586h-5.285v4.228h1.586V172.6A.528.528,0,0,1,369.28,172.075Z" transform="translate(-344.472 -71.703)" fill="#d9d9e0"/>
    <path id="Path_44868" data-name="Path 44868" d="M48.564,298.756a4.218,4.218,0,0,0-3.3,1.586H42.221v1.586a.529.529,0,0,0,.529.529H62.306v-2.114H51.861A4.218,4.218,0,0,0,48.564,298.756Z" transform="translate(-39.611 -192.042)" fill="#d9d9e0"/>
    <circle id="Ellipse_437" data-name="Ellipse 437" cx="2.643" cy="2.643" r="2.643" transform="translate(6.309 108.3)" fill="#5b5d6e"/>
    <path id="Path_44869" data-name="Path 44869" d="M29.431,102.549l-.82-3.278A.5.5,0,0,0,29,98.786v-.529a2.084,2.084,0,0,0-2.081-2.081H23.19v-1.09a1.025,1.025,0,0,0-1.024-1.024H3.138a1.025,1.025,0,0,0-1.024,1.024v8.985a.5.5,0,1,0,.991,0V95.086a.033.033,0,0,1,.033-.033H22.166a.033.033,0,0,1,.033.033v8.985a.5.5,0,1,0,.991,0v-.562h5.848a1.621,1.621,0,0,1,1.54,1.123H29.037a.5.5,0,0,0-.5.5v1.057a1.554,1.554,0,0,0,1.553,1.553h.562v2.18h-1.3a3.137,3.137,0,0,0-5.931,0H23.19v-3.733a.5.5,0,1,0-.991,0v3.733H11.918a3.137,3.137,0,0,0-5.931,0H3.138a.033.033,0,0,1-.033-.033V108.8H5.252a.5.5,0,1,0,0-.991H.5a.5.5,0,1,0,0,.991H2.114v1.09a1.025,1.025,0,0,0,1.024,1.024H5.815c0,.011,0,.022,0,.033a3.138,3.138,0,0,0,6.276,0c0-.011,0-.022,0-.033H23.257c0,.011,0,.022,0,.033a3.138,3.138,0,0,0,6.276,0c0-.011,0-.022,0-.033h1.62a.5.5,0,0,0,.5-.5v-5.285A2.614,2.614,0,0,0,29.431,102.549ZM23.19,99.281h4.4l.809,3.237H23.19V99.281Zm3.733-2.114a1.091,1.091,0,0,1,1.09,1.09v.033H23.19V97.167ZM8.952,113.09a2.147,2.147,0,1,1,2.147-2.147A2.15,2.15,0,0,1,8.952,113.09Zm17.442,0a2.147,2.147,0,1,1,2.147-2.147A2.15,2.15,0,0,1,26.394,113.09Zm3.7-6.343a.562.562,0,0,1-.562-.562v-.562h1.123v1.123h-.562Z" fill="#aab2b7"/>
    <path id="Path_44870" data-name="Path 44870" d="M129.291,350.6a1.024,1.024,0,1,0,1.024,1.024A1.025,1.025,0,0,0,129.291,350.6Z" transform="translate(-120.339 -240.679)" fill="#aab2b7"/>
    <path id="Path_44871" data-name="Path 44871" d="M411.479,350.6a1.024,1.024,0,1,0,1.024,1.024A1.025,1.025,0,0,0,411.479,350.6Z" transform="translate(-385.085 -240.679)" fill="#aab2b7"/>
    <path id="Path_44872" data-name="Path 44872" d="M205.228,316.888a.5.5,0,0,0,.5.5h7.4a.5.5,0,0,0,0-.991h-7.4A.5.5,0,0,0,205.228,316.888Z" transform="translate(-192.543 -208.588)" fill="#aab2b7"/>
    <path id="Path_44873" data-name="Path 44873" d="M17.6,283.178H23.94a.5.5,0,0,0,0-.991H17.6a.5.5,0,0,0,0,.991Z" transform="translate(-16.045 -176.497)" fill="#aab2b7"/>
    <path id="Path_44874" data-name="Path 44874" d="M152.914,171.169l-4.407,4.406-2.292-2.292a.5.5,0,0,0-.7.7l2.643,2.643a.5.5,0,0,0,.7,0l4.757-4.757a.5.5,0,1,0-.7-.7Z" transform="translate(-136.385 -72.205)" fill="#aab2b7"/>
  </g>
</svg>
