<svg xmlns="http://www.w3.org/2000/svg" xmlns:xlink="http://www.w3.org/1999/xlink" width="22" height="22" viewBox="0 0 22 22">
  <defs>
    <clipPath id="clip-path">
      <rect id="Rectangle_5147" data-name="Rectangle 5147" width="22" height="22" transform="translate(0.287 0.393)" fill="#fff"/>
    </clipPath>
  </defs>
  <g id="Group_15078" data-name="Group 15078" transform="translate(-0.287 -0.393)" clip-path="url(#clip-path)">
    <path id="Path_45232" data-name="Path 45232" d="M145.411,31.553V29.889a2.556,2.556,0,0,0-2.755-2.755H128.381a2.556,2.556,0,0,0-2.755,2.755v1.663a1.892,1.892,0,0,0-1.44,1.837v5.834a1,1,0,0,0,.993.993h.472v1.117a.89.89,0,0,0,.894.894h.993a.89.89,0,0,0,.894-.894V40.216h14.174v1.117a.89.89,0,0,0,.894.894h.993a.89.89,0,0,0,.894-.894V40.216h.472a1,1,0,0,0,.993-.993V33.39a1.892,1.892,0,0,0-1.441-1.837Zm-18.916-1.638a1.7,1.7,0,0,1,1.886-1.887h14.175a1.7,1.7,0,0,1,1.886,1.887v1.663A1.886,1.886,0,0,0,143,33.39v.521H127.935V33.39a1.886,1.886,0,0,0-1.44-1.812ZM143,34.8v1.713h-7.2V34.8Zm-8.092,0v1.713h-6.976V34.8Zm-7.4,6.529h-.993V40.216h.993Zm16.93,0h-.993V40.216h.993Zm1.465-2.11a.106.106,0,0,1-.1.1H125.179a.107.107,0,0,1-.1-.1V33.39a.993.993,0,1,1,1.986,0v3.575a.445.445,0,0,0,.447.447h15.962a.445.445,0,0,0,.447-.447V33.39a.993.993,0,1,1,1.986,0Z" transform="translate(-124.242 -23.623)" fill="#ff002a"/>
    <path id="Path_45233" data-name="Path 45233" d="M134.314,31.6a1.346,1.346,0,0,0-1.366,1.365,1.366,1.366,0,1,0,1.366-1.366Zm0,1.837a.471.471,0,0,1-.471-.472.456.456,0,0,1,.471-.472.472.472,0,0,1,0,.943Z" transform="translate(-128.039 -25.56)" fill="#ff002a"/>
    <path id="Path_45234" data-name="Path 45234" d="M151.444,31.6a1.346,1.346,0,0,0-1.365,1.365,1.394,1.394,0,0,0,1.365,1.365,1.365,1.365,0,0,0,0-2.731Zm0,1.837a.472.472,0,1,1,.472-.472.457.457,0,0,1-.472.475Z" transform="translate(-135.464 -25.56)" fill="#ff002a"/>
  </g>
</svg>
