<svg xmlns="http://www.w3.org/2000/svg" xmlns:xlink="http://www.w3.org/1999/xlink" width="24" height="24" viewBox="0 0 24 24">
  <defs>
    <clipPath id="clip-path">
      <rect id="Rectangle_5155" data-name="Rectangle 5155" width="24" height="24" transform="translate(0.465 0.286)" fill="#fff"/>
    </clipPath>
  </defs>
  <g id="Group_15082" data-name="Group 15082" transform="translate(-0.465 -0.286)" clip-path="url(#clip-path)">
    <path id="Path_45243" data-name="Path 45243" d="M558.017,32.31a5,5,0,0,0-1.573.248l-1.572-3.642a1.628,1.628,0,0,0,1.2-1.531,1.75,1.75,0,0,0-1.821-1.614h-1.325a.414.414,0,1,0,0,.828h1.325a.931.931,0,0,1,.993.786.931.931,0,0,1-.993.786.391.391,0,0,0-.414.414.581.581,0,0,0,.083.248l.662,1.573-4.8,2.111-.828-1.738h.538a.414.414,0,1,0,0-.828h-2.277a.414.414,0,1,0,0,.828h.828l1.035,2.235-1.159.91a5,5,0,1,0,1.365,3.808h2.276a.249.249,0,0,0,.165-.041h.041c.041,0,.041-.041.083-.041l.041-.041c.041-.041.041-.041.041-.083v-.041c0-.041,1.242-4.056,3.477-5.008l.165.414a5.1,5.1,0,1,0,2.444-.581Zm-13.741,9.23a4.168,4.168,0,0,1-4.18-4.18,4.239,4.239,0,0,1,4.221-4.221,4.15,4.15,0,0,1,3.022,1.283l-3.311,2.607a.392.392,0,0,0-.124.455.4.4,0,0,0,.372.29h4.18A4.155,4.155,0,0,1,544.276,41.54Zm1.242-4.594,2.359-1.862a4.507,4.507,0,0,1,.621,1.862Zm3.808,0a5.039,5.039,0,0,0-.828-2.359l.993-.786,1.448,3.145Zm2.235-.7-1.366-2.98,4.76-2.069.207.5c-1.862.82-3.062,3.221-3.6,4.545Zm6.456,5.3a4.209,4.209,0,0,1-2.028-7.9l1.655,3.849a.4.4,0,0,0,.373.248.249.249,0,0,0,.165-.041.411.411,0,0,0,.207-.538L556.734,33.3a4.336,4.336,0,0,1,1.242-.207,4.222,4.222,0,1,1,.041,8.443Z" transform="translate(-538.92 -22.14)" fill="#fff"/>
  </g>
</svg>
