<svg xmlns="http://www.w3.org/2000/svg" xmlns:xlink="http://www.w3.org/1999/xlink" width="23" height="22" viewBox="0 0 23 22">
  <defs>
    <clipPath id="clip-path">
      <rect id="Rectangle_5158" data-name="Rectangle 5158" width="23" height="22" transform="translate(-0.286 0.393)" fill="#fff"/>
    </clipPath>
  </defs>
  <g id="Group_15083" data-name="Group 15083" transform="translate(0.286 -0.393)" clip-path="url(#clip-path)">
    <path id="Path_45245" data-name="Path 45245" d="M768.649,28.574l-2.985-7.619a.807.807,0,0,0-1.035-.448l-7.619,2.985a.8.8,0,0,0-.448,1.035l3.008,7.619a.8.8,0,0,0,1.035.448l7.6-2.985a.8.8,0,0,0,.444-1.035Zm-8.282,3.146-2.913-7.413,7.412-2.918,2.914,7.417Z" transform="translate(-751.855 -20.728)" fill="#fff"/>
    <path id="Path_45246" data-name="Path 45246" d="M758.1,43.225h-8.161a.8.8,0,0,0-.8.8v8.166a.8.8,0,0,0,.8.8H758.1a.8.8,0,0,0,.8-.8V44.023a.8.8,0,0,0-.8-.8Zm-.1,8.861h-7.964V44.121H758Z" transform="translate(-748.662 -30.597)" fill="#fff"/>
    <path id="Path_45247" data-name="Path 45247" d="M777.813,41.524l-7.888-2.1a.812.812,0,0,0-.977.583l-2.1,7.888a.8.8,0,0,0,.564.977h0l7.888,2.1a.8.8,0,0,0,.977-.564h0L778.36,42.5A.8.8,0,0,0,777.813,41.524Zm-2.371,8.516-7.7-2.021,2.048-7.7,7.7,2.048Z" transform="translate(-756.326 -28.941)" fill="#fff"/>
    <path id="Path_45248" data-name="Path 45248" d="M768.877,30.214a1.525,1.525,0,0,0-.318-.412l-2.241-2.362-.265-.287a1.324,1.324,0,0,0-.22-.184.627.627,0,0,0-.269-.1.757.757,0,0,0-.61.242.623.623,0,0,0-.126.26,1.6,1.6,0,0,0-.031.341v3.6c.009.134.016.238.023.309a.667.667,0,0,0,.04.2.4.4,0,0,0,.237.224.448.448,0,0,0,.34,0,.354.354,0,0,0,.237-.224,2.116,2.116,0,0,0,.036-.524v-.641l1.77-.695.422.448.193.193a1,1,0,0,0,.184.152.385.385,0,0,0,.166.054.422.422,0,0,0,.193-.031.447.447,0,0,0,.237-.229.416.416,0,0,0,0-.334Zm-3.2-.327-.063-2.035,1.362,1.524Z" transform="translate(-755.449 -23.506)" fill="#fff"/>
    <path id="Path_45249" data-name="Path 45249" d="M757.463,49.536a1.076,1.076,0,0,0,.7-1.026,1.119,1.119,0,0,0-.067-.385,1.1,1.1,0,0,0-.193-.336,1.146,1.146,0,0,0-.291-.251,1.237,1.237,0,0,0-.448-.161,3.546,3.546,0,0,0-.578-.04H755.1a.6.6,0,0,0-.448.134.613.613,0,0,0-.135.448v3.514a.623.623,0,0,0,.13.448.591.591,0,0,0,.453.139h1.43a5.032,5.032,0,0,0,.623-.058,1.928,1.928,0,0,0,.493-.126,1.2,1.2,0,0,0,.542-.448,1.275,1.275,0,0,0,.2-.708,1.143,1.143,0,0,0-.925-1.144Zm-1.994-1.479h.748a1.93,1.93,0,0,1,.767.117.448.448,0,0,1,.251.448.583.583,0,0,1-.081.3.52.52,0,0,1-.3.255,1.739,1.739,0,0,1-.547.067h-.865Zm1.954,2.559q0,.69-.959.69h-1.018l.023-1.362h.972a1.4,1.4,0,0,1,.745.161.565.565,0,0,1,.236.511Z" transform="translate(-750.99 -32.377)" fill="#fff"/>
    <path id="Path_45250" data-name="Path 45250" d="M777.7,46.328a1.827,1.827,0,0,0-.534-.726,2.182,2.182,0,0,0-.9-.448,2.32,2.32,0,0,0-.9-.067,2.05,2.05,0,0,0-.815.282,2.162,2.162,0,0,0-.65.619,2.922,2.922,0,0,0-.417.932,3.2,3.2,0,0,0-.108.65,2.569,2.569,0,0,0,.04.614,2.341,2.341,0,0,0,.18.556,1.863,1.863,0,0,0,.341.493,1.9,1.9,0,0,0,.475.354,2.986,2.986,0,0,0,.632.242,2.159,2.159,0,0,0,.865.067,1.764,1.764,0,0,0,.686-.26,1.746,1.746,0,0,0,.448-.4,1.24,1.24,0,0,0,.228-.448.389.389,0,0,0-.04-.314.4.4,0,0,0-.251-.188.341.341,0,0,0-.309.04,1.013,1.013,0,0,0-.22.251,1.225,1.225,0,0,1-.564.448,1.158,1.158,0,0,1-.717,0,1.2,1.2,0,0,1-.569-.282,1.144,1.144,0,0,1-.278-.632,2.328,2.328,0,0,1,.086-.9,2.013,2.013,0,0,1,.654-1.161,1.121,1.121,0,0,1,1.013-.188,1.067,1.067,0,0,1,.551.323,1.427,1.427,0,0,1,.287.614,1.21,1.21,0,0,0,.121.341.38.38,0,0,0,.242.152.363.363,0,0,0,.3-.049.407.407,0,0,0,.184-.246,1.107,1.107,0,0,0-.061-.669Z" transform="translate(-759.169 -31.397)" fill="#fff"/>
  </g>
</svg>
