<svg xmlns="http://www.w3.org/2000/svg" xmlns:xlink="http://www.w3.org/1999/xlink" width="22" height="23" viewBox="0 0 22 23">
  <defs>
    <clipPath id="clip-path">
      <rect id="Rectangle_5151" data-name="Rectangle 5151" width="22" height="23" transform="translate(0.429 0.393)" fill="#fff"/>
    </clipPath>
  </defs>
  <g id="Group_15080" data-name="Group 15080" transform="translate(-0.429 -0.393)" clip-path="url(#clip-path)">
    <path id="Path_45240" data-name="Path 45240" d="M354.05,28.633H338.21v-.885a.4.4,0,0,0-.421-.421h-3.076a.4.4,0,0,0-.421.421v.927h-1.306a.8.8,0,0,0-.8.8v13.06a.8.8,0,0,0,.8.8H354.05a.8.8,0,0,0,.8-.8v-13.1A.829.829,0,0,0,354.05,28.633Zm-18.915-.463h2.233v.506h-2.233Zm18.788,14.28H333.029V34.615h4.507a6.971,6.971,0,0,0-.168,1.348,6.109,6.109,0,0,0,12.217,0,4.734,4.734,0,0,0-.168-1.348h4.507Zm-15.671-6.488a5.266,5.266,0,1,1,5.266,5.266,5.266,5.266,0,0,1-5.266-5.266Zm15.714-2.191h-4.718a6.136,6.136,0,0,0-11.459.042h-4.761V29.475h20.937Z" transform="translate(-332.244 -23.707)" fill="#6f7581"/>
    <path id="Path_45241" data-name="Path 45241" d="M348.448,33.944a4.887,4.887,0,1,0,4.887,4.887A4.887,4.887,0,0,0,348.448,33.944Zm0,8.931a4.044,4.044,0,1,1,4.044-4.044A4.044,4.044,0,0,1,348.448,42.875Z" transform="translate(-337.174 -26.575)" fill="#6f7581"/>
  </g>
</svg>
