<svg xmlns="http://www.w3.org/2000/svg" width="21.351" height="21.434" viewBox="0 0 21.351 21.434">
  <path id="Path_45244" data-name="Path 45244" d="M666.653,33.429a10.491,10.491,0,1,0-20.31,3.694,2.517,2.517,0,0,0-.425,2.8l1.236,2.576a2.509,2.509,0,0,0,3.353,1.179l.262-.125a.318.318,0,0,0,.062-.041,1.226,1.226,0,0,0,1.487-1.7l-2.828-5.89A1.225,1.225,0,0,0,647.6,35.5a8.8,8.8,0,0,1,2.835-8.759.9.9,0,0,0,.41.1.919.919,0,0,0,.534-.172,8.258,8.258,0,0,1,9.567,0,.908.908,0,0,0,.946.071,8.8,8.8,0,0,1,2.833,8.758,1.225,1.225,0,0,0-1.891.413L660.006,41.8a1.224,1.224,0,0,0,1.487,1.7.326.326,0,0,0,.062.041l.262.126a2.513,2.513,0,0,0,3.353-1.179l1.235-2.576a2.514,2.514,0,0,0-.425-2.795,10.388,10.388,0,0,0,.673-3.692Zm-17.862,9.764a1.881,1.881,0,0,1-1.079-.967l-1.235-2.576a1.9,1.9,0,0,1,.87-2.517l2.873,5.99a1.881,1.881,0,0,1-1.429.069Zm-.673-7.291a.6.6,0,0,1,.262-.06.609.609,0,0,1,.55.345l2.829,5.89a.612.612,0,0,1,.059.23.626.626,0,0,1-.033.235.609.609,0,0,1-1.123.061l-2.822-5.879-.005-.011a.609.609,0,0,1-.059-.23.6.6,0,0,1,.033-.235.606.606,0,0,1,.311-.347Zm-1.386-2.473a9.444,9.444,0,0,0,.436,2.836,1.234,1.234,0,0,0-.011.271l-.06.029a2.535,2.535,0,0,0-.249.138,9.867,9.867,0,0,1,2.805-10.692l.31.323a9.393,9.393,0,0,0-3.231,7.1ZM661.3,26.172a8.878,8.878,0,0,0-10.285,0,.291.291,0,0,1-.381-.032l-.507-.527a9.875,9.875,0,0,1,12.062,0l-.507.527a.292.292,0,0,1-.382.032Zm1.054.161.311-.323a9.867,9.867,0,0,1,2.81,10.69,2.465,2.465,0,0,0-.249-.138l-.06-.029a1.2,1.2,0,0,0-.011-.271,9.416,9.416,0,0,0-2.8-9.931Zm-1.509,16.556a.609.609,0,0,1-.285-.812l2.827-5.89a.609.609,0,0,1,1.064-.06.618.618,0,0,1,.092.289.607.607,0,0,1-.06.3l-.005.011L661.661,42.6a.608.608,0,0,1-.812.285Zm5-3.24-1.236,2.576a1.893,1.893,0,0,1-2.508.9l2.873-5.99a1.9,1.9,0,0,1,.871,2.517Z" transform="translate(-645.442 -22.694)" fill="#fff" stroke="#fff" stroke-width="0.2"/>
</svg>
