<svg xmlns="http://www.w3.org/2000/svg" xmlns:xlink="http://www.w3.org/1999/xlink" width="22" height="22" viewBox="0 0 22 22">
  <defs>
    <clipPath id="clip-path">
      <rect id="Rectangle_5145" data-name="Rectangle 5145" width="22" height="22" transform="translate(0.215 0.393)" fill="#fff"/>
    </clipPath>
  </defs>
  <g id="Group_15077" data-name="Group 15077" transform="translate(-0.215 -0.393)" clip-path="url(#clip-path)">
    <path id="Path_45230" data-name="Path 45230" d="M41.589,28.779H25.132a.468.468,0,0,0-.468.468V39.52a.48.48,0,0,0,.468.443H41.589a.468.468,0,0,0,.468-.468V29.247a.468.468,0,0,0-.468-.468Zm-.443,10.273H25.6V29.691H41.145Z" transform="translate(-22.182 -24.336)" fill="#fff"/>
    <path id="Path_45231" data-name="Path 45231" d="M42.382,39.3h-.764a1.3,1.3,0,0,0,.1-.443v-11.5A1.346,1.346,0,0,0,40.362,26H22.5a1.346,1.346,0,0,0-1.355,1.355v11.48a1.438,1.438,0,0,0,.1.443h-.591a.468.468,0,0,0-.468.468,2.732,2.732,0,0,0,.764,1.872,2.642,2.642,0,0,0,1.872.764H40.19a2.732,2.732,0,0,0,1.872-.764,2.663,2.663,0,0,0,.788-1.872.448.448,0,0,0-.468-.446Zm-20.2-12.244a.454.454,0,0,1,.3-.123H40.338a.408.408,0,0,1,.3.123.455.455,0,0,1,.123.3v11.48a.408.408,0,0,1-.123.3.455.455,0,0,1-.3.123H22.5a.408.408,0,0,1-.3-.123.454.454,0,0,1-.123-.3V27.351h-.025a.408.408,0,0,1,.129-.3Zm19.24,13.919a1.711,1.711,0,0,1-1.232.517H22.822a1.654,1.654,0,0,1-1.207-.517,1.7,1.7,0,0,1-.443-.764H41.865a1.607,1.607,0,0,1-.443.764Z" transform="translate(-20.241 -23.13)" fill="#fff"/>
  </g>
</svg>
