<svg xmlns="http://www.w3.org/2000/svg" xmlns:xlink="http://www.w3.org/1999/xlink" width="22" height="22" viewBox="0 0 22 22">
  <defs>
    <clipPath id="clip-path">
      <rect id="Rectangle_5149" data-name="Rectangle 5149" width="22" height="22" transform="translate(0.358 0.393)" fill="#fff"/>
    </clipPath>
  </defs>
  <g id="Group_15079" data-name="Group 15079" transform="translate(-0.358 -0.393)" clip-path="url(#clip-path)">
    <path id="Path_45235" data-name="Path 45235" d="M249.43,20.846c-.309-.309-.73-.393-1.516-.393H237.635a1.273,1.273,0,0,0-.927.393,1.338,1.338,0,0,0-.393.927V41.826a1.259,1.259,0,0,0,.393.9,1.338,1.338,0,0,0,.927.393h10.813a1.273,1.273,0,0,0,.926-.393,1.338,1.338,0,0,0,.393-.927V22.279C249.767,21.576,249.74,21.155,249.43,20.846Zm-12.076.9a.2.2,0,0,1,.084-.169.242.242,0,0,1,.168-.084h10.251c.477,0,.7,0,.758.056s.056.281.056.73V23.43a1.476,1.476,0,0,0-.505-.112H237.86a1.64,1.64,0,0,0-.505.112Zm.141,2.78a.517.517,0,0,1,.337-.14h10.335a.465.465,0,0,1,.337.14.52.52,0,0,1,.141.337v13.2a.467.467,0,0,1-.141.337.519.519,0,0,1-.337.14H237.86a.466.466,0,0,1-.337-.14.521.521,0,0,1-.141-.337v-13.2h-.028a.465.465,0,0,1,.141-.338ZM248.7,41.8a.17.17,0,0,1-.084.169.255.255,0,0,1-.2.084H237.635a.255.255,0,0,1-.2-.084.241.241,0,0,1-.084-.169V39.5a1.476,1.476,0,0,0,.505.112h10.335a1.643,1.643,0,0,0,.506-.112Z" transform="translate(-231.766 -20.728)" fill="#fff"/>
    <path id="Path_45236" data-name="Path 45236" d="M247.912,55.5h-1.348a.534.534,0,1,0,0,1.067h1.348a.533.533,0,0,0,.534-.534A.552.552,0,0,0,247.912,55.5Z" transform="translate(-235.977 -35.915)" fill="#fff"/>
    <path id="Path_45237" data-name="Path 45237" d="M245.077,24.048a.533.533,0,1,0-.378-.156.534.534,0,0,0,.378.156Z" transform="translate(-235.332 -21.824)" fill="#fff"/>
    <path id="Path_45238" data-name="Path 45238" d="M247.753,24.048a.534.534,0,1,0-.533-.534.534.534,0,0,0,.533.534Z" transform="translate(-236.492 -21.824)" fill="#fff"/>
    <path id="Path_45239" data-name="Path 45239" d="M250.43,24.048a.534.534,0,1,0-.534-.534.534.534,0,0,0,.534.534Z" transform="translate(-237.652 -21.824)" fill="#fff"/>
  </g>
</svg>
