<svg xmlns="http://www.w3.org/2000/svg" xmlns:xlink="http://www.w3.org/1999/xlink" width="23" height="23" viewBox="0 0 23 23">
  <defs>
    <clipPath id="clip-path">
      <rect id="Rectangle_5160" data-name="Rectangle 5160" width="23" height="23" transform="translate(-0.214 0.393)" fill="#fff"/>
    </clipPath>
  </defs>
  <g id="Group_15084" data-name="Group 15084" transform="translate(0.214 -0.393)" clip-path="url(#clip-path)">
    <path id="Path_45251" data-name="Path 45251" d="M874.839,38.612a21.2,21.2,0,0,0-.621-4.093,15.734,15.734,0,0,0-1.27-3.444c-1.976-3.472-4.122-2.936-6.691-2.258a18.38,18.38,0,0,1-2.6.508h-.282a18.4,18.4,0,0,1-2.6-.508c-2.568-.649-4.714-1.214-6.69,2.287a14.383,14.383,0,0,0-1.27,3.444,21.13,21.13,0,0,0-.621,4.093,7.69,7.69,0,0,0,.4,3.218,2.139,2.139,0,0,0,1.355,1.27,2.759,2.759,0,0,0,1.806-.2,13.268,13.268,0,0,0,3.613-2.569,7.413,7.413,0,0,1,8.3,0,13.267,13.267,0,0,0,3.613,2.569,2.954,2.954,0,0,0,1.807.2,2.109,2.109,0,0,0,1.355-1.3,7.551,7.551,0,0,0,.4-3.217Zm-1.355,2.823a1.119,1.119,0,0,1-.678.706A1.949,1.949,0,0,1,871.649,42a11.512,11.512,0,0,1-3.275-2.343,7.048,7.048,0,0,0-4.855-1.609,7.444,7.444,0,0,0-4.884,1.553,11.731,11.731,0,0,1-3.274,2.343,1.752,1.752,0,0,1-1.158.141,1.12,1.12,0,0,1-.678-.706,6.678,6.678,0,0,1-.282-2.71,19.477,19.477,0,0,1,.593-3.9,13.468,13.468,0,0,1,1.186-3.19c1.552-2.795,3.359-2.343,5.5-1.778a16.556,16.556,0,0,0,2.767.536h.423a16.351,16.351,0,0,0,2.795-.536c2.146-.536,3.952-1.016,5.5,1.778a13.01,13.01,0,0,1,1.186,3.19,21.328,21.328,0,0,1,.593,3.9,6.523,6.523,0,0,1-.3,2.766Z" transform="translate(-852.251 -24.136)" fill="#fff"/>
    <path id="Path_45252" data-name="Path 45252" d="M863.155,35.259a1.718,1.718,0,0,0-1.016-.48,1.608,1.608,0,0,0-.452-.988l-.028-.028a1.6,1.6,0,0,0-1.158-.48,1.666,1.666,0,0,0-1.157.48,1.636,1.636,0,0,0-.48,1.016,1.681,1.681,0,0,0-1.016.452l-.028.028a1.6,1.6,0,0,0-.48,1.157,1.666,1.666,0,0,0,.48,1.157,1.574,1.574,0,0,0,1.045.48,1.5,1.5,0,0,0,.48,1.016,1.6,1.6,0,0,0,1.157.48,1.667,1.667,0,0,0,1.158-.48,1.717,1.717,0,0,0,.48-1.016,1.508,1.508,0,0,0,1.016-.48,1.6,1.6,0,0,0,.479-1.157,1.667,1.667,0,0,0-.48-1.157Zm-.706,1.581a.574.574,0,0,1-.423.169h-.4a.536.536,0,0,0-.536.536v.367a.593.593,0,1,1-1.186,0v-.4a.536.536,0,0,0-.537-.536h-.4a.579.579,0,0,1-.423-.988l.028-.028a.676.676,0,0,1,.4-.141h.4a.536.536,0,0,0,.537-.536v-.4a.6.6,0,0,1,1.016-.423l.028.028a.673.673,0,0,1,.142.4v.4a.536.536,0,0,0,.536.536h.4a.6.6,0,0,1,.423,1.016Z" transform="translate(-854.484 -26.288)" fill="#fff"/>
    <path id="Path_45253" data-name="Path 45253" d="M880.1,35.508a.988.988,0,1,0-.988-.988.988.988,0,0,0,.988.988Z" transform="translate(-863.919 -26.396)" fill="#fff"/>
    <path id="Path_45254" data-name="Path 45254" d="M880.1,42.583a.988.988,0,1,0-.988-.988.988.988,0,0,0,.988.988Z" transform="translate(-863.919 -29.462)" fill="#fff"/>
    <path id="Path_45255" data-name="Path 45255" d="M876.562,39.046a.988.988,0,1,0-.988-.988.988.988,0,0,0,.988.988Z" transform="translate(-862.387 -27.929)" fill="#fff"/>
    <path id="Path_45256" data-name="Path 45256" d="M883.637,39.046a.988.988,0,1,0-.988-.988.988.988,0,0,0,.988.988Z" transform="translate(-865.453 -27.929)" fill="#fff"/>
  </g>
</svg>
