<svg xmlns="http://www.w3.org/2000/svg" xmlns:xlink="http://www.w3.org/1999/xlink" width="23" height="22" viewBox="0 0 23 22">
  <defs>
    <clipPath id="clip-path">
      <rect id="Rectangle_5153" data-name="Rectangle 5153" width="23" height="22" transform="translate(-0.5 0.393)" fill="#fff"/>
    </clipPath>
  </defs>
  <g id="Group_15081" data-name="Group 15081" transform="translate(0.5 -0.393)" clip-path="url(#clip-path)">
    <path id="Path_45242" data-name="Path 45242" d="M458.728,27.825l-.016-.016-4.678-4.158a.453.453,0,0,0-.147-.089l-3.384-1.21a.444.444,0,0,0-.6.4,2.408,2.408,0,1,1-4.816,0,.445.445,0,0,0-.468-.42.439.439,0,0,0-.124.025l-3.38,1.223a.453.453,0,0,0-.147.089l-4.647,4.145a.445.445,0,0,0-.016.629l.016.016,3.7,3.74V42.423a.445.445,0,0,0,.444.445h14.1a.445.445,0,0,0,.444-.445V32.194l3.7-3.74a.445.445,0,0,0,.015-.629ZM455,30.927V28.863a.445.445,0,0,0-.89,0V41.956H440.9V28.863a.445.445,0,0,0-.89,0v2.068l-2.735-2.771,4.234-3.789,2.784-1a3.278,3.278,0,0,0,6.435,0l2.784,1,4.221,3.789Z" transform="translate(-436.246 -21.54)" fill="#fff"/>
  </g>
</svg>
