<svg xmlns="http://www.w3.org/2000/svg" xmlns:xlink="http://www.w3.org/1999/xlink" width="22" height="22" viewBox="0 0 22 22">
  <defs>
    <clipPath id="clip-path">
      <rect id="Rectangle_5164" data-name="Rectangle 5164" width="22" height="22" transform="translate(-0.072 0.393)" fill="#fff"/>
    </clipPath>
  </defs>
  <g id="Group_15086" data-name="Group 15086" transform="translate(0.072 -0.393)" clip-path="url(#clip-path)">
    <path id="Path_45260" data-name="Path 45260" d="M1079.94,27.884l-.51-7.013a.458.458,0,0,0-.465-.418h-5.944a.458.458,0,0,0-.465.418l-.51,7.013a5.533,5.533,0,0,0-1.536,3.808,5.62,5.62,0,0,0,1.536,3.808l.51,7.2a.458.458,0,0,0,.465.418h5.944a.458.458,0,0,0,.465-.418l.51-7.2a5.532,5.532,0,0,0,1.535-3.808,5.712,5.712,0,0,0-1.535-3.808Zm-6.5-6.5h5.1l.051.929h-5.2Zm-.1,1.858h5.343l.278,3.855a5.294,5.294,0,0,0-5.853,0Zm5.2,18.949h-2.55v.046h-2.555l-.419-5.945a5.345,5.345,0,0,0,2.975.882,5.569,5.569,0,0,0,2.969-.882Zm-2.55-5.945a4.551,4.551,0,1,1,4.55-4.551,4.551,4.551,0,0,1-4.55,4.551Z" transform="translate(-1064.727 -20.728)" fill="#6f7581"/>
    <path id="Path_45261" data-name="Path 45261" d="M1079.83,52.857a.464.464,0,1,0-.465-.464.464.464,0,0,0,.465.464Z" transform="translate(-1068.567 -34.369)" fill="#6f7581"/>
    <path id="Path_45262" data-name="Path 45262" d="M1079.54,40.653a.85.85,0,1,0-.85-.85.85.85,0,0,0,.85.85Z" transform="translate(-1068.272 -28.746)" fill="#6f7581"/>
    <path id="Path_45263" data-name="Path 45263" d="M1082.42,36.807a.283.283,0,0,0-.4-.4Zm-2.13,2.129,2.13-2.129-.4-.4-2.13,2.129Z" transform="translate(-1068.792 -27.606)" fill="#6f7581"/>
    <path id="Path_45264" data-name="Path 45264" d="M1079.83,56.054a.464.464,0,1,0-.465-.464.464.464,0,0,0,.465.464Z" transform="translate(-1068.567 -35.755)" fill="#6f7581"/>
  </g>
</svg>
