<svg xmlns="http://www.w3.org/2000/svg" xmlns:xlink="http://www.w3.org/1999/xlink" width="22" height="22" viewBox="0 0 22 22">
  <defs>
    <clipPath id="clip-path">
      <rect id="Rectangle_5162" data-name="Rectangle 5162" width="22" height="22" transform="translate(-0.143 0.393)" fill="#fff"/>
    </clipPath>
  </defs>
  <g id="Group_15085" data-name="Group 15085" transform="translate(0.143 -0.393)" clip-path="url(#clip-path)">
    <path id="Path_45257" data-name="Path 45257" d="M976.518,36.048H976.3q0-.05,0-.1V28.5a.992.992,0,0,0-.992-.988h-.529V21.771a1.215,1.215,0,0,0-.325-.992,1.174,1.174,0,0,0-.863-.325,4.858,4.858,0,0,0-2.972,1.624,4.618,4.618,0,0,0-1.624,3.114v2.331h-.538a.992.992,0,0,0-.992.988v7.434a.994.994,0,0,0,0,.1h-.223a.992.992,0,0,0-.992.992v5.085a.992.992,0,0,0,.992.992h9.281a.992.992,0,0,0,.992-.992v-5.09a.992.992,0,0,0-1-.984ZM971.246,22.71V22.7a4.133,4.133,0,0,1,2.345-1.366.358.358,0,0,1,.231.062c.223.222-.1,1.375-1.3,2.576a4.133,4.133,0,0,1-2.345,1.366.362.362,0,0,1-.232-.062c-.225-.217.1-1.365,1.3-2.567Zm2.638,1.068v3.746h-4V26.206a1.469,1.469,0,0,0,.294.031,4.858,4.858,0,0,0,2.972-1.624,7.732,7.732,0,0,0,.734-.836ZM968.452,28.4h6.86a.1.1,0,0,1,.1.1v7.452a.1.1,0,0,1-.1.1h-6.86a.1.1,0,0,1-.1-.1V28.493a.1.1,0,0,1,.1-.093Zm8.164,13.73a.1.1,0,0,1-.1.1h-9.267a.1.1,0,0,1-.1-.1V37.04a.1.1,0,0,1,.1-.1h9.272a.1.1,0,0,1,.1.1Z" transform="translate(-960.611 -20.728)" fill="#fff"/>
    <path id="Path_45258" data-name="Path 45258" d="M980.486,37.706a.445.445,0,0,0-.445.445v3.283a.445.445,0,1,0,.89,0V38.15a.445.445,0,0,0-.445-.444Z" transform="translate(-966.59 -28.205)" fill="#fff"/>
    <path id="Path_45259" data-name="Path 45259" d="M982.449,51.4a.445.445,0,0,0-.445.445v2.474a.445.445,0,1,0,.89,0V51.844a.445.445,0,0,0-.445-.444Z" transform="translate(-967.441 -34.14)" fill="#fff"/>
  </g>
</svg>
