<svg xmlns="http://www.w3.org/2000/svg" width="24.014" height="16.494" viewBox="0 0 24.014 16.494">
  <g id="svgexport-10" transform="translate(0 -80.164)">
    <path id="Path_45291" data-name="Path 45291" d="M421.626,384.777a.352.352,0,0,0,0,.7h0a.352.352,0,0,0,0-.7Z" transform="translate(-401.516 -290.326)" fill="#aab2b7"/>
    <path id="Path_45292" data-name="Path 45292" d="M173.126,384.777a.352.352,0,1,0,0,.7h0a.352.352,0,0,0,0-.7Z" transform="translate(-164.671 -290.326)" fill="#aab2b7"/>
    <path id="Path_45293" data-name="Path 45293" d="M113.694,182.22l-1.125-.8-.016-3.4a.889.889,0,0,0-.929-.9h-2.731a.647.647,0,0,0-.117-.509.637.637,0,0,0-.512-.243h-2.451a.352.352,0,1,0,0,.7h2.369l-2.431,9.072h-5.342a1.433,1.433,0,0,0-1.5-1.5,2.448,2.448,0,0,0-2.158,1.5H95.2l.687-2.565a.352.352,0,0,0-.68-.182l-.705,2.632a.657.657,0,0,0,.1.576.637.637,0,0,0,.512.243h1.476a1.433,1.433,0,0,0,1.5,1.5,2.448,2.448,0,0,0,2.158-1.5h7.993a1.433,1.433,0,0,0,1.5,1.5,2.448,2.448,0,0,0,2.158-1.5h.125a1.405,1.405,0,0,0,1.293-1.013l.692-2.582A.925.925,0,0,0,113.694,182.22Zm-14.028,4.174a1.76,1.76,0,0,1-1.567,1.243.8.8,0,0,1-.653-.284.878.878,0,0,1-.109-.777,1.76,1.76,0,0,1,1.567-1.243.8.8,0,0,1,.653.284A.878.878,0,0,1,99.666,186.394Zm12.2-5.148h-2.278a.23.23,0,0,1-.187-.073.274.274,0,0,1-.024-.236l.3-1.128a.7.7,0,0,1,.614-.491h1.564Zm-.544,5.148a1.76,1.76,0,0,1-1.567,1.243.8.8,0,0,1-.653-.284.878.878,0,0,1-.109-.777,1.76,1.76,0,0,1,1.567-1.243.8.8,0,0,1,.653.284A.878.878,0,0,1,111.321,186.394Zm1.329-.752a.708.708,0,0,1-.586.49,1.433,1.433,0,0,0-1.5-1.5,2.448,2.448,0,0,0-2.158,1.5H106.48l.617-2.3h4.242a.352.352,0,1,0,0-.7h-4.053l1.423-5.312h2.915c.1,0,.224.035.225.2l0,.6h-1.561A1.405,1.405,0,0,0,109,179.626l-.3,1.128a.966.966,0,0,0,.145.846.924.924,0,0,0,.745.349h2.519l1.179.843c.1.072.069.223.057.268l-.018.065h-.482a.352.352,0,1,0,0,.7h.294Z" transform="translate(-90.047 -91.682)" fill="#aab2b7"/>
    <path id="Path_45294" data-name="Path 45294" d="M77.76,91.395a5.615,5.615,0,1,0-5.615-5.615A5.622,5.622,0,0,0,77.76,91.395Zm0-10.527a4.912,4.912,0,1,1-4.912,4.912A4.917,4.917,0,0,1,77.76,80.868Z" transform="translate(-68.761)" fill="#aab2b7"/>
    <path id="Path_45295" data-name="Path 45295" d="M152.658,141.117a.351.351,0,0,0,.249-.1l.764-.764a1.1,1.1,0,0,0,1.479-1.479l1.892-1.892a.352.352,0,0,0-.5-.5l-1.892,1.892a1.1,1.1,0,0,0-1.479,1.479l-.764.764a.352.352,0,0,0,.249.6Zm1.5-2.256a.4.4,0,1,1-.4.4A.4.4,0,0,1,154.162,138.861Z" transform="translate(-145.163 -53.482)" fill="#aab2b7"/>
    <path id="Path_45296" data-name="Path 45296" d="M184.723,113.307a.352.352,0,0,0,.352-.352v-.376a.352.352,0,1,0-.7,0v.376A.352.352,0,0,0,184.723,113.307Z" transform="translate(-175.724 -30.56)" fill="#aab2b7"/>
    <path id="Path_45297" data-name="Path 45297" d="M184.723,264.535a.352.352,0,0,0-.352.352v.376a.352.352,0,0,0,.7,0v-.376A.352.352,0,0,0,184.723,264.535Z" transform="translate(-175.724 -175.724)" fill="#aab2b7"/>
    <path id="Path_45298" data-name="Path 45298" d="M256.868,193.094h.376a.352.352,0,0,0,0-.7h-.376a.352.352,0,0,0,0,.7Z" transform="translate(-244.485 -106.962)" fill="#aab2b7"/>
    <path id="Path_45299" data-name="Path 45299" d="M105.289,192.742a.352.352,0,0,0-.352-.352h-.376a.352.352,0,1,0,0,.7h.376A.352.352,0,0,0,105.289,192.742Z" transform="translate(-99.322 -106.962)" fill="#aab2b7"/>
    <path id="Path_45300" data-name="Path 45300" d="M4.111,296.6H.352a.352.352,0,0,0,0,.7h3.76a.352.352,0,0,0,0-.7Z" transform="translate(0 -206.284)" fill="#aab2b7"/>
    <path id="Path_45301" data-name="Path 45301" d="M26.656,328.664H24.4a.352.352,0,1,0,0,.7h2.256a.352.352,0,0,0,0-.7Z" transform="translate(-22.92 -236.845)" fill="#aab2b7"/>
    <path id="Path_45302" data-name="Path 45302" d="M49.2,360.728h-.752a.352.352,0,1,0,0,.7H49.2a.352.352,0,0,0,0-.7Z" transform="translate(-45.841 -267.405)" fill="#aab2b7"/>
  </g>
</svg>
