<svg xmlns="http://www.w3.org/2000/svg" width="24.533" height="22.19" viewBox="0 0 24.533 22.19">
  <g id="svgexport-10_1_" data-name="svgexport-10 (1)" transform="translate(0 -24.45)">
    <path id="Path_46252" data-name="Path 46252" d="M85.658,31.761H67.143a.3.3,0,0,0-.28.191l-.975,2.5V50.51a.806.806,0,0,0,.806.806H86.107a.806.806,0,0,0,.806-.806V34.448l-.975-2.5A.3.3,0,0,0,85.658,31.761Z" transform="translate(-62.731 -6.961)" fill="#fff"/>
    <path id="Path_46253" data-name="Path 46253" d="M86.107,104.7H66.694a.806.806,0,0,1-.806-.806V87.832H86.913v16.063A.806.806,0,0,1,86.107,104.7Z" transform="translate(-62.731 -60.345)" fill="#fff"/>
    <path id="Path_46254" data-name="Path 46254" d="M84.8,87.832v14.516a1.31,1.31,0,0,1-1.31,1.31H66.694a.806.806,0,0,1-.806-.806v1.043a.806.806,0,0,0,.806.806H86.107a.806.806,0,0,0,.806-.806V87.832Z" transform="translate(-62.731 -60.345)" fill="#d8d8d8"/>
    <path id="SVGCleanerId_0" d="M35.372,236.1a.8.8,0,0,1-.527,1l-3.473,1.075.2.084,2.318.945,3.836,1.564a.91.91,0,0,1,.5,1.186h0a.91.91,0,0,1-1.186.5l.89.363a.91.91,0,0,1,.5,1.186h0a.91.91,0,0,1-1.186.5l-.89-.363a.91.91,0,0,1,.506,1.17.927.927,0,0,1-1.212.508l-.742-.3a.91.91,0,0,1,.5,1.186h0a.91.91,0,0,1-1.186.5l-6.719-2.74a4.19,4.19,0,0,1-1.687-1.259h0a4.19,4.19,0,0,0-1.687-1.259l-2.786-1.136,1.947-4.776,2.412.983c.807.329,8.726-1.454,8.726-1.454A.811.811,0,0,1,35.372,236.1Z" transform="translate(-20.32 -200.98)" fill="#fed9a8"/>
    <g id="Group_15940" data-name="Group 15940" transform="translate(1.022 34.565)">
      <path id="SVGCleanerId_0_1_" d="M35.372,236.1a.8.8,0,0,1-.527,1l-3.473,1.075.2.084,2.318.945,3.836,1.564a.91.91,0,0,1,.5,1.186h0a.91.91,0,0,1-1.186.5l.89.363a.91.91,0,0,1,.5,1.186h0a.91.91,0,0,1-1.186.5l-.89-.363a.91.91,0,0,1,.506,1.17.927.927,0,0,1-1.212.508l-.742-.3a.91.91,0,0,1,.5,1.186h0a.91.91,0,0,1-1.186.5l-6.719-2.74a4.19,4.19,0,0,1-1.687-1.259h0a4.19,4.19,0,0,0-1.687-1.259l-2.786-1.136,1.947-4.776,2.412.983c.807.329,8.726-1.454,8.726-1.454A.811.811,0,0,1,35.372,236.1Z" transform="translate(-21.342 -235.545)" fill="#fff"/>
    </g>
    <g id="Group_15941" data-name="Group 15941" transform="translate(11.053 37.197)">
      <path id="Path_46255" data-name="Path 46255" d="M235.275,415.985a1.27,1.27,0,0,0-.185-.1l-3.406-1.389a.866.866,0,0,0,.472,1.128l2.7,1.115a1.063,1.063,0,0,1,.548.647.908.908,0,0,0,.205-.306h0A.911.911,0,0,0,235.275,415.985Z" transform="translate(-231.574 -408.558)" fill="#d8d8d8"/>
      <path id="Path_46256" data-name="Path 46256" d="M250.742,382.2a.91.91,0,0,0-.484-1.161l-.009,0h0l-.006,0,0,0h0l-4.187-1.707h0a.852.852,0,0,0,.471,1.112l3.717,1.5a1.112,1.112,0,0,1,.443.4A.875.875,0,0,0,250.742,382.2Z" transform="translate(-245.252 -375.065)" fill="#d8d8d8"/>
      <path id="Path_46257" data-name="Path 46257" d="M230.677,290.491Z" transform="translate(-230.677 -290.491)" fill="#d8d8d8"/>
      <path id="Path_46258" data-name="Path 46258" d="M237.431,294.457a.913.913,0,0,0,.1-.188h0a.91.91,0,0,0-.5-1.186l-3.836-1.564-2.318-.945-.2-.084a4.658,4.658,0,0,0,2.276,1.985l4.083,1.665A1.158,1.158,0,0,1,237.431,294.457Z" transform="translate(-230.677 -290.49)" fill="#d8d8d8"/>
      <path id="Path_46259" data-name="Path 46259" d="M265.417,346.216l-5.077-2.07a.888.888,0,0,0,.488,1.158l4.589,1.862a1.218,1.218,0,0,1,.4.419.911.911,0,0,0-.4-1.369Z" transform="translate(-258.856 -341.575)" fill="#d8d8d8"/>
    </g>
    <path id="Path_46260" data-name="Path 46260" d="M9.637,226.782a.347.347,0,0,1,.452-.19l1.882.767a.347.347,0,0,1,.19.452l-2.3,5.643a.347.347,0,0,1-.452.19l-1.882-.767a.347.347,0,0,1-.19-.452l2.3-5.643" transform="translate(-6.96 -192.432)" fill="#fff"/>
    <path id="Path_46261" data-name="Path 46261" d="M11.97,236.539l-.812-.331-2.147,5.266a.347.347,0,0,1-.452.19l-1.07-.436-.154.377a.347.347,0,0,0,.19.452l1.882.767a.347.347,0,0,0,.452-.19l2.3-5.643A.347.347,0,0,0,11.97,236.539Z" transform="translate(-6.959 -201.612)" fill="#d8d8d8"/>
    <path id="Path_46262" data-name="Path 46262" d="M239.632,31.761H236.1l-.622,2.687v5.675a.18.18,0,0,0,.3.135l1.968-1.744a.18.18,0,0,1,.238,0l1.968,1.744a.18.18,0,0,0,.3-.135V34.448Z" transform="translate(-224.198 -6.961)" fill="#fff"/>
    <path id="Path_46263" data-name="Path 46263" d="M239.956,93.642,237.988,91.9a.18.18,0,0,0-.238,0l-1.968,1.744a.18.18,0,0,1-.3-.135V87.832h4.773v5.675A.18.18,0,0,1,239.956,93.642Z" transform="translate(-224.199 -60.345)" fill="#fff"/>
    <path id="Path_46264" data-name="Path 46264" d="M299.7,455.366h0Z" transform="translate(-285.337 -410.269)" fill="#fed9a8"/>
    <path id="Path_46265" data-name="Path 46265" d="M18.584,24.45H4.411a.647.647,0,0,0-.606.414l-.975,2.5,0,.006c0,.01-.007.02-.01.03l0,.011c0,.009,0,.019-.005.028l0,.011c0,.01,0,.021,0,.032s0,.005,0,.008h0v5.147a.35.35,0,0,0,.7,0v-4.8h7.426v5.325a.53.53,0,0,0,.881.4l1.855-1.644,1.855,1.644a.53.53,0,0,0,.882-.4V27.837h7.425V43.55a.456.456,0,0,1-.456.456H16.952s0-.008,0-.012c0-.031,0-.063,0-.094a1.261,1.261,0,0,0,1.484-1.707c-.012-.029-.026-.058-.04-.086l-.008-.015q-.021-.04-.045-.078L18.33,42c-.017-.026-.034-.052-.052-.076h0c-.018-.024-.038-.048-.058-.071l-.011-.013q-.03-.033-.062-.064l-.013-.012c-.022-.021-.045-.041-.069-.061l0,0c-.023-.019-.048-.037-.072-.054l-.013-.009q-.037-.025-.076-.047l-.006,0a1.261,1.261,0,0,0-.237-2.067q-.055-.029-.114-.053l-5.452-2.223,2.538-.786a1.151,1.151,0,0,0,.758-1.435A1.125,1.125,0,0,0,15,34.466a1.179,1.179,0,0,0-.968-.227h0c-.019,0-1.965.442-4,.838l-.265.051-.2.039-.058.011-.344.065-.133.025a15.926,15.926,0,0,1-3.468.452H5.54l-.03-.007-.057-.023.072-.175a.693.693,0,0,0,0-.534.706.706,0,0,0-.066-.121.693.693,0,0,0-.314-.254l-1.882-.767a.7.7,0,0,0-.909.382l-2.3,5.643a.7.7,0,0,0,.382.909l1.882.767a.7.7,0,0,0,.909-.382l.017-.042.434.177h0A3.848,3.848,0,0,1,4.8,42q.09.082.175.169t.164.18q.04.046.078.094A4.552,4.552,0,0,0,7.05,43.807l.488.2H3.963a.456.456,0,0,1-.456-.456v-.886a.35.35,0,0,0-.7,0v.886a1.158,1.158,0,0,0,1.157,1.157H9.256l4.513,1.84a1.26,1.26,0,0,0,1.729-1.3,1.3,1.3,0,0,0,.7-.092,1.249,1.249,0,0,0,.542-.446h6.637a1.158,1.158,0,0,0,1.157-1.157V27.487h0s0-.005,0-.008,0-.021,0-.032l0-.011c0-.01,0-.019-.005-.028l0-.011c0-.01-.006-.02-.01-.03l0-.006-.975-2.5a.647.647,0,0,0-.606-.414H21.152a.35.35,0,0,0,0,.7h1.741l.776,1.986H16.334l-.46-1.986h2.709a.35.35,0,0,0,0-.7m-6.4.7h2.973l.46,1.986H11.723ZM11,27.137H3.67l.776-1.986h7.018Zm4.7,5.646L14.021,31.29a.531.531,0,0,0-.7,0l-1.685,1.493V27.837h4.073v4.946Zm-13.129,8.1L.7,40.122,3,34.486l1.875.765Zm14,2.114-.4-.164h0l-4.187-1.707a.35.35,0,0,0-.264.649L15.9,43.486h0a.558.558,0,0,1,.051.024l.013.008.034.02.015.011.029.021.016.014.024.022.015.017.021.023.014.019.018.024.013.021.015.024.011.023.012.025c0,.008.006.016.009.025s.007.016.009.025,0,.017.007.026,0,.017.007.025,0,.017,0,.026,0,.017,0,.026,0,.018,0,.027,0,.018,0,.027,0,.018,0,.026,0,.018,0,.027,0,.017,0,.026,0,.019,0,.028,0,.017-.005.026,0,.019-.006.028-.005.017-.008.025-.006.019-.009.028l-.009.019,0,0a.545.545,0,0,1-.288.284.593.593,0,0,1-.456.006l-.742-.3-.01,0-.01,0-3.406-1.389a.35.35,0,0,0-.265.649l3.406,1.389.011,0,.01,0a.56.56,0,0,1-.423,1.037L9.458,44.032h0l-2.143-.874A3.849,3.849,0,0,1,5.768,42,4.55,4.55,0,0,0,3.941,40.64h0l-.434-.177.865-2.122.818-2.005.06.025a.91.91,0,0,0,.356.064,9.083,9.083,0,0,0,1.53-.13c.549-.078,1.222-.19,2.008-.334L9.2,35.95l.111-.021.087-.016.1-.019.109-.021.088-.017.135-.026.07-.013.212-.041c2.025-.394,3.979-.832,4.067-.852l.026,0a.46.46,0,0,1,.51.307.449.449,0,0,1-.3.56l-3.473,1.075a.35.35,0,0,0-.029.659l6.359,2.593a.56.56,0,0,1-.208,1.078h0l-.051,0-.015,0-.039-.006-.024-.006-.029-.007-.029-.01-.023-.008-4.188-1.708a.35.35,0,0,0-.264.649l5.077,2.07a.563.563,0,0,1,.1.052.56.56,0,0,1,.228.626q-.008.027-.018.053a.564.564,0,0,1-.024.052.573.573,0,0,1-.13.161l-.009.008a.563.563,0,0,1-.566.086Z" transform="translate(0)" fill="#96a1ab"/>
  </g>
</svg>
