<svg id="svgexport-6_3_" data-name="svgexport-6 (3)" xmlns="http://www.w3.org/2000/svg" width="23" height="23" viewBox="0 0 23 23">
  <path id="Path_46216" data-name="Path 46216" d="M40.906,33.622a5.391,5.391,0,0,1-2.516,10.16c-.129,0-.255,0-.381-.014a5.39,5.39,0,1,1,2.9-10.145Zm-2.818,7.91,3.335-4.672L39.67,35.609l-2.056,2.875-1.272-.956-1.294,1.725Z" transform="translate(-21.141 -21.141)" fill="#eae8e8"/>
  <path id="Path_46217" data-name="Path 46217" d="M47.123,44.056l-2.912,4.08a.359.359,0,0,1-.508.079l-2.458-1.842a.359.359,0,0,1-.072-.5l.862-1.15a.36.36,0,0,1,.5-.072l.69.519a.359.359,0,0,0,.508-.078L45.37,42.8a.359.359,0,0,1,.5-.084l1.169.833A.36.36,0,0,1,47.123,44.056Z" transform="translate(-26.33 -27.325)" fill="#53565c"/>
  <path id="Path_46218" data-name="Path 46218" d="M45.075,41.511,41.74,46.183,38.7,43.9l1.294-1.725,1.272.956,2.056-2.875Z" transform="translate(-24.792 -25.792)" fill="#c9f962"/>
  <path id="Path_46219" data-name="Path 46219" d="M20.406,16v6.731a5.391,5.391,0,1,0-2.9,10.145v.014H1.359A.36.36,0,0,1,1,32.531V16H8.187v3.234h5.031V16Z" transform="translate(-0.641 -10.25)" fill="#e89a10"/>
  <path id="Path_46220" data-name="Path 46220" d="M51.1,25.811v-5A27.1,27.1,0,0,1,48.915,25.2,5.389,5.389,0,0,1,51.1,25.811Z" transform="translate(-31.336 -13.33)" fill="#c97700"/>
  <path id="Path_46221" data-name="Path 46221" d="M1.06,55.053a.356.356,0,0,0,.338.253h16.15v-.014a5.392,5.392,0,0,1-4.9-4.3A16.789,16.789,0,0,1,1.06,55.053Z" transform="translate(-0.679 -32.665)" fill="#c97700"/>
  <path id="Path_46222" data-name="Path 46222" d="M39.833,1.244l1.714,5.146H34.359L34,1h5.491A.364.364,0,0,1,39.833,1.244Z" transform="translate(-21.781 -0.641)" fill="#eaa22d"/>
  <path id="Path_46223" data-name="Path 46223" d="M26.031,16v3.234H21V16h5.031Z" transform="translate(-13.453 -10.25)" fill="#dad4d4"/>
  <path id="Path_46224" data-name="Path 46224" d="M28.936,17.262a9.189,9.189,0,0,1-3.4,2.781h3.4Z" transform="translate(-16.358 -11.058)" fill="#d3bebe"/>
  <path id="Path_46225" data-name="Path 46225" d="M30.156,1l.359,5.391H28V1Z" transform="translate(-17.937 -0.641)" fill="#eae8e8"/>
  <path id="Path_46226" data-name="Path 46226" d="M23.516,1V6.391H21L21.359,1Z" transform="translate(-13.453 -0.641)" fill="#f4f4f4"/>
  <path id="Path_46227" data-name="Path 46227" d="M8.547,1,8.187,6.391H1L2.714,1.244A.364.364,0,0,1,3.056,1Z" transform="translate(-0.641 -0.641)" fill="#eaa22d"/>
  <g id="Group_15939" data-name="Group 15939" transform="translate(0 0)">
    <path id="Path_46228" data-name="Path 46228" d="M8.672,49H4.359a.359.359,0,0,0,0,.719H8.672a.359.359,0,0,0,0-.719Z" transform="translate(-2.563 -31.391)" fill="#472b3c"/>
    <path id="Path_46229" data-name="Path 46229" d="M8.672,53H4.359a.359.359,0,0,0,0,.719H8.672a.359.359,0,0,0,0-.719Z" transform="translate(-2.563 -33.953)" fill="#472b3c"/>
    <path id="Path_46230" data-name="Path 46230" d="M8.672,57H4.359a.359.359,0,0,0,0,.719H8.672a.359.359,0,0,0,0-.719Z" transform="translate(-2.563 -36.516)" fill="#472b3c"/>
    <path id="Path_46231" data-name="Path 46231" d="M17.25,11.5a5.736,5.736,0,0,0-1.917.327.359.359,0,0,0,.239.677,5.038,5.038,0,1,1-1.006.488.36.36,0,1,0-.384-.608,5.748,5.748,0,0,0,.289,9.9H.719V6.109H7.188V8.984a.359.359,0,0,0,.359.359h5.031a.359.359,0,0,0,.359-.359V6.109h6.469v5.031a.359.359,0,0,0,.719,0V5.75a.356.356,0,0,0-.023-.112h0L18.392.492A.718.718,0,0,0,17.71,0H2.415a.717.717,0,0,0-.682.491L.019,5.636h0A.352.352,0,0,0,0,5.75V22.281A.719.719,0,0,0,.719,23h16.15a.34.34,0,0,0,.077-.015c.1.005.2.015.305.015a5.75,5.75,0,1,0,0-11.5ZM12.219,8.625H7.906V6.109h4.313Zm-1.8-3.234V.719h1.46l.312,4.672Zm8.845,0H12.914L12.6.719H17.71ZM2.415.719H7.522l-.046.7a.36.36,0,0,0,.335.382h.024a.36.36,0,0,0,.358-.336l.05-.742H9.7V5.391H7.931L8.1,2.9a.359.359,0,0,0-.717-.048l-.169,2.54H.858Z" transform="translate(0 0)" fill="#472b3c"/>
    <path id="Path_46232" data-name="Path 46232" d="M37.7,43.311a.359.359,0,0,0,.141.237l3.039,2.279a.358.358,0,0,0,.216.072.355.355,0,0,0,.055,0,.358.358,0,0,0,.237-.146l3.337-4.672a.359.359,0,0,0-.083-.5l-1.755-1.254a.359.359,0,0,0-.5.084l-1.84,2.576-.979-.734a.359.359,0,0,0-.5.072l-1.294,1.725a.36.36,0,0,0-.068.266Zm1.722-1.273.985.74a.359.359,0,0,0,.508-.079l1.845-2.583,1.17.836-2.914,4.08-2.457-1.843Z" transform="translate(-24.151 -25.148)" fill="#472b3c"/>
  </g>
</svg>
