<svg xmlns="http://www.w3.org/2000/svg" width="40.119" height="40.896" viewBox="0 0 40.119 40.896">
  <g id="Canceled" transform="translate(0 0)">
    <g id="Group" transform="translate(0 0)">
      <path id="Shape" d="M20.14,40.9h-.16l-.1-.053a2.234,2.234,0,0,0-.215-.1l-2.7-1.058-.009,0c-5.4-2.117-10.98-4.306-16.475-6.446A.628.628,0,0,1,0,32.522C.011,25.864.011,19.1.01,12.55V7.937l.108-.045.169-.07,4.74-1.874c3.8-1.5,7.729-3.056,11.6-4.589.768-.3,1.545-.621,2.3-.929l.005,0L19.98,0h.16l.115.054c.079.038.161.078.245.11l2.2.862C28.269,3.2,34.024,5.453,39.69,7.656a.566.566,0,0,1,.429.634c-.01,7.744-.01,15.937,0,24.351a.486.486,0,0,1-.366.544C34.5,35.234,29.138,37.335,24.131,39.3c-.893.351-1.8.715-2.673,1.067l-.007,0-1.31.526Zm18.537-30.89-.165.055c-.1.031-.178.058-.257.09l-3.541,1.4-.007,0c-4.44,1.751-9.031,3.562-13.55,5.336a.512.512,0,0,0-.387.571c.009,5.979.009,12.059.008,17.938V39.1l.144-.047c.1-.031.179-.058.26-.089l3.274-1.292.084-.033c4.5-1.776,9.157-3.613,13.739-5.411a.536.536,0,0,0,.4-.6c-.008-5.878-.008-11.854-.007-17.633v-3.99ZM1.446,9.987v3.477c0,5.965,0,12.133-.007,18.208a.487.487,0,0,0,.371.542c4.691,1.839,9.457,3.718,14.066,5.535l3.143,1.239c.065.026.134.046.206.068l.105.032c0-.044,0-.085.006-.122,0-.069.007-.128.007-.187V34.766c0-5.7,0-11.586.006-17.39a.41.41,0,0,0-.313-.458c-1.769-.69-3.566-1.4-5.3-2.084l-.015-.006-2.137-.843a1.433,1.433,0,0,0-.193-.055l-.136-.034v5.491l-.057.036-.057.036c-.044-.054-.086-.108-.129-.162a4.215,4.215,0,0,0-.328-.386.436.436,0,0,0-.255-.115.1.1,0,0,0-.045.009.478.478,0,0,1-.216.059.511.511,0,0,1-.389-.263.466.466,0,0,0-.38-.227.573.573,0,0,0-.2.042.228.228,0,0,1-.079.012c-.078,0-.175-.025-.2-.066a.579.579,0,0,0-.51-.378A.878.878,0,0,0,8,18.106V12.574l-2.295-.905ZM30.827,5.646a.977.977,0,0,0-.352.074C24.857,7.989,19.15,10.3,13.63,12.539l-.442.179c-.079.032-.156.07-.244.113l-.156.076.127.055c.07.03.124.054.18.076l1.7.672c1.606.634,3.264,1.288,4.893,1.94a.981.981,0,0,0,.368.077,1.041,1.041,0,0,0,.391-.083c4.308-1.706,8.685-3.433,12.918-5.1l.095-.037,4.334-1.711c.077-.031.152-.064.238-.1l.143-.064-.064-.044a.36.36,0,0,0-.066-.041l-1.163-.475c-1.93-.788-3.924-1.6-5.889-2.391a.449.449,0,0,0-.166-.028ZM20.071,1.6a1.163,1.163,0,0,0-.44.093C15.85,3.2,12.005,4.731,8.288,6.208L4.787,7.6l-1.68.671-.01,0L2.079,8.68l.168.074c.1.045.18.08.261.112l1.421.561.008,0c1.3.514,2.653,1.046,3.978,1.579a1.088,1.088,0,0,0,.41.086,1.158,1.158,0,0,0,.423-.088C12.8,9.427,16.92,7.827,20.9,6.28l.007,0,3.654-1.419c.485-.188.963-.376,1.47-.575l.017-.007.764-.3L26.631,3.9l0,0h0c-.093-.037-.166-.066-.24-.092l-1.575-.565c-1.427-.511-2.9-1.039-4.347-1.568A1.139,1.139,0,0,0,20.071,1.6Z" fill="#fff"/>
    </g>
  </g>
</svg>
