<svg xmlns="http://www.w3.org/2000/svg" width="48.535" height="36.028" viewBox="0 0 48.535 36.028">
  <g id="deliverytruck" transform="translate(0 0)">
    <g id="Group" transform="translate(0 0)">
      <path id="Shape" d="M47.269,36.028h0c-7.632,0-15.371-.006-23-.006s-15.37,0-23,.006A1.163,1.163,0,0,1,0,35.264V34.79a1.318,1.318,0,0,1,1.3-.673h.045c.665.01,1.392.014,2.287.014l1.461,0,1.461,0h.6A5.925,5.925,0,0,1,5.68,30.334H3a3.031,3.031,0,0,1-2-.694,3.613,3.613,0,0,1-1-1.677V2.37C.8.421,1.434,0,3.581,0H29.586A2.907,2.907,0,0,1,32.8,3.231q0,1.911,0,3.821V9.48c.76,0,1.525,0,2.264,0,.724,0,1.473,0,2.211,0,1.2,0,2.173-.005,3.077-.017h.065a3.085,3.085,0,0,1,3.023,1.9c1.187,2.423,2.414,4.877,3.6,7.251l0,.008q.746,1.491,1.49,2.982v6.351a3.033,3.033,0,0,1-1.9,2.2,5.941,5.941,0,0,1-1.445,3.958c.24,0,.47,0,.693,0s.414,0,.615,0c.3,0,.542,0,.769-.012l.089,0a1.118,1.118,0,0,1,1.175.765v.379A1.174,1.174,0,0,1,47.269,36.028Zm-6.346-9.482a3.811,3.811,0,0,0-3.761,3.727,3.707,3.707,0,0,0,1.059,2.668,3.8,3.8,0,0,0,2.692,1.182h.057a3.83,3.83,0,0,0,3.767-3.73,3.786,3.786,0,0,0-3.7-3.845Zm-29.549,0h0a3.815,3.815,0,0,0-3.786,3.8,3.808,3.808,0,0,0,3.782,3.772h.011a3.806,3.806,0,0,0,3.783-3.76,3.818,3.818,0,0,0-3.783-3.817h-.008Zm5.715,3.819a6.071,6.071,0,0,1-1.422,3.718H36.588c-.1-.182-.206-.363-.309-.538a8.081,8.081,0,0,1-.63-1.221,8.566,8.566,0,0,1-.348-1.35c-.04-.2-.082-.407-.129-.608H17.088Zm16.839-1.942c.262,0,.477.009.677.028.106.01.2.015.288.015a.944.944,0,0,0,1.064-.841A.227.227,0,0,1,36,27.541c.009-.013.019-.025.026-.038A5.475,5.475,0,0,1,40.9,24.67c.067,0,.135,0,.2,0A5.462,5.462,0,0,1,46.074,27.9a2.008,2.008,0,0,0,.131.21c.034.05.073.108.119.18.043-.1.09-.191.135-.278a1.063,1.063,0,0,0,.159-.443c.017-1.218.015-2.412.014-3.675q0-.57,0-1.148H35.9c-.868,0-1.207-.339-1.208-1.207,0-2.342,0-4.717,0-7.059,0-.871.338-1.21,1.2-1.212l2.648,0h3.706c-.066-.134-.13-.26-.192-.382-.129-.253-.25-.491-.354-.733a1.2,1.2,0,0,0-1.241-.789h-.019c-.955.008-1.969.012-3.286.012H33.245c-.094,0-.186.007-.284.014l-.132.009V28.439h.045c.175,0,.348,0,.516-.008S33.749,28.422,33.927,28.422Zm-29.353.011c.389,0,.705,0,.994.013h.04a.566.566,0,0,0,.589-.4,5.935,5.935,0,0,1,2.069-2.5,5.541,5.541,0,0,1,3.091-.871h.021a5.542,5.542,0,0,1,3.084.856,5.879,5.879,0,0,1,2.071,2.484.645.645,0,0,0,.7.432h.009c2.531-.007,5.007-.008,7.094-.008H30.9V19.687q0-8.229,0-16.459c0-1.033-.3-1.331-1.324-1.331H3.232C2.2,1.9,1.9,2.192,1.9,3.215v17.64h.85l.807,0c.406,0,.74,0,1.05.006A.965.965,0,0,1,5.683,21.9c.015,1.2.014,2.416,0,3.6a.959.959,0,0,1-1.044,1.034c-.2.005-.41.007-.671.007l-.468,0H1.9c0,.1,0,.187,0,.27,0,.153,0,.284,0,.415.007.866.346,1.206,1.208,1.21h.155l.692,0h0ZM1.93,22.782v1.843H3.765V22.782ZM38.9,15.167H36.624v5.666h9.359c0-.024,0-.046-.006-.066a.247.247,0,0,0-.017-.092l-.247-.5c-.783-1.572-1.593-3.2-2.4-4.79a.484.484,0,0,0-.355-.214C41.557,15.168,40.179,15.167,38.9,15.167Z" fill="#aab2b7"/>
      <path id="Shape-2" data-name="Shape" d="M6.865,1.9c-1.911,0-3.822,0-5.734,0C.3,1.892-.191,1.3.07.626A1,1,0,0,1,1.132,0Q3.644,0,6.155,0h6.35a3.619,3.619,0,0,1,.426.01.963.963,0,0,1,.895.939.941.941,0,0,1-.9.932c-.44.034-.884.014-1.326.014Z" transform="translate(13.278 5.687)" fill="#aab2b7"/>
      <path id="Shape-3" data-name="Shape" d="M5.014,1.9c-1.311,0-2.622.009-3.933,0C.272,1.885-.206,1.242.086.579a.926.926,0,0,1,.9-.574C3.676,0,6.362,0,9.047.008a.947.947,0,0,1,.987.943.965.965,0,0,1-1.039.941c-1.327.012-2.654,0-3.98,0Z" transform="translate(17.07 9.479)" fill="#aab2b7"/>
      <path id="Shape-4" data-name="Shape" d="M1.881.943a.974.974,0,0,1-.943.938A.973.973,0,0,1,0,.938.974.974,0,0,1,.943,0a.976.976,0,0,1,.938.943Z" transform="translate(9.487 5.695)" fill="#aab2b7"/>
      <path id="Shape-5" data-name="Shape" d="M3.785,1.881a1.914,1.914,0,0,1-1.894,1.9A1.911,1.911,0,0,1,0,1.927,1.906,1.906,0,0,1,1.869,0,1.91,1.91,0,0,1,3.785,1.881Z" transform="translate(9.483 28.442)" fill="#aab2b7"/>
      <path id="Shape-6" data-name="Shape" d="M3.785,1.881a1.911,1.911,0,0,1-1.893,1.9A1.912,1.912,0,0,1,0,1.927,1.907,1.907,0,0,1,1.869,0,1.907,1.907,0,0,1,3.785,1.881Z" transform="translate(39.057 28.442)" fill="#aab2b7"/>
    </g>
  </g>
</svg>
