<svg xmlns="http://www.w3.org/2000/svg" width="42.38" height="39.072" viewBox="0 0 42.38 39.072">
  <g id="order" transform="translate(0 0)">
    <g id="Group" transform="translate(0 0)">
      <path id="Shape" d="M38.394,39.072h-.015c-1.341-.008-2.781-.011-4.669-.011H29.026c-.067,0-.118,0-.165-.006a.824.824,0,0,1-.01-1.644,1.778,1.778,0,0,1,.186-.008h8.78V10.616H28.909v.451q0,.9,0,1.81v.039c0,1.643,0,3.343,0,5.02a.9.9,0,0,1-.495.958.864.864,0,0,1-.341.075,1.029,1.029,0,0,1-.729-.379c-.662-.675-1.341-1.354-2-2.01l-.01-.01-.591-.591c-.064-.064-.131-.126-.2-.191l-.115-.1-2.4,2.4-.011.011-.184.185c-.141.141-.286.287-.431.429a.836.836,0,0,1-.592.266.9.9,0,0,1-.357-.079.814.814,0,0,1-.49-.836c0-1.03,0-2.077,0-3.09v0q0-.688,0-1.375v-3h-.064c-.192,0-.384,0-.57,0-.206,0-.417.005-.623.005-.329,0-.6-.007-.848-.022l-.1,0a.744.744,0,0,0-.74.5,7.759,7.759,0,0,1-2.436,2.846,8.285,8.285,0,0,1-3.53,1.347V37.407H21.347a1.6,1.6,0,0,1,.226.013.823.823,0,0,1,0,1.631,1.416,1.416,0,0,1-.212.013H10.486c-.851,0-1.11-.26-1.111-1.113V27.63H1.025a1.863,1.863,0,0,1-.34-.023A.8.8,0,0,1,0,26.714a.779.779,0,0,1,.8-.734c.309-.006.648-.008,1.069-.008H9.348v-10.7a7.666,7.666,0,0,1-5.66-3.613A7.361,7.361,0,0,1,2.7,6.137,7.639,7.639,0,0,1,5.372,1.7,7.719,7.719,0,0,1,10.215,0,8.024,8.024,0,0,1,11.4.088a7.649,7.649,0,0,1,4.8,2.8,7.823,7.823,0,0,1,1.582,6.049h8.744c3.508,0,7.661,0,11.86-.009a1.122,1.122,0,0,1,1.125.588V38.483A1.124,1.124,0,0,1,38.394,39.072ZM24.44,13.66a.971.971,0,0,1,.665.33c.444.431.805.794,1.137,1.143.211.223.416.458.614.685q.137.157.275.314l.059-.066.031-.035V10.61H21.644V16.1l.676-.672c.5-.5.97-.964,1.451-1.434A.973.973,0,0,1,24.44,13.66ZM10.2,1.649a6,6,0,0,0,0,12,6,6,0,0,0,0-12Z" transform="translate(2.876)" fill="#fff"/>
      <path id="Shape-2" data-name="Shape" d="M0,.6A1.044,1.044,0,0,1,1.069,0c2.52.018,5.04.008,7.561.01a1.8,1.8,0,0,1,.49.042.816.816,0,0,1,.558.866.8.8,0,0,1-.774.73C6.19,1.663,3.477,1.67.765,1.63c-.258,0-.51-.349-.765-.536Q0,.847,0,.6Z" transform="translate(0 31.263)" fill="#fff"/>
      <path id="Shape-3" data-name="Shape" d="M0,.6A1,1,0,0,1,1.066,0c.4.029.8,0,1.195.01a.792.792,0,0,1,.812.762.789.789,0,0,1-.746.87A6.619,6.619,0,0,1,.766,1.631C.488,1.584.254,1.283,0,1.1V.6Z" transform="translate(0 20.666)" fill="#fff"/>
      <path id="Shape-4" data-name="Shape" d="M5.141,5.3c-1.374,0-2.766,0-4.138,0a.869.869,0,0,1-1-.987C0,3.1,0,2.005.007.958.013.3.313,0,.98,0L2.771,0H9.256c.723,0,1.006.281,1.01,1,.007,1.175.007,2.258,0,3.31,0,.683-.308.988-.986.989C7.907,5.3,6.514,5.3,5.141,5.3ZM1.684,1.678V3.618h6.9V1.678Z" transform="translate(26.515 23.656)" fill="#fff"/>
      <path id="Shape-5" data-name="Shape" d="M3.883,0c.993,0,1.986,0,2.98,0,.58,0,.93.319.928.822a.828.828,0,0,1-.933.829q-2.959.01-5.918,0A.857.857,0,0,1,0,.818.842.842,0,0,1,.945,0C1.924,0,2.9,0,3.883,0Z" transform="translate(28.984 31.27)" fill="#fff"/>
      <path id="Shape-6" data-name="Shape" d="M2.092,0c.4,0,.8-.009,1.2,0a.809.809,0,0,1,.829.753.8.8,0,0,1-.746.877c-.865.035-1.732.033-2.6,0A.809.809,0,0,1,0,.782.823.823,0,0,1,.854.005c.412-.01.825,0,1.237,0Z" transform="translate(5.563 20.675)" fill="#fff"/>
      <path id="Shape-7" data-name="Shape" d="M1.649.813a.835.835,0,0,1-.834.836A.835.835,0,0,1,0,.836.833.833,0,0,1,.834,0a.835.835,0,0,1,.815.813Z" transform="translate(27.235 37.41)" fill="#fff"/>
      <path id="Shape-8" data-name="Shape" d="M1.955,2.006C2.562,1.391,3.079.858,3.606.335A.833.833,0,1,1,4.773,1.5Q3.713,2.57,2.641,3.63a.833.833,0,0,1-1.3.007Q.8,3.122.287,2.585A.825.825,0,0,1,.246,1.373a.837.837,0,0,1,1.215.055c.167.161.3.354.494.579Z" transform="translate(10.995 5.617)" fill="#fff"/>
    </g>
  </g>
</svg>
