<svg xmlns="http://www.w3.org/2000/svg" width="39.147" height="39.147" viewBox="0 0 39.147 39.147">
  <g id="Returned" transform="translate(0 0)">
    <path id="Shape" d="M6.193,39.147H.841l-.268-.268L0,38.306V23.932a1.4,1.4,0,0,1,1.412-.853l.128,0c.32.014.663.02,1.078.02.287,0,.578,0,.859-.006.254,0,.517-.005.775-.006.074,0,.147-.006.224-.013l.112-.009v-.5q0-1.414,0-2.827V19.6c0-3.7,0-7.518-.006-11.28A2.019,2.019,0,0,1,4.94,7.144c.542-.807,1.09-1.629,1.62-2.425C7.391,3.473,8.249,2.185,9.1.928A3.79,3.79,0,0,1,9.714.283c.1-.092.206-.186.3-.283H31.425c.1.1.2.191.3.282a3.829,3.829,0,0,1,.61.646c.828,1.217,1.658,2.462,2.46,3.666.551.827,1.121,1.682,1.685,2.52a2.138,2.138,0,0,1,.377,1.251c0,2.586-.005,5.215-.006,7.758v.007c0,2.228,0,4.53,0,6.795a.46.46,0,0,0,.319.507,3.161,3.161,0,0,1,1.639,1.635,5.612,5.612,0,0,1,.243.695c.031.1.063.209.1.312v.994c-.078.168-.149.345-.218.517a4.94,4.94,0,0,1-.54,1.08c-1.473,2.013-3,4.037-4.475,6l-.016.022-.88,1.168a7.653,7.653,0,0,1-3.489,2.687,13.792,13.792,0,0,1-1.588.438c-.237.055-.482.112-.721.174H14.68l-.043-.02a.249.249,0,0,0-.095-.033A27.432,27.432,0,0,1,8.521,38.03a.356.356,0,0,0-.095-.012.318.318,0,0,0-.213.065,3.986,3.986,0,0,1-2.021,1.063Zm-3.28-2.294.725,0h.046l.714,0c.585,0,1.03-.006,1.446-.02a1.1,1.1,0,0,0,1.034-1.163c.008-.516.006-1.041,0-1.548V34.12q0-.311,0-.623,0-1.02,0-2.039V31.44c0-1.554,0-3.161,0-4.742a1.172,1.172,0,0,0-1.322-1.313H2.309V36.853h.6Zm18.665,0c1.736,0,3.276,0,4.709.006h.02a5.914,5.914,0,0,0,4.965-2.495c1.138-1.525,2.3-3.071,3.419-4.566l.007-.009,1.775-2.368a2.692,2.692,0,0,0,.248-.385,1.1,1.1,0,0,0-.288-1.378,1.141,1.141,0,0,0-.728-.268,1.114,1.114,0,0,0-.683.236,2.86,2.86,0,0,0-.333.322l-.022.024-.918.983-.026.028-.005.006c-1.228,1.315-2.5,2.675-3.74,4.019a3.668,3.668,0,0,1-2.763,1.259c-1.351,0-2.747,0-4.269,0l-4.561,0a1.306,1.306,0,0,1-.939-.358,1.091,1.091,0,0,1-.313-.795A1.164,1.164,0,0,1,18.4,29.973l1.33,0h4.682l2.015,0h0a1.151,1.151,0,0,0,1.155-.712,1.09,1.09,0,0,0-.082-1.044,1.215,1.215,0,0,0-1.02-.535l-.933-.008c-.614-.006-1.248-.012-1.871-.012-.751,0-1.379.009-1.974.028-.08,0-.16,0-.239,0a6.338,6.338,0,0,1-4.187-1.542,5.226,5.226,0,0,0-3.416-1.23,6.7,6.7,0,0,0-1.293.131A6.663,6.663,0,0,0,9.443,26.8a.746.746,0,0,0-.283.615c.007,2.071.005,4.176,0,6.212,0,.607,0,1.212,0,1.816v.38A25.051,25.051,0,0,0,16.2,36.854h.029C18.039,36.852,19.808,36.85,21.578,36.85Zm2-11.474c.564,0,1.137,0,1.692.005l1.156,0A3.4,3.4,0,0,1,29.291,26.8a5.051,5.051,0,0,1,.384.644c.056.105.114.214.175.322l.116-.122c.071-.075.14-.146.207-.219.278-.3.559-.6.831-.9.672-.727,1.366-1.479,2.069-2.2a5.561,5.561,0,0,1,1.177-.89.506.506,0,0,0,.314-.513c-.006-3.6-.006-7.26-.005-10.8V9.2H25.307v.434q0,.952,0,1.9v.007c0,1.791,0,3.644,0,5.466a1.288,1.288,0,0,1-.6,1.268,1.072,1.072,0,0,1-.529.145,1.58,1.58,0,0,1-.892-.344c-.353-.242-.715-.482-1.065-.714-.4-.266-.816-.54-1.218-.819a.42.42,0,0,0-.567,0c-.8.553-1.6,1.079-2.413,1.613a1.427,1.427,0,0,1-.778.263,1.068,1.068,0,0,1-.731-.3,1.283,1.283,0,0,1-.384-1.039c0-1.919,0-3.87,0-5.758V9.193H6.881V19.52q0,.36,0,.719c0,.9,0,1.839.007,2.759a.469.469,0,0,0,.138.342c.394.286.8.558,1.224.847l.405.274.059-.045c.067-.052.169-.13.273-.206a7.868,7.868,0,0,1,4.43-1.566c.121,0,.242-.007.362-.007a7.746,7.746,0,0,1,5.084,1.835,3.826,3.826,0,0,0,2.543.922h.09C22.116,25.381,22.777,25.376,23.578,25.376ZM20.722,13.841a1.546,1.546,0,0,1,.849.334c.338.223.675.448,1.026.682l.395.263V9.19H18.456v5.925l.53-.353.873-.58A1.575,1.575,0,0,1,20.722,13.841ZM18.447,2.324v4.54h4.54V2.324ZM12.921,2.3c-.648,0-1.232,0-1.783,0a.394.394,0,0,0-.284.131c-.8,1.19-1.585,2.363-2.413,3.605L7.9,6.853h8.218V2.338l-.036-.019A.108.108,0,0,0,16.03,2.3h-.282C14.822,2.3,13.863,2.3,12.921,2.3Zm12.4,0V6.848H33.54l-.569-.853c-.812-1.219-1.578-2.37-2.37-3.535a.52.52,0,0,0-.381-.159c-.721-.007-1.445-.008-2-.008h-2.9Z" transform="translate(0 0)" fill="#fff"/>
    <path id="Shape-2" data-name="Shape" d="M3.468,0c.713,0,1.427,0,2.14,0A1.161,1.161,0,0,1,6.876,1.14,1.155,1.155,0,0,1,5.625,2.294q-2.178.008-4.357,0A1.159,1.159,0,0,1,0,1.157,1.156,1.156,0,0,1,1.251,0C1.99,0,2.729,0,3.468,0Z" transform="translate(25.387 20.795)" fill="#fff"/>
  </g>
</svg>
