<svg xmlns="http://www.w3.org/2000/svg" width="55.63" height="38.21" viewBox="0 0 55.63 38.21">
  <g id="svgexport-10" transform="translate(0 -80.164)">
    <path id="Path_45291" data-name="Path 45291" d="M422.089,384.777a.815.815,0,1,0,0,1.63h.009a.815.815,0,0,0-.009-1.63Z" transform="translate(-375.502 -271.517)" fill="#fff"/>
    <path id="Path_45292" data-name="Path 45292" d="M173.589,384.777a.815.815,0,1,0,0,1.63h.009a.815.815,0,1,0-.009-1.63Z" transform="translate(-154.002 -271.517)" fill="#fff"/>
    <path id="Path_45293" data-name="Path 45293" d="M138.994,189.938l-2.606-1.863-.038-7.88A2.061,2.061,0,0,0,134.2,178.1h-6.326a1.5,1.5,0,0,0-.272-1.179,1.475,1.475,0,0,0-1.186-.563h-5.679a.815.815,0,0,0,0,1.63h5.488L120.594,199H108.218a3.32,3.32,0,0,0-3.485-3.484,5.671,5.671,0,0,0-5,3.484H96.152l1.592-5.942a.815.815,0,0,0-1.574-.422l-1.634,6.1a1.522,1.522,0,0,0,.239,1.333,1.475,1.475,0,0,0,1.186.563h3.42a3.32,3.32,0,0,0,3.485,3.484,5.671,5.671,0,0,0,5-3.484h18.516a3.32,3.32,0,0,0,3.485,3.484,5.671,5.671,0,0,0,5-3.484h.289a3.255,3.255,0,0,0,3-2.346l1.6-5.981A2.143,2.143,0,0,0,138.994,189.938Zm-32.5,9.669a4.077,4.077,0,0,1-3.63,2.88,1.841,1.841,0,0,1-1.512-.659,2.034,2.034,0,0,1-.252-1.8,4.077,4.077,0,0,1,3.63-2.88,1.841,1.841,0,0,1,1.512.659A2.035,2.035,0,0,1,106.5,199.607Zm28.26-11.926h-5.278a.534.534,0,0,1-.433-.17.635.635,0,0,1-.055-.546l.7-2.613a1.626,1.626,0,0,1,1.421-1.138h3.623Zm-1.26,11.926a4.077,4.077,0,0,1-3.63,2.88,1.841,1.841,0,0,1-1.512-.659,2.034,2.034,0,0,1-.252-1.8,4.077,4.077,0,0,1,3.63-2.88,1.841,1.841,0,0,1,1.512.659A2.035,2.035,0,0,1,133.5,199.607Zm3.08-1.742A1.639,1.639,0,0,1,135.218,199a3.32,3.32,0,0,0-3.485-3.48,5.671,5.671,0,0,0-5,3.484h-4.453l1.43-5.338h9.826a.815.815,0,0,0,0-1.63h-9.39l3.3-12.306H134.2c.237,0,.52.082.522.473l.007,1.381h-3.615a3.255,3.255,0,0,0-3,2.346l-.7,2.613a2.237,2.237,0,0,0,.337,1.96,2.141,2.141,0,0,0,1.725.808h5.835l2.732,1.954c.232.166.16.516.132.62l-.041.152h-1.117a.815.815,0,1,0,0,1.63h.68Z" transform="translate(-84.213 -85.742)" fill="#fff"/>
    <path id="Path_45294" data-name="Path 45294" d="M85.153,106.181A13.008,13.008,0,1,0,72.145,93.172a13.023,13.023,0,0,0,13.008,13.008Zm0-24.387A11.379,11.379,0,1,1,73.775,93.172,11.391,11.391,0,0,1,85.153,81.794Z" transform="translate(-64.306)" fill="#fff"/>
    <path id="Path_45295" data-name="Path 45295" d="M153.121,147.488a.812.812,0,0,0,.576-.239l1.771-1.771a2.555,2.555,0,0,0,3.426-3.426l4.384-4.384a.815.815,0,0,0-1.152-1.152l-4.384,4.384a2.555,2.555,0,0,0-3.426,3.426l-1.771,1.771a.815.815,0,0,0,.576,1.391Zm3.484-5.226a.927.927,0,1,1-.927.927A.928.928,0,0,1,156.6,142.262Z" transform="translate(-135.758 -50.017)" fill="#fff"/>
    <path id="Path_45296" data-name="Path 45296" d="M185.186,114.729a.815.815,0,0,0,.815-.815v-.871a.815.815,0,1,0-1.63,0v.871A.815.815,0,0,0,185.186,114.729Z" transform="translate(-164.339 -28.58)" fill="#fff"/>
    <path id="Path_45297" data-name="Path 45297" d="M185.186,264.535a.815.815,0,0,0-.815.815v.871a.815.815,0,0,0,1.63,0v-.871A.815.815,0,0,0,185.186,264.535Z" transform="translate(-164.339 -164.339)" fill="#fff"/>
    <path id="Path_45298" data-name="Path 45298" d="M257.331,194.02h.871a.815.815,0,0,0,0-1.63h-.871a.815.815,0,1,0,0,1.63Z" transform="translate(-228.645 -100.033)" fill="#fff"/>
    <path id="Path_45299" data-name="Path 45299" d="M106.711,193.2a.815.815,0,0,0-.815-.815h-.871a.815.815,0,1,0,0,1.63h.871A.815.815,0,0,0,106.711,193.2Z" transform="translate(-92.887 -100.033)" fill="#fff"/>
    <path id="Path_45300" data-name="Path 45300" d="M9.524,296.6H.815a.815.815,0,1,0,0,1.63h8.71a.815.815,0,1,0,0-1.63Z" transform="translate(0 -192.919)" fill="#fff"/>
    <path id="Path_45301" data-name="Path 45301" d="M30.089,328.664H24.863a.815.815,0,1,0,0,1.63h5.226a.815.815,0,1,0,0-1.63Z" transform="translate(-21.435 -221.5)" fill="#fff"/>
    <path id="Path_45302" data-name="Path 45302" d="M50.654,360.728H48.912a.815.815,0,1,0,0,1.63h1.742a.815.815,0,1,0,0-1.63Z" transform="translate(-42.871 -250.08)" fill="#fff"/>
  </g>
</svg>
