<svg xmlns="http://www.w3.org/2000/svg" width="35" height="35" viewBox="0 0 35 35">
  <g id="AppIcon" transform="translate(-60 -343.704)">
    <rect id="Rectangle_1179" data-name="Rectangle 1179" width="35" height="35" rx="6" transform="translate(60 343.704)" fill="#ff002a"/>
    <g id="Group_9358" data-name="Group 9358" transform="translate(66.3 349.004)">
      <g id="Group_9356" data-name="Group 9356" transform="translate(0 12.693)">
        <path id="Path_43706" data-name="Path 43706" d="M130.194,336.274a2.3,2.3,0,0,1-.661-1.75V327.51a2.272,2.272,0,0,1,.636-1.707,2.437,2.437,0,0,1,1.775-.62h2.344a6.921,6.921,0,0,1,3.239.711,5,5,0,0,1,2.1,2.034,7.039,7.039,0,0,1,.008,6.253,4.892,4.892,0,0,1-2.1,2.017,7.039,7.039,0,0,1-3.248.7h-2.244A2.579,2.579,0,0,1,130.194,336.274Zm3.926-.862a4.334,4.334,0,0,0,3.223-1.1,5.458,5.458,0,0,0-.008-6.529,4.3,4.3,0,0,0-3.214-1.114h-1.909a.709.709,0,0,0-.569.235.946.946,0,0,0-.2.636v7a.945.945,0,0,0,.2.636.708.708,0,0,0,.569.235Z" transform="translate(-129.533 -325.183)" fill="#fff"/>
      </g>
      <path id="Path_43715" data-name="Path 43715" d="M139.045,263.224a.608.608,0,0,0-.608.608v6.885a3.4,3.4,0,0,1-.326,1.712,1.062,1.062,0,0,1-.988.476,1.082,1.082,0,0,1-.8-.323,2.718,2.718,0,0,1-.524-1.865v-6.885a.608.608,0,0,0-.608-.608h-.577a.608.608,0,0,0-.608.608v6.885a3.05,3.05,0,0,1-.377,1.651,1.191,1.191,0,0,1-1.949.061,3.4,3.4,0,0,1-.326-1.712v-6.885a.608.608,0,0,0-.608-.608h-.6a.608.608,0,0,0-.608.608v6.885a5.03,5.03,0,0,0,.813,3.025,2.694,2.694,0,0,0,2.282,1.136,2.262,2.262,0,0,0,1.418-.521,3.458,3.458,0,0,0,.838-.984,3.37,3.37,0,0,0,.838.992,2.308,2.308,0,0,0,1.447.512,2.675,2.675,0,0,0,2.283-1.138,5.087,5.087,0,0,0,.8-3.024v-6.885a.608.608,0,0,0-.608-.608Z" transform="translate(-129.533 -263.224)" fill="#fff"/>
      <path id="Path_43714" data-name="Path 43714" d="M198.143,325.81a2.579,2.579,0,0,0-1.85-.628h-4.739a2.437,2.437,0,0,0-1.775.62,2.272,2.272,0,0,0-.636,1.707v7.015a2.3,2.3,0,0,0,.661,1.75,2.579,2.579,0,0,0,1.85.628h4.739a2.437,2.437,0,0,0,1.775-.619,2.273,2.273,0,0,0,.636-1.708V327.56A2.3,2.3,0,0,0,198.143,325.81ZM196.369,335h-4.7a.626.626,0,0,1-.626-.626v-6.658a.626.626,0,0,1,.626-.626h4.7a.626.626,0,0,1,.626.626v6.658A.626.626,0,0,1,196.369,335Z" transform="translate(-176.388 -312.49)" fill="#fff"/>
      <path id="Path_43713" data-name="Path 43713" d="M191.045,265.755a.626.626,0,0,1,.626-.626h4.7a.626.626,0,0,1,.626.626v8.316a.659.659,0,0,0,.659.659h.492a.659.659,0,0,0,.659-.659V265.6a2.3,2.3,0,0,0-.661-1.75,2.579,2.579,0,0,0-1.85-.628h-4.739a2.437,2.437,0,0,0-1.775.619,2.273,2.273,0,0,0-.636,1.708v8.52a.659.659,0,0,0,.659.659h.583a.659.659,0,0,0,.659-.659Z" transform="translate(-176.388 -263.224)" fill="#fff"/>
    </g>
  </g>
</svg>
